<?xml version="1.0" encoding="UTF-8" standalone="no"?>
<!-- Created using Krita: https://krita.org -->

<svg
   width="100"
   height="100"
   viewBox="0 0 74.999999 75"
   version="1.1"
   id="svg1"
   sodipodi:docname="Bug.svg"
   inkscape:version="1.3.2 (091e20ef0f, 2023-11-25)"
   xmlns:inkscape="http://www.inkscape.org/namespaces/inkscape"
   xmlns:sodipodi="http://sodipodi.sourceforge.net/DTD/sodipodi-0.dtd"
   xmlns="http://www.w3.org/2000/svg"
   xmlns:svg="http://www.w3.org/2000/svg">
  <sodipodi:namedview
     id="namedview1"
     pagecolor="#7f7f7f"
     bordercolor="#000000"
     borderopacity="0.25"
     inkscape:showpageshadow="2"
     inkscape:pageopacity="0.0"
     inkscape:pagecheckerboard="0"
     inkscape:deskcolor="#d1d1d1"
     inkscape:document-units="pt"
     inkscape:zoom="5.2541667"
     inkscape:cx="-4.4726408"
     inkscape:cy="46.153846"
     inkscape:window-width="1920"
     inkscape:window-height="1010"
     inkscape:window-x="0"
     inkscape:window-y="1080"
     inkscape:window-maximized="1"
     inkscape:current-layer="svg1" />
  <defs
     id="defs1" />
  <path
     id="shape0"
     fill="#ffffff"
     fill-rule="evenodd"
     d="m 56.138618,51.374536 -0.01089,-0.559984 -0.03159,-0.554536 -0.05338,-0.550179 -0.07408,-0.543642 -0.09478,-0.539284 -0.113304,-0.532747 -0.134004,-0.52621 -0.153614,-0.520763 -0.172135,-0.513137 -0.190656,-0.505511 -0.209177,-0.498974 -0.226608,-0.490258 -0.24404,-0.482632 -0.26149,-0.475005 -0.278902,-0.465201 -0.295245,-0.457574 -0.310496,-0.44668 -0.326839,-0.437964 -0.343181,-0.428158 -0.357344,-0.417265 -0.372596,-0.407458 -0.386759,-0.396565 -0.400922,-0.38567 -0.413996,-0.373685 -0.428159,-0.362791 -0.441232,-0.349718 -0.454306,-0.337733 -0.46629,-0.325749 -0.478274,-0.312676 -0.489169,-0.298513 -0.501152,-0.286529 -0.512048,-0.271276 -0.522942,-0.258202 -0.532747,-0.24295 -0.543642,-0.228788 -0.552357,-0.213534 -0.562163,-0.198282 -0.569789,-0.181941 -0.579594,-0.166687 -0.58722,-0.150346 -0.595936,-0.134004 -0.602473,-0.116573 -0.610099,-0.10023 -0.616636,-0.0828 -0.623172,-0.06428 -0.62862,-0.04685 -0.635157,-0.02724 -0.640604,-0.0098 -0.640604,0.0098 -0.635156,0.02724 -0.62862,0.04685 -0.623173,0.06428 -0.616636,0.0828 -0.610099,0.10023 -0.602472,0.116573 -0.595936,0.134004 -0.587221,0.150346 -0.579594,0.166687 -0.569789,0.181941 -0.562162,0.198282 -0.552358,0.213534 -0.543642,0.228788 -0.532747,0.24295 -0.522942,0.258202 -0.512047,0.271276 -0.501153,0.286529 -0.489169,0.298513 -0.478274,0.312676 -0.46629,0.325749 -0.454306,0.337733 -0.441232,0.349718 -0.428159,0.362791 -0.413995,0.373685 -0.400923,0.38567 -0.386759,0.396565 -0.372596,0.407458 -0.357344,0.417265 -0.34318,0.428158 -0.326839,0.437964 -0.310497,0.44668 -0.295244,0.457574 -0.278903,0.465201 -0.261471,0.475005 -0.244039,0.482632 -0.226609,0.490258 -0.209176,0.498974 -0.190656,0.505511 -0.172135,0.513137 -0.153615,0.520763 -0.134003,0.52621 -0.113305,0.532747 -0.09478,0.539284 -0.07408,0.543642 -0.05338,0.550179 -0.03159,0.554536 -0.0109,0.559984 0.0109,0.559984 0.03159,0.554536 0.05338,0.550179 0.07408,0.543641 0.09478,0.539284 0.113305,0.532748 0.134003,0.52621 0.153615,0.520763 0.172135,0.513137 0.190656,0.50551 0.209176,0.498974 0.226609,0.490258 0.244039,0.482632 0.261471,0.475006 0.278903,0.465201 0.295244,0.457574 0.310497,0.446679 0.326839,0.437964 0.34318,0.428159 0.357344,0.417264 0.372596,0.407459 0.386759,0.396565 0.400923,0.385669 0.413995,0.373686 0.04903,0.0414 -0.0207,0.09587 -0.07408,0.416175 -0.06101,0.410727 -0.04794,0.407459 -0.03486,0.402012 -0.0207,0.397654 -0.0087,0.393296 0.0054,0.388938 0.01852,0.383491 0.03159,0.379133 0.04467,0.375864 0.05774,0.369328 0.07082,0.366059 0.175403,0.684183 0.216803,0.630799 0.257113,0.578504 0.296334,0.530569 0.331197,0.48481 0.367148,0.442322 0.398744,0.403101 0.428159,0.367149 0.457574,0.333376 0.483721,0.30287 0.50769,0.275634 0.530568,0.251666 0.550178,0.229877 -0.215713,-0.399833 -0.177582,-0.40528 -0.140541,-0.411817 -0.10132,-0.418354 -0.06319,-0.4238 -0.02506,-0.429249 0.01307,-0.434695 0.05229,-0.441233 0.08934,-0.447769 0.127467,-0.453216 0.143809,-0.415085 0.16342,-0.418354 0.18194,-0.420532 0.20155,-0.422712 0.221161,-0.42598 0.240772,-0.427069 0.06646,-0.110036 0.134004,0.0512 0.562162,0.198282 0.569789,0.18194 0.579594,0.166688 0.587221,0.150346 0.595936,0.134004 0.602472,0.116572 0.610099,0.100231 0.616636,0.0828 0.623173,0.06428 0.62862,0.04685 0.635156,0.02724 0.640604,0.0098 0.640604,-0.0098 0.635157,-0.02724 0.62862,-0.04685 0.623172,-0.06428 0.616636,-0.0828 0.610099,-0.100231 0.602473,-0.116572 0.595936,-0.134004 0.58722,-0.150346 0.579594,-0.166688 0.569789,-0.18194 0.562163,-0.198282 0.489168,-0.188477 0.08716,0.143809 0.239682,0.428159 0.222251,0.42489 0.20155,0.423801 0.18194,0.420533 0.16342,0.417264 0.142719,0.416174 0.128557,0.453217 0.08934,0.44668 0.0512,0.441232 0.01307,0.435785 -0.02397,0.429248 -0.06428,0.423801 -0.10132,0.417264 -0.139452,0.411817 -0.177582,0.40637 -0.216803,0.399832 0.551268,-0.229876 0.529479,-0.251666 0.508779,-0.275634 0.483721,-0.30396 0.456485,-0.333376 0.429248,-0.367149 0.398743,-0.403101 0.36606,-0.442322 0.332286,-0.48481 0.296334,-0.530569 0.257113,-0.578504 0.216803,-0.62971 0.174314,-0.685272 0.0719,-0.364969 0.05774,-0.370418 0.04467,-0.374775 0.03159,-0.379133 0.01852,-0.38458 0.0044,-0.387849 -0.0076,-0.393296 -0.02179,-0.397654 -0.03377,-0.403101 -0.04794,-0.406369 -0.06101,-0.411817 -0.07517,-0.416175 -0.05992,-0.291976 0.127467,-0.115483 0.400922,-0.385669 0.386759,-0.396565 0.372596,-0.407459 0.357344,-0.417264 0.343181,-0.428159 0.326839,-0.437964 0.310496,-0.446679 0.295245,-0.457574 0.278902,-0.465201 0.261471,-0.475006 0.24404,-0.482632 0.226608,-0.490258 0.209177,-0.498974 0.190656,-0.50551 0.172135,-0.513137 0.153614,-0.520763 0.134004,-0.52621 0.113304,-0.532748 0.09478,-0.539284 0.07408,-0.543641 0.05338,-0.550179 0.03159,-0.554536 0.01089,-0.559984 m -14.152118,7.634953 -0.264739,-0.351896 -0.20264,-0.373686 -0.144899,-0.392206 -0.0926,-0.408549 -0.04358,-0.419443 0.0011,-0.429248 0.0414,-0.435785 0.07735,-0.439053 0.107857,-0.439054 0.136183,-0.434695 0.159061,-0.430338 0.177583,-0.420533 0.191745,-0.407459 0.201551,-0.392206 0.208087,-0.374775 0.209177,-0.352986 0.206998,-0.327928 0.199371,-0.299603 0.349718,-0.469558 0.372596,-0.415085 0.392207,-0.36497 0.408548,-0.313765 0.421622,-0.26474 0.432517,-0.215713 0.440143,-0.168867 0.4445,-0.123109 0.44668,-0.07844 0.444501,-0.03486 0.440142,0.0076 0.432517,0.04903 0.421622,0.08934 0.408549,0.128556 0.392206,0.165599 0.372596,0.20264 0.349718,0.238592 0.32466,0.273455 0.296333,0.306139 0.260382,0.333376 0.22225,0.354075 0.18303,0.373685 0.143809,0.390028 0.106767,0.403101 0.06864,0.416175 0.0305,0.42489 -0.0054,0.431427 -0.0414,0.436875 -0.07844,0.439053 -0.113304,0.440143 -0.148167,0.436875 -0.184119,0.433606 -0.217892,0.42598 -0.251666,0.417264 -0.28544,0.406369 -0.319212,0.392207 -0.350807,0.375864 -0.383491,0.358433 -0.427069,0.349718 -0.435785,0.312676 -0.441232,0.276723 -0.445591,0.239682 -0.448858,0.20155 -0.449948,0.164509 -0.447769,0.126378 -0.444501,0.08716 -0.440143,0.04794 -0.433606,0.0098 -0.423801,-0.0305 -0.412906,-0.07082 L 43.730796,60.185 43.345126,60.032476 42.975732,59.83966 42.624925,59.605425 42.294818,59.328702 41.9865,59.009489 m -8.613291,-0.03704 0.26474,-0.351897 0.20264,-0.373686 0.144898,-0.392206 0.09261,-0.408548 0.04358,-0.419444 -0.0011,-0.429248 -0.0414,-0.435785 -0.07735,-0.439053 -0.107854,-0.439055 -0.136183,-0.435785 -0.159062,-0.429248 -0.177582,-0.420532 -0.191746,-0.407459 -0.20155,-0.393296 -0.208088,-0.373686 -0.209176,-0.352986 -0.206998,-0.327928 -0.199372,-0.299602 -0.349717,-0.469559 -0.372596,-0.416174 -0.392207,-0.363881 -0.408548,-0.313765 -0.421622,-0.264739 -0.432517,-0.215714 -0.440143,-0.168867 -0.444501,-0.123109 -0.446679,-0.07844 -0.444501,-0.03486 -0.440143,0.0076 -0.432516,0.04903 -0.421622,0.08934 -0.408549,0.128557 -0.392206,0.165598 -0.372597,0.20264 -0.349717,0.238592 -0.32466,0.273455 -0.296334,0.306139 -0.260381,0.333376 -0.222251,0.354075 -0.18194,0.373686 -0.144898,0.390027 -0.105678,0.403101 -0.06864,0.415086 -0.03159,0.42489 0.0054,0.432517 0.0414,0.436874 0.07844,0.439054 0.113305,0.440142 0.149256,0.436875 0.18303,0.433606 0.217892,0.42598 0.251666,0.417264 0.285439,0.40637 0.319213,0.392206 0.350807,0.375865 0.38458,0.358433 0.42598,0.349717 0.435785,0.312676 0.441232,0.276723 0.44559,0.239682 0.448859,0.201551 0.449948,0.164509 0.447769,0.125288 0.44559,0.08825 0.439053,0.04794 0.433607,0.0098 0.4238,-0.0316 0.412907,-0.06972 0.400922,-0.111125 0.38567,-0.152525 0.369327,-0.192835 0.350807,-0.234234 0.331197,-0.276724 0.307228,-0.319212"
     sodipodi:nodetypes="cccccccccccccccccccccccccccccccccccccccccccccccccccccccccccccccccccccccccccccccccccccccccccccccccccccccccccccccccccccccccccccccccccccccccccccccccccccccccccccccccccccccccccccccccccccccccccccccccccccccccccccccccccccccccccccccccccccccccccccccccccccccccccccccccccccccccccccccccccccccccccccccccccccccccccccccccccccccccccccccccccccccccccccccccccccccccccccccccccccccccccccccccccccccccccccccccccccccccccccccccccccccc"
     style="stroke-width:1.08946" />
  <path
     id="shape1"
     fill="#ffffff"
     fill-rule="evenodd"
     d="m 16.819916,53.248411 -0.02179,-0.44559 -0.01198,-0.442322 -0.0022,-0.439053 0.0065,-0.435785 0.01525,-0.431427 0.02506,-0.430338 0.03377,-0.42598 0.04358,-0.422711 0.05229,-0.419443 0.0621,-0.416175 0.07082,-0.412906 0.08062,-0.410728 0.08934,-0.406369 0.09914,-0.403101 0.107857,-0.400922 0.117662,-0.396565 0.126378,-0.394385 0.136182,-0.390028 0.144899,-0.387848 0.154704,-0.383491 0.163419,-0.381312 0.173225,-0.378044 0.18194,-0.373685 0.190656,-0.371507 0.200461,-0.368238 0.210266,-0.36497 0.218982,-0.361702 0.228787,-0.358433 0.237503,-0.354075 0.246219,-0.352986 0.256023,-0.348628 0.265829,-0.34536 0.274545,-0.342091 0.09478,-0.113304 L 20.935905,39.985295 20.549146,39.58873 20.171103,39.186719 19.801775,38.77817 19.441163,38.363085 19.088177,37.942552 18.744996,37.516573 18.409442,37.082966 18.082603,36.645003 17.76339,36.199412 17.576003,35.932494 17.385347,35.660128 17.191423,35.381226 16.996409,35.094697 16.801395,34.801632 16.606381,34.50203 16.412457,34.193712 16.22289,33.876678 l -0.186298,-0.32466 -0.18085,-0.333375 -0.175404,-0.343181 -0.167777,-0.352986 -0.159062,-0.361701 -0.150346,-0.373686 -0.138361,-0.383491 -0.128557,-0.394385 -0.114393,-0.40637 -0.10132,-0.417264 -0.08607,-0.430337 -0.06973,-0.442322 -0.05338,-0.455396 -0.03486,-0.468468 -0.01525,-0.482632 0.0044,-0.495706 0.02724,-0.510958 0.04903,-0.525121 0.0719,-0.540373 0.09805,-0.555626 0.261471,-1.123236 0.30396,-0.950011 0.343181,-0.788771 0.378043,-0.638425 0.40637,-0.498974 0.432516,-0.372596 0.451038,-0.254934 0.467379,-0.149257 0.477185,-0.05556 0.482632,0.02724 0.48481,0.09914 0.480453,0.159062 0.472827,0.208087 0.458664,0.282171 0.369328,0.343181 0.288707,0.392206 0.213535,0.430338 0.148167,0.456485 0.08934,0.471737 0.03704,0.476095 -0.0065,0.46738 -0.0414,0.449948 -0.0719,0.419443 -0.09151,0.376954 -0.106768,0.32466 -0.286528,0.600293 -0.390028,0.579594 -0.448858,0.48808 -0.465201,0.325749 -0.435785,0.0926 -0.36388,-0.211355 -0.168867,-0.400923 0.06864,-0.431427 0.229877,-0.458664 0.314854,-0.488079 0.32575,-0.513137 0.259292,-0.539284 0.115483,-0.603562 -0.05012,-0.656946 -0.20264,-0.637335 -0.34427,-0.542553 -0.472826,-0.372596 -0.5894,-0.128556 -0.196103,0.03051 -0.199372,0.07735 -0.200461,0.12311 -0.200461,0.167777 -0.197192,0.211356 -0.191746,0.252755 -0.184119,0.293065 -0.173225,0.332286 -0.16233,0.369328 -0.147077,0.404191 -0.130735,0.439053 -0.111126,0.470648 -0.09042,0.503332 -0.06646,0.532747 -0.04031,0.559984 -0.01198,0.58722 0.01852,0.613367 0.05229,0.636246 0.08607,0.659125 0.124199,0.678735 0.08716,0.383491 0.104588,0.384581 0.120931,0.38458 0.137272,0.38458 0.153614,0.38567 0.171046,0.386759 0.186298,0.387849 0.20264,0.386759 0.220071,0.388938 0.236414,0.388938 0.252755,0.390028 0.269097,0.390027 0.285439,0.391117 0.301782,0.392207 0.318123,0.392206 0.335554,0.392207 0.350807,0.393296 0.368238,0.394385 0.384581,0.395475 0.400922,0.395475 0.417264,0.395475 0.433606,0.396564 0.240771,0.213535 0.01961,-0.01852 0.269097,-0.236413 0.275634,-0.229877 0.282171,-0.22334 0.290886,-0.218982 0.297423,-0.212445 0.30505,-0.208087 0.311586,-0.201551 0.320302,-0.195014 0.326839,-0.190656 0.333375,-0.184119 0.342092,-0.178672 0.348628,-0.173224 0.356254,-0.167777 0.362791,-0.16233 0.370417,-0.155793 0.378044,-0.150346 0.385669,-0.144899 0.393296,-0.139451 0.399833,-0.132914 0.407459,-0.128557 0.413996,-0.12202 0.422711,-0.115483 0.429249,-0.111125 0.435785,-0.105678 0.4445,-0.09914 0.342092,-0.07082 -0.05338,-0.05338 L 31.48304,34.103292 31.257521,33.854895 31.030913,33.591245 30.800988,33.314516 30.568933,33.023629 30.333609,32.71858 30.096106,32.399367 29.855335,32.065992 29.612385,31.718453 29.367256,31.357841 29.118858,30.981976 28.868282,30.591949 28.614437,30.188848 28.358413,29.770494 28.100211,29.339067 27.83874,28.893477 27.574,28.433724 27.308172,27.959807 27.039074,27.471728 26.766709,26.969486 26.492164,26.453081 26.215441,25.922512 25.935449,25.378871 25.653278,24.819976 25.367839,24.248008 25.080221,23.660788 24.941859,23.37317 24.803497,23.081194 24.667314,22.787039 24.531132,22.488527 24.396038,22.187835 24.263124,21.882785 24.130209,21.575557 23.998384,21.263971 23.867649,20.949116 23.738003,20.632082 23.610536,20.310691 23.483069,19.987121 23.356691,19.659192 23.231403,19.327996 23.107204,18.99462 22.983005,18.656887 22.860986,18.315885 22.740055,17.972704 22.620214,17.625166 22.501463,17.274359 22.382712,16.920284 22.266139,16.564029 22.150656,16.203417 22.035173,15.839537 21.921869,15.472388 21.809654,15.10306 21.69744,14.729374 21.587404,14.35242 21.477368,13.972198 21.368422,13.589797 21.261655,13.203037 21.154887,12.81301 21.049209,12.419714 20.94571,12.02315 l -0.103499,-0.399833 -0.102409,-0.402012 -0.10132,-0.40637 -0.100231,-0.409638 -0.09914,-0.4129058 -0.09805,-0.4161747 -0.09696,-0.4194431 -0.09587,-0.4227116 -0.09478,-0.4259798 -0.09369,-0.4292482 -0.0926,-0.4325167 -0.09151,-0.435785 -0.07517,-0.3617015 -0.05665,0.076262 -0.356255,0.492437 -0.349717,0.4902581 -0.343181,0.4891687 -0.336644,0.4891687 -0.331196,0.4869899 -0.323571,0.4859002 -0.318123,0.4848104 -0.311586,0.483722 -0.305049,0.483721 -0.298513,0.481543 -0.291976,0.480453 -0.285439,0.479363 -0.278903,0.478274 -0.273455,0.477185 -0.266918,0.476095 -0.260382,0.475006 -0.252755,0.473916 -0.248398,0.472827 -0.240771,0.471737 -0.234234,0.470648 -0.227698,0.469558 -0.22225,0.468469 -0.215714,0.467379 -0.209177,0.46629 -0.20264,0.464111 -0.196103,0.464111 -0.189567,0.463022 -0.183029,0.461932 -0.177583,0.460843 -0.169956,0.458663 -0.164509,0.458664 -0.157972,0.457574 -0.151435,0.455396 -0.144899,0.455395 -0.138361,0.454306 -0.131825,0.452127 -0.126378,0.452127 -0.118751,0.449948 -0.113305,0.449948 -0.106767,0.447769 -0.10023,0.447769 -0.09369,0.44559 -0.08716,0.44559 -0.08171,0.443412 -0.074083,0.443411 -0.068636,0.441232 -0.062099,0.441233 -0.054473,0.439053 -0.049026,0.437964 -0.043578,0.437964 -0.035952,0.435785 -0.029415,0.434695 -0.023968,0.434696 -0.016342,0.432517 -0.010895,0.431427 -0.00436,0.430337 0.00218,0.429249 0.00872,0.429248 0.015253,0.427069 0.0207,0.42598 0.028326,0.42489 0.033773,0.423801 0.08171,0.839976 0.093694,0.817097 0.1045884,0.795308 0.116572,0.773518 0.126378,0.75064 0.136183,0.72994 0.144898,0.707061 0.153615,0.686361 0.16233,0.665662 0.168866,0.644961 0.176493,0.623173 0.18194,0.602473 0.187388,0.582862 0.191745,0.562163 0.197193,0.541463 0.200461,0.521852 0.20373,0.502243 0.205908,0.483721 0.208088,0.463022 0.208087,0.4445 0.210266,0.424891 0.210266,0.406369 0.209177,0.387849 0.208088,0.369328 0.205908,0.350807 0.20373,0.333375 0.20155,0.314855 0.197193,0.296334 0.192835,0.279991 0.188477,0.262561 0.183029,0.245129 0.176493,0.227698 0.171047,0.211355 0.16233,0.195014 0.155793,0.177583 0.147076,0.162329 0.137274,0.144899 0.128555,0.129646 0.117662,0.114394 0.106767,0.09805 0.09587,0.08389 0.08389,0.06755 0.07081,0.05338 0.05665,0.03704 0.04358,0.02397 0.02942,0.0087 0.01416,-0.0054 m 17.096935,-19.220297 0.315944,-0.04249 0.494616,-0.05992 0.502243,-0.05338 0.509869,-0.04903 0.517495,-0.04249 0.524031,-0.03704 0.531658,-0.0305 0.539284,-0.02615 0.07953,-16.003115 -0.359524,0.0033 -0.416175,0.0054 -0.410727,0.0076 -0.407459,0.01089 -0.402012,0.01198 -0.398743,0.01634 -0.393296,0.01743 -0.390028,0.01961 -0.38458,0.02288 -0.381312,0.02506 -0.375864,0.02833 -0.372596,0.02942 -0.367149,0.03268 -0.363881,0.03486 -0.484811,0.05774 -0.475005,0.07517 -0.464111,0.0926 -0.453217,0.111126 -0.442322,0.127467 -0.432516,0.144898 -0.422712,0.16342 -0.410727,0.179761 -0.400922,0.198282 -0.391117,0.215714 -0.380223,0.232055 -0.358433,0.24404 -0.0621,0.275634 -0.08498,0.40419 -0.07953,0.404191 -0.07408,0.40528 -0.06755,0.40637 -0.0621,0.407459 -0.0054,0.04358 0.06319,0.164509 0.165598,0.415085 0.169956,0.413996 0.174314,0.411817 0.177583,0.408548 0.18303,0.407459 0.185208,0.40528 0.190656,0.403101 0.193924,0.399833 0.199372,0.398743 0.201551,0.396565 0.206998,0.394385 0.210266,0.392207 0.214624,0.390027 0.218982,0.387849 0.22334,0.38567 0.226608,0.38349 0.230966,0.382402 0.235324,0.379133 0.238592,0.376954 0.24404,0.374775 0.247308,0.373686 0.250576,0.370417 0.256024,0.368238 0.259292,0.367149 0.26365,0.36388 0.268008,0.362792 0.271276,0.359522 0.275634,0.358433 0.279992,0.355165 0.284349,0.354075 0.150346,0.18412 m 4.024475,-18.246319 0.06428,-12.8404054 -0.692898,-0.018521 -0.337733,0.2930655 -0.334465,0.30396 -0.333376,0.3137652 -0.330107,0.3246598 -0.327928,0.3355545 -0.32466,0.3453596 -0.323571,0.3573437 -0.320302,0.3671489 -0.318123,0.3780435 -0.315944,0.3878487 -0.312675,0.3998327 -0.310497,0.4096379 -0.308318,0.4205325 -0.306139,0.4303377 -0.30396,0.4423218 -0.300692,0.452127 -0.298513,0.4630217 -0.296333,0.4739162 -0.294155,0.4837215 -0.290887,0.494616 -0.288707,0.50551 -0.286529,0.516406 -0.205908,0.382401 -0.200461,0.384581 -0.195014,0.38458 -0.189567,0.38567 -0.183029,0.386759 -0.177583,0.387848 -0.171045,0.388939 -0.165599,0.390027 -0.160151,0.390028 -0.154703,0.392206 -0.148167,0.392207 -0.14272,0.394385 -0.137272,0.394386 -0.131825,0.395474 -0.125288,0.396565 -0.01852,0.06319 0.08062,-0.03704 0.590489,-0.252755 0.678735,-0.274545 0.764803,-0.295244 0.264739,-0.09587 0.275634,-0.09152 0.287618,-0.08716 0.298513,-0.0828 0.310497,-0.07844 0.32248,-0.07299 0.333376,-0.06973 0.34427,-0.06537 0.356254,-0.06101 0.368239,-0.05556 0.379133,-0.05229 0.390027,-0.04794 0.402012,-0.04249 0.413996,-0.03922 0.42489,-0.03377 0.435785,-0.0305 0.447769,-0.02506 0.459753,-0.02179 0.470648,-0.01634 0.481543,-0.01307 0.417264,-0.0065"
     sodipodi:nodetypes="ccccccccccccccccccccccccccccccccccccccccccccccccccccccccccccccccccccccccccccccccccccccccccccccccccccccccccccccccccccccccccccccccccccccccccccccccccccccccccccccccccccccccccccccccccccccccccccccccccccccccccccccccccccccccccccccccccccccccccccccccccccccccccccccccccccccccccccccccccccccccccccccccccccccccccccccccccccccccccccccccccccccccccccccccccccccccccccccccccccccccccccccccccccccccccccccccccccccccccccccccccccccccccccccccccccccccccccccccccccccccccccccccccccccccccccccccccccccccccccccccccccccccccccccccccccccccccccccc"
     style="stroke-width:1.08946" />
  <path
     id="shape01"
     fill="#ffffff"
     fill-rule="evenodd"
     stroke-opacity="0"
     stroke="#000000"
     stroke-width="0"
     stroke-linecap="square"
     stroke-linejoin="bevel"
     d="m 58.366678,53.241047 0.02179,-0.445591 0.01198,-0.442321 0.0022,-0.439054 -0.0065,-0.435785 -0.01525,-0.431427 -0.02506,-0.430338 -0.03377,-0.425979 -0.04358,-0.422712 -0.0523,-0.419443 -0.0621,-0.416175 -0.07082,-0.412906 -0.08062,-0.410727 -0.08934,-0.40637 -0.09914,-0.403101 -0.107857,-0.400922 -0.117662,-0.396565 -0.126378,-0.394385 -0.136182,-0.390028 -0.144899,-0.387848 -0.154704,-0.383491 -0.163419,-0.381312 -0.173225,-0.378043 -0.18194,-0.373686 -0.190656,-0.371507 -0.200461,-0.368238 -0.210266,-0.36497 -0.218982,-0.361702 -0.228787,-0.358433 -0.237503,-0.354075 -0.246219,-0.352986 -0.256023,-0.348628 -0.265829,-0.34536 -0.274545,-0.342091 -0.09478,-0.113304 0.156883,-0.153614 0.386759,-0.396564 0.378043,-0.402012 0.369328,-0.408549 0.360612,-0.415085 0.352986,-0.420532 0.343181,-0.42598 0.335554,-0.433606 0.326839,-0.437964 0.319213,-0.44559 0.187387,-0.266919 0.190656,-0.272365 0.193924,-0.278903 0.195014,-0.286528 0.195014,-0.293066 0.195014,-0.299602 0.193924,-0.308318 0.189567,-0.317033 0.186298,-0.32466 0.18085,-0.333376 0.175404,-0.343181 0.167777,-0.352985 0.159062,-0.361702 0.150346,-0.373686 0.138361,-0.38349 0.128557,-0.394386 0.114393,-0.406369 0.10132,-0.417265 0.08607,-0.430337 0.06973,-0.442322 0.05338,-0.455395 0.03486,-0.468469 0.01525,-0.482632 -0.0044,-0.495706 -0.02724,-0.510957 -0.04903,-0.525121 -0.0719,-0.540374 -0.09805,-0.555626 -0.261471,-1.123236 -0.30396,-0.950011 -0.343181,-0.788771 -0.378043,-0.638425 -0.40637,-0.498974 -0.432516,-0.372596 -0.451038,-0.254934 -0.467379,-0.149256 -0.477185,-0.05556 -0.482632,0.02724 -0.48481,0.09914 -0.480453,0.159061 -0.472827,0.208088 -0.458664,0.28217 -0.369328,0.343181 -0.288707,0.392207 -0.213535,0.430337 -0.148167,0.456485 -0.08934,0.471737 -0.03704,0.476095 0.0065,0.46738 0.0414,0.449948 0.0719,0.419443 0.09152,0.376954 0.106768,0.32466 0.286528,0.600294 0.390028,0.579594 0.448858,0.488079 0.465201,0.325749 0.435785,0.09261 0.36388,-0.211356 0.168867,-0.400922 -0.06864,-0.431428 -0.229877,-0.458663 -0.314854,-0.48808 -0.32575,-0.513136 -0.259292,-0.539284 -0.115483,-0.603563 0.05012,-0.656945 0.20264,-0.637336 0.34427,-0.542552 0.472826,-0.372597 0.5894,-0.128556 0.196103,0.03051 0.199372,0.07735 0.200461,0.123109 0.200461,0.167777 0.197193,0.211356 0.191745,0.252755 0.184119,0.293066 0.173225,0.332286 0.16233,0.369327 0.147077,0.404191 0.130735,0.439053 0.111126,0.470648 0.09043,0.503332 0.06646,0.532747 0.04031,0.559984 0.01198,0.58722 -0.01852,0.613368 -0.0523,0.636246 -0.08607,0.659125 -0.124199,0.678735 -0.08716,0.38349 -0.104588,0.384581 -0.120931,0.38458 -0.137272,0.38458 -0.153614,0.38567 -0.171046,0.386759 -0.186298,0.387849 -0.20264,0.386759 -0.220071,0.388938 -0.236414,0.388938 -0.252755,0.390028 -0.269097,0.390027 -0.285439,0.391118 -0.301781,0.392206 -0.318124,0.392207 -0.335554,0.392206 -0.350807,0.393296 -0.368238,0.394385 -0.384581,0.395475 -0.400922,0.395475 -0.417264,0.395475 -0.433606,0.396565 -0.240771,0.213534 -0.01961,-0.01852 -0.269052,-0.236427 -0.275634,-0.229877 -0.282171,-0.223339 -0.290886,-0.218982 -0.297423,-0.212446 -0.30505,-0.208087 -0.311586,-0.201551 -0.320302,-0.195013 -0.326839,-0.190656 -0.333375,-0.184119 -0.342092,-0.178672 -0.348628,-0.173225 -0.356254,-0.167777 -0.362791,-0.16233 -0.370417,-0.155793 -0.378044,-0.150346 -0.385669,-0.144898 -0.393296,-0.139452 -0.399833,-0.132914 -0.407459,-0.128557 -0.413996,-0.122019 -0.422711,-0.115484 -0.429249,-0.111125 -0.435785,-0.105678 -0.4445,-0.09914 -0.342092,-0.07082 0.05338,-0.05338 0.221161,-0.235324 0.225519,-0.248398 0.226608,-0.26365 0.229877,-0.276723 0.232055,-0.290887 0.235324,-0.305049 0.237503,-0.319213 0.240771,-0.333375 0.24295,-0.347539 0.245129,-0.360612 0.248398,-0.375864 0.250576,-0.390028 0.253845,-0.403101 0.256024,-0.418354 0.258202,-0.431427 0.261471,-0.44559 0.26474,-0.459753 0.265828,-0.473916 0.269098,-0.48808 0.272365,-0.502242 0.274545,-0.516405 0.276723,-0.530568 0.279992,-0.543642 0.282171,-0.558894 0.285439,-0.571968 0.287618,-0.587221 0.138362,-0.287618 0.138362,-0.291976 0.136183,-0.294155 0.136182,-0.298512 0.135094,-0.300692 0.132914,-0.305049 0.132915,-0.307229 0.131825,-0.311586 0.130735,-0.314855 0.129646,-0.317033 0.127467,-0.321392 0.127467,-0.32357 0.126378,-0.327928 0.125288,-0.331197 0.124199,-0.333376 0.124199,-0.337733 0.122019,-0.341002 0.120931,-0.34318 0.119841,-0.347539 0.118751,-0.350807 0.118752,-0.354075 0.116572,-0.356254 0.115483,-0.360613 0.115483,-0.36388 0.113304,-0.367149 0.112215,-0.369328 0.112214,-0.373685 0.110036,-0.376954 0.110036,-0.380223 0.108946,-0.382401 0.106767,-0.386759 0.106768,-0.390028 0.105678,-0.393296 0.103499,-0.396564 0.103499,-0.399833 0.102409,-0.402012 0.10132,-0.406369 0.100231,-0.409638 0.09914,-0.4129066 0.09805,-0.4161747 0.09696,-0.4194432 0.09587,-0.4227114 0.09478,-0.4259799 0.09369,-0.4292482 0.0926,-0.4325166 0.09152,-0.435785 0.07517,-0.3617016 0.05665,0.076262 0.356255,0.492437 0.349717,0.4902582 0.343181,0.4891687 0.336644,0.4891686 0.331196,0.4869899 0.323571,0.4859003 0.318123,0.4848105 0.311586,0.483722 0.305049,0.483721 0.298513,0.481543 0.291976,0.480453 0.285439,0.479364 0.278903,0.478274 0.273455,0.477184 0.266918,0.476095 0.260382,0.475006 0.252755,0.473916 0.248397,0.472827 0.240772,0.471737 0.234234,0.470648 0.227698,0.469558 0.22225,0.468469 0.215714,0.46738 0.209177,0.46629 0.20264,0.464111 0.196103,0.464111 0.189566,0.463021 0.18303,0.461932 0.177582,0.460843 0.169957,0.458664 0.164508,0.458663 0.157972,0.457575 0.151436,0.455395 0.144898,0.455395 0.138362,0.454306 0.131825,0.452127 0.126378,0.452127 0.118751,0.449948 0.113304,0.449948 0.106767,0.447769 0.100231,0.447769 0.09369,0.445591 0.08716,0.44559 0.08171,0.443411 0.07408,0.443411 0.06864,0.441233 0.0621,0.441232 0.05447,0.439053 0.04903,0.437964 0.04358,0.437964 0.03595,0.435785 0.02942,0.434696 0.02397,0.434695 0.01634,0.432517 0.01089,0.431427 0.0044,0.430338 -0.0022,0.429248 -0.0087,0.429248 -0.01525,0.427069 -0.0207,0.42598 -0.02833,0.424891 -0.03377,0.423801 -0.08171,0.839975 -0.09369,0.817097 -0.104588,0.795308 -0.116572,0.773518 -0.126378,0.75064 -0.136183,0.72994 -0.144898,0.707061 -0.153615,0.686361 -0.16233,0.665662 -0.168866,0.644962 -0.176493,0.623172 -0.18194,0.602473 -0.187388,0.582863 -0.191745,0.562162 -0.197193,0.541463 -0.200461,0.521853 -0.20373,0.502242 -0.205908,0.483721 -0.208087,0.463022 -0.208088,0.4445 -0.210266,0.424891 -0.210266,0.406369 -0.209177,0.387849 -0.208087,0.369328 -0.205909,0.350807 -0.203729,0.333375 -0.201551,0.314855 -0.197193,0.296334 -0.192835,0.279992 -0.188477,0.26256 -0.183029,0.245129 -0.176493,0.227698 -0.171046,0.211356 -0.16233,0.195013 -0.155793,0.177583 -0.147077,0.16233 -0.137273,0.144898 -0.128556,0.129646 -0.117662,0.114394 -0.106767,0.09805 -0.09587,0.08389 -0.08389,0.06755 -0.07081,0.05338 -0.05665,0.03704 -0.04358,0.02397 -0.02942,0.0087 -0.01416,-0.0054 M 41.26977,34.020779 l -0.315944,-0.04249 -0.494616,-0.05992 -0.502243,-0.05338 -0.509868,-0.04903 -0.517495,-0.04249 -0.524031,-0.03704 -0.531658,-0.0305 -0.539284,-0.02615 -0.07953,-16.003115 0.359523,0.0033 0.416175,0.0054 0.410727,0.0076 0.407459,0.01089 0.402012,0.01198 0.398743,0.01634 0.393296,0.01743 0.390028,0.01961 0.38458,0.02288 0.381312,0.02506 0.375864,0.02833 0.372596,0.02942 0.367149,0.03268 0.363881,0.03486 0.484811,0.05774 0.475005,0.07517 0.464111,0.0926 0.453217,0.111125 0.442322,0.127467 0.432516,0.144898 0.422712,0.16342 0.410727,0.179761 0.400922,0.198282 0.391117,0.215714 0.380223,0.232055 0.358433,0.24404 0.0621,0.275634 0.08498,0.404191 0.07953,0.40419 0.07408,0.40528 0.06755,0.40637 0.0621,0.407459 0.0054,0.04358 -0.06319,0.164509 -0.165598,0.415085 -0.169956,0.413996 -0.174314,0.411817 -0.177583,0.408548 -0.18303,0.407459 -0.185208,0.40528 -0.190656,0.403102 -0.193924,0.399832 -0.199372,0.398744 -0.201551,0.396564 -0.206998,0.394385 -0.210266,0.392207 -0.214624,0.390027 -0.218982,0.387849 -0.22334,0.38567 -0.226608,0.383491 -0.230966,0.382401 -0.235324,0.379133 -0.238592,0.376954 -0.24404,0.374775 -0.247308,0.373686 -0.250576,0.370417 -0.256024,0.368238 -0.259292,0.367149 -0.26365,0.363881 -0.268008,0.362791 -0.271276,0.359522 -0.275634,0.358434 -0.279992,0.355164 -0.284349,0.354076 -0.150346,0.184119 M 37.245268,15.77443 37.18099,2.9340248 l 0.692898,-0.018521 0.337733,0.2930654 0.334465,0.30396 0.333376,0.3137652 0.330107,0.3246599 0.327928,0.3355544 0.32466,0.3453597 0.323571,0.3573437 0.320302,0.3671488 0.318123,0.3780435 0.315944,0.3878487 0.312675,0.3998327 0.310497,0.4096379 0.308318,0.4205326 0.306139,0.4303377 0.30396,0.4423218 0.300692,0.4521269 0.298513,0.4630217 0.296333,0.4739162 0.294155,0.4837214 0.290887,0.494616 0.288707,0.50551 0.286529,0.516406 0.205908,0.382402 0.200462,0.38458 0.195013,0.38458 0.189567,0.38567 0.183029,0.386759 0.177583,0.387849 0.171045,0.388938 0.165599,0.390027 0.160151,0.390028 0.154703,0.392206 0.148167,0.392207 0.14272,0.394385 0.137272,0.394386 0.131825,0.395475 0.125288,0.396564 0.01852,0.06319 -0.08062,-0.03704 -0.590489,-0.252755 -0.678735,-0.274545 -0.764803,-0.295244 -0.264739,-0.09587 -0.275634,-0.09152 -0.287618,-0.08716 -0.298513,-0.0828 -0.310497,-0.07844 -0.32248,-0.07299 -0.333376,-0.06973 -0.34427,-0.06537 -0.356254,-0.06101 -0.368239,-0.05556 -0.379133,-0.05229 -0.390027,-0.04794 -0.402012,-0.04249 -0.413996,-0.03922 -0.42489,-0.03377 -0.435785,-0.0305 -0.447769,-0.02506 -0.459753,-0.02179 -0.470648,-0.01634 -0.481543,-0.01307 -0.417264,-0.0065"
     sodipodi:nodetypes="ccccccccccccccccccccccccccccccccccccccccccccccccccccccccccccccccccccccccccccccccccccccccccccccccccccccccccccccccccccccccccccccccccccccccccccccccccccccccccccccccccccccccccccccccccccccccccccccccccccccccccccccccccccccccccccccccccccccccccccccccccccccccccccccccccccccccccccccccccccccccccccccccccccccccccccccccccccccccccccccccccccccccccccccccccccccccccccccccccccccccccccccccccccccccccccccccccccccccccccccccccccccccccccccccccccccccccccccccccccccccccccccccccccccccccccccccccccccccccccccccccccccccccccccccccccccccccccccc" />
</svg>
