<?xml version="1.0" encoding="UTF-8" standalone="no"?>
<!-- Created using Krita: https://krita.org -->

<svg
   width="100"
   height="100"
   viewBox="0 0 74.999999 75"
   version="1.1"
   id="svg1"
   sodipodi:docname="Dark.svg"
   inkscape:version="1.3.2 (091e20ef0f, 2023-11-25)"
   xmlns:inkscape="http://www.inkscape.org/namespaces/inkscape"
   xmlns:sodipodi="http://sodipodi.sourceforge.net/DTD/sodipodi-0.dtd"
   xmlns="http://www.w3.org/2000/svg"
   xmlns:svg="http://www.w3.org/2000/svg">
  <sodipodi:namedview
     id="namedview1"
     pagecolor="#8a8a8a"
     bordercolor="#000000"
     borderopacity="0.25"
     inkscape:showpageshadow="2"
     inkscape:pageopacity="0.0"
     inkscape:pagecheckerboard="0"
     inkscape:deskcolor="#d1d1d1"
     inkscape:document-units="pt"
     inkscape:zoom="2.1015625"
     inkscape:cx="127.76208"
     inkscape:cy="77.799257"
     inkscape:window-width="1920"
     inkscape:window-height="1010"
     inkscape:window-x="0"
     inkscape:window-y="1080"
     inkscape:window-maximized="1"
     inkscape:current-layer="svg1" />
  <defs
     id="defs1" />
  <path
     id="shape0"
     fill="#ffffff"
     fill-rule="evenodd"
     d="m 68.843924,38.798377 -0.01002,-0.815477 -0.03132,-0.810466 -0.05262,-0.805455 -0.0714,-0.800445 -0.09269,-0.792929 -0.111479,-0.787917 -0.131529,-0.780403 -0.151571,-0.774139 -0.169107,-0.767876 -0.189151,-0.759107 -0.206688,-0.752844 -0.225477,-0.745328 -0.243015,-0.73656 -0.260552,-0.727791 -0.278088,-0.720275 -0.295626,-0.711506 -0.313163,-0.702738 -0.329447,-0.692717 -0.345733,-0.683947 -0.362016,-0.672675 -0.377049,-0.664156 -0.394585,-0.653384 -0.408365,-0.642736 -0.424648,-0.631962 -0.438429,-0.62094 -0.413375,-0.555677 -0.03006,0.662653 -0.05512,0.726288 -0.07516,0.720024 -0.09771,0.713762 -0.116497,0.706871 -0.137792,0.700233 -0.157834,0.691464 -0.177877,0.685201 -0.196666,0.676432 -0.216709,0.668916 -0.234246,0.658895 -0.253036,0.651379 -0.271825,0.641358 -0.28811,0.631337 -0.3069,0.622568 -0.324437,0.611294 -0.340722,0.601274 -0.357006,0.589999 -0.37329,0.578725 -0.389574,0.567452 -0.404607,0.556177 -0.419639,0.543651 -0.435923,0.531124 -0.449702,0.518599 -0.463481,0.504818 -0.478513,0.492292 -0.492292,0.478514 -0.504819,0.463482 -0.518598,0.449701 -0.531124,0.435923 -0.543652,0.419639 -0.556177,0.404606 -0.567451,0.389575 -0.578726,0.373291 -0.589999,0.357005 -0.601273,0.340722 -0.611294,0.324437 -0.622569,0.3069 -0.631336,0.288109 -0.641359,0.271826 -0.651379,0.253036 -0.658895,0.234246 -0.668916,0.216708 -0.676432,0.196668 -0.685201,0.177876 -0.691464,0.157834 -0.700232,0.137792 -0.359512,0.05888 -0.0012,0.394586 -0.01003,0.727791 -0.01754,0.720274 -0.02255,0.712759 -0.03006,0.703991 -0.03632,0.695222 -0.04259,0.686454 -0.0476,0.677684 -0.05387,0.666411 -0.06013,0.655138 -0.06639,0.645115 -0.0714,0.633842 -0.07641,0.621316 -0.08142,0.608789 -0.08769,0.596262 -0.09144,0.581231 -0.09771,0.568704 -0.102717,0.554925 -0.106476,0.538641 -0.111486,0.523608 -0.115244,0.508577 -0.120255,0.49104 -0.125266,0.476007 -0.127769,0.457218 -0.132782,0.439681 -0.136539,0.422144 -0.140297,0.403354 -0.144055,0.383312 -0.147813,0.364522 -0.150318,0.344479 -0.154077,0.324436 -0.157834,0.30189 -0.160339,0.281847 -0.162845,0.259298 -0.166603,0.236752 -0.169108,0.214203 -0.171613,0.190403 -0.172866,0.166603 -0.176624,0.142802 -0.177877,0.116498 -0.180382,0.09269 -0.182887,0.06638 -0.18414,0.04009 -0.185392,0.01378 -0.186645,-0.01378 -0.18414,-0.04009 -0.182888,-0.06638 -0.180381,-0.09269 -0.177877,-0.116498 -0.176624,-0.142802 -0.172865,-0.166603 -0.171614,-0.190403 -0.169109,-0.214203 -0.166602,-0.236752 -0.162845,-0.259298 -0.160339,-0.281847 -0.157835,-0.30189 -0.154076,-0.324436 -0.150318,-0.344479 -0.147813,-0.364522 -0.144055,-0.383312 -0.140297,-0.403354 -0.136539,-0.422144 -0.132781,-0.439681 -0.127771,-0.457218 -0.125265,-0.476007 -0.120254,-0.49104 -0.115245,-0.508577 -0.111486,-0.523608 -0.106475,-0.538641 -0.102717,-0.554925 -0.09771,-0.568704 -0.09144,-0.581231 -0.08769,-0.596262 -0.08142,-0.608789 -0.07641,-0.621316 -0.0714,-0.633842 -0.06639,-0.645115 -0.06013,-0.655138 -0.05387,-0.666411 -0.0476,-0.677684 -0.04259,-0.686454 -0.03632,-0.695222 -0.03006,-0.703991 -0.02255,-0.712759 -0.01754,-0.720274 -0.01003,-0.727791 -0.0025,-0.734055 v -0.07015 l -0.47228,-0.122758 -0.676432,-0.196667 -0.668917,-0.216709 -0.658895,-0.234245 -0.651379,-0.253036 -0.641358,-0.271826 -0.631336,-0.28811 -0.622569,-0.306899 -0.611294,-0.324437 -0.601148,-0.340722 -0.590249,-0.357005 -0.578976,-0.373291 -0.567577,-0.389575 -0.555676,-0.404606 -0.543652,-0.419639 -0.531124,-0.435923 -0.518347,-0.449702 -0.50532,-0.463481 -0.491917,-0.478514 -0.478137,-0.492292 -0.464233,-0.504818 -0.449828,-0.518599 -0.435171,-0.531124 -0.420265,-0.543652 -0.404857,-0.556177 -0.389324,-0.567451 -0.373416,-0.578725 -0.357131,-0.59 -0.340729,-0.601279 -0.323686,-0.611294 -0.306649,-0.622568 -0.289112,-0.631337 -0.2712,-0.641358 -0.25316,-0.651379 -0.234747,-0.658895 -0.215958,-0.668916 -0.196916,-0.676432 -0.177502,-0.685201 -0.157834,-0.691464 -0.137792,-0.700233 -0.117498,-0.706871 -0.09671,-0.713762 -0.07591,-0.720024 -0.05461,-0.726288 -0.03295,-0.732175 -0.01103,-0.737561 0.01103,-0.737562 0.0052,-0.115118 -0.364397,0.421642 -0.482271,0.586116 -0.468116,0.598016 -0.453711,0.609666 -0.439054,0.62094 -0.424118,0.631962 -0.408991,0.642736 -0.393586,0.653384 -0.377925,0.664156 -0.361892,0.672675 -0.3457315,0.683947 -0.3293223,0.692717 -0.312662,0.702738 -0.2956259,0.711506 -0.2783393,0.720275 -0.2610527,0.727791 -0.2431399,0.73656 -0.2252268,0.745328 -0.2070634,0.752844 -0.1885242,0.759107 -0.1697344,0.767876 -0.150694,0.774139 -0.1314033,0.780403 -0.1119871,0.787917 -0.092195,0.792929 -0.072153,0.800445 -0.051735,0.805455 -0.031316,0.810466 -0.010522,0.815477 0.010522,0.815477 0.031316,0.810465 0.051735,0.805456 0.072153,0.800445 0.092195,0.792928 0.1119872,0.787919 0.1314032,0.780403 0.1506941,0.774138 0.1697343,0.767876 0.1885242,0.759108 0.2070634,0.752843 0.2252268,0.745328 0.2431399,0.73656 0.2610527,0.72779 0.2783393,0.720276 0.2956259,0.711506 0.312662,0.702738 0.3293223,0.692716 0.3457315,0.683949 0.361892,0.672674 0.377925,0.663906 0.393583,0.653884 0.408991,0.64261 0.424148,0.631338 0.439055,0.621314 0.45371,0.610043 0.468117,0.597514 0.482271,0.586241 0.49605,0.573715 0.509829,0.562441 0.523108,0.548662 0.536261,0.536136 0.549162,0.523608 0.561689,0.509829 0.57409,0.496051 0.586116,0.482271 0.598017,0.468491 0.609665,0.453461 0.62094,0.438428 0.631964,0.424649 0.642735,0.408365 0.653383,0.394585 0.663655,0.377049 0.673677,0.362016 0.683447,0.345732 0.692968,0.329448 0.702362,0.313162 0.711255,0.295626 0.720651,0.278089 0.727791,0.260552 0.73656,0.243015 0.745327,0.225476 0.752844,0.206688 0.759108,0.18915 0.767876,0.169109 0.774138,0.151571 0.780403,0.131528 0.787918,0.111486 0.792929,0.09269 0.800445,0.0714 0.805455,0.05262 0.810466,0.03132 0.815477,0.01002 0.815476,-0.01002 0.810467,-0.03132 0.805454,-0.05262 0.800445,-0.0714 0.79293,-0.09269 0.787917,-0.111486 0.780403,-0.131528 0.774138,-0.151571 0.767877,-0.169109 0.759107,-0.18915 0.752844,-0.206688 0.745328,-0.225476 0.736559,-0.243015 0.727792,-0.260552 0.720274,-0.278089 0.711506,-0.295626 0.702739,-0.313162 0.692717,-0.329448 0.683947,-0.345732 0.672675,-0.362016 0.663905,-0.377049 0.653885,-0.394585 0.642611,-0.408365 0.631336,-0.424649 0.621316,-0.438428 0.610041,-0.453461 0.597516,-0.468491 0.586241,-0.482271 0.573714,-0.496051 0.562441,-0.509829 0.548662,-0.523608 0.536135,-0.536136 0.523609,-0.548662 0.509829,-0.562441 0.49605,-0.573715 0.482271,-0.586241 0.468492,-0.597514 0.45346,-0.610043 0.438429,-0.621314 0.424649,-0.631338 0.408364,-0.64261 0.394585,-0.653884 0.377049,-0.663906 0.362016,-0.672674 0.345733,-0.683949 0.329447,-0.692716 0.313163,-0.702738 0.295626,-0.711506 0.278089,-0.720276 0.260552,-0.72779 0.243014,-0.73656 0.225478,-0.745328 0.206688,-0.752843 0.18915,-0.759108 0.169107,-0.767876 0.151571,-0.774138 0.131529,-0.780403 0.111486,-0.787919 0.09269,-0.792928 0.0714,-0.800445 0.05262,-0.805456 0.03132,-0.810465 0.01002,-0.815477"
     sodipodi:nodetypes="ccccccccccccccccccccccccccccccccccccccccccccccccccccccccccccccccccccccccccccccccccccccccccccccccccccccccccccccccccccccccccccccccccccccccccccccccccccccccccccccccccccccccccccccccccccccccccccccccccccccccccccccccccccccccccccccccccccccccccccccccccccccccccccccccccccccccccccccccccccccccccccccccccccccccccccccccccccccccccccccccccccccccccccccccccccccccccccccccccccccccccccccc"
     style="stroke-width:1.25265" />
  <path
     id="shape1"
     fill="#ffffff"
     fill-rule="evenodd"
     d="M 50.406136,13.666291 50.18567,13.189531 49.863739,12.572725 49.512996,11.974584 49.133442,11.39636 48.72633,10.838804 48.294165,10.302919 47.836947,9.7897079 47.355929,9.3000461 46.849857,8.8350616 46.323744,8.3956312 45.775082,7.9826318 45.205125,7.5971907 44.617631,7.2401848 44.010094,6.9126163 43.386274,6.6153619 42.744916,6.3495491 42.088526,6.1159295 41.417105,5.9157557 40.731904,5.749654 40.034176,5.6188771 39.323923,5.5241766 38.603647,5.4666799 37.873351,5.4473889 37.143055,5.4666799 36.42278,5.5241765 35.712527,5.618877 35.014799,5.7496539 34.329598,5.9157556 33.658176,6.1159294 33.001787,6.349549 32.361682,6.6153618 31.736609,6.9126162 31.130325,7.2401847 30.541578,7.5971906 29.972874,7.9826317 29.424212,8.3956311 28.896845,8.8350615 28.392027,9.300046 l -0.482271,0.4896618 -0.457219,0.5132112 -0.432164,0.535885 -0.407112,0.557556 -0.378677,0.578224 -0.351244,0.598141 -0.322307,0.616806 -0.292494,0.634594 -0.261554,0.651505 -0.229736,0.667412 -0.197043,0.68232 -0.163346,0.696224 -0.128772,0.709252 -0.09308,0.721277 -0.0565,0.732425 -0.01917,0.742448 0.01917,0.742447 0.0565,0.7323 0.09308,0.721277 0.128772,0.709252 0.163346,0.696349 0.197043,0.682821 0.229736,0.666411 0.261554,0.651379 0.292494,0.635095 0.322307,0.616304 0.351244,0.598768 0.378677,0.578726 0.407112,0.55743 0.432164,0.534882 0.457219,0.513588 0.482271,0.489787 0.504818,0.464733 0.527367,0.439682 0.548662,0.413375 0.568704,0.384564 0.588747,0.357005 0.606284,0.328196 0.625073,0.296879 0.640105,0.265561 0.656389,0.234247 0.671422,0.200424 0.685201,0.16535 0.697728,0.131528 0.710253,0.09395 0.720275,0.05762 0.730296,0.02004 0.730296,-0.02004 0.720276,-0.05762 0.710253,-0.09395 0.697728,-0.131528 0.685201,-0.16535 0.671421,-0.200424 0.65639,-0.234247 0.641358,-0.265561 0.62382,-0.296879 0.607537,-0.328196 0.587494,-0.357005 0.569957,-0.384564 0.548662,-0.413375 0.526113,-0.439682 0.506072,-0.464733 0.481018,-0.489787 0.457218,-0.513588 0.432165,-0.534882 0.407112,-0.55743 0.379554,-0.578726 0.08643,-0.149065 -0.16535,0.129022 -0.617558,0.397091 -0.651379,0.34448 -0.682695,0.289363 -0.712759,0.230487 -0.737812,0.167856 -0.759108,0.102717 -0.780402,0.03507 -0.780402,-0.03507 -0.759107,-0.102717 -0.737812,-0.167856 -0.71276,-0.230487 -0.682696,-0.289363 -0.651378,-0.34448 -0.617558,-0.397091 -0.578726,-0.448449 -0.53864,-0.493545 -0.493545,-0.53864 -0.448449,-0.578725 -0.397091,-0.617558 -0.34448,-0.651379 -0.289362,-0.683071 -0.230488,-0.712008 -0.167855,-0.737561 -0.102718,-0.760235 -0.03507,-0.779901 0.03507,-0.779902 0.102718,-0.760234 0.167855,-0.737562 0.230488,-0.712007 0.289362,-0.683197 0.34448,-0.65163 0.397091,-0.616806 0.448449,-0.578975 0.493545,-0.538265 0.53864,-0.494422 0.578726,-0.447572 0.617558,-0.397717 0.651378,-0.344855 0.682696,-0.288988 0.71276,-0.229986 0.737812,-0.167981 0.759107,-0.102968 0.780402,-0.03507 0.780402,0.03507 0.759108,0.102968 0.737812,0.167981 0.712759,0.229986 0.682695,0.288988 0.651379,0.344855 0.617558,0.397717 0.578725,0.447572 0.393333,0.361015"
     sodipodi:nodetypes="cccccccccccccccccccccccccccccccccccccccccccccccccccccccccccccccccccccccccccccccccccccccccccccccccccccccccccccccccccccccccccccccccccccccccccccccccccccccccccccccc"
     style="stroke-width:1.25265" />
</svg>
