<?xml version="1.0" encoding="UTF-8" standalone="no"?>
<!-- Created using Krita: https://krita.org -->

<svg
   width="100"
   height="100"
   viewBox="0 0 75 75"
   version="1.1"
   id="svg1"
   sodipodi:docname="Electric.svg"
   inkscape:version="1.3.2 (091e20ef0f, 2023-11-25)"
   xmlns:inkscape="http://www.inkscape.org/namespaces/inkscape"
   xmlns:sodipodi="http://sodipodi.sourceforge.net/DTD/sodipodi-0.dtd"
   xmlns="http://www.w3.org/2000/svg"
   xmlns:svg="http://www.w3.org/2000/svg">
  <sodipodi:namedview
     id="namedview1"
     pagecolor="#8c8c8c"
     bordercolor="#000000"
     borderopacity="0.25"
     inkscape:showpageshadow="2"
     inkscape:pageopacity="0.0"
     inkscape:pagecheckerboard="0"
     inkscape:deskcolor="#d1d1d1"
     inkscape:document-units="pt"
     inkscape:zoom="4.203125"
     inkscape:cx="54.602231"
     inkscape:cy="45.561338"
     inkscape:window-width="1920"
     inkscape:window-height="1010"
     inkscape:window-x="0"
     inkscape:window-y="1080"
     inkscape:window-maximized="1"
     inkscape:current-layer="svg1" />
  <defs
     id="defs1" />
  <path
     id="shape0"
     fill="#ffffff"
     fill-rule="evenodd"
     d="m 32.264822,38.346334 -0.247977,0.193231 -0.258432,0.186878 -0.268651,0.180653 -0.279107,0.174429 -0.289326,0.168204 -0.299662,0.161851 -0.310119,0.155753 -0.320338,0.149401 -0.330793,0.143176 -0.341012,0.136951 -0.35135,0.130727 -0.361805,0.124373 -0.372024,0.118276 -0.38248,0.111924 -0.392699,0.105701 -0.403036,0.09948 -0.413492,0.09324 -0.42371,0.08702 -0.434048,0.0808 -0.444385,0.07445 -0.454841,0.06823 -0.465059,0.06199 -0.475397,0.05577 -0.485853,0.04955 -0.496072,0.04332 -0.506409,0.03697 -0.516746,0.03074 -0.527202,0.02464 -0.537421,0.01829 -0.547758,0.01194 -0.558095,0.0059 -0.568433,-3.8e-4 -0.578888,-0.0067 -0.589108,-0.01296 -0.599444,-0.01918 -0.916574,-0.04281 -0.882591,-0.05933 -0.84906,-0.07572 -0.815803,-0.09147 -0.782878,-0.107176 -0.750309,-0.122341 -0.718051,-0.137079 -0.686147,-0.151814 -0.654566,-0.16579 L 9.7543559,40.257678 9.1619455,40.064321 8.6001074,39.858005 8.0685089,39.63873 7.5668291,39.40688 7.0947116,39.163086 6.6518355,38.907351 6.2378564,38.640182 5.8524534,38.361833 5.4952819,38.072686 5.1660093,37.773248 4.8643027,37.46352 4.5898296,37.144138 4.3422585,36.815353 4.1212458,36.477422 3.9264626,36.130725 3.7575725,35.775643 3.6142429,35.412558 3.4961399,35.041596 3.4029269,34.663392 3.3342709,34.278074 3.2898369,33.88615 l -0.020545,-0.398403 0.00301,-0.404247 0.026228,-0.410091 0.044928,-0.330816 0.073703,-0.324338 0.1024794,-0.317732 0.131254,-0.310998 0.1600285,-0.304519 0.1888042,-0.297913 0.21758,-0.291434 0.2463592,-0.284701 0.2751266,-0.278222 0.3039047,-0.271615 0.3326828,-0.265009 0.361449,-0.258403 0.390239,-0.251796 0.4190051,-0.245191 0.4477833,-0.238712 0.4765495,-0.232105 0.5053394,-0.2255 0.5341056,-0.218893 0.5628838,-0.212286 0.5916499,-0.205808 0.6204401,-0.199074 0.649207,-0.192597 0.677984,-0.185988 0.706762,-0.179384 0.735529,-0.172776 0.764307,-0.166298 0.793084,-0.159564 0.821862,-0.153086 -0.464345,-0.454683 -0.426277,-0.459129 -0.388196,-0.463575 -0.350113,-0.467895 -0.312032,-0.472468 -0.273962,-0.476788 -0.235881,-0.481222 -0.197799,-0.485643 -0.159717,-0.490076 -0.121647,-0.494498 -0.08358,-0.498918 -0.04548,-0.50334 -0.0074,-0.507761 0.01369,-0.220709 0.03123,-0.229362 0.0488,-0.237377 0.06642,-0.244759 0.08407,-0.251518 0.101769,-0.257653 0.119497,-0.263154 0.13726,-0.268033 0.155071,-0.272276 0.172918,-0.275884 0.190801,-0.278882 0.20873,-0.281246 0.226684,-0.282972 0.244697,-0.284066 0.262722,-0.284548 0.280806,-0.284396 0.298914,-0.283621 0.317104,-0.282197 0.33519,-0.280166 0.353488,-0.277485 0.371787,-0.274207 0.390084,-0.270268 0.408383,-0.265721 0.4268,-0.260538 0.445216,-0.254731 0.463753,-0.248291 0.48217,-0.241226 0.500705,-0.233517 0.519241,-0.225206 0.538015,-0.216251 0.556551,-0.206672 0.575205,-0.196457 0.593979,-0.18563 0.612752,-0.174158 0.631645,-0.162062 0.650299,-0.14934 0.669311,-0.135988 0.688202,-0.122007 0.707214,-0.1074 0.726106,-0.09216 0.745236,-0.0763 0.764366,-0.0598 0.783377,-0.04268 0.802507,-0.02493 0.821756,-0.0066 0.841005,0.01246 0.779456,0.02431 0.757474,0.03172 0.735493,0.03913 0.713512,0.04653 0.691648,0.05394 0.669548,0.06135 0.647566,0.06876 0.625704,0.07617 0.603603,0.08358 0.581741,0.09099 0.559758,0.0984 0.537659,0.105808 0.515795,0.113216 0.493814,0.120626 0.471833,0.128034 0.44985,0.135443 0.427751,0.142859 0.405887,0.150252 0.384025,0.157672 0.361924,0.165078 0.339943,0.172497 0.317961,0.179891 0.295979,0.187311 0.274117,0.194716 0.252016,0.202124 0.230035,0.20953 0.208172,0.216949 0.186071,0.224357 0.164208,0.231763 0.142109,0.239168 0.120245,0.246575 0.09826,0.253995 0.07628,0.261389 0.500349,-0.0553 0.495596,-0.04919 0.490962,-0.04305 0.48621,-0.03692 0.481338,-0.03079 0.476704,-0.02466 0.47207,-0.01852 0.467198,-0.01244 0.462446,-0.0062 0.457811,-1.4e-4 0.45294,0.006 0.448306,0.01207 0.443554,0.01827 0.4388,0.02439 0.434167,0.03053 0.429295,0.03665 0.424542,0.04279 0.419908,0.04893 0.415155,0.05504 0.410403,0.06118 0.40565,0.06731 0.400897,0.07344 0.396144,0.07958 0.391511,0.0857 0.386757,0.09184 0.381886,0.09797 0.377252,0.104097 0.372499,0.110235 0.367866,0.116358 0.362993,0.122494 0.358241,0.128629 0.353607,0.134753 0.715056,0.29992 0.679648,0.323639 0.644239,0.346075 0.609307,0.367201 0.574492,0.387059 0.539916,0.405619 0.505577,0.422884 0.471476,0.438866 0.437731,0.453539 0.404105,0.466942 0.370836,0.479037 0.337566,0.48986 0.304891,0.499376 0.272097,0.507595 0.239778,0.514545 0.207577,0.520173 0.175734,0.524556 0.14401,0.527604 0.112641,0.529384 0.08139,0.529891 0.0505,0.52913 0.01984,0.526968 -0.01069,0.523539 -0.04242,0.41746 -0.08555,0.410599 -0.128563,0.403739 -0.171813,0.396879 -0.214826,0.390145 -0.257957,0.383285 -0.30097,0.376425 -0.34422,0.369692 -0.387233,0.362704 -0.430364,0.355971 -0.473496,0.349238 -0.516508,0.342251 -0.559759,0.335517 -0.602772,0.328657 -0.645903,0.321924 -0.688915,0.314936 -0.732166,0.308205 -0.775179,0.301342 -0.81831,0.29461 -0.0084,0.631906 -0.06713,0.598749 -0.12583,0.565462 -0.184526,0.532052 -0.243105,0.498765 -0.301802,0.465482 -0.311782,0.367785 -0.367866,0.333485 -0.423829,0.299311 -0.479674,0.265263 -0.535757,0.231216 -0.591722,0.196915 -0.647804,0.162868 3.572309,7.527227 -15.910528,8.163197 3.249001,17.01166 -14.192535,-18.51219 1.478352,-0.919274 7.274726,-4.728369 -8.143177,-8.79015 m 1.283607,-1.167387 9.07793,10.015341 -8.723848,6.120238 9.956126,13.72674 -2.669519,-13.107919 15.67586,-8.426555 -6.064429,-11.995541 -0.09185,4.02913 -6.320604,-7.798969 0.915266,5.599494 -7.775431,-7.322307 1.869626,5.967406 -8.096244,-7.330693 3.211098,6.946011 L 22.587131,25.313019 33.54847,37.17885"
     sodipodi:nodetypes="cccccccccccccccccccccccccccccccccccccccccccccccccccccccccccccccccccccccccccccccccccccccccccccccccccccccccccccccccccccccccccccccccccccccccccccccccccccccccccccccccccccccccccccccccccccccccccccccccccccccccccccccccccccccccccccccccccccccccccccccccccccccccccccccccccccccccccccccccccccccccccccccccccccccccccc"
     style="stroke-width:1.22862" />
  <ellipse
     id="shape1"
     rx="12.190884"
     ry="6.8602576"
     cx="58.962059"
     cy="11.987102"
     fill="#ffffff"
     fill-rule="evenodd"
     style="stroke-width:1.22862" />
  <ellipse
     id="shape2"
     rx="6.8440051"
     ry="3.4301288"
     cx="22.817162"
     cy="11.301076"
     fill="#ffffff"
     fill-rule="evenodd"
     style="stroke-width:1.22862" />
  <ellipse
     id="shape3"
     rx="3.2081273"
     ry="1.6007267"
     cx="67.517067"
     cy="36.912704"
     fill="#ffffff"
     fill-rule="evenodd"
     style="stroke-width:1.22862" />
  <ellipse
     id="shape4"
     rx="1.9248763"
     ry="1.1433762"
     cx="64.095062"
     cy="37.827404"
     fill="#ffffff"
     fill-rule="evenodd"
     style="stroke-width:1.22862" />
  <ellipse
     id="shape5"
     rx="5.9885039"
     ry="3.2014534"
     cx="19.822908"
     cy="47.660439"
     fill="#ffffff"
     fill-rule="evenodd"
     style="stroke-width:1.22862" />
  <ellipse
     id="shape6"
     rx="4.7052531"
     ry="2.0580773"
     cx="14.689905"
     cy="46.517063"
     fill="#ffffff"
     fill-rule="evenodd"
     style="stroke-width:1.22862" />
  <ellipse
     id="shape7"
     rx="2.1387515"
     ry="1.3720515"
     cx="23.244913"
     cy="50.404541"
     fill="#ffffff"
     fill-rule="evenodd"
     style="stroke-width:1.22862" />
  <path
     id="shape8"
     fill="#ffffff"
     fill-rule="evenodd"
     d="m 24.478578,58.472977 7.58772,1.484459 -1.513594,3.048571 6.099588,3.418581 -10.157418,-1.379878 2.092436,-3.805499 -7.15164,-3.017103"
     sodipodi:nodetypes="ccccccc"
     style="stroke-width:1.22862" />
  <path
     id="shape9"
     fill="#ffffff"
     fill-rule="evenodd"
     d="m 49.287347,68.212153 0.123132,-5.400852 3.113321,0.681605 -1.926349,-6.998288 -0.422356,4.449486 -3.766472,-0.183956"
     sodipodi:nodetypes="cccccc"
     style="stroke-width:1.22862" />
</svg>
