<?xml version="1.0" encoding="UTF-8" standalone="no"?>
<!-- Created using Krita: https://krita.org -->

<svg
   width="100"
   height="100"
   viewBox="0 0 75 75"
   version="1.1"
   id="svg1"
   sodipodi:docname="Fighting.svg"
   inkscape:version="1.3.2 (091e20ef0f, 2023-11-25)"
   xmlns:inkscape="http://www.inkscape.org/namespaces/inkscape"
   xmlns:sodipodi="http://sodipodi.sourceforge.net/DTD/sodipodi-0.dtd"
   xmlns="http://www.w3.org/2000/svg"
   xmlns:svg="http://www.w3.org/2000/svg">
  <sodipodi:namedview
     id="namedview1"
     pagecolor="#898989"
     bordercolor="#000000"
     borderopacity="0.25"
     inkscape:showpageshadow="2"
     inkscape:pageopacity="0.0"
     inkscape:pagecheckerboard="0"
     inkscape:deskcolor="#d1d1d1"
     inkscape:document-units="pt"
     inkscape:zoom="4.203125"
     inkscape:cx="-14.394052"
     inkscape:cy="50.557621"
     inkscape:window-width="1920"
     inkscape:window-height="1010"
     inkscape:window-x="0"
     inkscape:window-y="1080"
     inkscape:window-maximized="1"
     inkscape:current-layer="svg1" />
  <defs
     id="defs1" />
  <path
     id="shape0"
     fill="#ffffff"
     fill-rule="evenodd"
     d="M 31.885563,26.113576 47.79941,36.291837 52.082364,25.426939 54.00563,35.903372 69.890383,26.9497 60.206834,43.950288 71.927018,47.665392 59.804523,50.539255 66.106053,67.321231 51.770348,56.986761 46.755008,67.08466 45.508948,57.243397 28.948996,65.060666 39.620764,49.12876 28.180492,44.570409 39.786303,42.693092 31.885563,26.113576 m 5.213987,5.864306 11.466357,7.333794 3.086055,-7.828606 1.385514,7.548794 11.446292,-6.451519 -6.977734,12.249609 8.444513,2.676922 -8.734457,2.070646 4.540794,12.092196 -10.329654,-7.44646 -3.613774,7.275905 -0.897925,-7.091003 -11.931875,5.632651 7.689051,-11.4796 -8.242855,-3.284401 8.362244,-1.352707 -5.692546,-11.946221"
     sodipodi:nodetypes="cccccccccccccccccccccccccccccccccc"
     style="stroke-width:1.00327" />
  <path
     id="shape01"
     fill="#ffffff"
     fill-rule="evenodd"
     stroke-opacity="0"
     stroke="#000000"
     stroke-width="0"
     stroke-linecap="square"
     stroke-linejoin="bevel"
     d="m 31.193117,11.384475 7.986821,0.794324 -0.477828,-4.6967348 2.750961,3.4335268 4.280879,-6.1061772 -0.380509,7.8886512 5.151864,-0.779735 -4.031563,3.230846 5.625335,4.917244 -7.419928,-1.136219 0.05261,4.552389 -2.372058,-3.32674 -4.755855,5.818146 0.960825,-7.681755 -5.208841,0.424746 4.02857,-2.777672 -6.191273,-4.55484 m 3.907306,1.619056 4.934036,0.852533 -0.227528,-3.531041 1.521081,2.826625 3.233548,-4.9092032 -0.700687,5.5675342 3.529147,-0.480527 -2.853089,2.072748 3.81767,3.046311 -4.731146,-1.018177 0.213572,3.476435 -1.726853,-2.58975 -2.853822,3.884968 0.816108,-5.083442 -3.414851,0.335159 3.008429,-1.721229 -5.367606,-3.174707"
     sodipodi:nodetypes="cccccccccccccccccccccccccccccccccc" />
  <path
     id="shape1"
     fill="#ffffff"
     fill-rule="evenodd"
     d="m 18.552122,47.695089 7.422182,6.002958 -3.72313,-10.216084 7.285737,-4.656772 -7.709116,0.950998 0.9822,-11.896759 -6.347681,10.875231 -5.809929,-3.197216 3.249587,5.247295 -9.5741918,4.236703 11.2496508,1.091356 -0.188615,6.494559 3.163306,-4.932269 m -0.08327,-2.037037 4.206706,3.402486 -2.109874,-5.790466 4.129453,-2.639399 -4.369235,0.539056 0.556815,-6.743069 -3.597722,6.164083 -3.293731,-1.812204 1.842001,2.97419 -5.426679,2.401323 6.376775,0.618515 -0.10735,3.681093 1.792841,-2.795608"
     sodipodi:nodetypes="cccccccccccccccccccccccccc"
     style="stroke-width:1.00327" />
</svg>
