<?xml version="1.0" encoding="UTF-8" standalone="no"?>
<!-- Created using Krita: https://krita.org -->

<svg
   width="100"
   height="100"
   viewBox="0 0 75 75"
   version="1.1"
   id="svg1"
   sodipodi:docname="Ghost.svg"
   inkscape:version="1.3.2 (091e20ef0f, 2023-11-25)"
   xmlns:inkscape="http://www.inkscape.org/namespaces/inkscape"
   xmlns:sodipodi="http://sodipodi.sourceforge.net/DTD/sodipodi-0.dtd"
   xmlns="http://www.w3.org/2000/svg"
   xmlns:svg="http://www.w3.org/2000/svg">
  <sodipodi:namedview
     id="namedview1"
     pagecolor="#979797"
     bordercolor="#000000"
     borderopacity="0.25"
     inkscape:showpageshadow="2"
     inkscape:pageopacity="0.0"
     inkscape:pagecheckerboard="0"
     inkscape:deskcolor="#d1d1d1"
     inkscape:document-units="pt"
     inkscape:zoom="4.203125"
     inkscape:cx="86.007435"
     inkscape:cy="52.936803"
     inkscape:window-width="1920"
     inkscape:window-height="1010"
     inkscape:window-x="0"
     inkscape:window-y="1080"
     inkscape:window-maximized="1"
     inkscape:current-layer="svg1" />
  <defs
     id="defs1" />
  <ellipse
     id="shape0"
     rx="6.9216299"
     ry="7.1252079"
     cx="62.665607"
     cy="56.201546"
     fill="#ffffff"
     fill-rule="evenodd"
     style="stroke-width:1.13099" />
  <path
     id="shape1"
     fill="#ffffff"
     fill-rule="evenodd"
     d="m 64.497803,53.860409 0.616387,-0.340427 0.577933,-0.351736 0.541742,-0.360784 0.50442,-0.373226 0.465966,-0.382273 0.429774,-0.393582 0.391321,-0.403762 0.355129,-0.415072 0.317807,-0.42525 0.279354,-0.43543 0.243161,-0.445608 0.204709,-0.456918 0.168517,-0.468228 0.130063,-0.477276 0.09387,-0.488585 0.05542,-0.498765 0.01923,-0.510074 -0.03845,-0.954552 -0.104051,-0.845977 -0.154944,-0.744188 -0.187744,-0.648055 -0.204708,-0.558707 -0.206971,-0.475014 -0.191136,-0.396975 -0.1606,-0.324593 -0.113099,-0.257865 -0.04976,-0.199053 0.02941,-0.144766 0.12667,-0.09613 0.237507,-0.05429 0.43656,-0.03167 0.445608,0.009 0.453526,0.0475 0.462573,0.08822 0.470489,0.12667 0.479538,0.167386 -0.33364,-0.559837 -0.340427,-0.537218 -0.344951,-0.51573 -0.351736,-0.493109 -0.358522,-0.47049 -0.363047,-0.449001 -0.369832,-0.426382 -0.375487,-0.403762 -0.381142,-0.382273 -0.387928,-0.359653 -0.393583,-0.337034 -0.399238,-0.315545 -0.406023,-0.294056 -0.411679,-0.270305 -0.417334,-0.248817 -0.422988,-0.227328 -0.429775,-0.203577 -0.434298,-0.18322 -0.442215,-0.159469 -0.44674,-0.13798 -0.453525,-0.115361 -0.45918,-0.09387 -0.464835,-0.07125 -0.471621,-0.04863 -0.477275,-0.02714 -0.482931,-0.0045 -0.488586,0.0181 -0.495371,0.03959 -0.434299,0.05203 -0.433167,0.0656 -0.430905,0.0803 -0.429775,0.095 -0.427512,0.109705 -0.425251,0.124409 -0.422988,0.13798 -0.421858,0.152683 -0.419595,0.166255 -0.418465,0.182089 -0.415072,0.19566 -0.415071,0.210363 -0.411679,0.225066 -0.410548,0.238638 -0.408285,0.253341 -0.406024,0.268044 -0.404893,0.282746 -0.402631,0.296318 -0.401499,0.311021 -0.398107,0.325724 -0.396976,0.340426 -0.395845,0.353999 -0.393583,0.368701 -0.391321,0.383404 -0.389059,0.398107 -0.387928,0.411679 -0.385666,0.426381 -0.383404,0.441084 -0.382273,0.455787 -0.380011,0.469359 -0.377749,0.484062 -0.376618,0.498765 1.089139,-0.106313 0.845977,0.0181 0.603946,0.144766 0.360784,0.270305 0.118754,0.395845 -0.123278,0.521384 -0.366439,0.646924 -0.60847,0.773594 -0.851632,0.898002 -0.376618,0.374356 -0.37888,0.380012 -0.382273,0.385666 -0.383404,0.387927 -0.386797,0.389059 -0.389059,0.389059 -0.39019,0.387928 -0.392452,0.383404 -0.394714,0.37888 -0.396976,0.372095 -0.398107,0.364177 -0.399237,0.353998 -0.4015,0.342689 -0.4015,0.329117 -0.403762,0.315545 -0.404892,0.29858 -0.406024,0.281615 -0.407155,0.261258 -0.407155,0.2409 -0.408285,0.21828 -0.409417,0.193398 -0.409417,0.168517 -0.409416,0.140242 -0.410548,0.111968 -0.410548,0.08143 -0.409416,0.04976 -0.410548,0.0147 -0.410548,-0.02036 -0.409416,-0.05655 -0.409417,-0.095 -0.409417,-0.135718 -0.408286,-0.177565 -0.408285,-0.220542 -0.407155,-0.265782 -0.406024,-0.312152 -0.213756,-0.19566 -0.193398,-0.212625 -0.170779,-0.22959 -0.151552,-0.246555 -0.131195,-0.262389 -0.113098,-0.278222 -0.095,-0.294056 -0.07804,-0.307628 -0.06107,-0.3212 -0.04524,-0.335903 -0.03054,-0.349474 -0.01696,-0.360785 -0.0034,-0.374356 0.01018,-0.385666 0.02149,-0.396976 0.03167,-0.407154 0.04298,-0.418465 0.05316,-0.428643 0.06107,-0.437692 0.07012,-0.445608 0.07691,-0.455787 0.08256,-0.462573 0.08935,-0.47049 0.095,-0.478407 0.0984,-0.484061 0.101788,-0.489717 0.105182,-0.496503 0.106313,-0.501026 0.108574,-0.506681 0.108575,-0.510075 0.107443,-0.514598 0.107444,-0.51686 0.105182,-0.520254 0.102919,-0.522515 0.09953,-0.524777 0.09613,-0.525908 0.09048,-0.527039 0.08482,-0.52704 0.07804,-0.527039 0.07238,-0.527039 0.06334,-0.525908 0.05429,-0.524777 0.04637,-0.523647 0.03506,-0.520253 0.02375,-0.51686 0.01357,-0.514598 v -0.510075 l -0.01357,-0.506681 -0.02601,-0.502158 -0.04185,-0.496502 -0.05768,-0.490848 -0.07351,-0.484062 -0.09048,-0.478406 -0.107443,-0.47049 -0.126671,-0.463704 -0.147028,-0.455787 -0.165123,-0.44674 -0.187771,-0.437689 -0.208101,-0.428643 -0.230721,-0.419596 -0.254472,-0.408286 -0.278222,-0.396976 -0.301974,-0.386796 -0.340426,-0.399238 -0.347213,-0.385666 -0.355129,-0.370964 -0.361915,-0.35626 -0.368702,-0.342688 -0.374356,-0.329117 -0.381142,-0.313283 -0.386797,-0.299711 -0.391321,-0.28614 -0.396976,-0.270305 -0.40263,-0.256734 -0.406024,-0.242031 -0.410548,-0.227328 -0.415298,-0.212625 -0.418577,-0.197922 -0.421971,-0.18322 -0.425137,-0.168517 -0.427965,-0.153814 -0.430566,-0.139111 -0.432828,-0.123277 -0.434751,-0.109706 -0.43656,-0.09387 -0.437918,-0.07917 -0.438935,-0.06333 -0.43984,-0.04863 -0.440293,-0.03393 -0.440632,-0.0181 -0.440632,-0.0034 -0.440179,0.01244 -0.439614,0.02714 -0.43871,0.04298 -0.437465,0.05768 -0.435995,0.07465 -0.434185,0.08935 -0.432149,0.10405 -0.429775,0.121016 -0.427173,0.136849 -0.424232,0.151552 -0.420953,0.167386 -0.417447,0.183219 -0.413601,0.200185 -0.409643,0.214887 -0.405119,0.230721 -0.400595,0.247686 -0.395505,0.263519 -0.390303,0.279354 -0.384762,0.295186 -0.37888,0.311021 -0.372886,0.327986 -0.366439,0.343819 -0.359653,0.360784 -0.352755,0.376619 -0.345402,0.392452 -0.337939,0.410547 -0.330021,0.425251 -0.321879,0.443346 L 10.030567,26.09585 9.7258796,26.571995 9.4301269,27.063973 9.162762,27.536725 8.9059152,28.016263 8.6594735,28.501456 8.4233238,28.993434 8.197466,29.491068 7.981674,29.994356 7.7758347,30.5033 7.579948,31.016767 7.3937878,31.534758 7.2174672,32.057274 7.0505338,32.584313 6.8932137,33.114745 6.7452808,33.64857 6.606622,34.185788 6.4771242,34.726399 6.3567874,35.269272 6.2452722,35.814407 6.142805,36.361804 l -0.093872,0.548528 -0.08505,0.55079 -0.076568,0.550789 -0.068085,0.553052 -0.059716,0.553052 -0.05146,0.553052 -0.043317,0.554183 -0.035287,0.553052 -0.027257,0.553051 -0.019566,0.55079 -0.011649,0.55079 -0.00407,0.549659 0.00339,0.547397 0.010971,0.545135 0.018209,0.542873 0.025447,0.53948 0.032572,0.538349 0.039698,0.533825 0.046483,0.530432 0.053382,0.527039 0.060168,0.522515 0.066615,0.519123 0.073288,0.513467 0.079621,0.507812 0.085955,0.50442 0.092175,0.497633 0.09817,0.491979 0.1042768,0.485193 0.1101579,0.479538 0.115926,0.472751 0.121694,0.465966 0.1272359,0.458049 0.1326646,0.451264 0.1380933,0.442215 0.1434089,0.435429 0.1486115,0.425251 0.1535878,0.417333 0.1586772,0.408286 0.1634274,0.399238 0.1682906,0.389059 0.1729277,0.37888 0.1775647,0.369832 0.1818624,0.358522 0.1863864,0.347213 0.1905711,0.335903 0.3657606,0.620911 0.3622546,0.59716 0.3592015,0.575671 0.356712,0.554183 0.35479,0.532694 0.353659,0.512337 0.352868,0.493109 0.352754,0.473883 0.35332,0.454656 0.354338,0.43656 0.356034,0.418465 0.358296,0.4015 0.361011,0.385666 0.364516,0.368701 0.368475,0.353998 0.373112,0.339296 0.378202,0.324593 0.384082,0.30989 0.390416,0.297449 0.397202,0.285008 0.404893,0.272568 0.412923,0.260126 0.421631,0.249948 0.430906,0.239769 0.440745,0.22959 0.451263,0.219411 0.462234,0.211494 0.473882,0.202447 0.486098,0.194529 0.498877,0.187744 0.512224,0.180958 0.526247,0.174171 0.540837,0.169648 0.430227,0.127801 0.428983,0.121016 0.427852,0.114229 0.42672,0.107444 0.425477,0.100658 0.424459,0.095 0.423102,0.08822 0.422083,0.0803 0.42084,0.07465 0.419709,0.06786 0.418464,0.0622 0.417334,0.05429 0.415863,0.04863 0.415072,0.04072 0.41394,0.03506 0.41281,0.02827 0.411679,0.02149 0.410547,0.0147 0.408286,0.009 0.408286,0.0011 0.407154,-0.0045 0.406024,-0.01131 0.403762,-0.0181 0.403762,-0.02488 0.401499,-0.03167 0.4015,-0.03732 0.400369,-0.04524 0.398107,-0.05089 -1.140033,-0.704604 -0.19453,-0.584719 0.748713,-0.467097 0.236375,-0.06899 0.248817,-0.05994 0.262389,-0.05089 0.27596,-0.0475 0.290663,-0.04411 0.304236,-0.04411 0.320068,-0.04863 0.334772,-0.05429 0.349475,-0.06447 0.365308,-0.07578 0.381142,-0.08935 0.396976,-0.108574 0.41394,-0.127802 0.430906,-0.151552 0.44787,-0.178695 0.464835,-0.20584 0.4818,-0.238638 0.501026,-0.272567 0.517991,-0.30989 0.537218,-0.350605 0.555314,-0.393583 0.574541,-0.439954 0.593767,-0.487454 0.614125,-0.53948 0.377749,-0.353999 0.364178,-0.364177 0.352867,-0.373225 0.341558,-0.382273 0.329116,-0.391321 0.320069,-0.398107 0.307628,-0.406024 0.29858,-0.411678 0.289532,-0.417334 0.279354,-0.424119 0.270305,-0.427513 0.262389,-0.430905 0.253341,-0.43543 0.246554,-0.437691 0.238638,-0.438822 0.232983,-0.441085 0.225066,-0.442215 0.219412,-0.442215 0.213756,-0.441084 0.209232,-0.439954 0.203577,-0.438822 0.199054,-0.43656 0.194529,-0.433168 0.191137,-0.429774 0.187743,-0.425251 0.185482,-0.420726 0.182089,-0.415072 0.179826,-0.409416 0.178696,-0.402631 0.177565,-0.394714 0.175302,-0.386797 0.176434,-0.37888 0.175303,-0.368701 0.175303,-0.359654 0.176433,-0.348343 0.177565,-0.337034 0.178696,-0.325724 0.179826,-0.313283 0.18322,-0.300842 0.324593,-0.523646 0.3212,-0.525908 0.320068,-0.52817 0.3212,-0.525908 0.323462,-0.520254 0.326855,-0.513467 0.33251,-0.503288 0.340426,-0.490848 0.348344,-0.473883 0.359653,-0.455787 0.370963,-0.435429 0.385666,-0.410548 0.4015,-0.384535 0.418465,-0.355129 0.43656,-0.322331 0.458049,-0.287271 0.479538,-0.249947 0.503288,-0.209233 0.529301,-0.165123 0.556445,-0.121016 0.585851,-0.07125 0.615256,-0.01923 0.789427,0.06447 0.73401,0.166255 0.678591,0.256734 0.624304,0.335903 0.568886,0.403761 0.515729,0.458049 0.462573,0.502158 0.410548,0.533825 0.35626,0.554183 0.305366,0.5621 0.253341,0.559837 0.201315,0.544004 0.151552,0.51686 0.100658,0.478407 0.05203,0.428644 0.0011,0.366439 -0.0475,0.291794 -0.08822,0.306497 -0.08256,0.271437 -0.08482,0.252209 -0.09613,0.249948 -0.116491,0.262389 -0.145897,0.290663 -0.182089,0.334772 -0.228459,0.395845 -0.282746,0.47162 -0.346082,0.564362 -0.417333,0.671805 -0.497634,0.795083 -0.586981,0.935325 M 23.858672,41.073489 23.230636,40.863125 22.670007,40.596213 22.166831,40.280668 21.710705,39.92667 21.291788,39.542135 20.899675,39.13498 l -0.375148,-0.421858 -0.368475,-0.426381 -0.416881,0.761153 -0.404327,0.622042 -0.393809,0.507812 -0.385553,0.415072 -0.379446,0.350605 -0.375713,0.306497 -0.37413,0.290664 -0.374695,0.296318 -0.695104,-0.03054 -0.620911,-0.08709 -0.554409,-0.135711 -0.496163,-0.180957 -0.445721,-0.21715 -0.403423,-0.249947 -0.36904,-0.27483 -0.342689,-0.295187 -0.324366,-0.308759 -0.313962,-0.316676 -0.311586,-0.318938 -0.317355,-0.313283 -0.330926,-0.304235 -0.352641,-0.288401 0.132664,0.532694 0.161279,0.515729 0.194416,0.497634 0.231965,0.479538 0.273925,0.458049 0.320295,0.435429 0.371189,0.41281 0.426608,0.387928 0.486324,0.363046 0.55045,0.334772 0.619101,0.306497 0.692276,0.277091 0.769749,0.245424 0.851632,0.212625 0.49277,-0.383404 0.48983,-0.389059 0.478294,-0.411678 0.458614,-0.452395 0.430227,-0.507812 0.393583,-0.581327 0.34857,-0.671805 0.237054,0.579065 0.325385,0.496502 0.398559,0.428644 0.456126,0.375487 0.498539,0.335902 0.525455,0.311021 0.537218,0.299712 0.533373,0.303104 0.499443,-0.4015 0.512337,-0.387928 0.514259,-0.385666 0.505098,-0.396976 0.484966,-0.418465 0.453978,-0.454656 0.411791,-0.502157 0.358862,-0.564362 0.376618,0.579065 0.373225,0.580195 0.418465,0.536087 0.510074,0.443346 0.650317,0.304235 0.61978,-0.514598 0.510074,-0.490847 0.411679,-0.468228 0.323462,-0.447871 0.247685,-0.430905 0.18322,-0.416203 0.128932,-0.404892 0.08822,-0.393583 0.05542,-0.387928 0.03732,-0.383404 0.02941,-0.381142 0.03167,-0.382273 0.04637,-0.384535 0.07238,-0.391321 -0.237507,0.512336 -0.245424,0.508943 -0.270305,0.499896 -0.30989,0.484062 -0.365309,0.462573 -0.43656,0.434298 -0.523646,0.4015 -0.626566,0.360784 -0.659365,-0.393583 -0.572278,-0.531563 -0.511206,-0.632221 -0.470829,-0.694425 -0.349474,0.418465 -0.369154,0.409417 -0.393583,0.394714 -0.423214,0.37888 -0.457936,0.360784 -0.497747,0.338165 -0.542534,0.313282 -0.592523,0.287271 m 2.175677,-8.244883 0.52817,-0.161731 0.515729,-0.221673 0.503062,-0.282747 0.490848,-0.343819 0.478407,-0.403762 0.465966,-0.465966 0.453525,-0.525908 0.327986,-0.43656 0.288401,-0.44674 0.248817,-0.456918 0.209232,-0.464835 0.169648,-0.475014 0.130063,-0.485192 0.09048,-0.49311 0.05089,-0.503288 0.01131,-0.513468 0.325724,0.564362 0.282746,0.545135 0.238638,0.527039 0.195661,0.508943 0.150421,0.490848 0.107443,0.471621 0.06333,0.454656 0.01923,0.43656 -0.02375,0.417334 -0.06899,0.400369 -0.111967,0.381142 -0.154945,0.363046 -0.200185,0.346082 -0.243161,0.326854 -0.287271,0.308759 -0.331378,0.290664 -0.507813,0.370963 -0.495371,0.294056 -0.484062,0.217149 -0.471621,0.139111 -0.45918,0.06334 -0.44787,-0.01357 -0.43543,-0.09048 -0.423667,-0.168517 -0.411678,-0.244293 -0.399691,-0.32233 -0.387701,-0.398107 m -5.145871,0.698949 -0.443346,-0.0475 -0.442328,-0.08369 -0.441312,-0.117632 -0.440179,-0.152683 -0.439049,-0.188875 -0.438143,-0.222804 -0.437013,-0.258995 -0.435882,-0.292926 -0.434977,-0.329116 -0.433733,-0.363047 -0.415863,-0.389059 -0.380803,-0.403761 -0.345855,-0.418465 -0.310908,-0.434298 -0.275847,-0.449002 -0.2409,-0.463704 -0.205952,-0.478406 -0.170892,-0.494241 -0.135945,-0.508943 -0.100997,-0.523647 -0.233322,0.628828 -0.196791,0.605077 -0.160261,0.582458 -0.123617,0.559838 -0.08709,0.536087 -0.05044,0.512336 -0.01391,0.489717 0.02262,0.467097 0.05926,0.443346 0.09579,0.419595 0.132439,0.396976 0.168969,0.373225 0.2055,0.350606 0.242144,0.326855 0.278788,0.304235 0.315319,0.280484 0.351849,0.257865 0.38838,0.234114 0.552826,0.278222 0.532241,0.216018 0.511432,0.156076 0.490848,0.095 0.47015,0.03393 0.449454,-0.02714 0.428756,-0.08822 0.408173,-0.150421 0.387362,-0.210363 0.366779,-0.270306 0.346081,-0.332509 0.325385,-0.393583 0.3048,-0.454656"
     sodipodi:nodetypes="cccccccccccccccccccccccccccccccccccccccccccccccccccccccccccccccccccccccccccccccccccccccccccccccccccccccccccccccccccccccccccccccccccccccccccccccccccccccccccccccccccccccccccccccccccccccccccccccccccccccccccccccccccccccccccccccccccccccccccccccccccccccccccccccccccccccccccccccccccccccccccccccccccccccccccccccccccccccccccccccccccccccccccccccccccccccccccccccccccccccccccccccccccccccccccccccccccccccccccccccccccccccccccccccccccccccccccccccccccccccccccccccccccccccccccccccccccccccccccccccccccccccccccccccccccccccccccccccccccccccccccccccccccccccccccccccccccccccccccccccccccccccccccccccccccccccccccccccccccccccccccccccccccccccccccccccccccccccccccccccccccccccccccccccccccccccccccccccccccccccccccccccccccccccccccccccccccc"
     style="stroke-width:1.13099" />
  <path
     id="shape2"
     fill="#ffffff"
     fill-rule="evenodd"
     d="m 45.768674,23.145652 4.173336,-5.496589 6.412687,8.55025 -9.059193,6.514475 -8.652037,-10.077079 10.178868,-10.993177 -2.748295,-4.5804909 3.86797,-5.4965887 -1.933985,5.4965887 3.86797,4.6822789 -9.669925,11.298543 5.598378,5.496589 5.496588,-3.05366 -3.21901,-5.254784 -4.313352,2.913644"
     sodipodi:nodetypes="ccccccccccccccc"
     style="stroke-width:1.13099" />
  <path
     id="shape3"
     fill="#ffffff"
     fill-rule="evenodd"
     d="m 40.768317,7.4829307 1.603171,4.6568323 -3.168172,5.763783 5.916467,-5.687442 -4.351466,-4.7331733"
     sodipodi:nodetypes="ccccc"
     style="stroke-width:1.13099" />
  <path
     id="shape4"
     fill="#ffffff"
     fill-rule="evenodd"
     d="m 55.718529,10.193066 -2.748294,3.791628 3.180896,3.05366 -2.748295,3.130002 5.343906,-3.257238 -4.326019,-3.079107 1.297806,-3.638945"
     sodipodi:nodetypes="ccccccc"
     style="stroke-width:1.13099" />
</svg>
