<?xml version="1.0" encoding="UTF-8" standalone="no"?>
<!-- Created using Krita: https://krita.org -->

<svg
   width="100"
   height="100"
   viewBox="0 0 75 74.999999"
   version="1.1"
   id="svg1"
   sodipodi:docname="Grass.svg"
   inkscape:version="1.3.2 (091e20ef0f, 2023-11-25)"
   xmlns:inkscape="http://www.inkscape.org/namespaces/inkscape"
   xmlns:sodipodi="http://sodipodi.sourceforge.net/DTD/sodipodi-0.dtd"
   xmlns="http://www.w3.org/2000/svg"
   xmlns:svg="http://www.w3.org/2000/svg">
  <sodipodi:namedview
     id="namedview1"
     pagecolor="#898989"
     bordercolor="#000000"
     borderopacity="0.25"
     inkscape:showpageshadow="2"
     inkscape:pageopacity="0.0"
     inkscape:pagecheckerboard="0"
     inkscape:deskcolor="#d1d1d1"
     inkscape:document-units="pt"
     inkscape:zoom="5.9441164"
     inkscape:cx="90.425551"
     inkscape:cy="41.974279"
     inkscape:window-width="1920"
     inkscape:window-height="1010"
     inkscape:window-x="0"
     inkscape:window-y="1080"
     inkscape:window-maximized="1"
     inkscape:current-layer="svg1" />
  <defs
     id="defs1" />
  <path
     id="shape0"
     fill="#ffffff"
     fill-rule="evenodd"
     stroke="none"
     stroke-width="2.52385"
     stroke-linecap="square"
     stroke-linejoin="bevel"
     d="m 32.201867,38.261017 -0.993977,0.07109 -0.971964,0.0795 -0.95009,0.08791 -0.927936,0.09633 -0.905923,0.10474 -0.884049,0.113293 -0.861896,0.121565 -0.839882,0.130119 -0.818008,0.138531 -0.795855,0.146945 -0.773841,0.155357 -0.751828,0.16391 -0.729814,0.172183 -0.70794,0.180736 -0.685787,0.189148 -0.663773,0.197562 -0.641759,0.205974 -0.619746,0.214387 -0.597873,0.222801 -0.575719,0.231212 -0.553705,0.239766 -0.531691,0.248179 -0.509678,0.256592 -0.487664,0.265004 -0.465651,0.273418 -0.443637,0.28183 -0.421624,0.290243 -0.39961,0.298796 -0.377596,0.307209 -0.355583,0.315481 -0.333709,0.324035 -0.311555,0.332587 -0.289542,0.340861 -0.267529,0.349273 -0.245514,0.357826 -0.223361,0.366099 -0.201488,0.374651 -0.1794738,0.383065 -0.1574604,0.391478 -0.1354467,0.39989 -0.1134331,0.408443 -0.09142,0.416716 -0.069406,0.42527 -0.047392,0.433541 -0.025379,0.442095 -0.00337,0.450508 0.018789,0.45892 0.087914,1.005895 0.1311,0.944202 0.1741458,0.882506 0.2171915,0.820954 0.2603777,0.759399 0.303563,0.697704 0.346469,0.636151 0.389655,0.574457 0.43284,0.512903 0.475887,0.451349 0.518932,0.389655 0.561977,0.3281 0.605164,0.266407 0.64835,0.204853 0.691255,0.143298 0.734581,0.08161 0.777486,0.02005 0.820673,-0.04164 0.863718,-0.103197 0.906905,-0.164752 0.94995,-0.226446 -0.06043,1.012766 -0.01486,0.966355 0.03085,0.919944 0.07628,0.873814 0.121986,0.827263 0.167416,0.780992 0.213125,0.734721 0.258695,0.688311 0.304124,0.64204 0.349834,0.595629 0.395404,0.549358 0.440973,0.502948 0.486542,0.456677 0.532112,0.410266 0.577682,0.363996 0.623251,0.317584 0.668821,0.271314 0.714391,0.224904 0.75996,0.178632 0.805529,0.132222 0.851099,0.08595 0.896809,0.03954 0.942238,-0.0067 0.987808,-0.05314 1.029451,-0.109367 0.95009,-0.165031 0.873674,-0.217332 0.800341,-0.266968 0.730094,-0.313378 0.662792,-0.356845 0.598433,-0.397226 0.53716,-0.434944 0.478971,-0.469296 0.423727,-0.500844 0.371567,-0.529308 0.322212,-0.554827 0.276081,-0.577401 0.232896,-0.596892 0.192794,-0.613436 0.155638,-0.627037 0.121425,-0.637553 0.0903,-0.644984 0.06226,-0.649612 0.03716,-0.651154 0.01514,-0.649751 -0.0039,-0.645265 -0.02005,-0.637834 -0.03309,-0.627458 -0.04305,-0.613997 -0.04992,-0.597592 -0.05412,-0.578242 -0.05496,-0.555809 -0.05286,-0.530429 -0.04795,-0.501966 -0.03968,-0.470559 -0.02874,-0.436346 -0.01458,-0.398768 0.0025,-0.358527 0.0244,-0.546134 0.03421,-0.546414 0.04375,-0.546694 0.05342,-0.546835 0.06324,-0.546975 0.07277,-0.547255 0.08245,-0.547396 0.09212,-0.547676 0.101796,-0.547816 0.11161,-0.548096 0.121145,-0.548237 0.13082,-0.548517 0.140494,-0.548658 0.150169,-0.548938 0.70107,0.495657 0.692938,0.481214 0.684945,0.467053 0.676813,0.452611 0.668681,0.438309 0.660688,0.424148 0.652556,0.409705 0.644424,0.395403 0.636291,0.381102 0.628299,0.3668 0.620167,0.352498 0.612174,0.338056 0.603902,0.323894 0.595909,0.309593 0.587918,0.29529 0.579644,0.280849 0.571653,0.266687 0.56366,0.252245 0.555388,0.237943 0.547395,0.223782 0.539404,0.209339 0.53113,0.195038 0.523139,0.180736 0.515006,0.166434 0.507014,0.152132 0.498741,0.137831 0.490889,0.123388 0.482617,0.109227 0.474624,0.09492 0.466492,0.08048 0.45836,0.06632 0.450367,0.05188 0.442235,0.03772 0.434103,0.02328 0.42597,0.009 0.417978,-0.0052 0.409986,-0.01963 0.401713,-0.03393 0.393721,-0.04823 0.385588,-0.06253 0.377596,-0.07698 0.369324,-0.09114 0.361332,-0.105441 0.353339,-0.119883 0.345067,-0.134044 0.337074,-0.148347 0.329082,-0.162788 0.32081,-0.177091 0.312817,-0.191251 0.304826,-0.205694 0.296552,-0.219996 0.4979,-0.402975 0.464249,-0.409846 0.431018,-0.416856 0.397506,-0.423867 0.363996,-0.430737 0.330625,-0.437749 0.297113,-0.444758 0.263743,-0.45177 0.230231,-0.45864 0.196861,-0.465791 0.163349,-0.472521 0.129838,-0.479672 0.09661,-0.486543 0.06296,-0.493553 0.02958,-0.500564 -0.0038,-0.507435 -0.0373,-0.514585 -0.07081,-0.521456 -0.104179,-0.528326 -0.13769,-0.535478 -0.171061,-0.542347 -0.204573,-0.549219 -0.237943,-0.556369 -0.271454,-0.563239 -0.304825,-0.570251 -0.338337,-0.577261 -0.371707,-0.584131 -0.405218,-0.591143 -0.43873,-0.598153 0.424708,-0.737946 0.389655,-0.722523 0.354461,-0.707099 0.319267,-0.691676 0.284214,-0.676532 0.24902,-0.660969 0.213967,-0.645686 0.178772,-0.630262 0.14358,-0.614978 0.108525,-0.599555 0.07347,-0.584132 0.03828,-0.568848 0.0032,-0.553565 -0.03211,-0.538001 -0.06702,-0.522718 L 69.932187,28.38454 69.794778,27.892529 69.622314,27.415942 69.414658,26.954778 69.171947,26.508757 68.894043,26.0783 68.581085,25.663127 68.232934,25.263377 67.849729,24.87891 67.43133,24.509867 66.977878,24.156247 66.489232,23.81791 65.965393,23.494998 65.4065,23.187368 l -0.593947,-0.292206 -0.62914,-0.276782 -0.664334,-0.2615 -0.507294,-0.178913 -0.506874,-0.158722 -0.506593,-0.138672 -0.506173,-0.118621 -0.505892,-0.09843 -0.505611,-0.07838 -0.505192,-0.05833 -0.50491,-0.03828 -0.50463,-0.01823 -0.50421,0.0018 -0.503929,0.02201 -0.503509,0.04206 -0.503228,0.06211 -0.502947,0.08231 -0.502527,0.102216 -0.502247,0.122407 -0.501966,0.142458 -0.501546,0.162508 -0.501124,0.182698 -0.500985,0.20275 -0.500564,0.22266 -0.500143,0.24285 -0.499863,0.263042 -0.499583,0.282952 -0.499162,0.303142 -0.498881,0.323194 -0.498601,0.343244 -0.498181,0.363434 -0.4979,0.383345 -0.497479,0.403536 -0.497339,0.423587 -0.496778,0.443637 -0.496498,0.463828 -0.496217,0.483738 -0.495937,0.503929 -0.495517,0.52398 -0.495235,0.544171 -0.494816,0.564081 -0.494535,0.584271 -0.494114,0.604323 -0.493974,0.624373 -0.493413,0.644423 -0.493273,0.664615 0.130399,-0.667699 0.133204,-0.64863 0.136007,-0.629701 0.138952,-0.610632 0.141617,-0.591704 0.14456,-0.572634 0.147505,-0.553564 0.15017,-0.534637 0.153113,-0.515566 0.155918,-0.496498 0.158722,-0.477569 0.161667,-0.45864 0.164471,-0.439431 0.167276,-0.420502 0.170079,-0.401573 0.173024,-0.382503 0.118762,-0.256592 0.134605,-0.297394 0.148487,-0.335812 0.159984,-0.371988 0.169659,-0.40578 0.17723,-0.437467 0.182419,-0.466913 0.185783,-0.493834 0.186765,-0.518511 0.185924,-0.541226 0.182839,-0.561277 0.177651,-0.579364 0.1705,-0.595068 0.160966,-0.608389 0.149609,-0.619606 0.136007,-0.628299 0.120164,-0.635029 0.102496,-0.639236 0.08259,-0.641338 0.06057,-0.641199 0.03646,-0.638535 0.01024,-0.633767 -0.01809,-0.626756 -0.04838,-0.617385 -0.08104,-0.605725 L 47.212898,10.410168 47.060485,9.8344493 46.869234,9.2772388 46.637179,8.74078 46.361939,8.2271761 46.04155,7.738951 45.673909,7.2782077 45.256913,6.8471899 44.788458,6.4484212 44.266441,6.084005 43.688619,5.7561847 43.053169,5.4672036 42.357848,5.2194454 41.682858,5.0269316 41.020346,4.8740983 40.370454,4.7609456 l -0.637412,-0.073612 -0.624934,-0.033792 -0.612455,0.00589 -0.599836,0.04557 -0.587356,0.08525 -0.574878,0.1247904 -0.562398,0.1646113 -0.549919,0.2042918 -0.5373,0.2439724 -0.524821,0.2836529 -0.512342,0.3231933 -0.499863,0.3630141 -0.487244,0.4026946 -0.474765,0.4423752 -0.462285,0.4820557 -0.449807,0.5217364 -0.437327,0.5612766 -0.424708,0.6010975 -0.41223,0.6407781 -0.39975,0.680459 -0.387271,0.720139 -0.374652,0.759819 -0.362172,0.799501 -0.349694,0.839181 -0.777066,-0.295852 -0.757296,-0.259817 -0.737806,-0.223921 -0.718176,-0.187887 -0.698547,-0.152132 -0.678916,-0.116097 -0.659286,-0.0802 -0.639797,-0.04431 -0.620026,-0.0084 -0.600536,0.02748 -0.580907,0.06352 -0.561277,0.09941 -0.541647,0.135167 -0.522016,0.171341 -0.502527,0.207096 -0.482757,0.242991 -0.463267,0.279026 -0.443497,0.31492 -0.424007,0.350816 -0.404378,0.38671 -0.384887,0.422605 -0.365117,0.45864 -0.345488,0.494535 -0.325997,0.53043 -0.306368,0.566324 -0.286737,0.602219 -0.266968,0.638254 -0.247618,0.674009 -0.227847,0.710044 -0.258415,0.972244 -0.185082,0.938031 -0.115256,0.90396 -0.0495,0.870589 0.01248,0.837358 0.07081,0.804688 0.125211,0.772439 0.175969,0.740611 0.222659,0.709062 0.265706,0.678075 0.304965,0.647368 0.340439,0.617222 0.371988,0.587356 0.39975,0.558052 0.423867,0.528887 0.444058,0.500424 0.460463,0.472241 0.473082,0.444478 0.481915,0.417137 0.486823,0.390216 0.488085,0.363715 0.485421,0.337495 0.479112,0.311976 0.468735,0.286457 0.454854,0.26178 0.437047,0.237242 0.415314,0.213265 0.390076,0.189429 0.36063,0.166434 0.32768,0.143439 0.290944,0.121145 0.250142,0.09913 0.406901,0.156759 0.367221,0.139933 0.338476,0.125632 0.320529,0.114134 0.313659,0.105301 0.317585,0.09913 0.332587,0.09549 0.358387,0.09464 0.395124,0.09647 0.442936,0.100814 0.501545,0.107965 0.571232,0.11792 0.651574,0.130118 0.742995,0.145402 0.84535,0.163209 0.958643,0.18354 1.082873,0.206816 m 4.362058,0.802024 -0.108807,-0.121986 -0.454714,-0.527485 -0.438729,-0.526364 -0.422745,-0.525381 -0.406761,-0.524401 -0.390777,-0.523279 -0.374932,-0.522297 -0.358808,-0.521315 -0.342963,-0.520194 -0.326839,-0.519213 -0.310995,-0.518231 -0.29501,-0.517249 -0.279026,-0.516128 -0.263041,-0.515006 -0.247057,-0.514165 -0.231073,-0.513043 -0.215088,-0.511921 -0.199244,-0.51108 -0.18312,-0.509959 -0.142317,-0.424848 -0.13755,-0.433121 -0.132643,-0.441113 -0.127734,-0.449386 -0.123108,-0.457378 -0.118061,-0.465651 -0.113433,-0.473643 -0.108525,-0.481916 -0.103618,-0.489907 -0.09885,-0.498181 -0.09408,-0.506172 -0.08918,-0.514305 -0.08441,-0.522578 -0.0795,-0.53057 -0.07473,-0.538842 -0.06997,-0.546835 -0.06506,-0.554967 -0.06015,-0.56324 -0.05539,-0.571231 -0.05062,-0.579365 -0.04571,-0.587637 -0.04094,-0.595629 -0.03618,-0.603761 0.09871,0.567446 0.105722,0.561978 0.113012,0.556369 0.120163,0.550901 0.127315,0.545292 0.134605,0.539824 0.141757,0.534215 0.148907,0.528747 0.156058,0.523139 0.163349,0.51753 0.170501,0.512061 0.177651,0.506453 0.184802,0.500985 0.192093,0.495376 0.199104,0.489767 0.206535,0.4843 0.213546,0.47883 0.220837,0.473223 0.227848,0.467613 0.235139,0.462146 0.24243,0.456537 0.249441,0.450928 0.256731,0.44546 0.263883,0.439991 0.595489,0.959625 0.580346,0.911111 0.562258,0.860914 0.540946,0.809175 0.516548,0.756034 0.489066,0.70121 0.45836,0.645125 0.424428,0.587216 0.387692,0.527906 0.34745,0.467052 0.304264,0.404798 0.257994,0.340861 0.06492,0.08581 1.508002,-1.87424 -0.784357,2.40453 0.01598,-0.0063 0.216491,-0.09338 0.272295,-0.119883 0.326559,-0.142598 0.379138,-0.161667 0.430037,-0.17709 0.479672,-0.188868 0.527345,-0.197001 0.573755,-0.201487 0.618344,-0.202329 0.66139,-0.199244 0.702892,-0.192935 0.742714,-0.182558 0.781132,-0.168818 0.817728,-0.151151 0.852782,-0.129978 0.886433,-0.105161 0.918261,-0.0767 0.417838,-0.02342 0.423446,-0.01612 0.429196,-0.0086 0.434803,-0.0011 0.440412,0.0062 0.446161,0.01374 0.45191,0.02103 0.457518,0.0286 0.463127,0.0359 0.468876,0.04333 0.474484,0.0509 0.480093,0.05819 0.485982,0.06576 0.49145,0.07305 0.497199,0.08048 0.502807,0.08791 0.508556,0.09549 0.514165,0.102777 0.519914,0.110208 0.525522,0.11764 0.531271,0.125071 0.536879,0.132502 0.542488,0.139934 0.548237,0.147365 0.553845,0.154796 0.559594,0.162227 0.565203,0.169659 0.570951,0.177091 0.57656,0.184521 0.582169,0.191953 -0.659987,-0.134325 -0.649752,-0.126753 -0.639656,-0.119182 -0.629561,-0.11161 -0.619326,-0.104179 -0.60923,-0.09647 -0.599134,-0.08904 -0.588899,-0.08146 -0.578803,-0.07389 -0.568708,-0.06632 -0.558473,-0.05875 -0.548377,-0.05118 -0.538281,-0.04361 -0.528046,-0.03603 -0.518091,-0.0286 -0.507715,-0.02103 -0.49776,-0.01332 -0.487524,-0.0059 -0.477288,0.0017 -0.467333,0.0093 -0.457098,0.01683 -0.446862,0.0244 -0.436907,0.03197 -0.426671,0.0394 -0.416576,0.04711 -0.40634,0.05454 -0.396245,0.06212 -0.386149,0.06969 -0.375914,0.0774 -0.365819,0.08469 -0.355722,0.0924 -0.345488,0.09997 -0.335392,0.107544 -0.634608,0.214667 -0.621289,0.211864 -0.607967,0.209199 -0.594788,0.206395 -0.581328,0.203871 -0.568147,0.200927 -0.554827,0.198403 -0.541506,0.195458 -0.528186,0.192934 -0.515006,0.190131 -0.501686,0.187326 -0.488365,0.184661 -0.475045,0.181998 -0.461725,0.179334 -0.448545,0.176389 -0.435084,0.173866 -0.283793,0.115115 0.595489,2.13588 -1.531978,-1.793337 -0.146384,0.05258 -0.637553,0.352639 -0.624092,0.356143 -0.610913,0.359649 -0.597452,0.363014 -0.584131,0.36652 -0.570812,0.369884 -0.55749,0.37339 -0.544031,0.376755 -0.53085,0.38026 -0.51739,0.383766 -0.504209,0.387131 -0.490749,0.390636 -0.477429,0.394002 -0.464249,0.397506 -0.450788,0.401012 -0.437467,0.404378 -0.424008,0.407882 -0.410827,0.411248 -0.397506,0.414753 -0.384046,0.418258 -0.700229,0.787723 -0.682842,0.784497 -0.662091,0.774402 -0.637413,0.757857 -0.60951,0.734861 -0.577822,0.705277 -0.542628,0.669241 -0.503929,0.626617 -0.461585,0.577541 -0.415735,0.521736 -0.366379,0.459622 -0.313378,0.390917 -0.256732,0.315621 -0.19672,0.233737 -0.132923,0.145542 -0.06576,0.05062 0.006,-0.04263 0.05931,-0.125631 0.110209,-0.20289 0.158582,-0.274539 0.204151,-0.340159 0.247338,-0.400311 0.287999,-0.454714 0.326138,-0.503228 0.361612,-0.546134 0.394702,-0.58315 0.425129,-0.614558 0.453032,-0.640357 0.47827,-0.660128 0.501265,-0.674429 0.521456,-0.682702 0.539123,-0.685647 0.554406,-0.682421 0.567025,-0.673869 0.577121,-0.659286 0.584552,-0.639096 0.58974,-0.613155 0.591984,-0.581468 0.592124,-0.54403 1.006736,-0.899613 0.928778,-0.84479 0.850678,-0.78618 0.77272,-0.724205 0.6949,-0.658726 0.617082,-0.58988 0.539263,-0.517249 0.461445,-0.441254 0.383765,-0.361752 0.136709,-0.12437 -0.834694,-0.366099 -0.71425,-0.303423 -0.532253,-0.213686 -0.350394,-0.124229 -0.168538,-0.03463 2.860647,0.177791"
     sodipodi:nodetypes="ccccccccccccccccccccccccccccccccccccccccccccccccccccccccccccccccccccccccccccccccccccccccccccccccccccccccccccccccccccccccccccccccccccccccccccccccccccccccccccccccccccccccccccccccccccccccccccccccccccccccccccccccccccccccccccccccccccccccccccccccccccccccccccccccccccccccccccccccccccccccccccccccccccccccccccccccccccccccccccccccccccccccccccccccccccccccccccccccccccccccccccccccccccccccccccccccccccccccccccccccccccccccccccccccccccccccccccccccccccccccccccccccccccccccccccccccccccccccccccccccccccccccccccccccccccccccccccccccccccccccccccccccccccccccccccccccccccccccccccccccccccccccccccccccccccccccccccccccccccccccccccccccccccccccccccccccccccccccccccccccccccccccccccccccccccccccccccccccccccccccccccccccccccccccccccccccccccccccc" />
  <path
     id="shape1"
     fill="#ffffff"
     fill-rule="evenodd"
     stroke="none"
     stroke-width="2.52385"
     stroke-linecap="square"
     stroke-linejoin="bevel"
     d="m 40.79334,51.806812 -0.247618,2.649764 0.06744,0.760661 0.07586,0.737666 0.08427,0.714531 0.09268,0.691395 0.100954,0.66826 0.109367,0.645265 0.117639,0.622129 0.126193,0.598995 0.134465,0.575999 0.142738,0.552864 0.151291,0.529728 0.159563,0.506593 0.167837,0.483598 0.176389,0.460463 0.184662,0.437328 0.193074,0.414332 0.201348,0.391197 0.20976,0.368062 0.218173,0.344926 0.226586,0.321932 0.234858,0.298796 0.243271,0.275661 0.299217,0.302161 0.324736,0.294589 0.350254,0.287159 0.375774,0.279586 0.401292,0.272156 0.426672,0.264584 0.45233,0.257152 0.477709,0.249581 0.503228,0.24215 0.528747,0.234578 0.554266,0.227146 0.579645,0.219576 0.605304,0.212143 0.630682,0.204713 0.656202,0.197 0.681721,0.18971 0.707239,0.182138 0.732758,0.174566 0.758278,0.167136 -0.336654,-0.750286 -0.311976,-0.71467 -0.287439,-0.679057 -0.262901,-0.643302 -0.238224,-0.607687 -0.213686,-0.571933 -0.189008,-0.536319 -0.164612,-0.500564 -0.139933,-0.464949 -0.115256,-0.429196 -0.09072,-0.39358 -0.06618,-0.357967 -0.04024,-0.300899 -0.03351,-0.343664 -0.0279,-0.383345 -0.02412,-0.419521 -0.02145,-0.45205 -0.02033,-0.481354 -0.02061,-0.507155 -0.02243,-0.529588 -0.02538,-0.548517 -0.02987,-0.564221 -0.03576,-0.57628 -0.04319,-0.584973 -0.05188,-0.590301 -0.06198,-0.592123 -0.07361,-0.590582 -0.08665,-0.585533 -0.100954,-0.577262 -0.116799,-0.565342 -0.134044,-0.55006 -0.152693,-0.531551 -0.172744,-0.509258 -0.194196,-0.483878 -0.909569,-0.471119 -0.876057,-0.477849 -0.839321,-0.479953 -0.79964,-0.477289 -0.757016,-0.469997 -0.711165,-0.458079 -0.662371,-0.441534 -0.610632,-0.420221 -0.555668,-0.394282 -0.49776,-0.363715 -0.436907,-0.328522 -0.10488,-0.08118 0.0027,0.02888 0.05286,0.55665 0.05931,0.590722 0.06646,0.622269 0.07361,0.651575 0.08132,0.678636 0.08932,0.703173 0.09773,0.725467 0.106562,0.745518 0.115677,0.763045 0.125071,0.778188 0.134886,0.791227 0.145121,0.801744 0.06338,0.329222 6.61095,2.150743 -6.409883,-1.155083 0.0272,0.128997 0.149749,0.630122 0.163489,0.61638 0.177371,0.602921 0.191252,0.589179 0.205133,0.575438 0.219014,0.561838 0.232896,0.548237 0.246636,0.534495 0.260518,0.520895 0.274399,0.507154 0.28828,0.493554 0.302161,0.479952 0.315902,0.466212 0.329783,0.452471 0.343665,0.43901 0.357546,0.425128 0.371427,0.411669 0.385308,0.397927 0.399049,0.384187 -0.523279,-0.4979 -0.505331,-0.500985 -0.487524,-0.504069 -0.469437,-0.507014 -0.451489,-0.510239 -0.433682,-0.513043 -0.415734,-0.516268 -0.397787,-0.519213 -0.3797,-0.522297 -0.361892,-0.525241 -0.343945,-0.528327 -0.326138,-0.531411 -0.30805,-0.534355 -0.290103,-0.537441 -0.272296,-0.540525 -0.254208,-0.543469 -0.10516,-0.243131 -0.148487,0.689292 -0.169238,0.803987 -0.135307,0.665456 -0.101655,0.527064 -0.06786,0.388673 -0.03141,0.230232 -0.0031,0.13152 2.8e-4,-0.11175 0.0028,-0.01977 0.108245,-4.698151 -0.0043,-0.0122 L 41.939786,56.525573 41.79214,56.040152 41.650945,55.553049 41.516199,55.064122 41.388043,54.573514 41.266338,54.081082 41.151082,53.586968 41.042416,53.091171 40.9402,52.593552 40.84443,52.094109 40.79339,51.806811"
     sodipodi:nodetypes="cccccccccccccccccccccccccccccccccccccccccccccccccccccccccccccccccccccccccccccccccccccccccccccccccccccccccccccccccccccccccccccccccccccccccccccccccccccccccccccccccccc" />
  <path
     id="shape2"
     fill="#ffffff"
     fill-rule="evenodd"
     d="m 50.816303,52.812445 c 0.582474,2.032767 0.89954,3.646434 0.951198,4.840987 0.07748,1.791837 0.185343,4.592808 0.194973,4.435824 0.0097,-0.156969 1.004852,1.316455 2.50782,1.937351 1.001983,0.41394 2.583751,0.701827 4.745319,0.863676 -1.406081,-1.164645 -2.325029,-2.632854 -2.75686,-4.404626 -0.647733,-2.657659 -2.136693,-4.98559 -3.244118,-5.825177 -1.107423,-0.839596 -0.227231,-0.902946 -2.398332,-1.848035 z"
     sodipodi:nodetypes="czzzczcc"
     style="stroke-width:1.40214" />
  <path
     id="shape3"
     fill="#ffffff"
     fill-rule="evenodd"
     d="m 43.280596,30.01447 1.208645,-3.421502 0.198122,-0.431999 0.350255,-0.636712 0.414893,-0.666157 0.469296,-0.687469 0.513464,-0.70079 0.547255,-0.706398 0.570812,-0.703874 0.583851,-0.693499 0.586795,-0.67527 0.579505,-0.648911 0.561697,-0.614838 0.533655,-0.572634 0.495236,-0.522578 0.446721,-0.464529 0.387832,-0.398769 0.318426,-0.324735 0.239065,-0.243131 0.149048,-0.153254 0.04893,-0.05566 -0.0809,0.06043 -0.218033,0.184382 -0.338056,0.29515 -0.441113,0.39288 -0.527065,0.477428 -0.595769,0.548658 -0.647789,0.606706 -0.682421,0.651574 -0.700089,0.683263 -0.700649,0.701771 -0.684244,0.70724 -0.650734,0.699107 -0.587777,0.664334 1.596617,-4.519799 0.54375,-0.591002 0.587497,-0.562959 0.630823,-0.534636 0.674289,-0.506593 0.717895,-0.47827 0.389515,-0.227708 0.428634,-0.218594 0.468035,-0.209619 0.507294,-0.200647 0.546414,-0.191672 0.585814,-0.182559 0.625074,-0.173585 0.664194,-0.164751 0.703594,-0.155638 0.742853,-0.146523 -0.265144,0.675691 -0.250843,0.64218 -0.236541,0.608809 -0.222239,0.575298 -0.207938,0.541647 -0.193635,0.508276 -0.179334,0.474764 -0.318005,0.958784 -0.231494,0.894145 -0.146243,0.741732 -0.06226,0.501265 0.02047,0.173304 -0.0767,0.0366 -0.270332,0.124931 -0.432,0.204852 -0.561557,0.276643 -0.659286,0.340439 -0.725047,0.396105 -0.758698,0.443357 -0.76052,0.482756 -0.730375,0.513744 -0.66812,0.53674 -0.625915,0.548096 -0.511501,0.4585 -0.436486,0.408724 -0.401012,0.398909 -0.404938,0.429335 -0.448124,0.499442 -0.53071,0.609651 -0.652556,0.75982 -0.814083,0.949809"
     sodipodi:nodetypes="ccccccccccccccccccccccccccccccccccccccccccccccccccccccccccccccccccccccccccccccccc"
     style="stroke-width:1.40214" />
  <path
     id="shape4"
     fill="#ffffff"
     fill-rule="evenodd"
     d="m 23.932465,37.430109 -0.544731,-0.162228 -0.51739,-0.169799 -0.475886,-0.173445 -0.434383,-0.17681 -0.39274,-0.180455 -0.134185,-0.07011 -0.26234,-0.09366 -0.562258,-0.19644 -0.514726,-0.169659 -0.514725,-0.152833 -0.514726,-0.136288 -0.514445,-0.119462 -0.514445,-0.102637 -0.514305,-0.08609 -0.514305,-0.06927 -0.514165,-0.05258 -0.514025,-0.03575 -0.513884,-0.01921 -0.513884,-0.0024 -0.513744,0.01444 -0.513604,0.03099 -0.513464,0.04781 -0.513464,0.0645 -0.513323,0.08132 -0.513183,0.09801 -0.513184,0.114695 -0.513043,0.13138 -0.512902,0.148206 -0.5127632,0.164892 -0.5127626,0.181577 -0.5126224,0.198403 0.5740361,-0.284494 0.5682874,-0.264584 0.5625387,-0.245094 0.55665,-0.225324 0.551041,-0.205554 0.545152,-0.185924 0.539403,-0.166293 0.533655,-0.146524 0.527905,-0.126754 0.522157,-0.107123 0.516408,-0.08749 0.510519,-0.06772 0.504771,-0.04809 0.499021,-0.02832 0.493413,-0.0087 0.487384,0.01108 0.306228,0.01837 0.321931,0.02945 0.337636,0.04066 0.07838,0.01136 -0.115536,-0.08385 -0.655781,-0.487944 -0.700229,-0.531411 -0.744677,-0.574597 -0.468595,-0.153675 -0.519072,-0.08231 -0.569549,-0.01094 -0.619886,0.06029 -0.670504,0.131661 -0.72084,0.202889 -0.771317,0.274259 -0.555949,0.238784 -0.552303,0.282111 -0.548937,0.325717 -0.5455731,0.369184 -0.5420674,0.41279 -0.538562,0.456116 -0.5350566,0.499723 -0.5316915,0.543189 -0.5281862,0.586795 -0.524793,0.630122 0.5210072,0.125211 0.5394033,0.165032 0.5574909,0.204993 0.5757187,0.244673 0.5938063,0.284635 0.6121744,0.324595 0.630402,0.364416 0.843668,0.525663 0.740751,0.500844 0.637833,0.475887 0.534916,0.451208 0.43186,0.426391 0.641619,-0.324595 0.620166,-0.303984 0.598574,-0.283653 0.577121,-0.263322 0.555387,-0.242851 0.533935,-0.222379 0.512482,-0.201908 0.49075,-0.181437 0.469296,-0.161106 0.447843,-0.140635 0.426251,-0.120304 0.404658,-0.09969 0.581046,-0.123248 0.640077,-0.120584 0.680038,-0.116518 0.70107,-0.11147 0.703033,-0.10474 0.686208,-0.09703 0.650453,-0.08763 0.595488,-0.0774 0.522017,-0.06534 0.127595,-0.01556 -0.208498,-0.08735 -0.535057,-0.219715 -0.538281,-0.216771 -0.540105,-0.213265"
     sodipodi:nodetypes="ccccccccccccccccccccccccccccccccccccccccccccccccccccccccccccccccccccccccccccccccccccccccccccccccccccccccccccccc"
     style="stroke-width:1.40214" />
</svg>
