<?xml version="1.0" encoding="UTF-8" standalone="no"?>
<!-- Created using Krita: https://krita.org -->

<svg
   width="100"
   height="100"
   viewBox="0 0 75 75"
   version="1.1"
   id="svg1"
   sodipodi:docname="Ground.svg"
   inkscape:version="1.3.2 (091e20ef0f, 2023-11-25)"
   xmlns:inkscape="http://www.inkscape.org/namespaces/inkscape"
   xmlns:sodipodi="http://sodipodi.sourceforge.net/DTD/sodipodi-0.dtd"
   xmlns="http://www.w3.org/2000/svg"
   xmlns:svg="http://www.w3.org/2000/svg">
  <sodipodi:namedview
     id="namedview1"
     pagecolor="#828282"
     bordercolor="#000000"
     borderopacity="0.25"
     inkscape:showpageshadow="2"
     inkscape:pageopacity="0.0"
     inkscape:pagecheckerboard="0"
     inkscape:deskcolor="#d1d1d1"
     inkscape:document-units="pt"
     inkscape:zoom="4.203125"
     inkscape:cx="127.64312"
     inkscape:cy="61.739777"
     inkscape:window-width="1920"
     inkscape:window-height="1010"
     inkscape:window-x="0"
     inkscape:window-y="1080"
     inkscape:window-maximized="1"
     inkscape:current-layer="svg1" />
  <defs
     id="defs1" />
  <rect
     id="shape0"
     fill="#ffffff"
     fill-rule="evenodd"
     stroke-opacity="0"
     stroke="#000000"
     stroke-width="0"
     stroke-linecap="square"
     stroke-linejoin="bevel"
     width="9.3599997"
     height="12.14032"
     x="43.468884"
     y="38.634712" />
  <path
     id="shape01"
     fill="#ffffff"
     fill-rule="evenodd"
     stroke-opacity="0"
     stroke="#000000"
     stroke-width="0"
     stroke-linecap="square"
     stroke-linejoin="bevel"
     d="m 54.250886,38.626407 h 3.6225 l 6.7162,12.14032 h -10.3387 z"
     sodipodi:nodetypes="ccccc" />
  <path
     id="shape02"
     fill="#ffffff"
     fill-rule="evenodd"
     stroke-opacity="0"
     stroke="#000000"
     stroke-width="0"
     stroke-linecap="square"
     stroke-linejoin="bevel"
     d="m 39.029636,38.644196 h 3.015 v 12.14032 h -9.72 z"
     sodipodi:nodetypes="ccccc" />
  <path
     id="shape03"
     fill="#ffffff"
     fill-rule="evenodd"
     stroke-opacity="0"
     stroke="#000000"
     stroke-width="0"
     stroke-linecap="square"
     stroke-linejoin="bevel"
     d="M 47.799011,22.953065 V 36.3619 h -7.5825 z"
     sodipodi:nodetypes="cccc" />
  <path
     id="shape04"
     fill="#ffffff"
     fill-rule="evenodd"
     stroke-opacity="0"
     stroke="#000000"
     stroke-width="0"
     stroke-linecap="square"
     stroke-linejoin="bevel"
     d="m 49.239011,23.172402 7.4025,13.17172 h -7.4025 z"
     sodipodi:nodetypes="cccc" />
  <path
     id="shape05"
     fill="#ffffff"
     fill-rule="evenodd"
     stroke-opacity="0"
     stroke="#000000"
     stroke-width="0"
     stroke-linecap="square"
     stroke-linejoin="bevel"
     d="m 31.165886,52.657729 h 5.85 v 12.140319 h -12.6225 z"
     sodipodi:nodetypes="ccccc" />
  <rect
     id="shape06"
     fill="#ffffff"
     fill-rule="evenodd"
     stroke-opacity="0"
     stroke="#000000"
     stroke-width="0"
     stroke-linecap="square"
     stroke-linejoin="bevel"
     width="9.3599997"
     height="12.14032"
     x="38.410885"
     y="52.681438" />
  <rect
     id="shape07"
     fill="#ffffff"
     fill-rule="evenodd"
     stroke-opacity="0"
     stroke="#000000"
     stroke-width="0"
     stroke-linecap="square"
     stroke-linejoin="bevel"
     width="9.3599997"
     height="12.14032"
     x="49.233387"
     y="52.622158" />
  <path
     id="shape08"
     fill="#ffffff"
     fill-rule="evenodd"
     stroke-opacity="0"
     stroke="#000000"
     stroke-width="0"
     stroke-linecap="square"
     stroke-linejoin="bevel"
     d="m 60.039011,52.645873 h 5.625 l 6.7725,12.14032 h -12.3975 z"
     sodipodi:nodetypes="ccccc" />
  <path
     id="shape09"
     fill="#ffffff"
     fill-rule="evenodd"
     stroke-opacity="0"
     stroke="#000000"
     stroke-width="0"
     stroke-linecap="square"
     stroke-linejoin="bevel"
     d="m 17.860379,55.232805 h 10.100027 l -5.366257,9.466807 h -4.73377 z"
     sodipodi:nodetypes="ccccc" />
  <path
     id="shape010"
     fill="#ffffff"
     fill-rule="evenodd"
     stroke-opacity="0"
     stroke="#000000"
     stroke-width="0"
     stroke-linecap="square"
     stroke-linejoin="bevel"
     d="m 8.9020446,55.306658 h 7.2987994 v 9.466807 H 3.6370437 Z"
     sodipodi:nodetypes="ccccc" />
  <path
     id="shape011"
     fill="#ffffff"
     fill-rule="evenodd"
     stroke-opacity="0"
     stroke="#000000"
     stroke-width="0"
     stroke-linecap="square"
     stroke-linejoin="bevel"
     d="m 22.434802,43.815034 h 5.678775 c 0.670919,1.230001 1.677284,3.074986 3.019103,5.534988 -1.416815,2.616899 -2.126934,3.927509 -2.130348,3.931819 h -6.56753 z"
     sodipodi:nodetypes="cccccc" />
  <path
     id="shape012"
     fill="#ffffff"
     fill-rule="evenodd"
     stroke-opacity="0"
     stroke="#000000"
     stroke-width="0"
     stroke-linecap="square"
     stroke-linejoin="bevel"
     d="m 15.27647,43.888898 h 5.40876 v 9.466808 H 10.056466 Z"
     sodipodi:nodetypes="ccccc" />
  <path
     id="shape013"
     fill="#ffffff"
     fill-rule="evenodd"
     stroke-opacity="0"
     stroke="#000000"
     stroke-width="0"
     stroke-linecap="square"
     stroke-linejoin="bevel"
     d="m 21.741208,32.428142 5.291464,9.466807 H 16.465016 Z"
     sodipodi:nodetypes="cccc" />
  <path
     id="shape1"
     fill="#ffffff"
     stroke-opacity="0"
     stroke="#000000"
     stroke-width="0"
     stroke-linecap="square"
     stroke-linejoin="bevel"
     d="m 6.4131628,30.828981 0.98,1.788811 -0.98,-1.788811 c 0.00115,-0.0031 0.00222,-0.0052 0.00322,-0.0065 0.019042,-0.02611 0.032622,-0.05125 0.055383,-0.07382 0.2514092,-0.249298 0.4609212,-0.470679 0.7271972,-0.70221 0.432691,-0.376213 0.800871,-0.705772 1.268191,-1.032759 0.6214599,-0.434828 1.1889799,-0.749475 1.83659,-1.13961 0.21437,-0.129149 0.40589,-0.224943 0.62562,-0.34367 0.15403,-0.08322 0.28251,-0.163019 0.44224,-0.233311 0.77181,-0.339676 1.42985,-0.642415 2.21801,-0.93747 0.41415,-0.155042 0.78046,-0.258257 1.21191,-0.346554 0.47945,-0.09812 0.89603,-0.177733 1.38439,-0.184787 0.49585,-0.0072 0.92195,0.05303 1.41025,0.144416 0.4589,0.0859 0.85,0.189916 1.2872,0.360426 0.564,0.219993 1.0261,0.466639 1.5634,0.751419 0.7202,0.381724 1.3176,0.749148 2.0275,1.151834 0.1706,0.09682 0.3168,0.180049 0.4882,0.275307 0.2539,0.141057 0.4719,0.261164 0.7268,0.399892 0.2527,0.137464 0.4707,0.252302 0.7237,0.389218 0.1665,0.09015 0.3098,0.166276 0.4747,0.25952 0.3277,0.185267 0.6084,0.344608 0.9328,0.536187 0.1697,0.100253 0.3138,0.189008 0.4789,0.297491 0.3705,0.243344 0.6819,0.462006 1.051,0.707605 0.2002,0.133175 0.3711,0.248698 0.5754,0.37459 0.2008,0.123669 0.3741,0.227905 0.5818,0.338222 0.2044,0.10862 0.3767,0.213415 0.5948,0.286878 0.4754,0.160122 0.8886,0.285972 1.3799,0.37831 0.3804,0.07149 0.7152,0.111771 1.1009,0.08791 0.7078,-0.04375 1.3164,-0.116228 2.0081,-0.280144 0.645,-0.152818 1.1755,-0.37635 1.7944,-0.620906 0.2473,-0.0977 0.4502,-0.209157 0.6752,-0.354862 0.4762,-0.308482 0.8898,-0.570194 1.3246,-0.940432 0.2878,-0.244988 0.505,-0.496393 0.7281,-0.807373 0.2023,-0.28201 0.3425,-0.552005 0.4787,-0.875041 0.0964,-0.22839 0.1408,-0.441899 0.1808,-0.688257 0.0266,-0.163684 0.0262,-0.30941 0.0082,-0.474379 -0.0185,-0.169427 -0.0408,-0.319495 -0.1116,-0.472851 -0.0745,-0.161481 -0.2088,-0.375423 -0.4028,-0.64184 l 0.9752,1.780175 c -0.167,-0.154589 -0.3026,-0.262029 -0.4066,-0.32232 -0.1726,-0.1 -0.3291,-0.185002 -0.5237,-0.216829 -0.371,-0.06067 -0.6995,-0.09542 -1.0718,-0.0441 -0.5653,0.07794 -1.0387,0.227547 -1.582,0.409936 -0.2216,0.0744 -0.5253,0.216724 -0.9109,0.426956 l -0.9741,-1.777989 c 0.3867,-0.20827 0.691,-0.34946 0.9128,-0.423573 0.5436,-0.181588 1.0168,-0.331186 1.582,-0.409904 0.3715,-0.05172 0.6995,-0.01899 1.0699,0.04061 0.1943,0.03128 0.3507,0.116123 0.5231,0.215753 0.1039,0.06004 0.2392,0.167136 0.4061,0.321279 l 0.9752,1.780174 c 0.1941,0.266402 0.3284,0.480333 0.4029,0.641793 0.0709,0.153567 0.0933,0.303803 0.1119,0.473441 0.018,0.164948 0.0185,0.310674 -0.0082,0.474316 -0.0402,0.246136 -0.0848,0.459403 -0.1812,0.68753 -0.1365,0.322825 -0.2766,0.592746 -0.4791,0.874461 -0.2233,0.310632 -0.4408,0.561679 -0.7288,0.806045 -0.4354,0.369384 -0.8497,0.629748 -1.3263,0.937492 -0.2251,0.145379 -0.4278,0.257244 -0.6751,0.35482 -0.6192,0.244303 -1.15,0.467044 -1.795,0.619863 -0.6916,0.163862 -1.3,0.237052 -2.0076,0.281103 -0.3857,0.02402 -0.7203,-0.01631 -1.1007,-0.08758 -0.491,-0.092 -0.9041,-0.217272 -1.3792,-0.377045 -0.2181,-0.07335 -0.3903,-0.178206 -0.5948,-0.286794 -0.2076,-0.110296 -0.381,-0.214479 -0.5817,-0.338148 -0.2044,-0.125935 -0.3752,-0.241679 -0.5755,-0.374801 -0.3686,-0.24503 -0.6799,-0.462881 -1.0499,-0.705614 -0.1652,-0.108357 -0.3092,-0.197164 -0.4789,-0.297364 -0.3244,-0.191474 -0.605,-0.35072 -0.9326,-0.535892 -0.165,-0.09323 -0.3083,-0.169332 -0.4747,-0.259499 -0.2531,-0.137053 -0.4711,-0.252165 -0.7239,-0.389713 -0.2549,-0.138676 -0.4729,-0.25854 -0.7266,-0.399492 -0.1715,-0.09525 -0.3176,-0.178564 -0.4883,-0.275381 -0.7098,-0.402665 -1.3073,-0.770015 -2.0274,-1.151729 -0.5374,-0.284823 -0.9995,-0.531571 -1.5636,-0.751614 -0.4372,-0.170533 -0.8282,-0.274506 -1.2872,-0.360437 -0.4883,-0.09142 -0.9144,-0.151543 -1.4103,-0.144577 -0.4885,0.0069 -0.90528,0.08591 -1.38491,0.183833 -0.43151,0.08809 -0.79795,0.19102 -1.21203,0.346336 -0.78788,0.29551 -1.44537,0.599344 -2.21677,0.939737 -0.15966,0.07045 -0.28813,0.150226 -0.44211,0.233543 -0.21966,0.118853 -0.41113,0.214743 -0.62541,0.34406 -0.64732,0.390672 -1.2147,0.705677 -1.8356901,1.141243 -0.4670699,0.327609 -0.8350799,0.657569 -1.2669699,1.035004 -0.26596,0.232437 -0.47458,0.45522 -0.72515,0.705941 -0.02274,0.02276 -0.03608,0.0482 -0.054938,0.07462 -9.98e-4,0.0014 -0.00204,0.0037 -0.00312,0.0067 l -0.98,-1.78881 0.98,1.78881 v 0 z"
     sodipodi:nodetypes="cccccccccccccccccccccccccccccccccccccccccccccccccccccccccccccccccccccccccccccccccccccccccccc" />
  <path
     id="shape2"
     fill="#ffffff"
     stroke-opacity="0"
     stroke="#000000"
     stroke-width="0"
     stroke-linecap="square"
     stroke-linejoin="bevel"
     d="m 5.2862078,23.267554 c -2.64e-4,-3.37e-4 -4.87e-4,-5.8e-4 -6.7e-4,-7.06e-4 -0.00171,-0.0013 -0.00324,-0.0022 -0.00499,-0.0034 -4.81e-4,-3.27e-4 -0.00117,-7.8e-4 -0.00208,-0.0014 l -0.97999,-1.78879 c 1.341e-4,-8.22e-4 3.562e-4,-0.0014 6.663e-4,-0.0016 0.3052997,-0.234228 0.5509777,-0.460257 0.8727697,-0.668539 0.615894,-0.398639 1.144494,-0.746693 1.802104,-1.062774 1.04666,-0.503096 1.9807,-0.844458 3.0569002,-1.272763 0.27494,-0.10941 0.51605,-0.190398 0.80178,-0.262903 1.28673,-0.326492 2.38174,-0.657495 3.68878,-0.876516 0.995,-0.166719 1.8632,-0.220549 2.8707,-0.222615 0.8177,-0.0017 1.5231,0.05779 2.3277,0.21196 0.7663,0.146854 1.4112,0.354072 2.1399,0.644122 0.7308,0.290873 1.3137,0.648643 2.0156,1.009965 0.2559,0.131742 0.4645,0.267108 0.7205,0.398565 1.4629,0.751056 2.6935,1.449989 4.1903,2.12268 0.6686,0.300452 1.2678,0.512086 1.9824,0.651426 0.7279,0.141921 1.3712,0.188122 2.1104,0.146548 0.8277,-0.04654 1.5289,-0.207629 2.3381,-0.396679 0.5119,-0.119612 0.9431,-0.268489 1.4264,-0.48282 0.7785,-0.345198 1.4485,-0.649602 2.1701,-1.112062 0.6159,-0.394676 1.1075,-0.802831 1.6316,-1.324285 0.3222,-0.32057 0.5308,-0.666453 0.7667,-1.061741 0.1084,-0.181704 0.1614,-0.363735 0.2087,-0.572534 0.0662,-0.292105 0.1032,-0.54956 0.1137,-0.849685 0.0069,-0.198008 -0.0242,-0.368478 -0.0644,-0.562017 -0.0377,-0.181399 -0.0647,-0.346031 -0.1573,-0.504002 -0.0972,-0.165793 -0.2679,-0.378301 -0.512,-0.637525 l 0.9745,1.778809 c -0.2397,-0.149351 -0.431,-0.244914 -0.5737,-0.286657 -0.3634,-0.106291 -0.6849,-0.193085 -1.0621,-0.191747 -0.6029,0.0021 -1.1189,0.08717 -1.712,0.20158 -0.3299,0.06364 -0.6053,0.16557 -0.9136,0.304899 -0.4711,0.212961 -0.8694,0.415669 -1.3062,0.698437 -0.1635,0.105838 -0.3739,0.291041 -0.6311,0.555631 l -0.9719,-1.774005 c 0.2579,-0.263588 0.4686,-0.448138 0.6322,-0.553649 0.4373,-0.282038 0.8358,-0.484103 1.307,-0.697048 0.3082,-0.139265 0.5832,-0.241981 0.9129,-0.306168 0.5924,-0.115336 1.1079,-0.201373 1.7104,-0.204513 0.3767,-0.002 0.6979,0.08459 1.0611,0.190071 0.1424,0.04134 0.3332,0.136131 0.5725,0.28436 l 0.9745,1.778809 c 0.2443,0.259552 0.4151,0.472303 0.5124,0.638263 0.0926,0.157835 0.1195,0.322372 0.1571,0.503623 0.0402,0.193486 0.0713,0.363915 0.0643,0.561848 -0.0106,0.299925 -0.0477,0.55719 -0.114,0.849074 -0.0474,0.208683 -0.1003,0.390693 -0.2089,0.572166 -0.2363,0.394623 -0.4454,0.739842 -0.768,1.059432 -0.525,0.520095 -1.0178,0.92611 -1.6339,1.319912 -0.7222,0.461596 -1.3918,0.766684 -2.1703,1.111756 -0.4834,0.214247 -0.9147,0.362629 -1.4266,0.482515 -0.8089,0.189418 -1.5096,0.351331 -2.3369,0.398828 -0.7385,0.04241 -1.3814,-0.0024 -2.1088,-0.143587 -0.7144,-0.138665 -1.3136,-0.349845 -1.9818,-0.650287 -1.4975,-0.673376 -2.7285,-1.3735 -4.1919,-2.125683 -0.2563,-0.13172 -0.4649,-0.267603 -0.7211,-0.399556 -0.7018,-0.36149 -1.2849,-0.719008 -2.0156,-1.010038 -0.7289,-0.290314 -1.3739,-0.498028 -2.1406,-0.645261 -0.8047,-0.154557 -1.5103,-0.214721 -2.3282,-0.213035 -1.0073,0.0021 -1.8754,0.0567 -2.87,0.223785 -1.30689,0.219527 -2.40168,0.550856 -3.68814,0.877844 -0.28567,0.0726 -0.5268,0.153472 -0.80156,0.263293 -1.0753601,0.429833 -2.0085902,0.77286 -3.0541202,1.277842 -0.65704,0.317356 -1.18544,0.665747 -1.79998,1.066652 -0.32131,0.209621 -0.56527,0.438337 -0.869367,0.674757 -3.14e-4,2.43e-4 -5.28e-4,7.8e-4 -6.43e-4,0.0016 l -0.97999,-1.78879 c 9.083e-4,5.9e-4 0.0016,0.0011 0.00209,0.0014 0.00175,0.0012 0.00328,0.0022 0.005,0.0035 1.755e-4,1.26e-4 3.925e-4,3.58e-4 6.512e-4,6.74e-4 v 0 z"
     sodipodi:nodetypes="cccccccccccccccccccccccccccccccccccccccccccccccccccccccccccccccccccccccccc" />
</svg>
