<?xml version="1.0" encoding="UTF-8" standalone="no"?>
<!-- Created using Krita: https://krita.org -->

<svg
   width="100"
   height="100"
   viewBox="0 0 75 75"
   version="1.1"
   id="svg1"
   sodipodi:docname="Ice.svg"
   inkscape:version="1.3.2 (091e20ef0f, 2023-11-25)"
   xmlns:inkscape="http://www.inkscape.org/namespaces/inkscape"
   xmlns:sodipodi="http://sodipodi.sourceforge.net/DTD/sodipodi-0.dtd"
   xmlns="http://www.w3.org/2000/svg"
   xmlns:svg="http://www.w3.org/2000/svg">
  <sodipodi:namedview
     id="namedview1"
     pagecolor="#878787"
     bordercolor="#000000"
     borderopacity="0.25"
     inkscape:showpageshadow="2"
     inkscape:pageopacity="0.0"
     inkscape:pagecheckerboard="0"
     inkscape:deskcolor="#d1d1d1"
     inkscape:document-units="pt"
     inkscape:zoom="4.203125"
     inkscape:cx="26.052045"
     inkscape:cy="49.36803"
     inkscape:window-width="1920"
     inkscape:window-height="1010"
     inkscape:window-x="0"
     inkscape:window-y="1080"
     inkscape:window-maximized="1"
     inkscape:current-layer="svg1" />
  <defs
     id="defs1" />
  <path
     id="shape0"
     fill="#ffffff"
     fill-rule="evenodd"
     d="M 38.97736,21.909109 V 33.83664 l 8.371623,-8.371623 0.229931,-8.652888 0.340084,-0.121917 0.334736,-0.125125 0.32939,-0.127264 0.324042,-0.130472 0.319764,-0.131542 0.317626,-0.133681 0.313347,-0.133681 0.312279,-0.135819 0.310139,-0.13582 0.30907,-0.136889 0.620279,-0.272709 0.311208,-0.13475 0.28982,-0.124056 0.257737,8.081804 7.883956,0.160417 -0.03529,0.08663 -0.133681,0.317625 -0.13475,0.314417 -0.137958,0.31014 -0.139028,0.308 -0.141167,0.306931 -0.142237,0.303723 -0.28875,0.603167 -0.295167,0.601029 -0.148653,0.299445 -0.149723,0.299445 -0.149722,0.300514 -8.903138,0.555043 -8.056137,8.056137 h 11.781017 l 6.280857,-5.955745 0.32725,0.154 0.325112,0.148653 0.322973,0.142236 0.320833,0.136889 0.319765,0.133681 0.318695,0.129403 0.316556,0.127264 0.316556,0.125125 0.315486,0.122987 0.315487,0.121916 0.630973,0.245973 0.315487,0.124056 0.293028,0.117639 -5.533314,5.896925 5.461661,5.688384 -0.08662,0.03636 -0.318695,0.130472 -0.317626,0.126195 -0.316556,0.121917 -0.316556,0.119778 -0.316556,0.116569 -0.315486,0.114431 -0.630973,0.222445 -0.633112,0.216028 -0.316556,0.106944 -0.317626,0.105876 -0.318695,0.106944 -6.688315,-5.903342 H 41.449919 l 7.935289,7.936359 8.652888,0.229931 0.122986,0.340084 0.124056,0.334736 0.128334,0.32939 0.129403,0.322972 0.131541,0.320834 0.134751,0.316556 0.13368,0.314417 0.134751,0.312279 0.136889,0.310139 0.136889,0.30907 0.271639,0.620279 0.13582,0.310139 0.124055,0.290889 -8.082873,0.256667 -0.160417,7.885026 -0.08662,-0.03636 -0.317625,-0.132612 -0.314417,-0.135819 -0.30907,-0.136889 -0.30907,-0.139028 -0.305862,-0.142237 -0.304792,-0.142236 -0.603167,-0.28875 -0.599959,-0.294098 -0.299445,-0.148653 -0.299445,-0.149723 -0.301584,-0.149722 -0.555043,-8.904208 -8.056136,-8.056136 v 11.782086 l 5.955744,6.280857 -0.154,0.32725 -0.148653,0.325112 -0.142236,0.322973 -0.136889,0.320833 -0.133681,0.319765 -0.129403,0.318695 -0.127264,0.316556 -0.125125,0.316556 -0.122986,0.315486 -0.121917,0.315487 -0.245973,0.630973 -0.124056,0.315487 -0.117639,0.293028 -5.896925,-5.533314 -5.688383,5.461661 -0.03636,-0.08662 -0.130472,-0.318695 -0.126195,-0.317626 -0.121917,-0.316556 -0.119777,-0.316556 -0.11657,-0.316556 -0.114431,-0.315486 -0.222445,-0.630973 -0.216028,-0.633112 -0.106944,-0.316556 -0.105875,-0.317626 -0.106945,-0.318695 5.903342,-6.688315 v -11.09978 l -7.983415,7.983414 -0.549695,8.832555 -0.300514,0.149722 -0.300514,0.150792 -0.299445,0.148653 -0.300515,0.146514 -0.299445,0.147584 -0.301583,0.145444 -0.302654,0.143306 -0.303722,0.142237 -0.305862,0.141166 -0.308,0.139028 -0.31014,0.137959 -0.313347,0.13475 -0.317626,0.133681 -0.08769,0.03636 -0.159348,-7.885025 -8.083942,-0.256668 0.125125,-0.289819 0.13475,-0.312279 0.136889,-0.310139 0.136889,-0.30907 0.13475,-0.30907 0.13689,-0.311209 0.13475,-0.311208 0.13475,-0.314418 0.132611,-0.316556 0.131542,-0.320833 0.130473,-0.322973 0.128333,-0.329389 0.124056,-0.334737 0.122986,-0.340084 8.719194,-0.23207 8.227248,-8.227248 H 22.513238 l -6.634843,5.857347 -0.318695,-0.106945 -0.318695,-0.105875 -0.316556,-0.106944 -0.316556,-0.108014 -0.315487,-0.108014 -0.316556,-0.110153 -0.315486,-0.112292 -0.315487,-0.114431 -0.315486,-0.11657 -0.316556,-0.119778 -0.316556,-0.121916 -0.317626,-0.126195 -0.318695,-0.130472 -0.08769,-0.03636 5.462731,-5.687314 -5.534384,-5.897994 0.293028,-0.11657 0.316556,-0.125125 0.315487,-0.122986 0.315486,-0.121917 0.314418,-0.122987 0.316556,-0.122986 0.315486,-0.125125 0.317625,-0.127264 0.317626,-0.129403 0.319764,-0.133681 0.320834,-0.136889 0.322973,-0.142236 0.325111,-0.148653 0.327251,-0.154001 6.330051,6.001732 h 11.645198 l -8.41868,-8.41868 -8.833624,-0.549695 -0.149722,-0.301584 -0.150792,-0.299444 -0.147584,-0.299445 -0.147583,-0.300515 -0.146514,-0.299445 -0.146514,-0.301583 -0.143306,-0.302654 -0.142236,-0.303722 -0.141167,-0.305862 -0.139028,-0.308 -0.136889,-0.31014 -0.13582,-0.314417 -0.132611,-0.317625 -0.03636,-0.0877 7.883956,-0.158278 0.256667,-8.083942 0.28982,0.124055 0.312278,0.13582 0.310139,0.13582 0.30907,0.136889 0.310139,0.135819 0.31014,0.13689 0.311208,0.13475 0.315487,0.13475 0.315487,0.132611 0.320833,0.131542 0.324043,0.130473 0.32832,0.127264 0.335806,0.125125 0.340083,0.121917 0.23207,8.720263 8.226179,8.226178 V 22.053484 L 30.04,15.418641 l 0.106945,-0.318695 0.105875,-0.318695 0.106945,-0.316556 0.108014,-0.316556 0.108014,-0.315487 0.110153,-0.316556 0.112291,-0.315486 0.114431,-0.315487 0.11657,-0.315486 0.119778,-0.316556 0.121917,-0.316556 0.126194,-0.317626 0.130473,-0.318695 0.03636,-0.08769 5.687314,5.462731 5.897995,-5.534384 0.116569,0.293028 0.125125,0.316556 0.122987,0.315487 0.121916,0.315486 0.122987,0.314418 0.122986,0.316556 0.125125,0.315486 0.127264,0.317625 0.129403,0.317626 0.133681,0.319764 0.136889,0.320834 0.142236,0.322973 0.148653,0.325111 0.154001,0.327251 -6.001731,6.330051 m -6.871191,42.684799 0.09197,0.195709 0.160417,0.32725 0.164695,0.32832 0.172181,0.331528 0.178597,0.333667 0.186084,0.335806 0.193569,0.339015 0.201056,0.342223 0.209612,0.344362 0.217097,0.34757 0.226723,0.350778 0.235278,0.355057 0.244903,0.358264 0.254528,0.361473 0.264153,0.36575 0.275917,0.370029 0.285543,0.375375 0.297306,0.378584 0.308,0.382862 0.319764,0.388209 0.332598,0.393556 0.344362,0.398903 0.399973,-0.421362 0.380722,-0.413875 0.362543,-0.40639 0.344361,-0.399973 0.327251,-0.393556 0.311208,-0.387139 0.295168,-0.381792 0.280194,-0.375376 0.266292,-0.370028 0.25132,-0.364681 0.239556,-0.359334 0.226723,-0.355056 0.214958,-0.350779 0.204265,-0.3465 0.193569,-0.342224 0.183945,-0.339014 0.175389,-0.335806 0.167903,-0.332598 0.159348,-0.329389 0.15293,-0.32725 0.146515,-0.324042 0.0096,-0.02139 -5.325842,-4.916243 -5.132271,4.889507 m 7.194163,1.147516 -0.105875,0.65557 -0.294098,0.568945 -0.449167,0.449168 -0.568945,0.294096 -0.654501,0.105875 -0.655571,-0.105875 -0.568945,-0.294096 -0.449167,-0.449168 -0.294098,-0.568945 -0.105875,-0.65557 0.105875,-0.655571 0.294098,-0.568945 0.449167,-0.448098 0.568945,-0.294098 0.655571,-0.105875 0.654501,0.105875 0.568945,0.294098 0.449167,0.448098 0.294098,0.568945 0.105875,0.655571 M 32.152155,9.8853272 32.244127,9.6896185 32.403475,9.3623681 32.569239,9.0329787 32.74142,8.7014504 32.920017,8.3677832 33.106101,8.0319772 33.299671,7.6929628 33.500726,7.3518095 33.710338,7.0074479 33.927435,6.6588085 34.154158,6.3080302 34.389436,5.9540436 34.634339,5.5957792 34.888867,5.233237 35.153021,4.8674864 35.428938,4.4974581 35.71448,4.123152 36.010716,3.7445681 36.319786,3.360637 36.639551,2.972428 36.972148,2.5788719 37.31651,2.181038 l 0.399973,0.4213617 0.380722,0.4138756 0.362543,0.4063895 0.344361,0.3999728 0.327251,0.3935562 0.311209,0.3871394 0.295167,0.3807228 0.280195,0.3753756 0.266292,0.3700283 0.251319,0.3646811 0.239556,0.3604033 0.226723,0.3550561 0.214959,0.3497088 0.204264,0.3465006 0.193569,0.3432921 0.183945,0.3390144 0.175389,0.3347366 0.166834,0.3325977 0.160417,0.3293894 0.152931,0.3272505 0.146514,0.3251116 0.0086,0.02032 L 37.284472,14.773765 32.1522,9.8853277 M 39.346318,8.7367421 39.240443,8.0822412 38.946346,7.5122264 38.497178,7.0641285 37.928233,6.7700309 37.273732,6.6641557 l -0.65557,0.1058752 -0.568946,0.2940976 -0.449167,0.4480979 -0.294098,0.5700148 -0.105875,0.6545009 0.105875,0.6555704 0.294098,0.5689453 0.449167,0.4491672 0.568946,0.294098 0.65557,0.105875 0.654501,-0.105875 0.568945,-0.294098 0.449168,-0.4491672 0.294097,-0.5689453 0.105875,-0.6555704 m 13.648271,51.4788539 0.204264,0.07379 0.344361,0.117639 0.34864,0.1155 0.356125,0.112292 0.362543,0.110153 0.368958,0.105875 0.376445,0.102667 0.383932,0.09946 0.391417,0.09625 0.399973,0.09197 0.408528,0.08769 0.417084,0.08449 0.426709,0.08021 0.435264,0.07593 0.445959,0.07165 0.456654,0.06631 0.467348,0.06417 0.478042,0.05668 0.487668,0.05347 0.5005,0.04812 0.514404,0.04278 0.525098,0.0385 -0.01497,-0.580709 -0.02353,-0.56146 -0.03101,-0.543278 -0.03957,-0.527237 -0.04706,-0.509056 -0.05347,-0.494084 -0.06096,-0.479112 -0.06737,-0.46307 -0.07379,-0.450237 -0.08021,-0.435265 -0.08449,-0.4235 -0.0909,-0.411737 -0.09519,-0.399969 -0.101598,-0.389278 -0.104805,-0.378584 -0.109084,-0.370028 -0.113361,-0.361473 -0.11657,-0.353987 -0.120847,-0.345431 -0.122986,-0.340084 -0.125126,-0.332597 -0.0086,-0.02139 -7.242289,0.28982 -0.17218,7.086149 m 5.899064,-4.275645 0.388209,0.537931 0.194639,0.610654 v 0.635251 l -0.194639,0.610653 -0.38714,0.536862 -0.539,0.389279 -0.610654,0.194639 h -0.635251 l -0.609584,-0.194639 -0.539001,-0.389279 -0.388209,-0.537931 -0.194639,-0.610654 0.0011,-0.634181 0.194639,-0.610654 0.388209,-0.537931 0.537932,-0.388209 0.609584,-0.19357 0.635251,-0.0011 0.609584,0.194639 0.539001,0.388209 M 14.342656,21.49841 l -0.07379,-0.203195 -0.118709,-0.344362 -0.1155,-0.350778 -0.112292,-0.356126 -0.110153,-0.361472 -0.105875,-0.368959 -0.102667,-0.376445 -0.09839,-0.383931 -0.09625,-0.391418 -0.09304,-0.399972 -0.08769,-0.408529 -0.08342,-0.417084 -0.08021,-0.426709 -0.07593,-0.436334 -0.07272,-0.444889 -0.0663,-0.456654 -0.06203,-0.466278 -0.05882,-0.478043 -0.0524,-0.489806 -0.04919,-0.500501 -0.04278,-0.513334 -0.03743,-0.525098 0.58071,0.01497 0.561459,0.02353 0.543278,0.03101 0.527237,0.03957 0.509057,0.04706 0.494084,0.05347 0.478042,0.06096 0.46307,0.06738 0.450237,0.07272 0.435265,0.08021 0.42457,0.08556 0.411736,0.0909 0.398904,0.09518 0.389278,0.100528 0.379653,0.105875 0.370029,0.110153 0.360403,0.112292 0.352917,0.117639 0.346501,0.118709 0.340084,0.122986 0.333667,0.127264 0.02032,0.0075 -0.28875,7.242289 -7.08615,0.172181 m 4.274576,-5.899065 -0.536862,-0.388209 -0.611723,-0.194639 h -0.634181 l -0.610654,0.194639 -0.536862,0.388209 -0.389278,0.537932 -0.194639,0.610653 v 0.634182 l 0.194639,0.610653 0.388209,0.537932 0.537931,0.389278 0.610654,0.19357 h 0.635251 l 0.610653,-0.19357 0.537932,-0.389278 0.388209,-0.537932 0.193569,-0.609584 v -0.635251 l -0.193569,-0.610653 -0.389279,-0.537932 m 42.058104,6.25626 0.07379,-0.203195 0.117639,-0.345431 0.1155,-0.34864 0.113361,-0.356125 0.109084,-0.361473 0.105875,-0.368959 0.102667,-0.377514 0.100527,-0.383931 0.09518,-0.391418 0.09197,-0.398903 0.08769,-0.408528 0.08449,-0.418154 0.08021,-0.425639 0.07593,-0.436334 0.07165,-0.44489 0.06631,-0.456653 0.06417,-0.467348 0.05775,-0.478043 0.0524,-0.488736 0.04812,-0.500501 0.04385,-0.513334 0.0385,-0.526168 -0.580709,0.01604 -0.562529,0.02246 -0.543278,0.03101 -0.526168,0.03957 -0.510125,0.04706 -0.494084,0.05347 -0.478043,0.06203 -0.464139,0.0663 -0.449168,0.07379 -0.436334,0.08021 -0.4235,0.08449 -0.410668,0.0909 -0.399972,0.09625 -0.390348,0.100528 -0.378584,0.104805 -0.370028,0.110153 -0.361472,0.113362 -0.353987,0.116569 -0.345431,0.119778 -0.339014,0.122986 -0.332598,0.126195 -0.02246,0.0086 0.28982,7.241219 7.086149,0.172181 m -4.275645,-5.897995 0.539001,-0.389279 0.609584,-0.194639 h 0.635251 l 0.610653,0.194639 0.537931,0.388209 0.38821,0.537932 0.194639,0.610653 v 0.635251 l -0.194639,0.610654 -0.38821,0.537931 -0.539,0.388209 -0.609584,0.194639 -0.635251,-0.0011 -0.609584,-0.19357 -0.539001,-0.389278 -0.38714,-0.536862 -0.194639,-0.610654 -0.0011,-0.634181 0.194639,-0.610654 0.388209,-0.537931 m -34.441509,44.549913 -0.203195,0.07379 -0.344362,0.118709 -0.349709,0.1155 -0.356125,0.112292 -0.362542,0.110153 -0.368959,0.105875 -0.376445,0.102667 -0.383931,0.09946 -0.391418,0.09518 -0.399972,0.09304 -0.408529,0.08769 -0.416014,0.08342 -0.426709,0.08021 -0.436334,0.077 -0.445959,0.07165 -0.456654,0.0663 -0.466279,0.0631 -0.476972,0.05775 -0.490876,0.05347 -0.500501,0.04812 -0.513335,0.04278 -0.524027,0.0385 0.01497,-0.580709 0.02353,-0.562529 0.03101,-0.543278 0.0385,-0.526168 0.04706,-0.510126 0.05347,-0.494084 0.06096,-0.478042 0.06738,-0.46307 0.07272,-0.450237 0.08021,-0.435264 0.08556,-0.42457 0.0909,-0.410668 0.09518,-0.399973 0.100528,-0.389278 0.105875,-0.379653 0.110153,-0.370029 0.112292,-0.360403 0.117639,-0.352917 0.119778,-0.346501 0.122986,-0.339014 0.126195,-0.333667 0.0086,-0.02032 7.241219,0.288751 0.172181,7.08508 m -5.899065,-4.274576 -0.388209,0.537931 -0.194639,0.610654 0.0011,0.634181 0.193569,0.610654 0.388209,0.537932 0.537932,0.388208 0.610653,0.19464 0.634182,0.0011 0.611723,-0.195709 0.536862,-0.387139 0.389278,-0.539001 0.194639,-0.610654 v -0.63525 l -0.194639,-0.609585 -0.389278,-0.539 -0.536862,-0.38714 -0.610654,-0.194639 h -0.635251 l -0.610653,0.194639 -0.537932,0.388209 m 48.994531,-13.488923 0.195709,-0.09197 0.32725,-0.160417 0.32832,-0.164695 0.331528,-0.172181 0.333667,-0.178597 0.335806,-0.186084 0.339015,-0.193569 0.342223,-0.201056 0.344362,-0.209612 0.34757,-0.217097 0.350778,-0.226723 0.355057,-0.235278 0.358264,-0.244903 0.361473,-0.254528 0.36575,-0.264153 0.370029,-0.275917 0.375375,-0.285542 0.378584,-0.297306 0.382862,-0.308001 0.388209,-0.319764 0.393556,-0.332598 0.398903,-0.344362 -0.421362,-0.399972 -0.413875,-0.380723 -0.40639,-0.362542 -0.399973,-0.344362 -0.393556,-0.327251 -0.387139,-0.311208 -0.381792,-0.295167 -0.375376,-0.280195 -0.370028,-0.266292 -0.364681,-0.25132 -0.359334,-0.239556 -0.355056,-0.226723 -0.350779,-0.214958 -0.3465,-0.204264 -0.342223,-0.19357 -0.339015,-0.183945 -0.335806,-0.175389 -0.332598,-0.167903 -0.329388,-0.159348 -0.327251,-0.15293 -0.324042,-0.146514 -0.02139,-0.0096 -4.916243,5.325841 4.889507,5.132271 m 1.147516,-7.194163 0.65557,0.105875 0.568945,0.294098 0.449168,0.449167 0.294097,0.568945 0.105874,0.654501 -0.105874,0.655571 -0.294097,0.568945 -0.449168,0.449167 -0.568945,0.294098 -0.65557,0.105875 -0.655571,-0.105875 -0.568945,-0.294098 -0.448098,-0.449167 -0.294098,-0.568945 -0.105875,-0.655571 0.105875,-0.654501 0.294098,-0.568945 0.448098,-0.449167 0.568945,-0.294098 0.655571,-0.105875 M 10.345081,42.69807 10.149372,42.606098 9.8221221,42.44675 9.4927327,42.280986 9.1612044,42.108805 8.8275372,41.930208 8.4917312,41.744124 8.1527168,41.550554 7.8115635,41.349499 7.4672019,41.139887 7.1185625,40.92279 6.7677842,40.696067 6.4137976,40.460789 6.0555332,40.215886 5.692991,39.961358 5.3272404,39.697205 4.9572121,39.421287 4.582906,39.135745 4.2043221,38.839509 3.820391,38.530439 3.4321821,38.210675 3.0386259,37.878077 2.640792,37.533715 3.0621537,37.133742 3.4760293,36.75302 3.8824188,36.390477 4.2823916,36.046116 4.6759478,35.718865 5.0630872,35.407657 5.44381,35.112489 5.8191856,34.832295 6.1892139,34.566003 6.553895,34.314683 6.9142983,34.075127 7.2693544,33.848404 7.6190632,33.633446 7.9655638,33.429181 8.3088559,33.235612 8.6478703,33.051667 8.9826069,32.876278 9.3152046,32.709444 9.644594,32.549027 l 0.3272505,-0.15293 0.3251115,-0.146515 0.02032,-0.0086 4.916243,5.324772 -4.888437,5.132271 m -1.1485854,-7.194163 -0.6545009,0.105875 -0.5700148,0.294097 -0.4480979,0.449168 -0.2940976,0.568945 -0.1058752,0.654501 0.1058752,0.65557 0.2940976,0.568946 0.4480979,0.449167 0.5700148,0.294098 0.6545009,0.105875 0.6555699,-0.10583 0.5689455,-0.294098 0.449167,-0.449167 0.294098,-0.568946 0.105875,-0.65557 -0.105875,-0.654501 -0.294098,-0.568945 -0.449167,-0.449168 -0.5689455,-0.294097 -0.6555704,-0.105875"
     sodipodi:nodetypes="ccccccccccccccccccccccccccccccccccccccccccccccccccccccccccccccccccccccccccccccccccccccccccccccccccccccccccccccccccccccccccccccccccccccccccccccccccccccccccccccccccccccccccccccccccccccccccccccccccccccccccccccccccccccccccccccccccccccccccccccccccccccccccccccccccccccccccccccccccccccccccccccccccccccccccccccccccccccccccccccccccccccccccccccccccccccccccccccccccccccccccccccccccccccccccccccccccccccccccccccccccccccccccccccccccccccccccccccccccccccccccccccccccccccccccccccccccccccccccccccccccccccccccccccccccccccccccccccccccccccccccccccccccccccccccccccccccccccccccccccccccccccccccccccccccccccccccccccccccccccccccccccccccccccccccccccccccccccccccccccccccccccccccccccccccccccccccccccccccccccccccccccccccccccccccccccccccccccccccccccccccccccccccccccccccccccccccccccccccccccccccccccccccccccccccccccccccccccccccccccccccccc"
     style="stroke-width:1.06945" />
  <rect
     id="shape1"
     transform="rotate(22.143596)"
     fill="#ffffff"
     fill-rule="evenodd"
     width="20.790031"
     height="1.5400023"
     x="38.037228"
     y="19.496916"
     style="stroke-width:1.06945" />
  <rect
     id="shape01"
     transform="rotate(-22.244803)"
     fill="#ffffff"
     fill-rule="evenodd"
     stroke-opacity="0"
     stroke="#000000"
     stroke-width="0"
     stroke-linecap="square"
     stroke-linejoin="bevel"
     width="20.790031"
     height="1.5400023"
     x="10.081606"
     y="47.892834" />
  <rect
     id="shape02"
     transform="rotate(112.1436)"
     fill="#ffffff"
     fill-rule="evenodd"
     stroke-opacity="0"
     stroke="#000000"
     stroke-width="0"
     stroke-linecap="square"
     stroke-linejoin="bevel"
     width="20.790031"
     height="1.5400023"
     x="9.6219273"
     y="-49.593403" />
  <rect
     id="shape011"
     transform="rotate(67.755197)"
     fill="#ffffff"
     fill-rule="evenodd"
     stroke-opacity="0"
     stroke="#000000"
     stroke-width="0"
     stroke-linecap="square"
     stroke-linejoin="bevel"
     width="20.790031"
     height="1.5400023"
     x="38.105579"
     y="-21.357145" />
</svg>
