<?xml version="1.0" encoding="UTF-8" standalone="no"?>
<!-- Created using Krita: https://krita.org -->

<svg
   width="100"
   height="100"
   viewBox="0 0 75.000001 75.000001"
   version="1.1"
   id="svg1"
   sodipodi:docname="Nuclear.svg"
   inkscape:version="1.3.2 (091e20ef0f, 2023-11-25)"
   xmlns:inkscape="http://www.inkscape.org/namespaces/inkscape"
   xmlns:sodipodi="http://sodipodi.sourceforge.net/DTD/sodipodi-0.dtd"
   xmlns="http://www.w3.org/2000/svg"
   xmlns:svg="http://www.w3.org/2000/svg">
  <sodipodi:namedview
     id="namedview1"
     pagecolor="#8a8a8a"
     bordercolor="#000000"
     borderopacity="0.25"
     inkscape:showpageshadow="2"
     inkscape:pageopacity="0.0"
     inkscape:pagecheckerboard="0"
     inkscape:deskcolor="#d1d1d1"
     inkscape:document-units="pt"
     inkscape:zoom="4.203125"
     inkscape:cx="40.327138"
     inkscape:cy="56.267658"
     inkscape:window-width="1920"
     inkscape:window-height="1010"
     inkscape:window-x="0"
     inkscape:window-y="1080"
     inkscape:window-maximized="1"
     inkscape:current-layer="svg1" />
  <defs
     id="defs1" />
  <path
     id="shape0"
     fill="none"
     stroke="#ffffff"
     stroke-width="2.27089"
     stroke-linecap="square"
     stroke-linejoin="bevel"
     d="m 5.3705803,39.229962 c 0.5313121,17.650983 14.8092187,31.113312 32.3448907,31.113312 4.978039,0 8.55822,-0.714068 12.771349,-2.750424 m 5.062692,-2.768086 c 8.56188,-5.904183 14.526115,-16.004968 14.526115,-27.295823 0,-10.307183 -4.282012,-19.163899 -11.61206,-25.179734 M 53.575606,8.8567326 C 48.908552,6.2094069 43.443155,4.7146074 37.715471,4.7146074 21.055605,4.7146074 7.6484325,16.629162 5.8639938,33.04053"
     sodipodi:nodetypes="ccccccccc" />
  <circle
     id="shape1"
     r="7.2668424"
     cx="37.715408"
     cy="37.528938"
     fill="#ffffff"
     fill-rule="evenodd"
     style="stroke-width:1.2616" />
  <path
     id="shape2"
     fill="none"
     stroke="#ffffff"
     stroke-width="2.27089"
     stroke-linecap="square"
     stroke-linejoin="miter"
     stroke-miterlimit="2.16"
     d="M 6.1784235,39.175309 27.070594,38.721132 c 0.404849,4.255404 3.160951,6.984406 4.995954,8.51583 l -9.367413,14.079507"
     sodipodi:nodetypes="cccc" />
  <path
     id="shape01"
     fill="none"
     stroke="#ffffff"
     stroke-width="2.27089"
     stroke-linecap="square"
     stroke-linejoin="miter"
     stroke-miterlimit="2.16"
     d="M 53.08083,9.4805834 42.867208,27.711614 C 39.132366,26.513102 35.325323,26.816859 32.99408,27.693447 L 25.328394,12.025025"
     sodipodi:nodetypes="cccc" />
  <path
     id="shape02"
     fill="none"
     stroke="#ffffff"
     stroke-width="2.27089"
     stroke-linecap="square"
     stroke-linejoin="miter"
     stroke-miterlimit="2.16"
     d="M 55.466713,64.304579 44.150802,46.736458 c 2.809467,-2.737215 4.325802,-6.242444 4.644345,-8.712577 l 15.583263,0.427242"
     sodipodi:nodetypes="cccc" />
  <path
     id="shape3"
     fill="none"
     stroke="#ffffff"
     stroke-width="2.27089"
     stroke-linecap="square"
     stroke-linejoin="miter"
     stroke-miterlimit="2.16"
     d="M 22.344334,61.756415 C 15.832524,58.716201 11.005461,49.760789 9.9538003,43.092617 L 23.749446,42.695211 c 0.268091,2.355592 1.788829,3.995401 3.633421,5.450132 l -6.202363,7.564833 c -3.166375,-1.557943 -4.964023,-5.66415 -5.620449,-9.040911 l 4.414039,-0.184509 1.561236,2.6541"
     sodipodi:nodetypes="cccccccc" />
  <path
     id="shape03"
     fill="none"
     stroke="#ffffff"
     stroke-width="2.27089"
     stroke-linecap="square"
     stroke-linejoin="miter"
     stroke-miterlimit="2.16"
     d="M 25.212693,12.073508 C 31.137894,7.6316263 40.980995,7.7811264 47.389063,9.9041419 L 41.416438,22.346224 c -2.216298,-0.841881 -4.257335,-0.52619 -6.282387,0.04857 L 31.133112,13.86419 c 3.227563,-1.61064 7.406048,-1.331636 10.506807,-0.617972 l -1.860034,4.00726 -2.644639,0.244839"
     sodipodi:nodetypes="cccccccc" />
  <path
     id="shape04"
     fill="none"
     stroke="#ffffff"
     stroke-width="2.27089"
     stroke-linecap="square"
     stroke-linejoin="miter"
     stroke-miterlimit="2.16"
     d="m 65.737499,38.261176 c 1.009763,7.336129 -3.896062,15.870871 -8.861208,20.444478 l -7.982499,-11.25866 c 1.811348,-1.52962 2.525442,-3.467545 3.005205,-5.517186 l 9.400493,0.639747 c -0.157335,3.603685 -2.428375,7.122199 -4.556676,9.487443 l -2.601795,-3.570492 1.068857,-2.43139"
     sodipodi:nodetypes="cccccccc" />
</svg>
