<?xml version="1.0" encoding="UTF-8" standalone="no"?>
<!-- Created using Krita: https://krita.org -->

<svg
   width="100"
   height="100"
   viewBox="0 0 75 75"
   version="1.1"
   id="svg1"
   sodipodi:docname="Poison.svg"
   inkscape:version="1.3.2 (091e20ef0f, 2023-11-25)"
   xmlns:inkscape="http://www.inkscape.org/namespaces/inkscape"
   xmlns:sodipodi="http://sodipodi.sourceforge.net/DTD/sodipodi-0.dtd"
   xmlns="http://www.w3.org/2000/svg"
   xmlns:svg="http://www.w3.org/2000/svg">
  <sodipodi:namedview
     id="namedview1"
     pagecolor="#8e8e8e"
     bordercolor="#000000"
     borderopacity="0.25"
     inkscape:showpageshadow="2"
     inkscape:pageopacity="0.0"
     inkscape:pagecheckerboard="0"
     inkscape:deskcolor="#d1d1d1"
     inkscape:document-units="pt"
     inkscape:zoom="4.203125"
     inkscape:cx="92.907063"
     inkscape:cy="29.144981"
     inkscape:window-width="1920"
     inkscape:window-height="1010"
     inkscape:window-x="0"
     inkscape:window-y="1080"
     inkscape:window-maximized="1"
     inkscape:current-layer="svg1" />
  <defs
     id="defs1" />
  <path
     id="shape0"
     fill="#ffffff"
     fill-rule="evenodd"
     d="m 27.814974,44.155288 0.778713,10.299985 2.403717,1.308254 0.368046,-7.721552 1.427762,0.951842 0.631389,8.174205 3.497489,1.319888 0.249594,-8.161515 0.80272,-0.02221 0.915884,0.02644 0.344778,8.162572 3.42663,-1.320945 0.630331,-8.174206 1.427763,-0.951841 0.369103,7.722609 2.403929,-1.309311 0.78051,-10.32431 0.223154,-0.15018 0.448423,-0.324684 0.435732,-0.337375 0.421984,-0.351124 0.409292,-0.362757 0.394485,-0.374391 0.380737,-0.387082 0.364873,-0.398716 0.351123,-0.409292 0.334203,-0.419868 0.318338,-0.430444 0.302474,-0.44102 0.285552,-0.450539 0.268631,-0.458999 0.25171,-0.469575 0.232672,-0.476979 0.214693,-0.486497 0.196714,-0.4939 0.17662,-0.502361 0.15864,-0.508706 0.137488,-0.51611 0.117394,-0.523513 0.0973,-0.528801 0.07615,-0.535147 0.05499,-0.541492 0.03384,-0.545722 0.01058,-0.552069 -0.01058,-0.55101 -0.03384,-0.54678 -0.05499,-0.540435 -0.07615,-0.535147 -0.0973,-0.529858 -0.117394,-0.522456 -0.137488,-0.516109 -0.15864,-0.509764 -0.17662,-0.501304 -0.196714,-0.494958 -0.214693,-0.485439 -0.232672,-0.478036 -0.25171,-0.468518 -0.268631,-0.460056 -0.285552,-0.450539 -0.302474,-0.44102 -0.318338,-0.430444 -0.181908,-0.228442 0.23373,-0.345836 0.298244,-0.523513 0.258055,-0.548895 0.214693,-0.571105 0.171331,-0.592257 0.124797,-0.609179 0.07615,-0.6261 0.02644,-0.63985 -0.02644,-0.639849 -0.07615,-0.6261 L 53.031483,17.135673 52.860152,16.543416 52.645459,15.972311 52.387404,15.423416 52.08916,14.899903 51.752843,14.400715 51.379509,13.931139 50.972332,13.492234 50.53237,13.084 l -0.469575,-0.372276 -0.498131,-0.336317 -0.52457,-0.298244 -0.548896,-0.258055 -0.571105,-0.21575 -0.591199,-0.171332 -0.609179,-0.123739 -0.6261,-0.0772 -0.63985,-0.02538 -0.640906,0.02538 -0.626101,0.0772 -0.609178,0.123739 -0.5912,0.171332 -0.571105,0.21575 -0.548895,0.258055 -0.524571,0.298244 -0.498131,0.336317 -0.469575,0.372276 -0.439962,0.408234 -0.407177,0.438905 -0.373333,0.469576 -0.336318,0.499188 -0.298244,0.523513 -0.258054,0.548895 -0.214694,0.571105 -0.167101,0.578508 -0.47169,0.0074 -0.615525,0.02961 -0.609178,0.04865 -0.602833,0.06769 -0.596488,0.08566 -0.589084,0.104703 -0.581681,0.122682 -0.573221,0.139603 -0.565817,0.157583 -0.556298,0.174504 -0.547838,0.190369 -0.538319,0.20729 -0.527744,0.223154 -0.241133,0.10999 -0.0899,-0.108933 -0.507649,-0.41881 -0.581999,-0.315165 -0.643233,-0.199887 -0.690614,-0.0698 -0.690614,0.0698 -0.643234,0.199887 -0.581998,0.315165 -0.50712,0.41881 -0.418493,0.506592 -0.315906,0.582738 -0.199675,0.643022 -0.06959,0.690614 0.06959,0.690614 0.199675,0.643022 0.188359,0.346894 -0.07467,0.08144 -0.350278,0.409292 -0.334625,0.419868 -0.318761,0.430444 -0.302368,0.44102 -0.285659,0.450539 -0.268525,0.460056 -0.250969,0.468518 -0.233201,0.478036 -0.214799,0.485439 -0.196291,0.494958 -0.177148,0.501304 -0.157794,0.509764 -0.138018,0.516109 -0.117816,0.522456 -0.09719,0.529858 -0.07636,0.535147 -0.055,0.540435 -0.03321,0.54678 -0.01121,0.55101 0.01121,0.552069 0.03321,0.545722 0.055,0.541492 0.07636,0.535147 0.09719,0.528801 0.117816,0.523513 0.138018,0.51611 0.157794,0.508706 0.177148,0.502361 0.196291,0.4939 0.214799,0.486497 0.233201,0.476979 0.250969,0.469575 0.268525,0.458999 0.285659,0.450539 0.302368,0.44102 0.318761,0.430444 0.334625,0.419868 0.350278,0.409292 0.365507,0.398716 0.380314,0.387082 0.394697,0.374391 0.408869,0.362757 0.422406,0.351124 0.435732,0.337375 0.448635,0.324684 0.253507,0.170274 m 13.775371,-8.700891 -0.179792,-0.430444 -0.102587,-0.449481 -0.02856,-0.462172 0.0423,-0.46746 0.111048,-0.468518 0.176619,-0.46323 0.239018,-0.451596 0.299302,-0.432559 0.357469,-0.409292 0.411407,-0.380736 0.46323,-0.343721 0.511879,-0.301417 0.464288,-0.21575 0.468517,-0.168159 0.469576,-0.120567 0.466402,-0.07615 0.460057,-0.03067 0.448423,0.01481 0.432559,0.05711 0.413523,0.100473 0.390255,0.141718 0.362757,0.184023 0.329972,0.223154 0.295071,0.2644 0.253824,0.302475 0.211521,0.340547 0.178735,0.431502 0.102587,0.449481 0.02856,0.461114 -0.0423,0.468518 -0.10999,0.468518 -0.17662,0.462172 -0.239018,0.451596 -0.300359,0.433617 -0.356412,0.409291 -0.411407,0.37968 -0.46323,0.34372 -0.512937,0.302474 -0.463229,0.214694 -0.468518,0.168158 -0.470633,0.121624 -0.466402,0.07509 -0.459,0.03067 -0.448423,-0.01375 -0.433617,-0.05817 -0.413522,-0.09942 -0.389197,-0.142776 -0.362758,-0.182965 -0.329972,-0.224212 -0.295071,-0.263343 -0.254882,-0.303531 -0.210463,-0.340548 m -7.482533,0.04548 0.178734,-0.430444 0.102588,-0.449481 0.02961,-0.462172 -0.04336,-0.46746 -0.109983,-0.46851 -0.176619,-0.46323 -0.239018,-0.450538 -0.299302,-0.433617 -0.357469,-0.409292 -0.411407,-0.379679 -0.46323,-0.343721 -0.512937,-0.302474 -0.463229,-0.215751 -0.468518,-0.167101 -0.469575,-0.121624 -0.46746,-0.07509 -0.459211,-0.03067 -0.448318,0.01375 -0.432982,0.05711 -0.413522,0.100472 -0.389938,0.141719 -0.362229,0.184023 -0.330606,0.224211 -0.294648,0.263343 -0.254671,0.302474 -0.210674,0.341606 -0.179158,0.430444 -0.102587,0.449481 -0.02877,0.462172 0.0423,0.46746 0.110731,0.468518 0.176408,0.463229 0.23923,0.450539 0.299407,0.433616 0.356835,0.409292 0.411513,0.379679 0.463441,0.343721 0.512514,0.302474 0.463652,0.215751 0.46873,0.167101 0.469363,0.121624 0.46746,0.07509 0.459,0.03067 0.448423,-0.01375 0.432559,-0.05711 0.413522,-0.100472 0.390256,-0.141719 0.362757,-0.184022 0.329972,-0.224212 0.295071,-0.263343 0.254882,-0.302474 0.210463,-0.341605 m 3.985044,5.431843 0.243248,0.167101 0.113164,0.451596 0.04865,0.531974 0.126913,0.619755 0.283437,0.578508 0.517167,0.411407 0.344778,0.06134 0.35324,-0.09413 0.329971,-0.231615 0.274977,-0.354297 0.187195,-0.461114 0.06874,-0.553126 -0.08144,-0.628216 -0.2644,-0.689556 -0.536204,-0.977224 -0.445251,-0.684269 -0.368045,-0.448423 -0.303532,-0.268631 -0.250652,-0.143834 -0.326799,-0.07932 0.0011,-0.09201 -0.630331,0.0063 -0.464287,0.112106 -0.249594,0.143834 -0.303532,0.268631 -0.368046,0.448423 -0.446308,0.684269 -0.536204,0.977224 -0.263343,0.689556 -0.08143,0.628216 0.06874,0.553126 0.187196,0.461114 0.274976,0.355354 0.329972,0.231615 0.353239,0.09307 0.344778,-0.06134 0.517168,-0.411407 0.283437,-0.578508 0.125855,-0.618697 0.04865,-0.533032 0.113164,-0.451596 0.122682,-0.08355 0.256997,-0.03067 m 13.809109,-23.31272 -0.0423,-0.673692 -0.100472,-0.535147 -0.02221,0.20729 -0.199887,0.607064 -0.315166,0.549953 -0.41881,0.479093 -0.506591,0.394486 -0.582739,0.299301 -0.643022,0.188254 -0.690614,0.06557 -0.690614,-0.06557 -0.643022,-0.188254 -0.582739,-0.299301 -0.506591,-0.394486 -0.41881,-0.479093 -0.315166,-0.549953 -0.199887,-0.607064 -0.0698,-0.65254 0.0698,-0.652541 0.199887,-0.607063 0.315166,-0.549953 0.41881,-0.479094 0.506591,-0.394485 0.582739,-0.299302 0.643022,-0.188253 0.690614,-0.06557 0.435732,0.04125 -0.340548,-0.155467 -0.617639,-0.197771 -0.64831,-0.121625 -0.673693,-0.0423 -0.672635,0.0423 -0.64831,0.121625 -0.618697,0.197771 -0.582738,0.266516 -0.54255,0.333144 -0.498131,0.392371 -0.448423,0.448423 -0.39237,0.49813 -0.333145,0.543608 -0.267573,0.582738 -0.197772,0.61764 -0.121624,0.64831 -0.0423,0.673692 0.0423,0.672635 0.121624,0.64831 0.197772,0.618697 0.267573,0.582739 0.333145,0.54255 0.39237,0.49813 0.448423,0.448424 0.498131,0.39237 0.54255,0.333144 0.582738,0.267574 0.618697,0.197771 0.64831,0.121625 0.672635,0.0423 0.673693,-0.0423 0.64831,-0.121625 0.617639,-0.197771 0.582739,-0.267574 0.543607,-0.333144 0.498131,-0.39237 0.448423,-0.448424 0.39237,-0.49813 0.333145,-0.54255 0.266516,-0.582739 0.197771,-0.618697 0.121624,-0.64831 0.0423,-0.672635 m -21.844769,2.819567 -0.07509,-0.371218 -0.267573,0.647252 -0.942323,0.390255 -0.942324,-0.390255 -0.390255,-0.942323 0.390255,-0.942323 0.77004,-0.319396 -0.58919,-0.118452 -0.796585,0.160756 -0.650531,0.438905 -0.438482,0.650425 -0.160861,0.796374 0.160861,0.796374 0.438482,0.650426 0.650531,0.438904 0.796585,0.160756 0.796586,-0.160756 0.650531,-0.438904 0.438588,-0.650426 0.160755,-0.796374"
     sodipodi:nodetypes="cccccccccccccccccccccccccccccccccccccccccccccccccccccccccccccccccccccccccccccccccccccccccccccccccccccccccccccccccccccccccccccccccccccccccccccccccccccccccccccccccccccccccccccccccccccccccccccccccccccccccccccccccccccccccccccccccccccccccccccccccccccccccccccccccccccccccccccccccccccccccccccccccccccccccccccccccccccccccccccccccccccccccccccccccccccccccccccccccccccccccccccccccccccccccccccccccccccccccccccccccccccccccccccccccccccccccc"
     style="stroke-width:1.0576" />
  <path
     id="shape1"
     fill="#ffffff"
     fill-rule="evenodd"
     d="m 24.86936,52.610974 -0.04019,-0.843966 -0.117393,-0.820699 -0.191426,-0.794259 -0.262286,-0.763589 -0.328914,-0.730803 -0.39237,-0.693787 -0.451596,-0.651483 -0.506592,-0.608121 -0.559471,-0.558414 -0.608121,-0.507648 -0.651483,-0.451596 -0.693787,-0.391313 -0.730803,-0.328914 -0.763588,-0.262286 -0.794259,-0.192483 -0.8207,-0.117394 -0.843966,-0.04019 -0.842909,0.04019 -0.820699,0.117394 -0.794259,0.192483 -0.764646,0.262286 -0.730802,0.328914 -0.692729,0.391313 -0.652541,0.451596 -0.607063,0.507648 -0.5594716,0.558414 -0.5065913,0.608121 -0.4515961,0.651483 -0.3923703,0.693787 -0.3289142,0.730803 -0.2622853,0.763589 -0.1914259,0.794259 -0.1184515,0.820699 -0.040189,0.843966 0.040189,0.842909 0.1184515,0.820699 0.1914259,0.794259 0.2622853,0.764646 0.3289142,0.730803 0.3923703,0.69273 0.4515961,0.65254 0.5065913,0.607064 0.5594716,0.559471 0.607063,0.507649 0.652541,0.450538 0.692729,0.392371 0.730802,0.328914 0.764646,0.262285 0.794259,0.192484 0.820699,0.117394 0.842909,0.04019 0.843966,-0.04019 0.8207,-0.117394 0.794259,-0.192484 0.763588,-0.262285 0.730803,-0.328914 0.693787,-0.392371 0.651483,-0.450538 0.608121,-0.507649 0.559471,-0.559471 0.506592,-0.607064 0.451596,-0.65254 0.39237,-0.69273 0.328914,-0.730803 0.262286,-0.764646 0.191426,-0.794259 0.117393,-0.820699 0.04019,-0.842909 m -1.37594,-1.423532 -0.06451,-0.879925 -0.138545,-0.619755 -0.05605,0.417753 -0.378622,0.896847 -0.585911,0.759358 -0.760416,0.586969 -0.895789,0.378621 -0.998376,0.133258 -0.997319,-0.133258 -0.896846,-0.378621 -0.759359,-0.586969 -0.586969,-0.759358 -0.378621,-0.896847 -0.133258,-0.997318 0.133258,-0.998377 0.378621,-0.895789 0.586969,-0.759358 0.759359,-0.586969 0.896846,-0.378621 0.417753,-0.05605 -0.619755,-0.138546 -0.879925,-0.06451 -0.880982,0.06451 -0.839736,0.188253 -0.791086,0.301417 -0.732918,0.406119 -0.664174,0.501303 -0.588027,0.586969 -0.501303,0.665232 -0.406119,0.73186 -0.301416,0.791087 -0.187196,0.840793 -0.06557,0.879925 0.06557,0.880982 0.187196,0.839736 0.301416,0.791087 0.406119,0.732918 0.501303,0.664174 0.588027,0.588027 0.664174,0.501303 0.732918,0.406119 0.791086,0.301417 0.839736,0.188253 0.880982,0.06451 0.879925,-0.06451 0.840794,-0.188253 0.791086,-0.301417 0.731861,-0.406119 0.665231,-0.501303 0.586969,-0.588027 0.502361,-0.664174 0.406119,-0.732918 0.301417,-0.791087 0.187195,-0.839736 0.06451,-0.880982"
     sodipodi:nodetypes="ccccccccccccccccccccccccccccccccccccccccccccccccccccccccccccccccccccccccccccccccccccccccccccccccccccccccccccccccccccccccccccc"
     style="stroke-width:1.0576" />
  <circle
     id="shape2"
     cx="67.988098"
     cy="64.032921"
     fill="#ffffff"
     fill-rule="evenodd"
     r="1.7133151"
     style="stroke-width:1.0576" />
  <path
     id="shape3"
     fill="#ffffff"
     fill-rule="evenodd"
     d="m 36.125716,7.8848291 -0.555241,0.1501795 -0.545722,0.5457226 -0.208348,0.7688766 0.208348,0.7688772 0.545722,0.545722 0.768877,0.208348 0.768876,-0.208348 0.545723,-0.545722 0.150179,-0.5552416 0.08249,0.5065916 -0.116336,0.715996 -0.321511,0.62187 -0.490727,0.490728 -0.62187,0.321511 -0.717051,0.116336 -0.715997,-0.116336 -0.62187,-0.321511 -0.490727,-0.490728 -0.321511,-0.62187 -0.116336,-0.715996 0.116336,-0.7170544 0.321511,-0.6218699 0.490727,-0.4907273 0.62187,-0.321511 0.715997,-0.1163362 0.506591,0.082493 M 38.433404,10.491818 38.347738,9.7493814 38.104489,9.0682857 37.722695,8.4675678 37.221392,7.9662645 36.620674,7.5844702 35.939578,7.3412217 35.197142,7.255556 l -0.742437,0.085666 -0.681096,0.2432485 -0.600717,0.3817943 -0.501304,0.5013033 -0.381794,0.6007179 -0.243249,0.6810957 -0.08566,0.7424366 0.08566,0.742437 0.243249,0.681095 0.381794,0.600718 0.501304,0.501303 0.600717,0.381795 0.681096,0.243248 0.742437,0.08567 0.742436,-0.08567 0.681096,-0.243248 0.600718,-0.381795 0.501303,-0.501303 0.381794,-0.600718 0.243249,-0.681095 0.08567,-0.742437"
     sodipodi:nodetypes="cccccccccccccccccccccccccccccccccccccccccccccccccccccccc"
     style="stroke-width:1.0576" />
  <circle
     id="shape4"
     transform="rotate(-0.12649216)"
     cx="39.858818"
     cy="4.5732322"
     fill="#ffffff"
     fill-rule="evenodd"
     r="1.9482081"
     style="stroke-width:1.0576" />
  <path
     id="shape01"
     fill="#ffffff"
     fill-rule="evenodd"
     stroke-opacity="0"
     stroke="#000000"
     stroke-width="0"
     stroke-linecap="square"
     stroke-linejoin="bevel"
     d="m 12.590902,38.999478 -0.02219,-0.467713 -0.06535,-0.454621 -0.106331,-0.440745 -0.145399,-0.42303 L 12.06925,36.808064 11.851955,36.423573 11.601684,36.06219 11.320595,35.72546 11.010601,35.415699 10.673882,35.134457 10.312267,34.884032 9.9279977,34.66674 9.5229996,34.484122 9.099282,34.339261 8.6589177,34.232927 l -0.4549275,-0.0655 -0.4674812,-0.02235 -0.4674812,0.02235 -0.4549275,0.0655 -0.4403643,0.106334 -0.4237177,0.144861 -0.4049981,0.182618 -0.3842691,0.217292 -0.3616152,0.250425 -0.3367193,0.281242 -0.3099937,0.309761 -0.2810895,0.33673 -0.250271,0.361383 -0.2172917,0.384491 -0.1823866,0.405305 -0.1454002,0.42303 -0.1063348,0.440745 -0.065342,0.454621 -0.022191,0.467713 0.022191,0.467714 0.065342,0.454621 0.1063348,0.440745 0.1454002,0.42303 0.1823866,0.405305 0.2172917,0.384491 0.250271,0.361383 0.2810895,0.33673 0.3099937,0.309761 0.3367193,0.281237 0.3616152,0.25043 0.3842691,0.217295 0.4049981,0.182616 0.4237177,0.14486 0.4403643,0.106331 0.4549275,0.0655 0.4674812,0.02235 0.4674812,-0.02235 0.4549275,-0.0655 0.4403643,-0.106331 0.4237176,-0.14486 0.4049981,-0.182616 0.3842693,-0.217295 0.361615,-0.25043 0.336719,-0.281237 0.309994,-0.309761 0.281089,-0.33673 0.250271,-0.361383 0.217295,-0.384491 0.182384,-0.405305 0.145399,-0.42303 0.106331,-0.440745 0.06535,-0.454621 0.02219,-0.467714 m -0.762837,-0.789034 -0.03582,-0.487745 -0.07668,-0.343668 -0.03112,0.231932 -0.209744,0.496999 -0.325318,0.420714 -0.421106,0.325171 -0.496914,0.210357 -0.5530938,0.07397 -0.5530941,-0.07397 -0.4969143,-0.210357 -0.4211054,-0.325171 -0.3253183,-0.420714 -0.2097437,-0.496999 -0.074275,-0.553242 0.074275,-0.553242 0.2097437,-0.496999 0.3253183,-0.420714 0.4211054,-0.32517 0.4969143,-0.210357 0.231784,-0.03082 -0.3435831,-0.07706 -0.4879882,-0.03544 -0.4880621,0.03544 -0.4658631,0.104026 -0.4384395,0.16721 -0.4060662,0.225766 -0.3683945,0.277388 -0.3258683,0.325943 -0.2780119,0.36832 -0.2250682,0.406066 -0.1671329,0.43844 -0.1040257,0.46618 -0.035821,0.487745 0.035821,0.488528 0.1040257,0.465397 0.1671329,0.43844 0.2250682,0.406077 0.2780119,0.36832 0.3258683,0.325932 0.3683945,0.27817 0.4060662,0.224995 0.4384395,0.167206 0.4658631,0.104026 0.4880621,0.03544 0.4879882,-0.03544 0.4658631,-0.104026 0.4384394,-0.167206 0.4060665,-0.224995 0.368394,-0.27817 0.325869,-0.325932 0.278011,-0.36832 0.225069,-0.406077 0.167132,-0.43844 0.104026,-0.465397 0.03582,-0.488528"
     sodipodi:nodetypes="ccccccccccccccccccccccccccccccccccccccccccccccccccccccccccccccccccccccccccccccccccccccccccccccccccccccccccccccccccccccccccccc" />
  <path
     id="shape02"
     fill="#ffffff"
     fill-rule="evenodd"
     stroke-opacity="0"
     stroke="#000000"
     stroke-width="0"
     stroke-linecap="square"
     stroke-linejoin="bevel"
     d="m 67.38843,55.59008 -0.03046,-0.641964 -0.08968,-0.623985 -0.145949,-0.604949 -0.199569,-0.580623 -0.250335,-0.556299 -0.298243,-0.527743 -0.343509,-0.496015 -0.385814,-0.462172 -0.425473,-0.425156 -0.462172,-0.386025 -0.496333,-0.343721 -0.527426,-0.298243 -0.555875,-0.250652 -0.581576,-0.198829 -0.604419,-0.145949 -0.624408,-0.0899 -0.641647,-0.03067 -0.641647,0.03067 -0.624409,0.0899 -0.604419,0.145949 -0.581576,0.198829 -0.555875,0.250652 -0.527426,0.298243 -0.496333,0.343721 -0.462172,0.386025 -0.425473,0.425156 -0.385813,0.462172 -0.343509,0.496015 -0.298244,0.527743 -0.250335,0.556299 -0.199569,0.580623 -0.145949,0.604949 -0.08969,0.623985 -0.03046,0.641964 0.03046,0.641965 0.08969,0.623985 0.145949,0.604948 0.199569,0.580624 0.250335,0.556298 0.298244,0.527744 0.343509,0.496015 0.385813,0.462172 0.425473,0.425156 0.462172,0.386025 0.496333,0.34372 0.527426,0.298244 0.555875,0.250652 0.581576,0.198829 0.604419,0.145949 0.624409,0.0899 0.641647,0.03067 0.641647,-0.03067 0.624408,-0.0899 0.604419,-0.145949 0.581576,-0.198829 0.555875,-0.250652 0.527426,-0.298244 0.496333,-0.34372 0.462172,-0.386025 0.425473,-0.425156 0.385814,-0.462172 0.343509,-0.496015 0.298243,-0.527744 0.250335,-0.556298 0.199569,-0.580624 0.145949,-0.604948 0.08968,-0.623985 0.03046,-0.641965 m -1.047026,-1.082984 -0.04918,-0.669462 -0.105232,-0.471691 -0.04273,0.318339 -0.287879,0.682153 -0.44652,0.577451 -0.577979,0.446308 -0.682048,0.288725 -0.759146,0.10153 -0.759147,-0.10153 -0.682048,-0.288725 -0.577979,-0.446308 -0.44652,-0.577451 -0.287879,-0.682153 -0.101953,-0.759359 0.101953,-0.759358 0.287879,-0.682153 0.44652,-0.577451 0.577979,-0.446308 0.682048,-0.288725 0.318127,-0.0423 -0.471585,-0.10576 -0.669779,-0.04865 -0.669886,0.04865 -0.639426,0.142776 -0.601775,0.229499 -0.557356,0.309878 -0.50564,0.380737 -0.44726,0.447365 -0.381583,0.505534 -0.308925,0.557356 -0.229394,0.601776 -0.142776,0.639849 -0.04918,0.669462 0.04918,0.67052 0.142776,0.638791 0.229394,0.601776 0.308925,0.557356 0.381583,0.505534 0.44726,0.447365 0.50564,0.381795 0.557356,0.308819 0.601775,0.2295 0.639426,0.142776 0.669886,0.04865 0.669779,-0.04865 0.639426,-0.142776 0.601775,-0.2295 0.557357,-0.308819 0.505639,-0.381795 0.44726,-0.447365 0.381583,-0.505534 0.308925,-0.557356 0.229394,-0.601776 0.142777,-0.638791 0.04918,-0.67052"
     sodipodi:nodetypes="ccccccccccccccccccccccccccccccccccccccccccccccccccccccccccccccccccccccccccccccccccccccccccccccccccccccccccccccccccccccccccccc" />
  <path
     id="shape011"
     fill="#ffffff"
     fill-rule="evenodd"
     stroke-opacity="0"
     stroke="#000000"
     stroke-width="0"
     stroke-linecap="square"
     stroke-linejoin="bevel"
     d="m 71.338573,44.120387 -0.01828,-0.385179 -0.05381,-0.374391 -0.08757,-0.362969 -0.119742,-0.348374 -0.150201,-0.333779 -0.178946,-0.316646 -0.206105,-0.297609 -0.231488,-0.277303 -0.255284,-0.255094 -0.277304,-0.231615 -0.297799,-0.206232 -0.316456,-0.178946 -0.333525,-0.150391 -0.348945,-0.119298 -0.362652,-0.08757 -0.374645,-0.05394 -0.384988,-0.0184 -0.384988,0.0184 -0.374645,0.05394 -0.362652,0.08757 -0.348945,0.119298 -0.333526,0.150391 -0.316455,0.178946 -0.2978,0.206232 -0.277303,0.231615 -0.255284,0.255094 -0.231488,0.277303 -0.206105,0.297609 -0.178947,0.316646 -0.1502,0.333779 -0.119742,0.348374 -0.08757,0.362969 -0.05381,0.374391 -0.01828,0.385179 0.01828,0.385179 0.05381,0.374391 0.08757,0.362969 0.119742,0.348374 0.1502,0.333779 0.178947,0.316646 0.206105,0.297609 0.231488,0.277304 0.255284,0.255093 0.277303,0.231615 0.2978,0.206232 0.316455,0.178947 0.333526,0.150391 0.348945,0.119297 0.362652,0.08757 0.374645,0.05394 0.384988,0.0184 0.384988,-0.0184 0.374645,-0.05394 0.362652,-0.08757 0.348945,-0.119297 0.333525,-0.150391 0.316456,-0.178947 0.297799,-0.206232 0.277304,-0.231615 0.255284,-0.255093 0.231488,-0.277304 0.206105,-0.297609 0.178946,-0.316646 0.150201,-0.333779 0.119742,-0.348374 0.08757,-0.362969 0.05381,-0.374391 0.01828,-0.385179 m -0.628215,-0.649791 -0.02951,-0.401677 -0.06314,-0.283014 -0.02564,0.191003 -0.172727,0.409292 -0.267912,0.34647 -0.346787,0.267785 -0.409229,0.173235 -0.455488,0.06092 -0.455488,-0.06092 -0.409229,-0.173235 -0.346787,-0.267785 -0.267912,-0.34647 -0.172727,-0.409292 -0.06117,-0.455615 0.06117,-0.455615 0.172727,-0.409292 0.267912,-0.34647 0.346787,-0.267785 0.409229,-0.173235 0.190876,-0.02538 -0.282951,-0.06346 -0.401867,-0.02919 -0.401931,0.02919 -0.383656,0.08567 -0.361065,0.1377 -0.334414,0.185926 -0.303384,0.228442 -0.268356,0.268419 -0.228949,0.303321 -0.185356,0.334413 -0.137636,0.361066 -0.08567,0.383909 -0.02951,0.401677 0.02951,0.402312 0.08567,0.383275 0.137636,0.361065 0.185356,0.334414 0.228949,0.30332 0.268356,0.26842 0.303384,0.229076 0.334414,0.185292 0.361065,0.1377 0.383656,0.08567 0.401931,0.02919 0.401867,-0.02919 0.383656,-0.08567 0.361065,-0.1377 0.334414,-0.185292 0.303384,-0.229076 0.268356,-0.26842 0.228949,-0.30332 0.185356,-0.334414 0.137636,-0.361065 0.08567,-0.383275 0.02951,-0.402312"
     sodipodi:nodetypes="ccccccccccccccccccccccccccccccccccccccccccccccccccccccccccccccccccccccccccccccccccccccccccccccccccccccccccccccccccccccccccccc" />
  <circle
     id="shape03"
     cx="64.475792"
     cy="30.252048"
     fill="#ffffff"
     fill-rule="evenodd"
     stroke-opacity="0"
     stroke="#000000"
     stroke-width="0"
     stroke-linecap="square"
     stroke-linejoin="bevel"
     r="1.3230556" />
  <path
     id="shape012"
     fill="#ffffff"
     fill-rule="evenodd"
     stroke-opacity="0"
     stroke="#000000"
     stroke-width="0"
     stroke-linecap="square"
     stroke-linejoin="bevel"
     d="m 62.505482,36.786446 -0.01381,-0.291179 -0.04069,-0.283014 -0.0662,-0.274395 -0.09052,-0.263353 -0.113544,-0.252323 -0.135267,-0.239367 -0.155806,-0.224973 -0.175002,-0.209633 -0.19298,-0.192838 -0.209628,-0.17509 -0.225121,-0.155902 -0.239229,-0.135275 -0.252122,-0.113689 -0.263787,-0.09018 -0.274152,-0.0662 -0.283215,-0.04077 -0.291031,-0.01391 -0.291031,0.01391 -0.283215,0.04077 -0.274152,0.0662 -0.263787,0.09018 -0.252121,0.113689 -0.23923,0.135275 -0.225121,0.155902 -0.209627,0.17509 -0.192983,0.192838 -0.174994,0.209633 -0.155806,0.224973 -0.135275,0.239367 -0.113544,0.252323 -0.09052,0.263353 -0.0662,0.274395 -0.04068,0.283014 -0.01381,0.291179 0.01381,0.291179 0.04068,0.283025 0.0662,0.274384 0.09052,0.263354 0.113544,0.252323 0.135275,0.239367 0.155806,0.224973 0.174994,0.209638 0.192983,0.192832 0.209627,0.175086 0.225121,0.155912 0.23923,0.135267 0.252121,0.113692 0.263787,0.09018 0.274152,0.0662 0.283215,0.04078 0.291031,0.01391 0.291031,-0.01391 0.283215,-0.04078 0.274152,-0.0662 0.263787,-0.09018 0.252122,-0.113692 0.239229,-0.135267 0.225121,-0.155912 0.209628,-0.175086 0.19298,-0.192832 0.175002,-0.209638 0.155806,-0.224973 0.135267,-0.239367 0.113544,-0.252323 0.09052,-0.263354 0.0662,-0.274384 0.04069,-0.283025 0.01381,-0.291179 m -0.474906,-0.491213 -0.0223,-0.303649 -0.04773,-0.213942 -0.01938,0.144384 -0.130571,0.309412 -0.202531,0.261915 -0.262158,0.202436 -0.309359,0.130952 -0.344324,0.04605 -0.344323,-0.04605 -0.309359,-0.130952 -0.262159,-0.202436 -0.202531,-0.261915 -0.130571,-0.309412 -0.04624,-0.344419 0.04624,-0.344418 0.130571,-0.309412 0.202531,-0.261913 0.262159,-0.202433 0.309359,-0.130957 0.144288,-0.01919 -0.2139,-0.04797 -0.303785,-0.02206 -0.303849,0.02206 -0.290016,0.06476 -0.272956,0.104089 -0.252799,0.140552 -0.229341,0.172691 -0.202869,0.202912 -0.173077,0.229299 -0.140111,0.252799 -0.104047,0.272945 -0.06477,0.290217 -0.02231,0.303648 0.02231,0.304135 0.06477,0.28973 0.104047,0.272956 0.140111,0.252799 0.173077,0.229299 0.202869,0.202911 0.229341,0.173172 0.252799,0.140069 0.272956,0.104089 0.290016,0.06477 0.303849,0.02206 0.303785,-0.02206 0.290027,-0.06477 0.272945,-0.104089 0.25281,-0.140069 0.229341,-0.173172 0.202858,-0.202911 0.173077,-0.229299 0.140121,-0.252799 0.104047,-0.272956 0.06476,-0.28973 0.0223,-0.304135"
     sodipodi:nodetypes="ccccccccccccccccccccccccccccccccccccccccccccccccccccccccccccccccccccccccccccccccccccccccccccccccccccccccccccccccccccccccccccc" />
  <circle
     id="shape04"
     cx="15.37028"
     cy="32.165257"
     fill="#ffffff"
     fill-rule="evenodd"
     stroke-opacity="0"
     stroke="#000000"
     stroke-width="0"
     stroke-linecap="square"
     stroke-linejoin="bevel"
     r="2.1130896" />
  <circle
     id="shape05"
     cx="34.740253"
     cy="63.18578"
     fill="#ffffff"
     fill-rule="evenodd"
     stroke-opacity="0"
     stroke="#000000"
     stroke-width="0"
     stroke-linecap="square"
     stroke-linejoin="bevel"
     r="1.208843" />
  <path
     id="shape013"
     fill="#ffffff"
     fill-rule="evenodd"
     stroke-opacity="0"
     stroke="#000000"
     stroke-width="0"
     stroke-linecap="square"
     stroke-linejoin="bevel"
     d="m 42.36451,68.330482 -0.01381,-0.291179 -0.04069,-0.283014 -0.0662,-0.274395 -0.09052,-0.263353 -0.113544,-0.252323 -0.135267,-0.239367 -0.155806,-0.224973 -0.175001,-0.209633 -0.192981,-0.192839 -0.209627,-0.175089 -0.225121,-0.155902 -0.23923,-0.135275 -0.252122,-0.113689 -0.263787,-0.09018 -0.274151,-0.0662 -0.283216,-0.04077 -0.29103,-0.01391 -0.291031,0.01391 -0.283216,0.04077 -0.274151,0.0662 -0.263787,0.09018 -0.252122,0.113689 -0.23923,0.135275 -0.225121,0.155902 -0.209627,0.175089 -0.192983,0.192839 -0.174994,0.209633 -0.155806,0.224973 -0.135274,0.239367 -0.113545,0.252323 -0.09052,0.263353 -0.0662,0.274395 -0.04068,0.283014 -0.01381,0.291179 0.01381,0.291179 0.04068,0.283025 0.0662,0.274384 0.09052,0.263354 0.113545,0.252322 0.135274,0.239368 0.155806,0.224973 0.174994,0.209637 0.192983,0.192833 0.209627,0.175086 0.225121,0.155912 0.23923,0.135267 0.252122,0.113692 0.263787,0.09018 0.274151,0.06619 0.283216,0.04078 0.291031,0.01391 0.29103,-0.01391 0.283216,-0.04078 0.274151,-0.06619 0.263787,-0.09018 0.252122,-0.113692 0.23923,-0.135267 0.225121,-0.155912 0.209627,-0.175086 0.192981,-0.192833 0.175001,-0.209637 0.155806,-0.224973 0.135267,-0.239368 0.113544,-0.252322 0.09052,-0.263354 0.0662,-0.274384 0.04069,-0.283025 0.01381,-0.291179 m -0.474905,-0.491214 -0.0223,-0.303648 -0.04773,-0.213942 -0.01937,0.144384 -0.130572,0.309412 -0.20253,0.261915 -0.262159,0.202436 -0.309359,0.130952 -0.344323,0.04605 -0.344324,-0.04605 -0.309359,-0.130952 -0.262158,-0.202436 -0.202531,-0.261915 -0.130572,-0.309412 -0.04624,-0.344419 0.04624,-0.344418 0.130572,-0.309412 0.202531,-0.261913 0.262158,-0.202433 0.309359,-0.130957 0.144289,-0.01919 -0.2139,-0.04797 -0.303786,-0.02206 -0.303849,0.02206 -0.290016,0.06476 -0.272956,0.1041 -0.252799,0.140552 -0.229341,0.17269 -0.202869,0.202913 -0.173076,0.229298 -0.140111,0.252799 -0.104047,0.272946 -0.06477,0.290217 -0.0223,0.303648 0.0223,0.304134 0.06477,0.28973 0.104047,0.272957 0.140111,0.252798 0.173076,0.229299 0.202869,0.202912 0.229341,0.173171 0.252799,0.140069 0.272956,0.104089 0.290016,0.06477 0.303849,0.02206 0.303786,-0.02206 0.290026,-0.06477 0.272946,-0.104089 0.252809,-0.140069 0.229341,-0.173171 0.202859,-0.202912 0.173076,-0.229299 0.140122,-0.252798 0.104047,-0.272957 0.06476,-0.28973 0.0223,-0.304134"
     sodipodi:nodetypes="ccccccccccccccccccccccccccccccccccccccccccccccccccccccccccccccccccccccccccccccccccccccccccccccccccccccccccccccccccccccccccccc" />
  <path
     id="shape014"
     fill="#ffffff"
     fill-rule="evenodd"
     stroke-opacity="0"
     stroke="#000000"
     stroke-width="0"
     stroke-linecap="square"
     stroke-linejoin="bevel"
     d="m 12.9526,24.931257 -0.01445,-0.304473 -0.04254,-0.295938 -0.06922,-0.286927 -0.09465,-0.275389 -0.118727,-0.26384 -0.141443,-0.250303 -0.162924,-0.235242 -0.182997,-0.21921 -0.20179,-0.201645 -0.219199,-0.183086 -0.235411,-0.163022 -0.250155,-0.141452 -0.263629,-0.118882 -0.275833,-0.09431 -0.286673,-0.06922 -0.29615,-0.04263 -0.3043249,-0.01454 -0.3043249,0.01454 -0.2961497,0.04263 -0.2866736,0.06922 -0.2758332,0.09431 -0.2636284,0.118882 -0.2501546,0.141452 -0.2354011,0.163022 -0.219206,0.183086 -0.2017957,0.201645 -0.1829863,0.21921 -0.1629215,0.235242 -0.1414521,0.250303 -0.1187296,0.26384 -0.094653,0.275389 -0.069222,0.286927 -0.042536,0.295938 -0.014446,0.304473 0.014446,0.304473 0.042536,0.29596 0.069222,0.286906 0.094653,0.275389 0.1187296,0.26384 0.1414521,0.250302 0.1629215,0.235243 0.1829863,0.21922 0.2017957,0.201631 0.219206,0.183082 0.2354011,0.16304 0.2501546,0.141443 0.2636284,0.118885 0.2758332,0.0943 0.2866736,0.06922 0.2961497,0.04264 0.3043249,0.01454 0.3043249,-0.01454 0.29615,-0.04264 0.286673,-0.06922 0.275833,-0.0943 0.263629,-0.118885 0.250155,-0.141443 0.235411,-0.16304 0.219199,-0.183082 0.20179,-0.201631 0.182997,-0.21922 0.162924,-0.235243 0.141443,-0.250302 0.118727,-0.26384 0.09465,-0.275389 0.06922,-0.286906 0.04254,-0.29596 0.01445,-0.304473 m -0.496597,-0.513645 -0.02332,-0.317514 -0.04991,-0.223714 -0.02026,0.150973 -0.136536,0.323541 -0.211774,0.273877 -0.274131,0.211689 -0.323489,0.136928 -0.36005,0.04815 -0.36005,-0.04815 L 10.373,24.836468 10.098869,24.624779 9.8870949,24.350902 9.7505585,24.027361 9.7022045,23.667215 9.7505585,23.30707 9.8870949,22.983529 10.098869,22.70965 10.373,22.497973 l 0.323488,-0.136938 0.150878,-0.02006 -0.223662,-0.05016 -0.317661,-0.02308 -0.317725,0.02308 -0.3032674,0.06772 -0.285415,0.108849 -0.2643476,0.146971 -0.2398113,0.180577 -0.2121338,0.21218 -0.1809874,0.239769 -0.1465096,0.264347 -0.1087955,0.285405 -0.067729,0.303479 -0.02332,0.317513 0.02332,0.318021 0.067729,0.30296 0.1087955,0.285426 0.1465096,0.264348 0.1809874,0.239769 0.2121338,0.212176 0.2398113,0.181082 0.2643476,0.146468 0.285415,0.108837 0.3032674,0.06773 0.317725,0.02307 0.317661,-0.02307 0.303267,-0.06773 0.285415,-0.108837 0.264348,-0.146468 0.239822,-0.181082 0.212123,-0.212176 0.180977,-0.239769 0.14652,-0.264348 0.108796,-0.285426 0.06772,-0.30296 0.02332,-0.318021"
     sodipodi:nodetypes="ccccccccccccccccccccccccccccccccccccccccccccccccccccccccccccccccccccccccccccccccccccccccccccccccccccccccccccccccccccccccccccc" />
</svg>
