<?xml version="1.0" encoding="UTF-8" standalone="no"?>
<!-- Created using Krita: https://krita.org -->

<svg
   width="100"
   height="100"
   viewBox="0 0 75 75"
   version="1.1"
   id="svg1"
   sodipodi:docname="Psychic.svg"
   inkscape:version="1.3.2 (091e20ef0f, 2023-11-25)"
   xmlns:inkscape="http://www.inkscape.org/namespaces/inkscape"
   xmlns:sodipodi="http://sodipodi.sourceforge.net/DTD/sodipodi-0.dtd"
   xmlns="http://www.w3.org/2000/svg"
   xmlns:svg="http://www.w3.org/2000/svg">
  <sodipodi:namedview
     id="namedview1"
     pagecolor="#8b8b8b"
     bordercolor="#000000"
     borderopacity="0.25"
     inkscape:showpageshadow="2"
     inkscape:pageopacity="0.0"
     inkscape:pagecheckerboard="0"
     inkscape:deskcolor="#d1d1d1"
     inkscape:document-units="pt"
     inkscape:zoom="4.203125"
     inkscape:cx="105.99257"
     inkscape:cy="56.743494"
     inkscape:window-width="1920"
     inkscape:window-height="1010"
     inkscape:window-x="0"
     inkscape:window-y="1080"
     inkscape:window-maximized="1"
     inkscape:current-layer="svg1" />
  <defs
     id="defs1" />
  <path
     id="shape0"
     fill="#ffffff"
     fill-rule="evenodd"
     d="M 6.0697019,50.467137 6.431719,49.941826 6.7985063,49.423582 7.170052,48.914761 7.5463562,48.415362 7.9274423,47.92303 8.3132751,47.438943 8.7038427,46.964278 9.0992395,46.49668 l 0.400108,-0.458174 0.4049372,-0.449931 0.4096483,-0.441685 0.414478,-0.433441 0.419189,-0.425195 0.423899,-0.415774 0.42873,-0.408706 0.433558,-0.399283 0.438152,-0.391039 0.443099,-0.382794 0.447692,-0.374549 0.452639,-0.366305 0.457233,-0.356881 0.462062,-0.349815 0.46689,-0.340392 0.471603,-0.333326 0.476313,-0.323902 0.481143,-0.315658 0.485971,-0.307413 0.490566,-0.299168 0.495512,-0.289746 0.500105,-0.282679 0.505053,-0.273256 0.05206,-0.02709 -0.140162,0.51 -0.155002,0.633671 -0.137923,0.640738 -0.120492,0.648983 -0.102707,0.654872 -0.08469,0.663117 -0.06643,0.667829 -0.04782,0.674895 -0.02886,0.680784 -0.0097,0.686674 0.0097,0.686673 0.02886,0.679607 0.04782,0.674895 0.06643,0.669006 0.08469,0.663117 0.102707,0.654872 0.120492,0.648983 0.137923,0.640739 0.155002,0.633671 0.171963,0.625426 0.188453,0.617182 0.204706,0.607759 0.220725,0.599515 0.23639,0.588913 0.251702,0.580669 0.266895,0.570069 0.281737,0.559468 0.296106,0.548868 0.310357,0.538267 0.324374,0.525311 0.337919,0.515889 0.351346,0.501754 0.364302,0.491154 0.377022,0.477021 0.389626,0.465241 0.401639,0.451108 0.413535,0.438152 0.425196,0.42284 0.436503,0.409885 0.447339,0.394572 0.458175,0.37926 0.46854,0.365127 0.478669,0.348637 0.488563,0.332147 0.497985,0.316836 0.507291,0.300346 0.516124,0.282679 0.52484,0.265011 0.533202,0.248521 0.54133,0.229677 0.548986,0.212009 0.556523,0.193164 0.563826,0.174318 0.57054,0.154295 0.577253,0.135451 0.583496,0.115427 0.589503,0.0954 0.595274,0.07538 0.600692,0.053 0.605875,0.03298 0.610703,0.0106 0.610586,-0.0106 0.605875,-0.03298 0.600692,-0.053 0.595274,-0.07538 0.589503,-0.0954 0.583495,-0.115427 0.577254,-0.135451 0.570657,-0.154295 0.563708,-0.174318 0.556524,-0.193164 0.548986,-0.212009 0.541329,-0.229677 0.533203,-0.248521 0.52484,-0.265011 0.516242,-0.282679 0.507172,-0.300346 0.498103,-0.316836 0.488446,-0.332147 0.478669,-0.348637 0.46854,-0.365127 0.458175,-0.37926 0.447338,-0.394572 0.436503,-0.409885 0.425196,-0.42284 0.413535,-0.438152 0.401757,-0.451108 0.389508,-0.465241 0.377023,-0.477021 0.364302,-0.491154 0.351346,-0.501754 0.337919,-0.515889 0.324373,-0.525311 0.310358,-0.538267 0.296224,-0.548868 0.281618,-0.559468 0.266896,-0.570069 0.251702,-0.580669 0.23639,-0.588913 0.220725,-0.599515 0.204706,-0.607759 0.188452,-0.617182 0.171963,-0.625426 0.155002,-0.633671 0.137924,-0.640739 0.120492,-0.648983 0.102706,-0.654872 0.08469,-0.663117 0.06643,-0.669006 0.04782,-0.674895 0.02886,-0.679607 0.0098,-0.686673 -0.0098,-0.686674 -0.02886,-0.680784 -0.04782,-0.674895 -0.06643,-0.667829 -0.08469,-0.663117 -0.102706,-0.654872 -0.120492,-0.648983 -0.137924,-0.640738 -0.155002,-0.633671 -0.171963,-0.625427 -0.109538,-0.359237 0.463947,0.239099 0.514475,0.275612 0.509764,0.285034 0.505052,0.294457 0.500224,0.303879 0.495512,0.312125 0.490683,0.321547 0.485971,0.329791 0.481143,0.339215 0.476431,0.348637 0.47172,0.358059 0.466891,0.366305 0.462062,0.376904 0.457468,0.383972 0.452522,0.394573 0.447927,0.402817 0.443099,0.412239 0.43827,0.421663 0.433558,0.429907 0.428847,0.439329 0.424018,0.448753 0.419189,0.456997 0.414595,0.46642 0.409649,0.475842 0.405055,0.485265 0.400226,0.49351 0.395396,0.502932 0.390686,0.511177 0.385974,0.521778 0.381145,0.530022 0.376434,0.539446 0.371604,0.547689 0.366894,0.557113 0.362064,0.566535 -0.138513,-0.895149 -0.149937,-0.881015 -0.161363,-0.866881 -0.172787,-0.853925 -0.184094,-0.839791 -0.195638,-0.825658 -0.206944,-0.811523 -0.218251,-0.797389 -0.229795,-0.784433 -0.241101,-0.7703 -0.252644,-0.756165 -0.263833,-0.742031 -0.275376,-0.729076 -0.286801,-0.714941 -0.298109,-0.700808 -0.06584,-0.14605 6.672511,-11.21398 -12.039872,2.942096 -0.406704,-0.426373 -0.480553,-0.479376 -0.491979,-0.464064 -0.503286,-0.451108 -0.51471,-0.437092 -0.526136,-0.423076 -0.177616,-0.135215 4.347715,-15.52895 -12.988966,11.119282 -0.440743,-0.135804 -0.708463,-0.201055 -0.719888,-0.187157 -0.731314,-0.173141 -0.742738,-0.15936 -0.754045,-0.145461 -0.76547,-0.131682 -0.776895,-0.117665 -0.78832,-0.103884 -0.493863,-0.05548 -4.800002,-17.1438697 -5.691616,17.3598837 -0.243457,0.04052 -1.083366,0.221432 -1.054862,0.256531 -1.026713,0.290334 -0.999033,0.322725 -0.755812,0.275023 -13.152566,-11.259326 4.574094,16.337058 -0.607524,0.527667 -0.668064,0.614826 -0.645096,0.627782 -0.622246,0.638383 -0.399048,0.431085 -12.0465737,-2.943391 6.4596667,10.856037 -0.1836238,0.338037 -0.3385077,0.647805 -0.3208403,0.637205 -0.3035261,0.626604 -0.2863299,0.613648 -0.269593,0.600692 -0.2531858,0.583025 -0.2371203,0.567713 -0.2213609,0.548868 -0.2059668,0.528844 -0.1908787,0.508822 -0.1761441,0.485265 -0.1617393,0.46053 -0.1476761,0.436974 -0.1339307,0.408707 -0.1205271,0.381616 -0.107465,0.350992 -0.094733,0.320369 -0.08233,0.28739 -0.070269,0.254411 -0.058538,0.219076 -0.047148,0.182563 -0.036077,0.143695 -0.02537,0.104827 -0.01497,0.06478 -0.00491,0.0212 m 39.6301786,-5.920939 0.03439,-0.514711 0.09564,-0.498221 0.145462,-0.485265 0.184212,-0.473487 0.21142,-0.461708 0.227321,-0.453464 0.232032,-0.444041 0.225318,-0.435796 0.207298,-0.431085 0.178088,-0.426373 0.137334,-0.421663 0.08539,-0.420484 0.02214,-0.419307 -0.05241,-0.419307 -0.138395,-0.420484 -0.270547,-0.445219 -0.342159,-0.299168 -0.40211,-0.17903 -0.450637,-0.0848 -0.487503,-0.01649 -0.512826,0.02827 -0.526489,0.04476 -0.528491,0.03651 -0.519069,0.0024 -0.497986,-0.05654 -0.465359,-0.141339 -0.421074,-0.253233 -0.36442,-0.362771 -0.326258,-0.45582 -0.296459,-0.526489 -0.275141,-0.577135 -0.261831,-0.606581 -0.25712,-0.614826 -0.260535,-0.60187 -0.272432,-0.567713 -0.292572,-0.511177 -0.321194,-0.434619 -0.357941,-0.336859 -0.403053,-0.217898 -0.456526,-0.07656 -0.517773,0.07303 -0.442628,0.207297 -0.379025,0.321547 -0.327318,0.419307 -0.287272,0.495865 -0.259004,0.554757 -0.242397,0.594803 -0.237568,0.617182 -0.244399,0.619537 -0.262891,0.603048 -0.293397,0.567713 -0.335328,0.515889 -0.389154,0.441685 -0.351935,0.239099 -0.422016,0.138984 -0.476313,0.06125 -0.514475,0.0059 -0.536736,-0.02709 -0.542861,-0.03887 -0.532967,-0.02591 -0.507173,0.0082 -0.465359,0.06478 -0.407529,0.143695 -0.333678,0.244989 -0.243928,0.36866 -0.121317,0.380438 -0.04028,0.393394 0.03145,0.403995 0.09364,0.413418 0.146168,0.424018 0.189277,0.432263 0.222727,0.440507 0.246873,0.446397 0.261242,0.452286 0.266307,0.456997 0.261596,0.46053 0.247579,0.462887 0.223905,0.466419 0.19069,0.46642 0.148053,0.46642 0.09576,0.46642 0.03416,0.464064 -0.03828,0.491154 -0.106947,0.481731 -0.164306,0.472309 -0.210243,0.462886 -0.244752,0.454642 -0.267838,0.446397 -0.279499,0.439329 -0.279616,0.432263 -0.268545,0.426374 -0.24593,0.421662 -0.211891,0.415773 -0.16631,0.41224 -0.109538,0.408706 -0.04122,0.405173 0.03852,0.402817 0.129679,0.400461 0.229794,0.354526 0.320958,0.269723 0.397164,0.199053 0.458175,0.141339 0.50411,0.09776 0.534969,0.06831 0.55087,0.05182 0.551341,0.04711 0.53709,0.05889 0.507526,0.08245 0.463004,0.11896 0.40317,0.170785 0.328496,0.234388 0.441804,0.509999 0.350874,0.57478 0.283386,0.61836 0.239334,0.634849 0.218959,0.627782 0.22202,0.598336 0.248639,0.542979 0.298698,0.465242 0.372193,0.361593 0.469364,0.234388 0.590092,0.08362 0.546748,-0.08716 0.439447,-0.241455 0.353231,-0.371015 0.288214,-0.474665 0.244164,-0.550045 0.221431,-0.599515 0.219665,-0.624248 0.239217,-0.620715 0.279734,-0.592448 0.341452,-0.537089 0.424372,-0.454642 0.374667,-0.249699 0.439094,-0.182563 0.489623,-0.127206 0.526842,-0.08834 0.550163,-0.0636 0.560057,-0.05536 0.556171,-0.06125 0.538856,-0.08127 0.507879,-0.116604 0.46324,-0.16843 0.404937,-0.232032 0.333207,-0.313302 0.24758,-0.408706 0.124614,-0.378083 0.05677,-0.392217 -0.0032,-0.40635 -0.05559,-0.418129 -0.1,-0.429907 -0.136746,-0.438152 -0.165603,-0.447574 -0.186803,-0.453464 -0.200113,-0.459353 -0.205766,-0.464064 -0.203529,-0.467597 -0.193517,-0.468776 -0.17585,-0.469953 -0.150291,-0.468775 -0.116958,-0.467598 -0.07597,-0.462886 -0.02697,-0.459353 m -4.045956,0.481731 -0.04075,-0.726719 -0.118371,-0.693741 -0.190337,-0.652516 -0.256413,-0.604226 -0.316483,-0.548868 -0.371015,-0.485265 -0.419543,-0.414595 -0.462415,-0.334503 -0.499281,-0.249699 -0.530376,-0.154296 -0.555816,-0.053 -0.5557,0.053 -0.530493,0.154296 -0.499281,0.249699 -0.462298,0.334503 -0.419542,0.414595 -0.371016,0.485265 -0.3166,0.548868 -0.256295,0.604226 -0.190337,0.652516 -0.118489,0.693741 -0.04075,0.726719 0.04075,0.72672 0.118489,0.693741 0.190337,0.652516 0.256295,0.605403 0.3166,0.548868 0.371016,0.484087 0.419542,0.414596 0.462298,0.335681 0.499281,0.248521 0.530493,0.154296 0.5557,0.05418 0.555816,-0.05418 0.530376,-0.154296 0.499281,-0.248521 0.462415,-0.335681 0.419543,-0.414596 0.371015,-0.484087 0.316483,-0.548868 0.256413,-0.605403 0.190337,-0.652516 0.118371,-0.693741 0.04075,-0.72672"
     sodipodi:nodetypes="ccccccccccccccccccccccccccccccccccccccccccccccccccccccccccccccccccccccccccccccccccccccccccccccccccccccccccccccccccccccccccccccccccccccccccccccccccccccccccccccccccccccccccccccccccccccccccccccccccccccccccccccccccccccccccccccccccccccccccccccccccccccccccccccccccccccccccccccccccccccccccccccccccccccccccccccccccccccccccccccccccccccccccccccccccccccccccccccccccccccccccccccccccccccccccccccccccccccccccccccccccccccccccccccccccccccccccccccccccccccccccccccccccccccccccccccccccccccccccccccc"
     style="stroke-width:1.17783" />
</svg>
