<?xml version="1.0" encoding="UTF-8" standalone="no"?>
<!-- Created using Krita: https://krita.org -->

<svg
   width="100"
   height="100"
   viewBox="0 0 75 75.000001"
   version="1.1"
   id="svg1"
   sodipodi:docname="Rock.svg"
   inkscape:version="1.3.2 (091e20ef0f, 2023-11-25)"
   xmlns:inkscape="http://www.inkscape.org/namespaces/inkscape"
   xmlns:sodipodi="http://sodipodi.sourceforge.net/DTD/sodipodi-0.dtd"
   xmlns="http://www.w3.org/2000/svg"
   xmlns:svg="http://www.w3.org/2000/svg">
  <sodipodi:namedview
     id="namedview1"
     pagecolor="#8c8c8c"
     bordercolor="#000000"
     borderopacity="0.25"
     inkscape:showpageshadow="2"
     inkscape:pageopacity="0.0"
     inkscape:pagecheckerboard="0"
     inkscape:deskcolor="#d1d1d1"
     inkscape:document-units="pt"
     inkscape:zoom="4.203125"
     inkscape:cx="31.048327"
     inkscape:cy="45.32342"
     inkscape:window-width="1920"
     inkscape:window-height="1010"
     inkscape:window-x="0"
     inkscape:window-y="1080"
     inkscape:window-maximized="1"
     inkscape:current-layer="svg1" />
  <defs
     id="defs1" />
  <path
     id="shape0"
     fill="#ffffff"
     fill-rule="evenodd"
     stroke-opacity="0"
     stroke="#000000"
     stroke-width="0"
     stroke-linecap="square"
     stroke-linejoin="bevel"
     d="M 45.619511,23.940095 34.703547,17.131305 20.12474,31.846339 33.255979,16.9798 17.890367,21.99218 6.8967413,37.12226 17.975668,33.306639 5.4364415,40.055592 6.167228,58.004419 l 11.636565,-6.048721 -11.05601,7.391891 12.517583,10.540385 1.082175,-0.0026 8.886566,-5.985063 -6.862263,5.978698 36.653906,-0.105673 0.05219,-0.08403 -1.541777,-11.660718 2.440623,10.206821 10.625686,-17.18876 -4.186108,-0.867013 3.904743,-0.169329 -6.282982,-13.715614 -0.199883,12.681819 -0.771528,-14.802882 -0.488889,-1.066897 -10.593856,-5.726615 -2.984258,14.778691 -9.109367,1.11655 0.515625,6.35937 -8.164693,1.117823 -1.890624,6.788421 1.117824,-7.304045 6.616545,-1.718749 -0.7728,-7.820942 7.647795,-0.944675 1.010879,-15.622789 -0.351389,-0.189699 m -27.300094,11.859365 -1.11655,7.218744 0.859375,6.70312 0.257175,-13.921864 m 1.576157,18.132162 10.913417,8.336567 -6.874995,-3.953122 -4.038422,-4.383445 m 14.036446,8.45115 21.255192,-3.666664 -11.057283,3.380206 -10.197909,0.286458 m 29.67706,-12.317698 -6.588536,7.161453 4.239579,-3.036457 2.348957,-4.124996"
     sodipodi:nodetypes="cccccccccccccccccccccccccccccccccccccccccccccccccccccc" />
  <path
     id="shape1"
     fill="#ffffff"
     fill-rule="evenodd"
     d="m 43.213255,11.736976 0.229168,3.151039 4.067705,3.437498 1.43229,-2.749998 -2.46354,-4.124997 -1.374999,1.489582 -1.890624,-1.203124"
     sodipodi:nodetypes="ccccccc"
     style="stroke-width:1.27315" />
  <path
     id="shape2"
     fill="#ffffff"
     fill-rule="evenodd"
     d="m 55.301786,6.2942708 -3.093748,7.5052022 5.098955,-1.317707 4.583329,-6.6458281 -6.588536,0.4583329"
     sodipodi:nodetypes="ccccc"
     style="stroke-width:1.27315" />
  <path
     id="shape3"
     fill="#ffffff"
     fill-rule="evenodd"
     d="m 54.342137,23.467426 7.519525,0.472655 5.285152,-3.910152 -7.218744,0.558592 -3.00781,-1.417967 -2.578123,4.296872"
     sodipodi:nodetypes="cccccc"
     style="stroke-width:1.27315" />
</svg>
