<?xml version="1.0" encoding="UTF-8" standalone="no"?>
<!-- Created using Krita: https://krita.org -->

<svg
   width="100"
   height="100"
   viewBox="0 0 75 74.999999"
   version="1.1"
   id="svg1"
   sodipodi:docname="Shadow.svg"
   inkscape:version="1.3.2 (091e20ef0f, 2023-11-25)"
   xmlns:inkscape="http://www.inkscape.org/namespaces/inkscape"
   xmlns:sodipodi="http://sodipodi.sourceforge.net/DTD/sodipodi-0.dtd"
   xmlns="http://www.w3.org/2000/svg"
   xmlns:svg="http://www.w3.org/2000/svg">
  <sodipodi:namedview
     id="namedview1"
     pagecolor="#808080"
     bordercolor="#000000"
     borderopacity="0.25"
     inkscape:showpageshadow="2"
     inkscape:pageopacity="0.0"
     inkscape:pagecheckerboard="0"
     inkscape:deskcolor="#d1d1d1"
     inkscape:document-units="pt"
     inkscape:zoom="4.203125"
     inkscape:cx="13.442379"
     inkscape:cy="48.892193"
     inkscape:window-width="1920"
     inkscape:window-height="1010"
     inkscape:window-x="0"
     inkscape:window-y="1080"
     inkscape:window-maximized="1"
     inkscape:current-layer="svg1" />
  <defs
     id="defs1" />
  <path
     id="shape0"
     fill="#ffffff"
     fill-rule="evenodd"
     d="m 2.5785829,42.070043 0.3043246,-0.618169 0.4184486,-0.561102 0.5325682,-0.504048 0.6466968,-0.446982 0.4137958,-0.212719 0.4370825,-0.159928 0.4603805,-0.107134 0.4836559,-0.05435 0.5069539,-0.0016 0.530252,0.05124 0.5535273,0.104035 0.5152835,0.506165 0.4807028,0.494843 0.4461109,0.483532 0.4115415,0.472215 0.3769493,0.460888 0.34237,0.449582 0.307788,0.438255 0.273196,0.426938 0.238627,0.415622 0.204035,0.404305 0.169454,0.392978 0.178539,0.503629 0.12438,0.453561 0.08106,0.415261 0.04856,0.388706 0.0269,0.373917 0.01607,0.370886 0.01607,0.379587 0.02689,0.400067 0.04857,0.432303 0.08105,0.476285 0.12438,0.532021 0.178539,0.599515 0.232653,0.691467 0.219702,0.617977 0.206763,0.544522 0.193834,0.470919 0.180884,0.397542 0.167955,0.32394 0.155015,0.250564 0.06763,-0.535392 0.152164,-0.507213 0.236699,-0.479035 0.321235,-0.450856 0.405771,-0.422678 0.490306,-0.394533 0.610685,-0.417943 0.553876,-0.340847 0.497069,-0.263751 0.440261,-0.186655 0.383453,-0.109558 0.04351,0.507213 0.06289,0.495942 0.08239,0.48467 0.101781,0.473433 0.121168,0.462128 0.140554,0.450856 0.159941,0.439585 0.179441,0.428313 0.198828,0.417042 0.287195,0.520063 0.325631,0.502591 0.363841,0.485009 0.402164,0.467312 0.440373,0.449729 0.47881,0.432259 0.517019,0.414562 0.238165,-0.599526 0.245265,-0.556018 0.252367,-0.512398 0.259581,-0.468778 0.266681,-0.425157 0.273895,-0.381537 0.280883,-0.33803 0.288097,-0.294409 0.402277,-0.364968 0.42899,-0.367673 0.455815,-0.370604 0.482529,-0.373309 0.509355,-0.376239 0.536068,-0.378979 0.02987,0.466219 0.04813,0.462692 0.06628,0.459084 0.08465,0.45559 0.102795,0.451983 0.120942,0.448377 0.139315,0.444882 0.157574,0.441275 0.175721,0.437782 0.193981,0.434174 0.212128,0.430568 0.278065,0.517132 0.293057,0.50293 0.308047,0.488953 0.323151,0.474752 0.338143,0.460775 0.353133,0.446573 0.368236,0.432596 0.383228,0.418395 0.398219,0.404418 0.351329,-0.544409 0.343778,-0.517019 0.336226,-0.489855 0.328787,-0.462579 0.321235,-0.435414 0.313683,-0.408025 0.306244,-0.380973 0.298693,-0.353584 0.29114,-0.32642 0.382777,-0.411406 0.409152,-0.430117 0.435527,-0.448715 0.461902,-0.467425 0.48839,-0.48591 0.514652,-0.504734 0.664111,-0.571798 0.629959,0.567628 0.514652,0.504733 0.48839,0.485911 0.461902,0.467425 0.435527,0.448714 0.409152,0.430117 0.382777,0.411406 0.291141,0.32642 0.298692,0.353584 0.306244,0.380974 0.313683,0.408024 0.321235,0.435415 0.328787,0.462578 0.336226,0.489855 0.343778,0.51702 0.351329,0.544296 0.398219,-0.404306 0.383228,-0.418507 0.368236,-0.432483 0.353134,-0.446686 0.338142,-0.460662 0.323151,-0.474752 0.308047,-0.488954 0.293057,-0.50293 0.278065,-0.517132 0.212128,-0.430567 0.193981,-0.434175 0.175834,-0.437781 0.157461,-0.441275 0.139202,-0.444883 0.121055,-0.448376 0.102795,-0.451983 0.08465,-0.455591 0.06627,-0.459084 0.04813,-0.462691 0.02987,-0.466242 0.536068,0.379001 0.509355,0.376127 0.482529,0.373422 0.455816,0.370491 0.428989,0.367786 0.402277,0.364855 0.288097,0.294409 0.280883,0.338029 0.273782,0.38165 0.266682,0.425157 0.25958,0.468778 0.25248,0.512398 0.245265,0.555906 0.238165,0.599526 0.51702,-0.414562 0.478696,-0.432146 0.440487,-0.449729 0.402163,-0.467425 0.363841,-0.484896 0.325518,-0.502592 0.287308,-0.520175 0.198828,-0.417042 0.179328,-0.428313 0.160054,-0.439585 0.140554,-0.450856 0.121168,-0.462128 0.101781,-0.473354 0.08228,-0.484659 0.06301,-0.495942 0.04351,-0.507213 0.383453,0.109558 0.440261,0.186655 0.497069,0.263751 0.553877,0.340847 0.610684,0.417943 0.490306,0.394443 0.405771,0.422678 0.321235,0.450856 0.236699,0.479035 0.152164,0.507213 0.06763,0.535392 0.154981,-0.250451 0.167944,-0.324053 0.180906,-0.39743 0.193869,-0.471032 0.206717,-0.544408 0.21968,-0.618 0.232642,-0.691456 0.178539,-0.599514 0.124436,-0.532022 0.08104,-0.476284 0.04858,-0.432304 0.02694,-0.400067 0.01601,-0.379587 0.01612,-0.370886 0.02683,-0.373917 0.04858,-0.388706 0.08104,-0.415261 0.124437,-0.453561 0.178539,-0.503629 0.169409,-0.392977 0.204012,-0.404306 0.238729,-0.415621 0.273106,-0.426939 0.307822,-0.438254 0.342425,-0.449583 0.376916,-0.460888 0.411519,-0.472215 0.446122,-0.483532 0.480725,-0.494843 0.515216,-0.506165 0.553539,-0.104035 0.530319,-0.05124 0.506875,0.0016 0.483656,0.05434 0.460437,0.107134 0.437105,0.159928 0.413773,0.212719 0.646641,0.446982 0.532574,0.504048 0.418507,0.561102 0.304328,0.618169 -3.728017,-0.646697 -0.190487,0.154587 -0.187331,0.181143 -0.184287,0.207721 -0.181132,0.234276 -0.178088,0.260854 -0.174932,0.287421 -0.171776,0.313987 -0.168733,0.340566 -0.16569,0.36712 -0.162421,0.393699 -0.15949,0.420255 -0.156222,0.446832 -0.153291,0.473399 -0.150022,0.499965 -0.146979,0.526544 -0.143936,0.553099 -0.14078,0.579677 -0.137624,0.606233 -0.13458,0.63281 -0.131425,0.659377 -0.128381,0.685944 -0.106289,0.558712 -0.114067,0.546776 -0.121844,0.534603 -0.129621,0.522655 -0.137398,0.510482 -0.145063,0.498534 -0.152953,0.486473 -0.160618,0.474527 -0.168395,0.462353 -0.176284,0.450405 -0.18395,0.438232 -0.191726,0.426285 -0.199504,0.414224 -0.207169,0.402163 -0.215058,0.390216 -0.222836,0.378043 -0.2305,0.366095 -0.238277,0.354035 -0.246168,0.341975 -0.253832,0.329914 -0.261609,0.317853 -0.269387,0.305906 -0.277051,0.293733 -0.284941,0.281785 -0.292718,0.269725 -0.300383,0.257664 -0.0381,-0.563458 -0.07608,-0.568191 -0.114067,-0.573038 -0.152164,-0.577772 -0.103471,-0.311767 -0.139089,-0.35505 -0.174707,-0.398556 -0.210437,-0.441952 -0.246055,-0.485347 -0.281785,-0.528629 -0.317403,-0.572136 -0.35302,-0.615531 -0.09941,0.467537 -0.103021,0.461226 -0.10674,0.454801 -0.110572,0.448377 -0.11418,0.441952 -0.117899,0.435639 -0.121618,0.429215 -0.125338,0.422903 -0.129058,0.416366 -0.132777,0.410054 -0.136496,0.403741 -0.140217,0.397205 -0.143936,0.390892 -0.147655,0.38458 -0.151375,0.378043 -0.154982,0.371731 -0.221934,0.486699 -0.247294,0.47757 -0.272655,0.468214 -0.297904,0.458971 -0.323376,0.449729 -0.348737,0.440599 -0.374098,0.431244 -0.399346,0.422002 -0.424819,0.412759 -0.45018,0.403516 -0.475541,0.394274 -0.500788,0.385031 -0.0045,-0.45018 -0.02288,-0.45683 -0.04125,-0.463368 -0.05974,-0.469792 -0.07811,-0.476442 -0.0966,-0.48298 -0.114969,-0.489404 -0.133453,-0.496054 -0.135708,-0.446573 -0.153629,-0.452322 -0.171438,-0.457957 -0.189247,-0.46348 -0.207168,-0.469229 -0.224978,-0.474751 -0.242786,-0.4805 -0.260594,-0.486023 -0.278517,-0.491771 -0.194319,0.464494 -0.200631,0.456943 -0.206943,0.449391 -0.213255,0.441951 -0.219567,0.4344 -0.225879,0.426961 -0.232078,0.419409 -0.238503,0.41197 -0.244702,0.404418 -0.251127,0.396866 -0.257326,0.389427 -0.263638,0.381875 -0.26995,0.374436 -0.365194,0.480049 -0.385482,0.476555 -0.40577,0.472948 -0.426059,0.469454 -0.446348,0.465847 -0.466636,0.462353 -0.486925,0.458746 -0.507213,0.455252 -0.527501,0.451646 -0.547791,0.448151 -0.09671,-0.393034 -0.125226,-0.418507 -0.153742,-0.443756 -0.182258,-0.469228 -0.210888,-0.494477 -0.239292,-0.519949 -0.267921,-0.545198 -0.296326,-0.570671 -0.352794,-0.635257 -0.348061,-0.5727 -0.343327,-0.510031 -0.338706,-0.447475 -0.334084,-0.384805 -0.329464,-0.322137 -0.365419,-0.280771 -0.419859,0.284941 -0.329463,0.322137 -0.334085,0.384806 -0.338706,0.447475 -0.343439,0.510031 -0.348061,0.5727 -0.352682,0.635369 -0.296438,0.570558 -0.267809,0.545311 -0.239404,0.519837 -0.210776,0.494589 -0.182258,0.469116 -0.153742,0.443868 -0.125226,0.418394 -0.09671,0.393147 -0.54779,-0.448151 -0.527502,-0.451645 -0.507213,-0.455252 -0.486925,-0.458747 -0.466636,-0.462352 -0.446348,-0.465848 -0.426059,-0.469454 -0.40577,-0.472948 -0.385482,-0.476555 -0.365194,-0.480049 -0.26995,-0.374436 -0.263638,-0.381875 -0.257439,-0.389427 -0.251014,-0.396979 -0.244815,-0.404418 -0.23839,-0.411857 -0.232191,-0.419521 -0.225766,-0.426849 -0.219567,-0.434512 -0.213255,-0.441839 -0.206943,-0.449504 -0.200631,-0.456942 -0.194319,-0.464382 -0.278516,0.491658 -0.260595,0.486136 -0.242899,0.480387 -0.224865,0.474864 -0.207168,0.469116 -0.189247,0.463593 -0.171438,0.457845 -0.153516,0.452321 -0.135821,0.446573 -0.133453,0.496054 -0.114969,0.489405 -0.0966,0.482979 -0.07811,0.476443 -0.05974,0.469792 -0.04137,0.463367 -0.02288,0.45683 -0.0044,0.45018 -0.500901,-0.385031 -0.47554,-0.394274 -0.45018,-0.403516 -0.424707,-0.412759 -0.399458,-0.422001 -0.374098,-0.431244 -0.348737,-0.440487 -0.323264,-0.449841 -0.298016,-0.458972 -0.272655,-0.468214 -0.247295,-0.477569 -0.221821,-0.4867 -0.155095,-0.37173 -0.151375,-0.378043 -0.147655,-0.384581 -0.143823,-0.390892 -0.140216,-0.397204 -0.136497,-0.403742 -0.132777,-0.410054 -0.129058,-0.416365 -0.125338,-0.422903 -0.121618,-0.429215 -0.117899,-0.435527 -0.114292,-0.442065 -0.11046,-0.448376 -0.10674,-0.454801 -0.103021,-0.461114 -0.09941,-0.46765 -0.35302,0.615531 -0.317403,0.572137 -0.281785,0.528629 -0.246055,0.485346 -0.210437,0.441952 -0.174706,0.398557 -0.13909,0.355162 -0.103471,0.311767 -0.152164,0.577659 -0.114067,0.573038 -0.07608,0.568192 -0.0381,0.56357 -0.30038,-0.257665 L 14.348747,60.334924 14.063918,60.053139 13.786721,59.759293 13.517334,59.4535 13.255725,59.135534 13.00187,58.80562 12.755782,58.463646 12.51747,58.109611 12.286914,57.743628 12.064123,57.365473 11.84911,56.975369 11.641851,56.573206 11.442359,56.158982 11.250632,55.732697 11.066672,55.294352 10.890488,54.843947 10.72206,54.381594 10.561397,53.907181 10.408501,53.420707 10.26337,52.922173 10.126005,52.411578 9.9964065,51.888923 9.8745739,51.35432 9.7605073,50.807545 9.6542067,50.248844 9.525848,49.5629 9.3943896,48.903523 9.2598203,48.270712 9.1221514,47.66448 8.9813715,47.084803 8.8374921,46.531704 8.6905017,46.00516 8.5404117,45.505194 8.3872108,45.031796 8.2308989,44.584963 8.0714987,44.164709 7.9089764,43.77101 7.7433544,43.403889 7.5746327,43.063324 7.4028002,42.749336 7.227868,42.461915 7.0498249,42.201061 6.8686709,41.966785 6.6844173,41.759065 6.497064,41.577922 6.3065998,41.423334 2.5785829,42.070031"
     sodipodi:nodetypes="ccccccccccccccccccccccccccccccccccccccccccccccccccccccccccccccccccccccccccccccccccccccccccccccccccccccccccccccccccccccccccccccccccccccccccccccccccccccccccccccccccccccccccccccccccccccccccccccccccccccccccccccccccccccccccccccccccccccccccccccccccccccccccccccccccccccccccccccccccccccccccccccccccccccccccccccccccccccccccccccccccccccccccccccccccccccccccccccccccccccccccccccccccccccccccccccccccccccccccccccccccccccccccccccccccccccccccccccccccccccccccccccccccccccccccccccccccccccccccccccccccccccccccccccccccccccccccccccccccccccccccc"
     style="stroke-width:1.12714" />
  <path
     id="shape1"
     fill="#ffffff"
     fill-rule="evenodd"
     stroke-opacity="0"
     stroke="#000000"
     stroke-width="0"
     stroke-linecap="square"
     stroke-linejoin="bevel"
     d="m 37.786346,45.969272 0.502851,-0.107383 0.432326,-0.174752 0.43786,-0.25479 0.443417,-0.334839 0.448963,-0.414889 0.454508,-0.494928 0.460065,-0.574977 0.563998,-0.936123 0.162512,-0.717865 -0.152908,-0.526656 -0.382259,-0.362517 -0.52554,-0.225436 -0.582788,-0.115417 -0.553933,-0.03246 -0.703764,3.97e-4 -0.456492,0.0028 -0.408938,0.0076 -0.38538,0.0026 -0.373501,-0.0046 -0.408938,-0.0076 -0.456492,-0.0028 -0.703763,-3.96e-4 -0.553945,0.03246 -0.582772,0.115417 -0.52555,0.225437 -0.382258,0.362516 -0.152903,0.526659 0.162515,0.717864 0.563998,0.936124 0.460061,0.574977 0.454508,0.494927 0.448963,0.414878 0.443417,0.33484 0.43786,0.254801 0.432326,0.174752 0.426769,0.0947"
     sodipodi:nodetypes="ccccccccccccccccccccccccccccccccccccc" />
  <path
     id="shape2"
     fill="#ffffff"
     fill-rule="evenodd"
     d="m 24.363378,44.194015 c 3.043279,-1.014427 5.072132,-2.231738 6.086558,-3.651935 1.014426,-1.420197 2.206377,-5.630066 3.575853,-12.629631 -1.115869,2.282482 -2.485345,3.144744 -4.108427,2.58681 C 27.482739,29.662357 24.05905,23.651859 17.516,20.836826 13.153967,18.960135 7.9550313,18.148594 1.9191945,18.402201 c 2.4346233,3.094002 4.387394,6.061199 5.8583122,8.901592 2.2063773,4.260614 1.6738035,8.825532 6.6191323,10.879746 3.296886,1.369475 7.68428,2.130295 13.162182,2.282459 0,0 -1.065148,1.242672 -3.195443,3.728017 z"
     sodipodi:nodetypes="czczzczzcc"
     style="stroke-width:1.12714" />
  <path
     id="shape3"
     fill="#ffffff"
     fill-rule="evenodd"
     d="m 12.849639,10.971529 c 4.159148,1.318754 7.084077,2.536066 8.774788,3.651935 2.536066,1.673803 6.999541,7.405313 9.434165,5.630066 2.434623,-1.775246 0.05072,-6.086558 -1.52164,-7.760361 -1.04824,-1.115869 -2.772765,-2.062667 -5.173574,-2.8403943 l 2.891115,3.9562633 c -3.110908,-1.555454 -5.663881,-2.502252 -7.658919,-2.840394 -2.992558,-0.507213 -2.992558,-0.507213 -6.745935,0.202885 z"
     sodipodi:nodetypes="czzzcccc"
     style="stroke-width:1.12714" />
  <path
     id="shape01"
     fill="#ffffff"
     fill-rule="evenodd"
     stroke-opacity="0"
     stroke="#000000"
     stroke-width="0"
     stroke-linecap="square"
     stroke-linejoin="bevel"
     d="m 51.083368,44.072283 c -3.043279,-1.014426 -5.072132,-2.231738 -6.086558,-3.651934 -1.014427,-1.420197 -2.206378,-5.630067 -3.575853,-12.629631 1.115869,2.282482 2.485344,3.144744 4.108426,2.58681 2.434624,-0.836902 5.858313,-6.8474 12.401362,-9.662434 4.362034,-1.87669 9.560969,-2.688231 15.596805,-2.434625 -2.434623,3.094003 -4.387394,6.0612 -5.858312,8.901593 -2.206377,4.260614 -1.673803,8.825532 -6.619132,10.879745 -3.296885,1.369476 -7.684279,2.130296 -13.162181,2.28246 0,0 1.065147,1.242672 3.195443,3.728016 z"
     sodipodi:nodetypes="czczzczzcc" />
  <path
     id="shape11"
     fill="#ffffff"
     fill-rule="evenodd"
     stroke-opacity="0"
     stroke="#000000"
     stroke-width="0"
     stroke-linecap="square"
     stroke-linejoin="bevel"
     d="m 62.597107,10.849798 c -4.159148,1.318754 -7.084078,2.536066 -8.774788,3.651935 -2.536066,1.673803 -6.999542,7.405312 -9.434165,5.630066 -2.434623,-1.775246 -0.05072,-6.086558 1.521639,-7.760362 1.048241,-1.115868 2.772766,-2.062667 5.173575,-2.8403935 l -2.891115,3.9562625 c 3.110907,-1.555453 5.66388,-2.502251 7.658918,-2.840393 2.992558,-0.507214 2.992558,-0.507214 6.745936,0.202885 z"
     sodipodi:nodetypes="czzzcccc" />
</svg>
