<?xml version="1.0" encoding="UTF-8" standalone="no"?>
<!-- Created using Krita: https://krita.org -->

<svg
   width="100"
   height="100"
   viewBox="0 0 75.000001 75"
   version="1.1"
   id="svg1"
   sodipodi:docname="Steel.svg"
   inkscape:version="1.3.2 (091e20ef0f, 2023-11-25)"
   xmlns:inkscape="http://www.inkscape.org/namespaces/inkscape"
   xmlns:sodipodi="http://sodipodi.sourceforge.net/DTD/sodipodi-0.dtd"
   xmlns="http://www.w3.org/2000/svg"
   xmlns:svg="http://www.w3.org/2000/svg">
  <sodipodi:namedview
     id="namedview1"
     pagecolor="#8f8f8f"
     bordercolor="#000000"
     borderopacity="0.25"
     inkscape:showpageshadow="2"
     inkscape:pageopacity="0.0"
     inkscape:pagecheckerboard="0"
     inkscape:deskcolor="#d1d1d1"
     inkscape:document-units="pt"
     inkscape:zoom="4.203125"
     inkscape:cx="31.286245"
     inkscape:cy="59.836431"
     inkscape:window-width="1920"
     inkscape:window-height="1010"
     inkscape:window-x="0"
     inkscape:window-y="1080"
     inkscape:window-maximized="1"
     inkscape:current-layer="svg1" />
  <defs
     id="defs1" />
  <path
     id="shape0"
     fill="#ffffff"
     fill-rule="evenodd"
     d="m 22.528874,47.657403 -0.602764,-0.192202 -0.810467,0.25319 -0.844134,0.643958 -0.626174,0.858681 -0.235505,0.815782 0.205267,0.598441 0.602764,0.192202 0.809872,-0.25377 0.845232,-0.644337 0.625077,-0.858303 0.236097,-0.8152 -0.205265,-0.598442 m 9.330398,-2.245267 -0.545459,-0.115816 -0.787093,0.325399 -0.862239,0.698794 -0.679879,0.877235 -0.308929,0.794723 0.128377,0.542071 0.544734,0.116558 0.787817,-0.32614 0.862241,-0.698796 0.679878,-0.877234 0.308204,-0.793982 -0.127652,-0.542812 m 8.570689,-7.157543 -0.513543,-0.148433 -0.703675,0.240147 -0.744732,0.578703 -0.56237,0.757141 -0.225513,0.709473 0.159567,0.510194 0.513545,0.148435 0.7044,-0.24089 0.744732,-0.578702 0.56237,-0.757142 0.224787,-0.708731 -0.159568,-0.510195 m 7.118163,-8.943034 -0.542925,-0.152515 -0.748177,0.261901 -0.795604,0.621795 -0.603618,0.808195 -0.246294,0.754438 0.164287,0.53948 0.542925,0.152515 0.748902,-0.262642 0.794878,-0.621053 0.604344,-0.808938 0.245569,-0.753696 -0.164287,-0.53948 m 2.076072,-9.262246 -0.581003,-0.214443 -0.75149,0.193363 -0.762895,0.560931 -0.544207,0.774913 -0.177698,0.756258 0.227027,0.576203 0.581003,0.214441 0.752586,-0.193741 0.762524,-0.561293 0.544577,-0.77455 0.176603,-0.755881 -0.227027,-0.576201 m -9.183662,1.777947 -0.537629,-0.124116 -0.773961,0.312127 -0.846209,0.68256 -0.66617,0.863076 -0.3003,0.785755 0.128526,0.542216 0.537629,0.124115 0.773961,-0.312126 0.846209,-0.68256 0.666169,-0.863076 0.3003,-0.785755 -0.128525,-0.542216 m -8.817358,7.810038 -0.513692,-0.148579 -0.703601,0.240221 -0.744658,0.578775 -0.562444,0.757069 -0.225586,0.7094 0.159715,0.51034 0.513692,0.148579 0.704326,-0.240962 0.744658,-0.578775 0.562444,-0.757069 0.224862,-0.708659 -0.159716,-0.51034 m -6.970583,8.742086 -0.55433,-0.149165 -0.764199,0.272344 -0.810571,0.634718 -0.614765,0.82196 -0.249856,0.764011 0.169889,0.542059 0.554404,0.149236 0.764199,-0.272343 0.810571,-0.634719 0.614765,-0.821959 0.249856,-0.76401 -0.169963,-0.542132 M 68.0963,8.1217159 l -0.16154,0.1176376 0.05634,0.055128 -5.837277,7.6918195 -0.0085,0.429879 -0.02455,0.44032 -0.0413,0.451506 -0.0566,0.461204 -0.0726,0.473115 -0.08789,0.482815 -0.103187,0.492516 -0.118486,0.502217 -0.133783,0.511917 -0.148355,0.520877 -0.164391,0.529853 -0.178238,0.538071 -0.193551,0.546305 4.936047,2.235334 0.293753,-0.841498 0.118486,-0.502217 0.103187,-0.492515 0.08789,-0.482815 0.0726,-0.473114 0.05585,-0.461931 0.0413,-0.451505 0.02455,-0.44032 0.0092,-0.429155 3.723956,-5.631385 -2.19296,-6.2740587 M 8.4433097,69.087935 l 5.8886763,2.362124 6.404977,-4.586811 0.428124,-0.01786 0.439684,-0.03412 0.450499,-0.0511 0.460607,-0.06588 0.471424,-0.08287 0.480789,-0.09837 0.490155,-0.113878 0.9151,-0.08697 -2.198459,-4.95897 -0.541967,0.205385 -0.534067,0.189898 -0.525428,0.175134 -0.518252,0.160389 -0.508888,0.144884 -0.499521,0.129381 -0.490155,0.113878 -0.480789,0.09837 -0.471424,0.08287 -0.459866,0.06661 -0.450499,0.0511 -0.439683,0.03412 -0.428867,0.01713 -7.8821703,6.265547 m 18.5750223,-2.531361 5.45532,3.315154 5.647687,-3.139598 -0.872327,-6.972705 0.637586,-0.449922 0.641117,-0.462428 0.642457,-0.474178 0.644519,-0.486667 0.646585,-0.49916 0.648666,-0.510182 0.650004,-0.521932 0.650603,-0.534407 0.651957,-0.54469 0.651829,-0.556423 0.652444,-0.567431 0.65159,-0.578423 6.458302,3.55361 5.000672,-5.512521 -3.246326,-6.357215 0.575107,-0.664869 0.564115,-0.664015 0.553108,-0.664629 0.542116,-0.663777 0.531107,-0.66439 0.519406,-0.661329 0.507673,-0.661202 0.495954,-0.659607 0.48498,-0.657288 0.472536,-0.654952 0.460819,-0.653358 7.454342,-0.353167 3.258271,-5.695264 -3.468116,-5.372748 -3.954182,7.391172 -7.701797,-0.01085 -0.460819,0.653358 -0.472537,0.654952 -0.484237,0.658014 -0.496697,0.658881 -0.507672,0.661202 -0.51939,0.662796 -0.531123,0.662924 -0.542116,0.663776 -0.553108,0.66463 -0.564115,0.664015 3.929661,6.26984 -6.886552,6.905999 -6.482454,-3.616422 -0.652443,0.567431 -0.65183,0.556423 -0.651216,0.545415 -0.651343,0.533681 -0.650005,0.521932 -0.647924,0.510909 -0.647327,0.498433 -0.64452,0.486669 -0.643182,0.474919 -0.640391,0.461687 -0.637586,0.449921 -0.255648,8.459153 -5.56355,2.378856 M 62.66965,2.8771268 l -7.864082,5.7100749 -0.428348,0.01764 -0.439534,0.034263 -0.450648,0.05096 -0.46031,0.066174 -0.47135,0.082942 -0.480789,0.098373 -0.49023,0.1138047 -0.499521,0.129381 -0.508739,0.1450297 -0.517955,0.1606786 -0.52565,0.1749175 -0.533845,0.1901149 -0.542189,0.2051679 -0.55031,0.220438 -0.556908,0.234298 -0.564229,0.248899 -0.571404,0.263646 -2.58461,-6.1798819 -6.866446,3.5011552 0.253285,8.2577217 -0.643108,0.474992 -0.644743,0.486451 -0.646956,0.498795 -0.648442,0.510401 -0.649783,0.52215 -0.651046,0.533972 -0.651513,0.545125 -0.651903,0.55635 -0.652296,0.567575 -0.651813,0.578207 -0.651981,0.589648 -5.823563,-3.489737 -6.275118,6.411622 3.962907,5.46946 -0.563892,0.664233 -0.553256,0.664484 -0.542041,0.66385 -0.530827,0.663213 -0.519687,0.662507 -0.507895,0.660983 -0.496178,0.65939 -0.484608,0.65765 -0.472313,0.655171 -0.460894,0.653285 -0.447946,0.649991 -0.435949,0.647219 -8.519423,0.0089 -2.6241615,5.997945 6.3986815,2.589807 -0.23657,0.569508 -0.222131,0.561871 -0.208418,0.554975 -0.193327,0.546522 -0.1784603,0.537854 -0.1641696,0.530071 -0.1486508,0.520587 -0.1339315,0.511772 -0.1184868,0.502217 -0.1031161,0.492589 -0.087894,0.482815 -0.072672,0.473041 -0.056147,0.46164 -0.041147,0.45165 -0.024697,0.440176 -0.00904,0.429371 -6.362344,8.028424 4.6564026,4.556214 8.0377815,-6.388987 0.429592,-0.01787 0.438942,-0.03484 0.45124,-0.05037 0.459866,-0.06661 0.471424,-0.08287 0.480789,-0.09837 0.490155,-0.113877 0.499521,-0.129381 0.508887,-0.144884 0.517527,-0.159647 0.526153,-0.175877 0.534068,-0.189897 0.541966,-0.205385 0.550607,-0.220148 0.556314,-0.234878 0.56423,-0.248899 2.628274,6.24292 5.607572,-2.714509 0.255648,-8.459153 0.637586,-0.449921 0.640392,-0.461687 0.64318,-0.474919 0.644521,-0.486669 0.647327,-0.498433 0.647924,-0.510909 0.650004,-0.521932 0.651343,-0.533681 0.651217,-0.545415 0.651829,-0.556423 0.652444,-0.567431 0.65159,-0.578423 6.235616,3.781193 5.821003,-5.883754 -3.843971,-6.213564 0.575107,-0.664869 0.564115,-0.664015 0.553108,-0.664631 0.542116,-0.663776 0.531123,-0.662924 0.51939,-0.662795 0.507673,-0.661202 0.496696,-0.658882 0.484237,-0.658013 0.472537,-0.654952 0.460819,-0.653358 7.94006,0.0017 3.62195,-6.918168 -6.184664,-2.400711 0.251157,-0.577002 0.236569,-0.569508 0.222724,-0.561292 0.208121,-0.555264 0.19355,-0.546305 0.178238,-0.538071 0.163666,-0.529111 0.14908,-0.521619 0.133783,-0.511917 0.118487,-0.502217 0.103186,-0.492517 0.08789,-0.482815 0.0726,-0.473114 0.05659,-0.461206 0.04055,-0.452229 0.02529,-0.439595 0.0078,-0.429138 L 66.975413,7.0902441 62.66965,2.8771268 M 50.78553,18.595505 50.592223,18.42232 l -0.209974,-0.154669 -0.224005,-0.136474 -0.238331,-0.11857 -0.252512,-0.100521 -0.266689,-0.08247 -0.279995,-0.06502 -0.293152,-0.04742 -0.305657,-0.03064 -0.317866,-0.01356 -0.330225,0.0033 -0.342284,0.02059 -0.35362,0.03707 -0.364157,0.05288 -0.375344,0.0695 -0.384858,0.08486 -0.395897,0.101631 -0.405336,0.117061 -0.414703,0.132566 -0.423195,0.147473 -0.432339,0.163194 -0.439957,0.177506 -0.448301,0.192559 -0.456423,0.207828 -0.46302,0.221689 -0.470342,0.23629 -0.47679,0.250296 -0.48309,0.264446 -0.488739,0.277781 -0.494892,0.292078 -0.499518,0.304962 -0.504797,0.318661 -0.509351,0.331621 -0.512954,0.344052 -0.517213,0.357302 -0.520742,0.369808 -0.524051,0.382532 -0.52671,0.394442 -0.529143,0.406571 -0.530854,0.417957 -0.533141,0.430231 -0.534628,0.441833 -0.535315,0.452771 -0.536655,0.464519 -0.536395,0.474931 -0.53686,0.486085 -0.537104,0.497454 -0.535969,0.507271 -0.534615,0.517303 -0.533909,0.52815 -0.532479,0.538257 -0.525824,0.543317 -0.516413,0.54527 -0.505555,0.545738 -0.495495,0.546875 -0.485655,0.547794 -0.474294,0.547305 -0.463153,0.546597 -0.452739,0.54663 -0.441021,0.545036 -0.430103,0.544111 -0.418534,0.54237 -0.406313,0.539818 -0.394966,0.537861 -0.382894,0.535163 -0.371045,0.532247 -0.358396,0.528662 -0.345968,0.52486 -0.332817,0.520317 -0.320464,0.516441 -0.307608,0.511607 -0.294026,0.506033 -0.281246,0.501127 -0.267087,0.494664 -0.253876,0.488728 -0.239868,0.482121 -0.226005,0.475369 -0.211567,0.467731 -0.197853,0.460836 -0.182763,0.452382 -0.167896,0.443713 -0.153753,0.435786 -0.13896,0.427044 -0.12279,0.416746 -0.108219,0.407787 -0.093,0.398014 -0.07647,0.386612 -0.06133,0.376766 -0.04495,0.365221 -0.02937,0.354342 -0.01314,0.342653 0.0038,0.330219 0.02046,0.317496 0.03727,0.304919 0.05379,0.29205 0.07109,0.278515 0.08825,0.264833 0.105988,0.250265 0.123725,0.235697 0.141313,0.220984 0.159199,0.206561 0.17735,0.189495 0.193306,0.173185 0.209974,0.154669 0.223709,0.136185 0.238925,0.11915 0.251918,0.09994 0.267134,0.08291 0.280143,0.06517 0.293152,0.04742 0.305435,0.03042 0.317718,0.01341 0.330001,-0.0036 0.342286,-0.02059 0.353842,-0.03685 0.363934,-0.05309 0.375492,-0.06936 0.384858,-0.08486 0.396416,-0.101122 0.405041,-0.117353 0.41368,-0.132114 0.423772,-0.14836 0.432412,-0.163121 0.440329,-0.177144 0.448227,-0.192631 0.456127,-0.208118 0.463315,-0.221399 0.47049,-0.236145 0.476938,-0.250151 0.482646,-0.26488 0.489111,-0.277419 0.494817,-0.292151 0.499074,-0.305398 0.504797,-0.318661 0.509794,-0.331184 0.512585,-0.344416 0.517582,-0.356938 0.520372,-0.370172 0.524645,-0.381951 0.526709,-0.394443 0.528773,-0.406933 0.530854,-0.417957 0.532918,-0.430447 0.534998,-0.441472 0.534872,-0.453206 0.536951,-0.464229 0.536098,-0.475221 0.537453,-0.485504 0.536585,-0.497962 0.536489,-0.506763 0.534169,-0.517739 0.534057,-0.528005 0.531754,-0.537515 0.526549,-0.544059 0.516266,-0.545415 0.505999,-0.545302 0.494976,-0.547383 0.486175,-0.547288 0.4737,-0.547885 0.46345,-0.546306 0.452442,-0.54692 0.441466,-0.544601 0.429732,-0.544474 0.418756,-0.542152 0.406314,-0.539818 0.395337,-0.537499 0.382894,-0.535162 0.370451,-0.532828 0.358767,-0.528299 0.345597,-0.525222 0.333188,-0.519954 0.320018,-0.516876 0.307608,-0.511609 0.294472,-0.505597 0.28132,-0.501054 0.266716,-0.495027 0.254322,-0.488292 0.239719,-0.482266 0.225856,-0.475515 0.211271,-0.468022 0.19815,-0.460544 0.182837,-0.452311 0.167525,-0.444076 0.153679,-0.435857 0.138384,-0.426157 0.123811,-0.417198 0.108516,-0.407497 0.09248,-0.398521 0.07647,-0.386612 0.06117,-0.376912 0.04517,-0.365003 0.02914,-0.35456 0.01314,-0.342652 -0.0036,-0.330001 -0.02032,-0.317352 -0.03705,-0.304701 -0.05379,-0.292051 -0.07124,-0.27866 -0.0887,-0.265268 -0.105395,-0.249685 -0.124317,-0.236277 -0.141017,-0.220694 -0.1592,-0.20656 -0.177348,-0.189496 m -4.673192,5.142248 -0.167265,-0.138998 -0.19117,-0.111602 -0.212868,-0.08349 -0.234596,-0.05832 -0.256383,-0.03176 -0.275979,-0.0059 -0.294923,0.01905 -0.313866,0.04405 -0.331788,0.06859 -0.348836,0.09254 -0.365738,0.116632 -0.381037,0.139386 -0.395391,0.16162 -0.410396,0.184665 -0.423653,0.206518 -0.436111,0.227705 -0.447621,0.248363 -0.459708,0.269913 -0.469472,0.28938 -0.47981,0.309736 -0.487752,0.328084 -0.496996,0.34806 -0.503917,0.365959 -0.510613,0.384072 -0.517162,0.402333 -0.52146,0.418442 -0.526914,0.436323 -0.530042,0.452126 -0.533097,0.468001 -0.535203,0.483352 -0.537087,0.498922 -0.538173,0.513821 -0.537584,0.527458 -0.536846,0.541237 -0.529435,0.548491 -0.516366,0.549669 -0.501271,0.548478 -0.487123,0.547811 -0.471599,0.545589 -0.456296,0.543148 -0.440491,0.53975 -0.424762,0.536278 -0.407001,0.530438 -0.390992,0.525789 -0.372877,0.518845 -0.354912,0.511756 -0.33717,0.504448 -0.317399,0.494772 -0.299226,0.486434 -0.279102,0.475653 -0.259851,0.46547 -0.238571,0.452916 -0.218165,0.44096 -0.197256,0.428045 -0.175697,0.414313 -0.152982,0.398814 -0.131068,0.383979 -0.108649,0.368186 -0.08493,0.350766 -0.06136,0.333202 -0.0372,0.31475 -0.01263,0.295267 0.01195,0.275784 0.03733,0.255632 0.06341,0.233273 0.08811,0.211001 0.115732,0.188698 0.142604,0.164203 0.168006,0.139723 0.19117,0.111602 0.212868,0.08349 0.234597,0.05832 0.256309,0.03169 0.27583,0.0058 0.295367,-0.01862 0.313421,-0.04448 0.332234,-0.06815 0.348837,-0.09253 0.36544,-0.116922 0.381334,-0.139097 0.39502,-0.161982 0.410174,-0.184882 0.423875,-0.206302 0.436111,-0.227704 0.447621,-0.248364 0.459856,-0.269767 0.469175,-0.28967 0.479959,-0.309591 0.487826,-0.328011 0.497145,-0.347916 0.503545,-0.366321 0.510687,-0.383999 0.517088,-0.402407 0.522054,-0.41786 0.526246,-0.436977 0.530487,-0.45169 0.533245,-0.467856 0.535278,-0.48328 0.536568,-0.499429 0.537892,-0.512646 0.538457,-0.528053 0.536106,-0.541963 0.530176,-0.547766 0.515492,-0.549072 0.501551,-0.549655 0.487643,-0.547304 0.471524,-0.54566 0.456149,-0.543294 0.440047,-0.540185 0.425428,-0.535624 0.406408,-0.531019 0.391065,-0.525717 0.372804,-0.518917 0.355282,-0.511393 0.337021,-0.504594 0.317326,-0.494845 0.299078,-0.486578 0.279399,-0.475363 0.259702,-0.465615 0.238571,-0.452916 0.218165,-0.44096 0.197035,-0.428261 0.175918,-0.414098 0.153353,-0.39845 0.130771,-0.384269 0.108946,-0.367896 0.08493,-0.350767 0.06091,-0.333637 0.03766,-0.314314 0.01219,-0.295703 -0.0118,-0.275638 -0.03725,-0.255561 -0.06341,-0.233272 -0.08811,-0.211001 -0.115734,-0.188698 -0.143344,-0.164928 m -2.58954,2.646484 -0.129379,-0.09467 -0.159086,-0.06135 -0.187328,-0.02803 -0.215586,0.0038 -0.240908,0.03563 -0.2661,0.06612 -0.290123,0.0963 -0.313195,0.125962 -0.334744,0.154213 -0.355271,0.182011 -0.374199,0.208475 -0.393705,0.235823 -0.41001,0.260497 -0.42697,0.285985 -0.441381,0.309611 -0.455792,0.333237 -0.468383,0.355743 -0.480173,0.377582 -0.491016,0.398895 -0.50026,0.418871 -0.508408,0.438469 -0.516555,0.458067 -0.522232,0.47573 -0.527032,0.492798 -0.531613,0.510083 -0.533792,0.525363 -0.535826,0.540786 -0.529006,0.54746 -0.514354,0.545833 -0.498401,0.54258 -0.48122,0.537625 -0.464261,0.532454 -0.445999,0.525654 -0.428033,0.518565 -0.407893,0.509252 -0.388122,0.499575 -0.367049,0.488271 -0.345473,0.476008 -0.323245,0.462932 -0.29994,0.44801 -0.276631,0.433088 -0.251519,0.415579 -0.226479,0.397998 -0.201013,0.379386 -0.174243,0.359146 -0.146895,0.338019 -0.119121,0.31586 -0.08924,0.291407 -0.06104,0.268216 -0.03038,0.241627 0.0016,0.214876 0.0321,0.186674 0.06479,0.157715 0.09746,0.127289 0.13012,0.0954 0.159087,0.06135 0.187328,0.02804 0.214859,-0.0031 0.240909,-0.03563 0.266974,-0.06671 0.289396,-0.09555 0.31327,-0.125889 0.334225,-0.15472 0.355938,-0.181359 0.374703,-0.209434 0.392757,-0.2353 0.410084,-0.260425 0.426673,-0.286274 0.441826,-0.309176 0.455496,-0.333527 0.468456,-0.355671 0.479952,-0.377799 0.49146,-0.398459 0.500038,-0.419089 0.509356,-0.438993 0.515756,-0.457397 0.522157,-0.475804 0.527106,-0.492725 0.531317,-0.510374 0.534814,-0.525813 0.53538,-0.541222 0.529451,-0.547024 0.513332,-0.545382 0.498698,-0.542289 0.481146,-0.537698 0.464335,-0.532382 0.446798,-0.526323 0.427086,-0.518041 0.408115,-0.509033 0.387677,-0.500011 0.367271,-0.488054 0.345399,-0.47608 0.323543,-0.462642 0.299493,-0.448446 0.276928,-0.432797 0.251445,-0.415653 0.227428,-0.398522 0.200509,-0.378426 0.173577,-0.359799 0.147414,-0.337511 0.119045,-0.315933 0.08997,-0.292147 0.06017,-0.267621 0.03038,-0.241626 -8.77e-4,-0.215618 -0.0321,-0.186673 -0.06479,-0.157715 -0.09821,-0.128014"
     sodipodi:nodetypes="cccccccccccccccccccccccccccccccccccccccccccccccccccccccccccccccccccccccccccccccccccccccccccccccccccccccccccccccccccccccccccccccccccccccccccccccccccccccccccccccccccccccccccccccccccccccccccccccccccccccccccccccccccccccccccccccccccccccccccccccccccccccccccccccccccccccccccccccccccccccccccccccccccccccccccccccccccccccccccccccccccccccccccccccccccccccccccccccccccccccccccccccccccccccccccccccccccccccccccccccccccccccccccccccccccccccccccccccccccccccccccccccccccccccccccccccccccccccccccccccccccccccccccccccccccccccccccccccccccccccccccccccccccccccccccccccccccccccccccccccccccccccccccccccccccccccccccccccccccccccccccccccccccccccccccccccccccccccccccccccccccccccccccccccccccccccccccccccccccccccccccccccccccccccccccccccccccccccccccccccccccccccccccccccccccccccccccccccccccccccccccccccccccccccccccccccccccccccccccccccccccccccc"
     style="stroke-width:1.03716" />
</svg>
