<?xml version="1.0" encoding="UTF-8" standalone="no"?>
<!-- Created using Krita: https://krita.org -->

<svg
   width="100"
   height="100"
   viewBox="0 0 75 75"
   version="1.1"
   id="svg1"
   sodipodi:docname="Water.svg"
   inkscape:version="1.3.2 (091e20ef0f, 2023-11-25)"
   xmlns:inkscape="http://www.inkscape.org/namespaces/inkscape"
   xmlns:sodipodi="http://sodipodi.sourceforge.net/DTD/sodipodi-0.dtd"
   xmlns="http://www.w3.org/2000/svg"
   xmlns:svg="http://www.w3.org/2000/svg">
  <sodipodi:namedview
     id="namedview1"
     pagecolor="#808080"
     bordercolor="#000000"
     borderopacity="0.25"
     inkscape:showpageshadow="2"
     inkscape:pageopacity="0.0"
     inkscape:pagecheckerboard="0"
     inkscape:deskcolor="#d1d1d1"
     inkscape:document-units="pt"
     inkscape:zoom="5.9441164"
     inkscape:cx="42.310746"
     inkscape:cy="50.049491"
     inkscape:window-width="1920"
     inkscape:window-height="1010"
     inkscape:window-x="0"
     inkscape:window-y="1080"
     inkscape:window-maximized="1"
     inkscape:current-layer="svg1" />
  <defs
     id="defs1" />
  <path
     id="shape0"
     fill="#ffffff"
     fill-rule="evenodd"
     stroke-opacity="0"
     stroke="#000000"
     stroke-width="0"
     stroke-linecap="square"
     stroke-linejoin="bevel"
     d="m 16.923206,72.151784 0.815612,-0.537893 0.794672,-0.528416 0.774083,-0.518941 0.753845,-0.509816 0.73384,-0.500926 0.714305,-0.492151 0.695118,-0.483495 0.676168,-0.475306 0.657567,-0.467117 0.6392,-0.459162 0.621185,-0.451441 0.603637,-0.444071 0.58726,-0.436702 0.569712,-0.429565 0.553334,-0.42278 0.535787,-0.415995 0.521748,-0.409678 0.505371,-0.403361 0.490163,-0.397277 0.474955,-0.391546 0.460917,-0.385813 0.445709,-0.380432 0.432841,-0.375284 0.418802,-0.370255 0.405935,-0.365458 0.391896,-0.360778 0.380198,-0.356567 0.368499,-0.352239 0.355632,-0.348378 0.345103,-0.344635 0.333404,-0.341008 0.321706,-0.337733 0.312347,-0.334691 0.300649,-0.33165 0.29246,-0.328959 0.281931,-0.326502 0.272573,-0.324163 0.264384,-0.322174 0.255025,-0.320185 0.246836,-0.318664 0.239817,-0.317027 0.231628,-0.315857 0.22461,-0.314803 0.21759,-0.313985 0.210571,-0.313401 0.205892,-0.312932 0.198873,-0.312698 0.193023,-0.312815 0.188344,-0.312932 0.183665,-0.313283 0.177816,-0.313985 0.175476,-0.314921 0.169627,-0.315857 0.167287,-0.317026 0.187174,-0.37236 0.181325,-0.386399 0.174306,-0.399383 0.167287,-0.411667 0.159099,-0.423248 0.150909,-0.433893 0.14272,-0.44372 0.134532,-0.452845 0.124003,-0.461034 0.113474,-0.468521 0.104116,-0.475189 0.09242,-0.481038 0.08189,-0.485952 0.06902,-0.490162 0.05732,-0.493556 0.04445,-0.496129 0.03042,-0.498001 0.01755,-0.498819 0.0023,-0.499054 -0.0117,-0.498352 -0.02691,-0.496948 -0.04328,-0.494608 -0.05849,-0.491567 -0.07604,-0.487589 -0.09242,-0.48291 -0.109965,-0.477411 -0.127512,-0.471095 -0.1474,-0.463841 -0.164909,-0.456004 -0.184835,-0.44723 -0.205892,-0.43752 -0.224609,-0.427342 -0.246836,-0.415995 -0.266724,-0.404063 -0.29012,-0.391194 -0.311177,-0.377625 -0.334575,-0.363118 -0.357971,-0.34791 -0.380197,-0.331884 -0.405935,-0.314921 -0.430501,-0.297373 -0.455068,-0.278773 -0.480804,-0.259587 -0.50654,-0.23935 -0.533447,-0.218526 -0.560354,-0.196767 -0.587259,-0.174189 -0.701904,-0.170679 -0.689036,-0.130672 -0.677337,-0.09253 -0.664469,-0.05592 -0.651601,-0.02117 -0.639902,0.01193 -0.625864,0.0434 -0.612996,0.07312 -0.600128,0.101074 -0.58609,0.127396 -0.572052,0.152079 -0.558013,0.175008 -0.543976,0.196182 -0.529937,0.215602 -0.51473,0.233617 -0.500691,0.249643 -0.484314,0.264033 -0.469691,0.276784 -0.454131,0.287781 -0.438339,0.297139 -0.422546,0.304744 -0.406403,0.310709 -0.389907,0.314921 -0.37353,0.317377 -0.356684,0.318197 -0.339722,0.317377 -0.322525,0.314804 -0.305211,0.310476 -0.287547,0.304509 -0.269648,0.296788 -0.251749,0.287547 -0.2335,0.276316 -0.215017,0.263682 -0.196416,0.249059 -0.177581,0.233032 -0.158397,0.215017 -0.139211,0.19548 -0.119674,0.174306 -0.100022,0.15126 -0.08013,0.126577 -0.241806,0.454717 -0.224375,0.52245 -0.218994,0.567255 -0.225896,0.589366 -0.245315,0.588663 -0.276901,0.56515 -0.32077,0.518707 -0.376923,0.449686 -0.445475,0.357854 -0.526194,0.243093 -0.619313,0.105636 -0.166702,-0.0071 -0.172084,-0.03533 -0.177114,-0.06282 -0.181442,-0.08961 -0.18542,-0.115697 -0.188695,-0.1412 -0.191503,-0.166 -0.193963,-0.190259 -0.195597,-0.213613 -0.197001,-0.236424 -0.197703,-0.258535 -0.198054,-0.28006 -0.197703,-0.300765 -0.196884,-0.320887 -0.19548,-0.340424 L 10.313025,41.5951 10.12164,41.217944 9.9331781,40.82324 l -0.185068,-0.41155 -0.181091,-0.427459 -0.176646,-0.443018 -0.171733,-0.457759 -0.166234,-0.471796 -0.160151,-0.485367 -0.1536,-0.498 L 8.5920742,37.11824 8.4529802,36.596726 8.3220751,36.064449 8.1998269,35.522111 8.0867034,34.970415 7.9831726,34.409827 l -0.093236,-0.568542 -0.082591,-0.575912 -0.07136,-0.58258 -0.059545,-0.588781 -0.047379,-0.594044 -0.03451,-0.598841 -0.021174,-0.602936 -0.00749,-0.606211 0.00702,-0.609018 0.021876,-0.611008 0.037201,-0.612294 0.053228,-0.613113 0.069605,-0.613113 0.086568,-0.612411 0.1259917,-0.756769 0.139211,-0.740509 0.1513796,-0.72378 0.1628417,-0.706817 0.1731363,-0.689504 0.182612,-0.672073 0.1911518,-0.654291 0.1986384,-0.636159 0.20519,-0.617909 0.210922,-0.599075 0.215485,-0.580241 0.2193449,-0.560938 0.222035,-0.541519 0.223908,-0.521748 0.224843,-0.501511 0.224726,-0.481272 0.223791,-0.460566 0.221801,-0.439625 0.218994,-0.418452 0.215017,-0.396927 0.210337,-0.375167 0.204488,-0.353058 0.197937,-0.330714 0.190216,-0.308019 0.181559,-0.28509 0.172083,-0.261927 0.161672,-0.238413 0.150208,-0.214666 0.137807,-0.190449 0.124471,-0.166234 0.110199,-0.141551 0.09487,-0.116633 0.07885,-0.09136 0.06165,-0.06598 0.04364,-0.04013 0.02457,-0.01404 0.01626,0.01907 0.01486,0.05978 0.01369,0.100139 0.01228,0.140731 0.011,0.181209 0.0097,0.221684 0.0084,0.262278 0.0071,0.302754 0.0058,0.343231 0.0046,0.383708 0.0032,0.424301 0.002,0.464777 5.85e-4,0.505254 -7.02e-4,0.545847 -0.002,0.586324 -0.0033,0.6268 -0.0046,0.667276 -0.0058,0.707871 -0.0071,0.748346 -0.0085,0.788823 -0.0098,0.829416 0.250697,-0.582229 0.259119,-0.569127 0.267426,-0.556025 0.275848,-0.543039 0.284154,-0.530055 0.292577,-0.516952 0.301,-0.503967 0.309305,-0.490982 0.317729,-0.477879 0.326034,-0.464778 0.334457,-0.451792 0.34288,-0.438807 0.351186,-0.425704 0.359609,-0.412603 0.368032,-0.399734 0.376337,-0.386515 0.38476,-0.373647 0.393067,-0.360544 0.401489,-0.347442 0.409911,-0.334458 0.418218,-0.321472 0.426641,-0.30837 0.434946,-0.2952674 0.44337,-0.282283 0.451792,-0.269297 0.460098,-0.2561946 0.594278,-0.3156228 0.576731,-0.2973732 0.559184,-0.2791238 0.540466,-0.2611083 0.521748,-0.2428587 0.504201,-0.2247028 0.486654,-0.2065352 0.467935,-0.1883793 0.450389,-0.1702117 0.432841,-0.1520558 0.414123,-0.1338765 0.395406,-0.1157088 0.377858,-0.097553 0.360311,-0.079385 0.341593,-0.061218 0.324045,-0.04305 0.306498,-0.024894 0.287781,-0.00671 0.269063,0.011441 0.252686,0.029609 -4.440712,7.0151779 0.340423,-0.251867 0.347443,-0.245081 0.353291,-0.238296 0.360311,-0.231395 0.367329,-0.224726 0.373179,-0.217824 0.380198,-0.211039 0.387217,-0.204254 0.393066,-0.197352 0.400086,-0.190567 0.405934,-0.183898 0.412954,-0.17688 0.419972,-0.170212 0.426992,-0.163426 0.43284,-0.156525 0.43986,-0.149739 0.445709,-0.1429554 0.453898,-0.136169 0.458577,-0.129267 0.466766,-0.1226 0.472615,-0.115697 0.479635,-0.108912 0.485483,-0.1020097 0.492503,-0.095342 0.499521,-0.08844 0.464427,-0.07604 0.460917,-0.070424 0.457407,-0.064809 0.455068,-0.059311 0.452728,-0.053696 0.449218,-0.04808 0.445709,-0.042582 0.443369,-0.036967 0.44103,-0.031352 0.43752,-0.025854 0.434011,-0.020355 0.431671,-0.014623 0.429331,-0.00912 0.425821,-0.00363 0.422313,0.00211 0.419972,0.0076 0.416463,0.013102 0.414123,0.018717 0.411784,0.024333 0.408274,0.029831 0.404765,0.035446 0.402425,0.041061 0.398915,0.04656 0.396576,0.052175 0.394236,0.05779 0.389556,0.063288 0.388387,0.068904 -6.662238,5.1910471 0.510051,-0.04738 0.50537,-0.03802 0.501862,-0.02866 0.497182,-0.01942 0.493672,-0.0099 0.490163,-4.67e-4 0.484314,0.0088 0.481974,0.01813 0.476124,0.02761 0.473785,0.03685 0.469106,0.04633 0.464427,0.05557 0.460916,0.06504 0.456238,0.0744 0.452728,0.08376 0.448049,0.09312 0.444539,0.102478 0.43986,0.111953 0.43635,0.121196 0.431671,0.130554 0.428161,0.14003 0.424652,0.149388 0.418803,0.158631 0.416462,0.168106 0.411784,0.177464 0.407104,0.186824 0.403595,0.196299 0.398915,0.205541 0.395406,0.214899 0.390727,0.224375 0.387217,0.233617 0.382537,0.243093 0.379028,0.252335 0.375519,0.26181 0.369669,0.271169 0.36733,0.280527 0.36265,0.289886 0.357971,0.299362 0.354462,0.308604 0.349782,0.317963 0.346273,0.327438 0.341593,0.33668 0.338084,0.346155 0.334574,0.355515 0.328725,0.364873 0.326385,0.374231 0.348612,0.418686 0.336914,0.425705 0.325216,0.432607 0.314686,0.439157 0.302989,0.445358 0.29246,0.451091 0.280761,0.456705 0.271403,0.46197 0.259705,0.466883 0.250345,0.471445 0.239818,0.475774 0.230458,0.479752 0.21993,0.483377 0.210571,0.486771 0.201213,0.489812 0.191853,0.492502 0.182495,0.494842 0.174306,0.496948 0.164948,0.49882 0.156758,0.500107 0.1474,0.501393 0.139211,0.502095 0.132192,0.50268 0.122833,0.502797 0.115814,0.502681 0.108795,0.502329 0.09944,0.50151 0.09359,0.500341 0.08657,0.499053 0.07838,0.497416 0.07253,0.49531 0.06551,0.492971 0.05966,0.49028 0.05264,0.487472 0.04679,0.48408 0.03977,0.480453 0.03509,0.476593 0.02925,0.472264 0.0234,0.467819 0.01872,0.463022 0.01287,0.457759 0.0082,0.45226 0.0035,0.446411 -0.0023,0.440444 -0.0058,0.433894 -0.01053,0.427108 -0.01404,0.42009 -0.01872,0.412719 -0.02223,0.404999 -0.02574,0.397044 -0.03042,0.388737 -0.03276,0.379964 -0.03627,0.371073 -0.0386,0.361832 -0.04211,0.352122 -0.04562,0.342295 -0.04679,0.332117 -0.0503,0.321472 -0.05147,0.31071 -0.05381,0.299479 -0.05615,0.288014 -0.05732,0.276199 -0.05966,0.26415 -0.112304,0.481974 -0.109965,0.462087 -0.107626,0.44372 -0.106455,0.427109 -0.106455,0.411783 -0.107626,0.398331 -0.108795,0.386281 -0.112304,0.375869 -0.115814,0.366979 -0.120494,0.359843 -0.126343,0.353993 -0.132192,0.3499 -0.14038,0.347442 -0.14974,0.34639 -0.157928,0.346974 -0.169627,0.349197 -0.180155,0.352941 -0.193024,0.358322 -0.205892,0.365224 -0.221099,0.373647 -0.235138,0.383824 -0.252686,0.395406 -0.269063,0.408625 -0.28778,0.423365 -0.306498,0.43986 -0.326386,0.457641 -0.347442,0.477295 -0.369669,0.498351 -0.393067,0.521047 -0.416463,0.545379 -0.441029,0.571116 -0.467936,0.598607 -0.493673,0.627502 0.175476,-0.489344 0.168457,-0.497884 0.160268,-0.505253 0.154419,-0.511805 0.14623,-0.517069 0.138041,-0.521398 0.132192,-0.524673 0.124003,-0.526779 0.115814,-0.527949 0.109965,-0.527948 0.101776,-0.527013 0.09476,-0.524907 0.08657,-0.521749 0.08072,-0.517537 0.07253,-0.512273 0.06434,-0.505956 0.05849,-0.498585 0.0503,-0.490163 0.04445,-0.48057 0.03509,-0.470042 0.02925,-0.45846 0.02223,-0.445709 0.01404,-0.432022 0.007,-0.417165 v -0.401372 l -0.0082,-0.384292 -0.01404,-0.366394 -0.02223,-0.347326 -0.02925,-0.327204 -0.03509,-0.305913 -0.04445,-0.283803 -0.0503,-0.260406 -0.05732,-0.236074 -0.06551,-0.210688 -0.07136,-0.184133 -0.07955,-0.156642 -0.08657,-0.12798 -0.09359,-0.09827 -0.100606,-0.06762 -0.107625,-0.0358 -0.115815,-0.0028 -0.121663,0.031 -0.128682,0.06598 -0.136872,0.10201 -0.14272,0.139211 -0.150909,0.17723 -0.156759,0.216655 -0.164947,0.25678 -0.171967,0.298192 -0.177815,0.340657 -0.186005,0.384059 -0.193023,0.428629 -0.198873,0.474253 -0.207062,0.52093 -0.214081,0.568542 -0.239817,0.644113 -0.243326,0.628321 -0.245667,0.612996 -0.249176,0.597906 -0.251515,0.583399 -0.255025,0.569127 -0.258535,0.555323 -0.260874,0.54187 -0.263214,0.528767 -0.267893,0.51625 -0.270233,0.50385 -0.273743,0.492035 -0.276082,0.48057 -0.280762,0.469457 -0.283101,0.458694 -0.286611,0.448517 -0.29012,0.438456 -0.29363,0.42898 -0.297139,0.419855 -0.301819,0.411082 -0.304158,0.402659 -0.307668,0.394704 -0.312347,0.387217 -0.314687,0.379847 -0.319366,0.373179 -0.322876,0.366745 -0.327555,0.360661 -0.329895,0.355047 -0.334574,0.349899 -0.339254,0.344868 -0.342763,0.340541 -0.346272,0.336446 -0.350952,0.332702 -0.354462,0.329427 -0.359141,0.326502 -0.36382,0.324046 -0.367329,0.321823 -0.37201,0.320185 -0.375518,0.318781 -0.381368,0.317846 -0.384877,0.31726 -0.389557,0.317144 -0.393066,0.317377 -0.398915,0.317846 -0.402425,0.318898 -0.408274,0.320302 -0.411784,0.322057 -0.417633,0.32428 -0.422312,0.326736 -0.425822,0.329778 0.347443,-0.48174 0.339253,-0.495661 0.332235,-0.508646 0.322876,-0.520696 0.315856,-0.531575 0.306498,-0.541402 0.29831,-0.550293 0.29012,-0.55813 0.281931,-0.564916 0.273743,-0.570531 0.264383,-0.575327 0.255026,-0.578954 0.246836,-0.581644 0.238647,-0.583048 0.228119,-0.58375 0.21993,-0.583166 0.211741,-0.581644 0.201212,-0.579071 0.193024,-0.575444 0.182495,-0.570765 0.173136,-0.565032 0.164947,-0.558365 0.154419,-0.550643 0.14506,-0.541753 0.134532,-0.531926 0.126343,-0.521047 0.115814,-0.509231 0.105285,-0.496129 0.09593,-0.482208 0.0854,-0.467117 0.07487,-0.450974 0.06551,-0.43401 0.05498,-0.415761 0.04445,-0.396576 0.03392,-0.376337 0.0234,-0.355047 0.01287,-0.332819 0.0012,-0.309423 -0.0082,-0.28509 -0.01989,-0.259587 -0.03042,-0.233149 -0.04094,-0.205658 -0.05264,-0.177114 -0.06434,-0.147634 -0.07487,-0.116867 -0.0854,-0.08528 -0.09827,-0.05264 -0.108795,-0.01883 -0.120494,0.01591 -0.132191,0.05171 -0.143891,0.08856 -0.155588,0.12646 -0.167288,0.165415 -0.180155,0.205307 -0.190684,0.246369 -0.203552,0.288365 -0.21525,0.331416 -0.228119,0.375635 -0.239817,0.420675 -0.252686,0.466883 -0.264384,0.514144 -0.277252,0.562459 -0.29012,0.61171 -0.496012,0.708571 -0.496012,0.684357 -0.496012,0.660608 -0.496012,0.637212 -0.496012,0.6144 -0.494842,0.592056 -0.494843,0.570297 -0.493672,0.548772 -0.493672,0.527948 -0.493673,0.507594 -0.492502,0.487589 -0.491333,0.46817 -0.491333,0.449335 -0.491333,0.430735 -0.490162,0.412837 -0.488993,0.395289 -0.487824,0.378209 -0.487823,0.361831 -0.486653,0.345688 -0.485484,0.330129 -0.484313,0.315155 -0.484314,0.300415 -0.481974,0.286376 -0.481974,0.272807 -0.479634,0.259587 -0.479635,0.246954 -0.477294,0.234786 -0.477295,0.223206 -0.474955,0.211858 -0.473785,0.201212 -0.472615,0.191035 -0.471446,0.181208 -0.469106,0.171967 -0.467935,0.163192 -0.466767,0.154887 -0.464426,0.147166 -0.463257,0.139796 -0.462086,0.132894 -0.459747,0.126576 -0.458577,0.120728 -0.456238,0.115346 -0.453898,0.110433 -0.452728,0.105987 -0.450388,0.102127 -0.449219,0.09862 -0.446878,0.09569 -0.44454,0.09324 -0.441848,0.09125 -0.440328,0.08961 -0.438105,0.08867 -0.435882,0.08821 -0.43366,0.08809 -0.43132,0.08844 -0.42898,0.08949 -0.426523,0.09078 -0.424184,0.09277 -0.421611,0.09511 -0.419153,0.09792 -0.41658,0.101308 -0.414007,0.105052 -0.411432,0.10938 -0.408625,0.114176 -0.405935,0.119441 M 35.898241,22.632348 35.856131,21.92015 35.736807,21.232167 35.541444,20.572845 35.27706,19.946747 34.947165,19.358668 34.556439,18.812938 34.10956,18.314352 33.610038,17.86724 l -0.545145,-0.390727 -0.58843,-0.330129 -0.625864,-0.264617 -0.659789,-0.194779 -0.687866,-0.120142 -0.711263,-0.04106 -0.712432,0.04106 -0.687866,0.120142 -0.65979,0.194779 -0.625864,0.264617 -0.588429,0.330129 -0.545146,0.390727 -0.499521,0.447112 -0.446879,0.498586 -0.390727,0.54573 -0.329895,0.588079 -0.264383,0.626098 -0.195364,0.659322 -0.119323,0.687983 -0.04095,0.712198 0.04095,0.712082 0.119323,0.688099 0.195364,0.659322 0.264383,0.625981 0.329895,0.588196 0.390727,0.545613 0.446879,0.498703 0.499521,0.446996 0.545146,0.390843 0.588429,0.330012 0.625864,0.264735 0.65979,0.194661 0.687866,0.12026 0.712432,0.04106 0.711263,-0.04106 0.687866,-0.12026 0.659789,-0.194661 0.625864,-0.264735 0.58843,-0.330012 0.545145,-0.390843 0.499522,-0.446996 0.446879,-0.498703 0.390726,-0.545613 0.329895,-0.588196 0.264384,-0.625981 0.195363,-0.659322 0.119324,-0.688099 0.04211,-0.712082 m -13.030846,5.941266 -0.06446,-0.757004 -0.185887,-0.712432 -0.295853,-0.656163 -0.394704,-0.587728 -0.482208,-0.507593 -0.558481,-0.415527 -0.623291,-0.311412 -0.676869,-0.195714 -0.719101,-0.06785 -0.7191,0.06785 -0.67687,0.195714 -0.62329,0.311412 -0.558482,0.415527 -0.482208,0.507593 -0.394704,0.587728 -0.295852,0.656163 -0.185888,0.712432 -0.06446,0.757004 0.06446,0.757003 0.185888,0.712549 0.295852,0.656046 0.394704,0.587845 0.482208,0.507593 0.558482,0.415411 0.62329,0.311528 0.67687,0.195597 0.7191,0.06785 0.719101,-0.06785 0.676869,-0.195597 0.623291,-0.311528 0.558481,-0.415411 0.482208,-0.507593 0.394704,-0.587845 0.295853,-0.656046 0.185887,-0.712549 0.06446,-0.757003 m -7.159419,7.198726 -0.1288,-0.79865 -0.358789,-0.693715 -0.546901,-0.5469 -0.693715,-0.35879 -0.798649,-0.128799 -0.79865,0.128799 -0.693715,0.35879 -0.5469,0.5469 -0.358786,0.693715 -0.1288,0.79865 0.1288,0.798649 0.35879,0.693715 0.5469,0.547017 0.693715,0.358673 0.79865,0.1288 0.798649,-0.1288 0.693715,-0.358673 0.546901,-0.547017 0.358789,-0.693715 0.1288,-0.798649"
     sodipodi:nodetypes="ccccccccccccccccccccccccccccccccccccccccccccccccccccccccccccccccccccccccccccccccccccccccccccccccccccccccccccccccccccccccccccccccccccccccccccccccccccccccccccccccccccccccccccccccccccccccccccccccccccccccccccccccccccccccccccccccccccccccccccccccccccccccccccccccccccccccccccccccccccccccccccccccccccccccccccccccccccccccccccccccccccccccccccccccccccccccccccccccccccccccccccccccccccccccccccccccccccccccccccccccccccccccccccccccccccccccccccccccccccccccccccccccccccccccccccccccccccccccccccccccccccccccccccccccccccccccccccccccccccccccccccccccccccccccccccccccccccccccccccccccccccccccccccccccccccccccccccccccccccccccccccccccccccccccccccccccccccccccccccccccccccccccccccccccccccccccccccccccccccccccccccccccccccccccccccccccccccccccccccccccccccccccccccccccccccccccccccccccccccccccccccccccccccccccccccccccccccccccccccccccccccccccccccccccccccccccccccccccccccccccccc" />
  <circle
     id="shape1"
     r="1.6845694"
     cx="21.970873"
     cy="39.818409"
     fill="#ffffff"
     fill-rule="evenodd"
     style="stroke-width:1.16984" />
  <circle
     id="shape1-2"
     r="4.2938209"
     cx="31.439163"
     cy="21.012981"
     fill="#ffffff"
     fill-rule="evenodd"
     style="stroke-width:2.98182" />
  <circle
     id="shape1-2-7"
     r="3.119174"
     cx="19.792194"
     cy="27.631351"
     fill="#ffffff"
     fill-rule="evenodd"
     style="stroke-width:2.16609;font-variation-settings:normal;opacity:1;vector-effect:none;fill:#ffffff;fill-opacity:1;stroke-linecap:butt;stroke-linejoin:miter;stroke-miterlimit:4;stroke-dasharray:none;stroke-dashoffset:0;stroke-opacity:1;-inkscape-stroke:none;stop-color:#000000;stop-opacity:1" />
  <circle
     id="shape1-2-7-6"
     r="1.8211918"
     cx="13.718316"
     cy="35.067734"
     fill="#ffffff"
     fill-rule="evenodd"
     style="stroke-width:1.26471" />
  <circle
     id="shape1-5"
     r="1.0170743"
     cx="40.677696"
     cy="5.721745"
     fill="#ffffff"
     fill-rule="evenodd"
     style="stroke-width:0.706302" />
  <circle
     id="shape2"
     r="1.0528558"
     cx="16.605995"
     cy="7.0649896"
     fill="#ffffff"
     fill-rule="evenodd"
     style="stroke-width:1.16984" />
  <ellipse
     id="shape3"
     rx="2.1057117"
     ry="2.1504614"
     cx="36.180435"
     cy="5.2655435"
     fill="#ffffff"
     fill-rule="evenodd"
     style="stroke-width:1.12719" />
  <circle
     id="shape4"
     cx="9.3908367"
     cy="45.108715"
     fill="#ffffff"
     fill-rule="evenodd"
     r="0.84228468"
     style="stroke-width:1.16984" />
</svg>
