<?xml version="1.0" encoding="UTF-8" standalone="no"?>
<!-- Created using Krita: https://krita.org -->

<svg
   width="150pt"
   height="150pt"
   viewBox="0 0 150 150"
   version="1.1"
   id="svg1"
   sodipodi:docname="Breeder.svg"
   inkscape:version="1.3.2 (091e20e, 2023-11-25, custom)"
   xmlns:inkscape="http://www.inkscape.org/namespaces/inkscape"
   xmlns:sodipodi="http://sodipodi.sourceforge.net/DTD/sodipodi-0.dtd"
   xmlns="http://www.w3.org/2000/svg"
   xmlns:svg="http://www.w3.org/2000/svg">
  <sodipodi:namedview
     id="namedview1"
     pagecolor="#929292"
     bordercolor="#000000"
     borderopacity="0.25"
     inkscape:showpageshadow="2"
     inkscape:pageopacity="0.0"
     inkscape:pagecheckerboard="0"
     inkscape:deskcolor="#d1d1d1"
     inkscape:document-units="pt"
     inkscape:zoom="3.023618"
     inkscape:cx="91.281372"
     inkscape:cy="88.635535"
     inkscape:window-width="1920"
     inkscape:window-height="1017"
     inkscape:window-x="-8"
     inkscape:window-y="1072"
     inkscape:window-maximized="1"
     inkscape:current-layer="svg1" />
  <defs
     id="defs1" />
  <path
     id="shape0"
     fill="none"
     stroke="#000000"
     stroke-width="2.88"
     stroke-linecap="square"
     stroke-linejoin="bevel"
     d="M 93.377135,92.287594 C 97.809462,87.827405 100.55268,81.663735 100.55623,74.854136 100.56333,61.234838 89.609048,34.933421 76.08905,34.926369 62.569152,34.919318 51.603338,61.209302 51.596235,74.8286 c -0.0036,6.809599 2.733252,12.976128 7.160944,17.440938"
     sodipodi:nodetypes="ccccc"
     style="stroke-linejoin:round;stroke-linecap:round;stroke:#ffffff;stroke-opacity:0.9375" />
  <path
     id="shape1"
     fill="none"
     stroke="#000000"
     stroke-width="2.88"
     stroke-linecap="square"
     stroke-linejoin="bevel"
     d="m 57.198726,51.148874 c -5.49,-4.77 -9.99,-6.705005 -13.5,-5.805005 -5.26497,1.350005 -13.07079,16.720415 -11.474987,29.970015 0.761491,6.3225 0.496149,6.2198 1.976057,8.8101"
     sodipodi:nodetypes="czsc"
     style="stroke-linejoin:round;stroke-linecap:round;stroke:#ffffff;stroke-opacity:0.9375" />
  <path
     id="shape2"
     fill="none"
     stroke="#000000"
     stroke-width="2.88"
     stroke-linecap="square"
     stroke-linejoin="bevel"
     d="m 96.371266,52.206373 c 3.54,-5.61 7.470004,-8.550003 11.790004,-8.820004 6.48,-0.404999 13.68,6.615004 17.01,19.665004 1.665,6.525 0.675,16.2225 -1.1306,21.7181"
     sodipodi:nodetypes="czzc"
     style="stroke-linejoin:round;stroke-linecap:round;stroke:#ffffff;stroke-opacity:0.9375" />
  <path
     id="shape3"
     fill="#000000"
     fill-rule="evenodd"
     stroke-opacity="0"
     stroke="#000000"
     stroke-width="0"
     stroke-linecap="square"
     stroke-linejoin="bevel"
     d="m 34.361266,80.06137 -4.455,-3.87 -2.07,2.385 -2.295,-2.07 -3.195,1.98 3.015,2.97 -2.07,2.745 -1.485,-2.835 -2.16,-0.36 0.585,2.07 -1.845,-0.54 0.9,-1.935 -2.79,-0.765 1.125,2.7 -1.8,0.81 0.495,1.845 -1.215,-0.81 0.135,-1.35 -2.745,-0.405 -0.585,2.475 2.745,0.945 0.54,-0.63 1.215,1.845 -2.97,0.225 0.405,2.07 h 1.935 l 0.54,2.385 2.25,-0.18 0.495,-1.35 0.63,0.81 -0.45,1.935 -2.16,1.485 0.45,1.215 -1.935,0.945 1.305,1.71 1.71,-0.45 -0.405,-1.62 0.945,0.045 0.81,1.665 2.07,0.405 0.36,1.755 1.215,0.495 0.585,-1.89 -0.315,-1.215 1.35,0.45 -0.855,1.035 -0.09,-0.045 -0.315,2.655 -1.305,1.035 2.34,0.675 0.945,-1.35 1.575,-0.135 -0.585,1.53 1.53,0.135 0.135,-2.25 1.53,-0.675 -0.18,2.385 -0.99,0.27 0.72,1.305 0.99,-0.27 -1.08,1.17 0.945,1.62 1.035,-1.395 0.45,1.26 1.485,-0.675 -0.36,2.295 0.495,0.675 -0.72,1.665 2.205,-0.765 -0.72,-1.17 0.9,-0.405 2.115,2.34 0.945,-0.765 0.225,1.125 0.63,-0.045 0.135,2.475 1.485,-0.45 0.585,1.125 0.72,-0.54 1.26,0.27 -1.755,0.675 0.09,1.53 0.945,0.495 1.26,-1.53 -0.09,-0.9 1.125,1.035 1.26,-0.315 -0.945,2.07 2.79,0.45 1.215,2.295 -0.743,2.025 3.038,-1.148 -1.418,-1.957 2.228,0.405 -0.878,-4.185 2.295,0.135 -0.877,2.227 1.08,2.498 1.485,-1.283 0.81,2.498 0.607,-0.473 0.743,1.013 -1.013,0.81 0.878,2.025 2.565,-1.485 2.025,0.067 0.067,-1.215 0.945,-0.405 -0.067,-1.62 1.08,-0.607 -0.608,1.08 0.81,1.147 -1.417,0.945 1.282,2.498 0.81,-1.823 0.338,1.215 0.607,-0.675 2.228,1.553 0.202,-2.565 1.62,0.945 -0.405,-1.283 1.688,1.08 2.16,0.54 -0.608,-2.092 -1.282,0.877 -0.338,-2.025 3.038,0.81 0.067,-2.025 1.553,1.418 2.092,0.202 -0.675,-1.89 1.485,-0.067 -0.877,0.405 0.405,2.16 -2.295,-0.135 0.472,2.767 2.228,-0.81 1.687,1.013 1.013,-0.81 2.16,1.35 0.067,-1.62 2.228,0.877 -2.43,-3.442 1.552,-2.228 -0.472,2.7 3.375,2.363 0.067,-1.418 1.35,0.135 -1.147,-2.43 0.54,-3.037 0.472,1.485 1.148,0.202 -0.54,1.013 1.822,1.62 0.743,-0.878 -0.675,-1.62 1.282,0.743 1.958,-0.068 -0.54,-3.307 2.347,1.267 0.728,-1.693 1.562,1.162 0.763,0.393 -0.437,1.182 1.284004,1.679 0.573,-0.734 0.292,1.261 0.989,0.856 0.303,-1.614 -0.463,-0.931 -0.957,-0.029 -0.164,-1.394 -0.813,-1.039 1.943,0.01 -0.196,1.487 0.948,1.408 1.443,-0.404 0.347,-2.328 -1.168,-0.503 -0.209,-0.896 2.637,-0.704 0.391,1.276 -0.937,1.334 0.488,1.349 1.336,0.256 0.156,-2.408 0.966,-1.314 1.732,-0.138 0.85,-1.211 -0.815,-0.96 0.656,-0.168 2.038,0.517 -1.405,1.049 -0.763,1.787 1.81,0.231 1.631,1.32 1.072,-0.822 0.087,-0.941 1.42,-0.024 -0.813,-1.536 -1.46,-0.788 1.186,-2.299 -1.105,0.014 1.281,-0.275 0.535,1.713 0.925,-0.015 0.069,-1.802 0.833,-0.226 0.333,0.812 0.734,0.005 0.156,-1.285 0.876,0.916 1.865,0.699 0.419,-2.166 0.718,0.945 1.171,0.084 -0.194,-1.3 1.073,0.497 0.361,1.699 2.096,-0.753 2.688,0.988 -0.324,-1.472 2.261,-0.34 -0.659,-0.979 1.593,0.27 2.712,0.685 0.601,-0.448 2.362,0.202 -1.639,-2.014 -0.859,1.447 -1.344,-1.777 -1.495,0.433 -0.489,0.931 -0.497,-1.827 3.256,-2.023 -3.34,-1.556 -1.775,0.862 -0.902,-0.965 1.214,-1.015 0.844,0.557 2.155,-1.453 3.336,0.256 1.076,-1.442 2.203,-0.571 0.066,-1.344 1.81,-1.261 -1.81,-0.591 -0.344,1.482 -1.578,-0.192 -1.637,1.285 -1.286,-0.187 1.24,-0.32 1.732,-1.447 -0.124,-1.625 -2.86,0.468 -3.036,2.25 1.798,-2.103 0.339,-1.772 0.37,-0.975 0.118,-1.295 0.324,1.231 1.168,-1.753 -0.526,-0.935 -1.119,0.118 -1.443,1.945 -0.179,-1.64 -2.538,1.669 -0.053,-1.555 1.088,-0.719 -1.079,-1.034 -0.569,-2.6784 -2.366,1.4869 -1.375,-1.0717 1.798,-3.0131 -1.997,-2.5798 -2.068,3.3873 -3.36,-2.3091 -0.563,3.1953 -2.059,-0.6056 -0.674,2.0826 -1.818,-1.1718 1.448,-2.6094 -0.769,-1.9939 0.853,-1.4131 -3.608,1.3343 1.532,1.2899 -1.686,1.674 -1.413,2.2155 -1.987,-1.5804 -1.469,0.6449 -0.723,0.7638 -1.509,-1.8611 1.058,-2.2155 -1.408,-1.0438 -3.007,0.8616 -0.63,2.2549 1.792,0.9749 -0.297,1.4278 0.422,1.4622 -2.652,-0.6991 0.599,-1.93 -1.972,-0.8173 -1.087004,2.1417 -2.842,-0.1477 0.347,2.1121 -1.247,-2.0136 -1.72,0.7237 0.26,2.073 -2.46,-0.537 -0.009,2.841 -2.958,0.172 -1.018,2.127 -1.694,-0.906 1.472,-1.437 -1.822,-1.714 -0.436,1.925 -0.165,-2.225 -1.778,-0.409 -0.969,1.817 1.677,1.413 -0.705,1.989 0.002,-1.861 -1.434,-1.438 -1.75,0.017 -0.789,1.369 -0.966,-1.344 -0.402,1.177 -1.489,-0.276 0.622,1.295 -1.295,-1.118 -1.284,1.172 0.188,-2.221 -2.278,-0.777 -0.735,0.802 0.044,-1.536 -1.024,-2.4322 -1.428,2.0682 1.717,0.546 -1.208,1.841 1.795,1.187 -1.136,1.359 -0.367,-1.512 -1.307,-0.521 0.031,-1.335 -0.506,-0.655 0.125,-1.5061 -1.223,-0.1034 -0.284,2.0625 0.589,0.374 -1.674,0.443 0.245,-1.566 -1.041,-0.758 -0.789,1.787 1.061,0.37 -2.047,0.802 -0.471,-2.698 -1.596,0.084 0.208,1.472 -0.75,-2.3276 -1.631,-0.3348 -0.451,1.3984 -0.396,-1.9991 -2.275,-0.3298 v 3.2199 l -1.313,-0.837 -1.041,2.043 0.333,-2.516 -1.787,-0.448 2.131,-0.078 1.237,0.748 -0.176,-2.9738 -1.952,-1.7872 0.136,1.9792 -1.46,-0.8961 0.526,-1.6838 -1.648,-0.0541 -0.584,1.2702 0.477,1.0832 -1.13,-1.3589 -2.484,-0.4037 -0.717,1.2899 -1.35,0.9798 -0.983,-1.4475 0.049,-1.7774 -1.429,-1.6542 -1.477,-0.2068 1.712,-0.9059 -0.451,-1.9004 -1.634,1.4671 -0.413,1.0192 -0.691,-1.1078 -1.357,0.8764 -0.861,-1.1521 1.772,-0.6302 -0.757,-1.3933 -2.05,0.3249 -1.541,-1.1373 -1.275,0.645 0.245,1.8366 m 0.836,5.7425 -0.174,3.1374 -2.554,0.7141 0.15,-2.707 -0.842,-0.3837 1.19,-0.8416 -0.273,-1.0031 -1.767,-0.7272 -1.506,0.9022 0.605,1.6562 0.751,0.1279 -0.486,1.461 0.636,1.1643 -0.727,0.977 0.474,0.619 -1.744,-0.162 -1.644,1.037 0.193,1.683 0.479,0.802 -1.246,0.828 -0.573,-1.825 -1.024,1.024 0.969,0.673 0.336,0.323 0.328,1.272 1.736,-1.366 -0.408,1.959 1.969,0.128 -0.818,-1.683 0.597,-1.232 -0.099,1.871 0.605,1.805 -0.3,1.043 1.589,0.862 -0.431,-2.518 0.696,0.007 -0.364,0.888 1.261,1.259 1.436,-1.03 0.794,1.65 0.981,-1.327 -1.787,-1.602 1.162,-0.613 -0.063,1.152 1.249,1.05 0.285,0.895 -1.174,0.653 1.51,1.098 0.455,-1.367 0.636,2.148 -2.012,1.124 2.182,2.013 0.34,-2.349 0.807,1.238 1.503,-1.211 0.272,2.746 1.677,0.196 0.047,-1.327 1.234,1.071 0.415,1.414 1.925,-0.115 -0.478,-2.504 1.475,1.097 -0.182,1.67 1.348,0.161 -0.079,-1.124 0.957,1.488 0.538,-1.582 -1.084,-1.899 0.562,-0.936 2.21,1.461 -0.095,-1.414 1.503,0.499 0.664,1.515 1.629,0.242 -1.981,1.367 -0.538,1.036 -1.668,-0.713 -1.206,1.218 0.66,1.165 1.242,0.027 -0.87,1.757 1.538,0.29 1.498,-1.596 0.526,1.542 1.065,0.058 -0.009,-1.501 1.826,-0.037 0.217,0.968 1.139,-0.993 -0.128,3.536 1.54,0.017 -1.646,0.656 0.224,1.969 1.713,-0.845 0.056,1.788 1.553,-0.242 -0.045,-3.347 -1.113,-0.714 0.869,-0.459 -0.746,-1.871 1.002,-0.041 -0.964,-3.905 0.617,0.037 0.768,2.83 1.234,-1.665 0.469,1.477 1.101,-0.981 -1.089,2.507 1.207,1.189 2.361,-2.198 0.647,1.02 1.027,-1.613 1.016,2.429 -0.976,1.891 2.231,1.239 0.619,-1.875 -1.243,0.033 -0.014,-1.255 1.587,0.139 1.27,-1.899 -1.32,-1.739 2.076,0.521 2.142,-1.137 1.679,1.682 -1.038,1.858 0.325,1.69 1.424,-0.225 -1.877,1.144 1.017,1.715 0.641,-1.428 1.669,1.211 0.236,-2.047 1.443,2.453 2.038,-1.631 1.701,1.505 0.419,-3.326 2.234,0.664 -1.012,-1.907 1.607,-0.017 -1.422,-1.366 0.904,-0.849 -0.195,-0.406 0.98,-0.816 -0.19,1.788 0.891,0.492 -0.684,1.342 1.992,0.353 0.265,-1.649 0.935,1.435 1.467,-1.21 1.348,0.504 -0.469,-1.378 0.816,-0.714 -0.115,4.405 1.284,-0.656 -0.663,1.813 1.677,0.427 -0.359,-1.637 2.970004,0.792 -0.684,-1.411 -0.829004,-0.214 0.436,-1.292 1.010004,-0.024 -0.089,-3.126 1.37,0.767 0.542,1.054 1.2,-0.66 -0.426,-1.091 -0.911,0.004 0.581,-1.251 1.021,0.824 3.91,0.464 1.109,-2.341 0.98,1.514 2.686,-0.152 -0.079,-0.976 0.811,-0.361 -0.713,-1.042 0.875,-2.326 0.776,0.336 0.086,-1.116 1.802,-1.457 1.412,1.625 0.151,1.837 0.971,0.029 0.133,1.407 1.334,0.098 -0.101,-1.53 -0.937,0.115 0.058,-1.665 -0.848,-0.673 0.87,-0.287 1.674,1.038 0.568,-1.321 0.511,-0.747 0.797,0.907 0.523,1.198 1.063,-0.447 0.122,-1.252 -0.973,-0.352 0.99,-0.456 -0.556,-0.636 -1.703,-0.063 -0.384,-0.923 1.231,-0.47 0.403,-0.842 0.61,0.289 -0.315,0.617 -0.337,0.12 0.602,0.483 1.627,0.014 0.142,-1.284 -0.884,-1.259 -1.45,0.57 -0.251,-0.709 -0.753,0.879 -1.318,-0.042 -0.573,1.231 -2.212,0.197 0.1,-0.986 1.116,0.536 0.561,-1.356 1.407,-0.4 -0.129,-1.298 -0.729,-0.22 1.224,-1.526 1.001,0.451 0.484,-1.473 -1.438,-0.592 0.56,-0.476 1.437,0.651 0.835,-1.101 -1.072,-0.653 -1.192,0.825 -0.994,-1.2225 -0.759,1.2335 0.387,0.592 -0.556,0.376 -0.989,-0.606 -0.622,1.2 1.139,0.759 -0.248,1.029 -0.913,0.227 0.059,1.615 -0.72,-0.108 -0.395,-1.515 -1.369,-0.156 -0.485,-1.859 -1.709,0.973 -1.299,-2.429 -1.924,-0.039 -0.23,2.351 -0.759,-0.706 -0.851,0.937 1.042,0.786 -1.487,0.048 -0.235,0.781 0.478,0.931 -0.937,-1.101 -1.42,0.114 -0.677,1.02 -1.056,-0.289 0.579,-1.117 -1.435,-0.923 -0.328,1.359 0.568,0.77 -0.516,0.353 -0.791,-0.134 0.299,1.248 -0.661,0.1 -0.169,-1.339 -1.292,-0.703 0.427,2.051 -0.982,-0.375 0.032,1.367 -0.445,0.823 -0.242,-0.815 -1.044004,-0.355 -0.147,1.008 -1.04,-0.439 -0.222,-0.986 -1.175,-0.114 0.318,1.343 1.238,0.322 0.628,1.47 1.028,0.595 0.154004,1.095 0.54,0.826 -1.343004,0.958 -1.244,-0.528 -0.305,0.859 -0.245,-1.028 -0.741,-0.667 1.386,-1.459 -0.133,-1.601 -1.247,0.011 -0.486,1.003 0.406,-1.929 -1.271,-0.964 -0.594,1.189 0.819,0.704 -0.189,1.011 -1.177,-0.011 -1.338,1.426 -1.089,-0.778 -0.421,1.715 -0.916,-0.417 0.823,-1.154 -1.352,-0.931 -0.592,-2.587 -0.646,-0.089 -0.257,-1.328 -1.054,0.725 0.47,1.334 0.612,-0.053 -0.139,1.476 1.105,0.442 -0.351,0.667 -2.495,-1.098 -0.385,1.901 2.134,1.206 0.294,1.874 1.448,-0.506 -0.87,1.862 -1.794,-1.287 -0.375,-1.87 -1.76,-0.203 0.165,2.195 -2.393,1.118 0.924,-1.034 -0.742,-1.22 1.54,-0.731 0.002,-1.534 -0.997,-0.009 -0.274,1.134 -1.048,0.07 0.597,-1.376 0.62,0.006 1.588,-1.554 -1.425,-0.431 -1.01,0.806 1.288,-1.579 1.647,0.315 -0.03,-1.71 -1.289,-0.019 -0.357,1.103 -0.701,-1.259 -1.119,0.495 0.481,1.103 -0.468,0.348 0.568,0.692 -1.951,-0.203 -0.793,0.489 0.878,0.823 0.56,-0.192 -0.193,2.46 -0.937,-0.234 0.634,1.281 -1.104,1.045 0.371,-1.031 -0.501,-0.592 0.942,-1.523 -1.407,-1.487 -0.505,0.481 0.01,0.817 -1.443,-0.539 -1.382,0.044 -0.552,1.042 -0.3,-1.806 2.016,-1.134 0.648,1.214 1.123,-0.569 -0.985,-1.51 -0.649,0.729 -0.443,-1.54 -0.853,0.9 -0.601,-1.614 -1.123,-0.287 -0.197,0.798 -0.456,-0.856 -0.762,0.367 -0.011,2.443 -1.564,0.953 0.366,1.156 -1.749,0.979 1.114,2.588 1.472,0.189 0.588,1.928 1.438,0.39 -2.396,0.975 -0.28,-2.49 -2.022,-0.459 -1.75,0.776 2.199,-1.743 -0.486,-2.315 -0.681,-0.748 -1.175,1.081 -1.001,-0.633 1.092,-0.817 -0.112,-1.807 -2.086,0.17 2.027,-0.679 0.202,-1.475 -1.772,0.03 -0.479,-1.264 -1.815,0.775 1.063,2.61 -0.646,0.798 1.265,1.384 -0.83,0.989 0.57,0.978 -2.654,1.015 -0.518,-0.757 0.896,-1.189 -0.501,-0.748 1.167,0.2 -0.752,-2.034 -1.277,0.976 0.524,0.875 -0.806,0.568 -0.312,-0.767 -0.878,0.203 0.464,1.767 0.987,0.631 -1.341,0.764 -1.673,-0.6 -0.067,1.526 1.328,1.634 -0.715,0.892 -0.713,-1.325 -1.505,1.406 -1.83,-0.264 0.492,-2.21 1.263,-1.192 1.151,0.725 0.029,-1.959 1.312,-0.422 -1.077,-1.615 -0.787,0.634 0.32,0.95 -0.958,-1.348 -0.667,1.651 -0.074,-2.051 -2.094,-0.256 -0.227,-1.273 -0.659,-0.472 -0.797,1.159 -1.403,0.094 -0.586,-0.611 -1.606,0.475 -0.066,-1.234 2.266,-0.039 -0.516,-1.562 1.076,0.214 0.321,1.212 1.516,-0.017 -0.053,-1.264 -1.068,0.033 0.181,-0.87 -0.246,-0.928 -0.878,0.444 -0.676,-0.58 -0.496,-1.626 -1.499,-0.256 -0.757,0.717 -0.059,2.212 -1.034,0.376 -0.385,-0.809 -1.141,0.975 -0.405,1.404 0.535,1.131 0.803,0.164 0.4,-0.647 -0.044,1.873 -1.319,-0.878 -1.567,-0.409 -1.873,1.089 -0.792,0.637 1.13,-2.376 -0.542,-0.97 -1.559,-0.037 -1.915,1.001 -1.11,-0.017 v -2.168 l -1.374,-1.172 0.829,-1.674 1.239,0.612 0.477,-1.909 1.49,1.548 0.604,1.15 1.242,-0.934 -0.263,-1.367 0.844,1.39 -0.116,2.206 0.038,1.151 1.661,1.003 1.097,-0.825 -0.037,-1.326 -0.653,-0.561 1.304,-1.273 -0.806,-1.426 1.387,-1.27 -1.569,-1.323 -1.036,-0.067 -0.147,-1.02 -1.838,1.295 0.562,1.448 -0.838,0.167 -0.248,-1.854 -1.044,0.654 -0.304,0.881 -1.244,-0.164 -0.289,-0.801 -1.771,1.003 -0.171,-1.211 2.174,-0.456 -0.444,-1.256 -0.375,-0.578 1.609,-0.073 0.217,1.421 1.631,-0.52 -0.759,-0.998 -0.815,0.236 0.33,-1.7034 -1.092,-0.0139 -1.795,0.4474 0.062,-1.8343 -1.761,-0.4083"
     sodipodi:nodetypes="cccccccccccccccccccccccccccccccccccccccccccccccccccccccccccccccccccccccccccccccccccccccccccccccccccccccccccccccccccccccccccccccccccccccccccccccccccccccccccccccccccccccccccccccccccccccccccccccccccccccccccccccccccccccccccccccccccccccccccccccccccccccccccccccccccccccccccccccccccccccccccccccccccccccccccccccccccccccccccccccccccccccccccccccccccccccccccccccccccccccccccccccccccccccccccccccccccccccccccccccccccccccccccccccccccccccccccccccccccccccccccccccccccccccccccccccccccccccccccccccccccccccccccccccccccccccccccccccccccccccccccccccccccccccccccccccccccccccccccccccccccccccccccccccccccccccccccccccccccccccccccccccccccccccccccccccccccccccccccccccccccccccccccccccccccccccccccccccccccccccccccccccccccccccccccccccccccccccccccccccccccccccccccccccccccccccccccccccccccccccccccccccccccccccccccccccccccccccccccccccccccccccccccccccccccccccccccccccccccccccccccccccccccccccccccccccccccccccccccccccccccccccccccccccccccccccccccccccccccccccccccccccc"
     style="fill:#ffffff;fill-opacity:1" />
  <path
     id="shape4"
     fill="none"
     stroke="#000000"
     stroke-width="2.88"
     stroke-linecap="square"
     stroke-linejoin="bevel"
     d="m 87.545136,54.64535 c -1.566765,2.086975 -3.57998,8.684985 -1.916339,11.467655 1.663629,2.7826 8.137069,0.5235 8.398199,-2.05832 0.26113,-2.58183 -3.05351,-8.763878 -4.45602,-9.158324 -1.4025,-0.394446 -1.38987,-0.315557 -2.02584,-0.251011 z"
     sodipodi:nodetypes="czzcc"
     style="stroke-linejoin:round;stroke-linecap:round;stroke:#ffffff;stroke-opacity:0.9375" />
  <path
     id="shape5"
     fill="none"
     stroke="#000000"
     stroke-width="2.8836"
     stroke-linecap="square"
     stroke-linejoin="bevel"
     d="m 109.23907,61.084159 c -3.9127,1.08293 -5.81788,4.64876 -6.28538,7.61786 -0.4675,2.96914 1.17087,10.24124 5.97646,7.15744 4.8056,-3.0839 4.9825,-6.84188 4.6329,-9.45957 -0.3496,-2.61769 -1.38358,-4.697283 -4.32398,-5.31573 z"
     sodipodi:nodetypes="czzcc"
     style="stroke-linejoin:round;stroke-linecap:round;stroke:#ffffff;stroke-opacity:0.9375" />
  <path
     id="shape6"
     fill="none"
     stroke="#000000"
     stroke-width="2.8836"
     stroke-linecap="square"
     stroke-linejoin="bevel"
     d="m 119.6276,50.752207 c 0,-0.0197 -4.13673,1.876768 -1.7733,6.837148 1.57563,3.3069 3.67388,4.6993 6.29478,4.1772"
     sodipodi:nodetypes="czc"
     style="stroke-linejoin:round;stroke-linecap:round;stroke:#ffffff;stroke-opacity:0.9375" />
  <path
     id="shape7"
     fill="none"
     stroke="#000000"
     stroke-width="2.8836"
     stroke-linecap="square"
     stroke-linejoin="bevel"
     d="m 125.9402,74.61013 c -2.66525,0.07553 -4.46169,1.22655 -5.38932,3.45305 -0.92763,2.22651 -0.58531,5.10323 1.02695,8.63015"
     sodipodi:nodetypes="czc"
     style="stroke-linejoin:round;stroke-linecap:round;stroke:#ffffff;stroke-opacity:0.9375" />
  <path
     id="shape8"
     fill="none"
     stroke="#000000"
     stroke-width="2.8836"
     stroke-linecap="square"
     stroke-linejoin="bevel"
     d="m 99.437186,49.179861 c -1.531266,2.87015 -1.468589,4.84051 0.18803,5.91107 2.484944,1.60584 8.791284,-2.06395 8.299504,-5.66971 -0.58369,-3.61893 -5.22876,-3.440258 -8.487534,-0.24136 z"
     sodipodi:nodetypes="czcc"
     style="stroke-linejoin:round;stroke-linecap:round;stroke:#ffffff;stroke-opacity:0.9375" />
  <path
     id="shape9"
     fill="none"
     stroke="#000000"
     stroke-width="2.8836"
     stroke-linecap="square"
     stroke-linejoin="bevel"
     d="m 84.576996,77.226366 1.75284,9.62551 7.41616,-7.36597 -9.169,-2.25954"
     sodipodi:nodetypes="cccc"
     style="stroke-linejoin:round;stroke-linecap:round;stroke:#ffffff;stroke-opacity:0.9375" />
  <path
     id="shape10"
     fill="none"
     stroke="#000000"
     stroke-width="2.8836"
     stroke-linecap="round"
     stroke-linejoin="bevel"
     d="m 67.608196,46.156237 -7.67679,10.8224 9.69009,-1.32276 -2.0133,-9.49964"
     sodipodi:nodetypes="cccc"
     style="stroke-linejoin:round;stroke-linecap:round;stroke:#ffffff;stroke-opacity:0.9375" />
  <path
     id="shape11"
     fill="none"
     stroke="#000000"
     stroke-width="2.8836"
     stroke-linecap="square"
     stroke-linejoin="bevel"
     d="m 83.644266,38.718345 -1.2812,6.67672 6.56437,5.22628 0.93626,-5.86758"
     sodipodi:nodetypes="cccc"
     style="stroke-linejoin:round;stroke-linecap:round;stroke:#ffffff;stroke-opacity:0.9375" />
  <path
     id="shape12"
     fill="none"
     stroke="#000000"
     stroke-width="2.8836"
     stroke-linecap="square"
     stroke-linejoin="bevel"
     d="m 52.533026,73.816084 5.84282,6.11334 -2.30545,7.68366"
     sodipodi:nodetypes="ccc"
     style="stroke-linejoin:round;stroke-linecap:round;stroke:#ffffff;stroke-opacity:0.9375" />
  <path
     id="shape13"
     fill="none"
     stroke="#000000"
     stroke-width="2.8836"
     stroke-linecap="square"
     stroke-linejoin="bevel"
     d="m 32.520876,68.143187 5.00863,-6.29914 8.24327,5.37614 4.8749,-8.23502 3.2945,2.58918"
     sodipodi:nodetypes="ccccc"
     style="stroke-linejoin:round;stroke-linecap:round;stroke:#ffffff;stroke-opacity:0.9375" />
  <path
     id="shape14"
     fill="none"
     stroke="#000000"
     stroke-width="2.8836"
     stroke-linecap="square"
     stroke-linejoin="bevel"
     d="m 34.643296,81.868217 5.01567,-6.02343 10.04543,5.3162 2.052,-3.34435"
     sodipodi:nodetypes="cccc"
     style="stroke-linejoin:round;stroke-linecap:round;stroke:#ffffff;stroke-opacity:0.9375" />
  <path
     id="shape15"
     fill="none"
     stroke="#000000"
     stroke-width="2.8836"
     stroke-linecap="square"
     stroke-linejoin="bevel"
     d="m 67.824356,70.561987 -2.38992,8.3489 7.85964,-1.33654 -5.46972,-7.01236"
     sodipodi:nodetypes="cccc"
     style="stroke-linejoin:round;stroke-linecap:round;stroke:#ffffff;stroke-opacity:0.9375" />
  <ellipse
     id="shape16"
     rx="2.1600001"
     ry="2.3399999"
     cx="119.99626"
     cy="69.801369"
     fill="#000000"
     fill-rule="evenodd"
     stroke-opacity="0"
     stroke="#000000"
     stroke-width="0"
     stroke-linecap="square"
     stroke-linejoin="bevel"
     style="stroke-linejoin:round;stroke-linecap:round;stroke:#ffffff;stroke-opacity:0.9375;fill:#ffffff;fill-opacity:1" />
</svg>
