<?xml version="1.0" encoding="UTF-8" standalone="no"?>
<!-- Created using Krita: https://krita.org -->

<svg
   width="150pt"
   height="150pt"
   viewBox="0 0 150 150"
   version="1.1"
   id="svg1"
   sodipodi:docname="Crafting.svg"
   inkscape:version="1.3.2 (091e20e, 2023-11-25, custom)"
   xmlns:inkscape="http://www.inkscape.org/namespaces/inkscape"
   xmlns:sodipodi="http://sodipodi.sourceforge.net/DTD/sodipodi-0.dtd"
   xmlns="http://www.w3.org/2000/svg"
   xmlns:svg="http://www.w3.org/2000/svg">
  <sodipodi:namedview
     id="namedview1"
     pagecolor="#c5c5c5"
     bordercolor="#000000"
     borderopacity="0.25"
     inkscape:showpageshadow="2"
     inkscape:pageopacity="0.0"
     inkscape:pagecheckerboard="0"
     inkscape:deskcolor="#d1d1d1"
     inkscape:document-units="pt"
     inkscape:zoom="3.049398"
     inkscape:cx="126.9103"
     inkscape:cy="71.48952"
     inkscape:window-width="1920"
     inkscape:window-height="1017"
     inkscape:window-x="-8"
     inkscape:window-y="32"
     inkscape:window-maximized="1"
     inkscape:current-layer="svg1" />
  <defs
     id="defs1" />
  <path
     id="shape0"
     fill="#000000"
     fill-rule="evenodd"
     stroke-opacity="0"
     stroke="#000000"
     stroke-width="0"
     stroke-linecap="square"
     stroke-linejoin="bevel"
     d="m 47.459969,67.160097 15.661,35.736203 2.8688,2.5404 0.0832,-3.8065 -13.6041,-36.704403 3.7671,-1.517 -2.4975,-5.94 -3.4394,-0.339 c 2.5363,-1.0869 1.9471,-6.4158 -1.7676,-15.9869 -3.7146,-9.57101 -7.0064,-14.485983 -9.87523,-14.7449 l -7.3701,3.18308 c -2.083226,1.60986 -1.228763,7.22502 2.56339,16.84542 3.79216,9.6204 6.95684,14.2236 9.49394,13.8098 l -2.025,3.1725 2.4036,5.3169 c 1.6949,-0.7855 2.9408,-1.3073 3.7379,-1.5656 z"
     sodipodi:nodetypes="cccccccczcczcccc"
     style="stroke:#ffffff;stroke-opacity:1;fill:#ffffff;fill-opacity:1" />
  <path
     id="shape1"
     fill="#000000"
     fill-rule="evenodd"
     stroke-opacity="0"
     stroke="#000000"
     stroke-width="0"
     stroke-linecap="square"
     stroke-linejoin="bevel"
     d="m 93.711699,36.826513 16.605801,13.9722 0.8233,3.5253 22.1923,18.3932 1.7862,0.0332 4.6886,-5.3458 -0.1675,-1.9667 -23.1087,-17.6438 -3.2245,-0.722 -17.027201,-13.5039 c 1.2975,-1.9803 1.8503,-3.5814 1.6583,-4.8034 -0.2879,-1.8329 -1.6665,-5.0103 -0.3022,-8.141219 0.9094,-2.08731 2.530201,-4.3821 4.862301,-6.88438 l -0.5287,-1.5653 c -6.689101,3.66693 -11.518501,7.55434 -14.488001,11.662199 -2.96963,4.1079 -4.11748,7.716 -3.44359,10.8244 l -3.28453,0.5557 -2.56907,-1.585 -2.80241,3.6529 13.2337,10.454 2.6887,-3.3921 -2.6294,-2.729 -0.3819,-3.6123 c 0.5219,0.2274 1.3514,0.2473 2.4886,0.0598 1.7058,-0.2812 1.7058,-0.2812 2.9299,-1.238 z"
     sodipodi:nodetypes="cccccccccczzcczcccccccccc"
     style="stroke:#ffffff;stroke-opacity:1;fill:#ffffff;fill-opacity:1" />
  <ellipse
     id="shape2"
     rx="21.780001"
     ry="21.6"
     cx="91.29097"
     cy="90.251251"
     fill="none"
     stroke="#000000"
     stroke-width="2.88"
     stroke-linecap="round"
     stroke-linejoin="bevel"
     style="stroke:#ffffff;stroke-opacity:1" />
  <path
     id="shape3"
     fill="none"
     stroke="#000000"
     stroke-width="2.88"
     stroke-linecap="square"
     stroke-linejoin="miter"
     stroke-miterlimit="2"
     d="M 75.476165,77.404852 C 90.441275,77.524426 105.34429,89.1172 107.35305,104.02643"
     sodipodi:nodetypes="cc"
     style="stroke:#ffffff;stroke-opacity:1" />
  <ellipse
     id="shape4"
     transform="rotate(75.357568)"
     rx="4.8600001"
     ry="4.5"
     cx="112.13535"
     cy="-74.67984"
     fill="#000000"
     fill-rule="evenodd"
     stroke-opacity="0"
     stroke="#000000"
     stroke-width="0"
     stroke-linecap="square"
     stroke-linejoin="bevel"
     style="stroke:#ffffff;stroke-opacity:1;fill:#ffffff;fill-opacity:1" />
  <path
     id="shape5"
     fill="#000000"
     fill-rule="evenodd"
     stroke-opacity="0"
     stroke="#000000"
     stroke-width="0"
     stroke-linecap="square"
     stroke-linejoin="bevel"
     d="m 108.59488,105.0956 -10.941101,6.8192 3.659941,1.2034 1.82839,-2.0162 -0.48629,2.5658 3.05534,0.831 1.69962,-2.31 -0.32661,2.751 3.28521,0.9354 1.6341,-2.3611 -0.175,2.8127 2.9157,0.9394 1.5611,-2.2576 -0.0595,2.5227 3.6618,0.9522 1.1612,-1.9135 -0.0553,2.2057 3.5258,0.9222 1.0307,-1.5658 0.3321,1.7906 6.2108,1.3865 -0.8113,-6.9464 -2.1316,-0.6208 1.9133,-0.6762 -0.1336,-2.7681 -2.3717,-0.4223 2.0172,-0.8254 -0.4697,-3.5208 -1.7343,-0.3468 1.6356,-0.7866 -0.3658,-3.4821 -1.4838,-0.5506 1.3438,-0.5945 -0.2692,-3.0065 -1.657,-0.5787 1.4435,-0.6317 -0.4436,-3.339 -1.5914,-0.2299 1.3211,-0.7726 -0.5442,-3.2323 -1.6219,0.064 1.3962,-0.9717 -0.5335,-4.167 -1.7719,-0.0107 1.527,-0.8827 -0.3328,-3.226 -1.6754,0.0409 1.6604,-1.33257 -0.4154,-2.57812 -2.0441,0.2896 1.8684,-1.53833 -0.4567,-5.69868 -13.3161,13.8676 1.5934,10.0924 7.3753,-8.4541 3.0071,25.9875 -15.4453,-4.3644"
     sodipodi:nodetypes="ccccccccccccccccccccccccccccccccccccccccccccccccccccccccc"
     style="stroke:#ffffff;stroke-opacity:1;fill:#ffffff;fill-opacity:1" />
  <path
     id="shape6"
     fill="none"
     stroke="#000000"
     stroke-width="1.8"
     stroke-linecap="square"
     stroke-linejoin="bevel"
     d="m 38.092229,70.842259 -28.4118997,28.453 c 24.5731997,-1.5943 6.8447397,35.432001 44.5527997,34.619901 5.943,-9.5579 11.886,-19.1157 17.829,-28.6736 -26.2054,1.09 -15.1709,-34.34397 -33.9699,-34.399301"
     sodipodi:nodetypes="ccccc"
     style="stroke:#ffffff;stroke-opacity:1" />
  <g
     id="g2">
    <path
       id="shape9"
       fill="#000000"
       stroke-opacity="0"
       stroke="#000000"
       stroke-width="0"
       stroke-linecap="square"
       stroke-linejoin="bevel"
       d="m 29.784359,102.45753 c 0,-0.33333 0,-0.5 0,-0.5 0.0048,0.003 0.0082,0.006 0.01032,0.008 0.254936,0.27134 0.499466,0.48184 0.727097,0.77645 0.719454,0.93115 1.378784,1.70631 1.975024,2.72079 0.74088,1.26058 1.29412,2.39498 1.83102,3.75502 0.50374,1.27605 0.78532,2.42526 1.13267,3.75244 0.10864,0.4151 0.21637,1.0185 0.32321,1.8102 v 1 c -0.10684,-0.7917 -0.21457,-1.3951 -0.32321,-1.8102 -0.34735,-1.3272 -0.62893,-2.47639 -1.13267,-3.75244 -0.5369,-1.36004 -1.09014,-2.49444 -1.83102,-3.75502 -0.59624,-1.01448 -1.25557,-1.78964 -1.975024,-2.72079 -0.227631,-0.29462 -0.472161,-0.50512 -0.727097,-0.77645 -0.0021,-0.002 -0.0056,-0.005 -0.01032,-0.008 v 0 c 0,0 0,-0.16666 0,-0.5 z"
       sodipodi:nodetypes="ccccccccccccccccc"
       style="stroke:#ffffff;stroke-opacity:1;fill:#fefefe;fill-opacity:1" />
    <path
       id="shape10"
       fill="#000000"
       stroke-opacity="0"
       stroke="#000000"
       stroke-width="0"
       stroke-linecap="square"
       stroke-linejoin="bevel"
       d="m 32.602299,99.938323 0.0015,0.0039 c 3.3e-4,0.0018 8.15e-4,0.003 0.0015,0.0037 0.02162,0.02252 0.04317,0.03905 0.06286,0.06329 0.565842,0.69663 1.123856,1.24141 1.609786,1.99597 0.91612,1.42258 1.65084,2.68076 2.384,4.20572 0.63761,1.32619 1.07457,2.51729 1.52221,3.91905 0.22709,0.7111 0.28349,1.3577 0.39841,2.0953 0.03212,0.2061 0.05444,0.5033 0.06697,0.8916 v 1 -1 1 c -0.01253,-0.3883 -0.03485,-0.6855 -0.06697,-0.8916 -0.11492,-0.7376 -0.17132,-1.3842 -0.39841,-2.0953 -0.44764,-1.40176 -0.8846,-2.59286 -1.52221,-3.91905 -0.73316,-1.52496 -1.46788,-2.78314 -2.384,-4.20572 -0.48593,-0.75456 -1.043944,-1.29934 -1.609786,-1.99597 -0.01968,-0.0242 -0.04123,-0.0408 -0.06286,-0.0633 -6.41e-4,-6.6e-4 -0.0011,-0.002 -0.0015,-0.004 l -0.0015,-0.004 v 0 z"
       sodipodi:nodetypes="cccccccccccccccccccccc"
       style="stroke:#ffffff;stroke-opacity:1;fill:#fefefe;fill-opacity:1" />
    <path
       id="shape11"
       fill="#000000"
       stroke-opacity="0"
       stroke="#000000"
       stroke-width="0"
       stroke-linecap="square"
       stroke-linejoin="bevel"
       d="m 35.694019,99.540523 c 0,-0.333333 0,-0.5 0,-0.5 0.0065,0.0051 0.01136,0.0093 0.01448,0.0125 0.367479,0.377041 0.728745,0.660328 1.048764,1.078407 0.65365,0.85394 1.20087,1.60378 1.72365,2.54356 0.83582,1.5025 1.49043,2.8292 2.14871,4.41753 0.463,1.11714 0.69694,2.1351 1.0468,3.2927 0.04125,0.1365 0.08421,0.3356 0.12889,0.5973 v 1 c -0.04468,-0.2617 -0.08765,-0.4608 -0.12889,-0.5973 -0.34986,-1.1576 -0.5838,-2.1756 -1.0468,-3.2927 -0.65828,-1.58833 -1.31289,-2.91503 -2.14871,-4.41753 -0.52278,-0.93978 -1.07,-1.68962 -1.72365,-2.54356 -0.320019,-0.41808 -0.681285,-0.70137 -1.048764,-1.07841 -0.0031,-0.003 -0.0079,-0.007 -0.01448,-0.0125 v 0 c 0,0 0,-0.166663 0,-0.499997 z"
       sodipodi:nodetypes="ccccccccccccccccc"
       style="stroke:#ffffff;stroke-opacity:1;fill:#fefefe;fill-opacity:1" />
    <path
       id="shape13"
       fill="#000000"
       stroke-opacity="0"
       stroke="#000000"
       stroke-width="0"
       stroke-linecap="square"
       stroke-linejoin="bevel"
       d="m 42.082609,99.810583 c 0,0.333337 0,0.499997 0,0.499997 -0.008,0.009 -0.0144,0.0151 -0.0193,0.0192 -2.06839,1.73515 -3.80601,3.26545 -5.91118,4.9558 -1.17996,0.94745 -2.89917,2.25808 -5.15762,3.93189 v -1 c 2.25845,-1.67381 3.97766,-2.98444 5.15762,-3.93189 2.10517,-1.69035 3.84279,-3.22065 5.91118,-4.955797 0.0049,-0.0041 0.0113,-0.01047 0.0193,-0.01919 v 0 c 0,0 0,0.166667 0,0.5 z"
       sodipodi:nodetypes="ccccccccccc"
       style="stroke:#ffffff;stroke-opacity:1;fill:#fefefe;fill-opacity:1" />
    <path
       id="shape15"
       fill="#000000"
       stroke-opacity="0"
       stroke="#000000"
       stroke-width="0"
       stroke-linecap="square"
       stroke-linejoin="bevel"
       d="m 40.658959,97.318438 c 0,0.333333 0,0.5 0,0.5 -0.0105,0.01071 -0.019,0.01863 -0.0252,0.02378 -1.4278,1.1791 -2.5587,2.312692 -4.08093,3.367102 -2.46623,1.70831 -4.73351,2.93887 -7.289819,4.50919 -0.206071,0.12659 -0.504988,0.29984 -0.896751,0.51976 v -1 c 0.391763,-0.21992 0.69068,-0.39317 0.896751,-0.51976 2.556309,-1.57032 4.823589,-2.80088 7.289819,-4.50919 1.52223,-1.054412 2.65313,-2.188002 4.08093,-3.367098 0.0062,-0.0052 0.0147,-0.01308 0.0252,-0.02378 v 0 c 0,0 0,0.166667 0,0.5 z"
       sodipodi:nodetypes="ccccccccccccc"
       style="stroke:#ffffff;stroke-opacity:1;fill:#fefefe;fill-opacity:1" />
    <g
       id="g1"
       style="fill:#fefefe;fill-opacity:1">
      <path
         id="shape7"
         fill="#000000"
         stroke-opacity="0"
         stroke="#000000"
         stroke-width="0"
         stroke-linecap="square"
         stroke-linejoin="bevel"
         d="m 23.639919,94.051733 c -0.166667,-0.2886 -0.25,-0.433 -0.25,-0.433 0.005,-0.0025 0.0087,-0.0047 0.01113,-0.0064 0.08839,-0.062 0.174783,-0.1025 0.251901,-0.1781 0.284107,-0.2783 0.53252,-0.5156 0.776601,-0.8297 0.35374,-0.4552 0.64829,-0.8568 0.9265,-1.3617 0.4112,-0.7462 0.66424,-1.4362 1.0374,-2.2022 0.12902,-0.2648 0.24476,-0.4899 0.39705,-0.7421 0.03314,-0.0549 0.07749,-0.092 0.12941,-0.1297 0.04597,-0.0333 0.09113,-0.0565 0.14625,-0.07 0.05925,-0.0146 0.11421,-0.0203 0.17411,-0.0087 0.1863,0.0361 0.33756,0.1026 0.52279,0.1439 0.15081,0.0336 0.28157,0.0773 0.4359,0.0698 0.13453,-0.0066 0.25092,-0.0443 0.36909,-0.1089 0.15241,-0.0834 0.26922,-0.1821 0.3904,-0.3065 0.1645,-0.169 0.29442,-0.3271 0.42053,-0.5264 0.12895,-0.2037 0.21715,-0.3932 0.30391,-0.6181 0.04589,-0.119 0.05796,-0.2304 0.07227,-0.3572 0.0072,-0.0641 -0.007,-0.1195 -0.0112,-0.1839 -0.0013,-0.0208 -0.01597,-0.0421 -0.0045,-0.0595 0.03842,-0.0585 0.09403,-0.0902 0.13838,-0.1443 0.1848,-0.2256 0.35511,-0.411 0.51585,-0.6544 0.17062,-0.2583 0.27465,-0.50505 0.42775,-0.77409 0.0088,-0.01539 0.01993,-0.02674 0.03405,-0.03744 0.0044,-0.0033 0.01092,-0.0029 0.01583,-3.6e-4 0.01939,0.01015 0.0319,0.02571 0.05144,0.03557 0.05523,0.02786 0.10045,0.06175 0.16148,0.07185 0.07696,0.01274 0.14774,0.01322 0.22274,-0.0083 0.24564,-0.07035 0.46239,-0.12679 0.68524,-0.25178 0.49282,-0.27642 0.90067,-0.54319 1.34787,-0.88857 0.36593,-0.2826 0.64913,-0.56411 0.96733,-0.89953 0.1597,-0.16838 0.274,-0.33486 0.3927,-0.53425 0.0763,-0.12795 0.1197,-0.2509 0.1603,-0.39419 0.0234,-0.08221 0.0218,-0.15785 0.0206,-0.2433 -6e-4,-0.03706 -0.0099,-0.0692 -0.0256,-0.10276 -0.0102,-0.02178 -0.0307,-0.04937 -0.0614,-0.08279 l 0.5,0.86603 c -0.0878,-0.05765 -0.1588,-0.08985 -0.213,-0.09661 -0.1652,-0.02062 -0.3116,-0.01855 -0.4755,0.01064 -0.4313,0.07683 -0.7914,0.18897 -1.21744,0.29092 -0.04586,0.01097 -0.08451,0.02347 -0.13094,0.03172 -0.01062,0.0019 -0.0207,0.0011 -0.03067,-0.003 -0.0036,-0.0015 -0.0067,-0.006 -0.0094,-0.01357 l -0.5,-0.86603 c 0.0017,-0.01181 0.005,-0.01932 0.0097,-0.02253 0.50604,-0.3426 0.95194,-0.61834 1.45324,-0.96787 0.5164,-0.36012 0.9531,-0.67769 1.4539,-1.05925 0.0652,-0.04968 0.1073,-0.10824 0.1604,-0.17068 0.0098,-0.01157 0.015,-0.02452 0.0183,-0.03936 0.0023,-0.01048 0.0024,-0.02123 -0.0029,-0.03053 -0.0069,-0.01199 -0.0202,-0.0266 -0.0399,-0.04384 l 0.5,0.86603 c -0.0845,-0.02463 -0.1489,-0.04517 -0.1933,-0.06161 -0.0226,-0.0084 -0.041,-0.01873 -0.0608,-0.0325 -0.0056,-0.0039 -0.0118,-0.01149 -0.0186,-0.02272 l -0.5,-0.86602 c -0.0074,-0.01207 -0.0104,-0.02147 -0.0089,-0.02822 0.0073,-0.03414 0.0124,-0.06693 0.0352,-0.09338 0.2112,-0.24509 0.4061,-0.44287 0.629,-0.67736 0.0998,-0.10498 0.1924,-0.18811 0.2929,-0.29243 0.2555,-0.26513 0.4704,-0.49621 0.7241,-0.76305 0.001,-0.0011 0.0041,-0.0038 0.0035,-0.0024 -0.0201,0.05227 -0.0496,0.12665 -0.0885,0.22313 l 0.5,0.86603 c -0.0293,0.12153 -0.0422,0.21541 -0.0385,0.28163 0.0065,0.11668 0.0254,0.21895 0.0723,0.32596 0.0294,0.06702 0.0903,0.15203 0.1826,0.25503 l -0.5,-0.86602 c 0.0728,0.04682 0.1316,0.0745 0.1762,0.08302 0.0764,0.01458 0.1459,0.0086 0.2221,-0.007 0.0878,-0.01795 0.1669,-0.03673 0.2407,-0.08759 0.2036,-0.14031 0.3797,-0.26637 0.5428,-0.45227 0.2892,-0.32977 0.4936,-0.64856 0.7407,-1.011 0.1459,-0.21387 0.2413,-0.416 0.3809,-0.63399 0.1243,-0.194135 0.2319,-0.360503 0.3728,-0.542962 0.055,-0.0712 0.1119,-0.125856 0.1846,-0.178871 0.078,-0.05693 0.1559,-0.0889 0.2421,-0.132411 0.0384,-0.01938 0.0739,-0.03049 0.1136,-0.04705 0.0369,-0.01539 0.0676,-0.03087 0.1053,-0.04424 0.0768,-0.02724 0.1871,-0.06413 0.331,-0.11065 l 0.5,0.866025 c -0.1439,0.04652 -0.2542,0.08341 -0.331,0.11065 -0.0377,0.01338 -0.0684,0.02886 -0.1053,0.04424 -0.0397,0.01656 -0.0752,0.02767 -0.1136,0.04705 -0.0862,0.04351 -0.1641,0.07548 -0.2421,0.13241 -0.0727,0.05302 -0.1296,0.10768 -0.1846,0.17887 -0.1409,0.18246 -0.2485,0.34883 -0.3728,0.54296 -0.1396,0.21799 -0.235,0.42013 -0.3809,0.634 -0.2471,0.36244 -0.4515,0.68122 -0.7407,1.011 -0.1631,0.18589 -0.3392,0.31196 -0.5428,0.45227 -0.0738,0.05086 -0.1529,0.06963 -0.2407,0.08758 -0.0762,0.01558 -0.1457,0.02158 -0.2221,0.007 -0.0446,-0.0085 -0.1034,-0.03619 -0.1762,-0.08302 l -0.5,-0.86602 c -0.0923,-0.10301 -0.1532,-0.18802 -0.1826,-0.25504 -0.0469,-0.10701 -0.0658,-0.20927 -0.0723,-0.32595 -0.0037,-0.06623 0.0092,-0.1601 0.0385,-0.28164 l 0.5,0.86603 c 0.0389,-0.09648 0.0684,-0.17086 0.0885,-0.22314 6e-4,-0.0014 -0.0025,0.0013 -0.0035,0.0024 -0.2537,0.26685 -0.4686,0.49792 -0.7241,0.76306 -0.1005,0.10431 -0.1931,0.18744 -0.2929,0.29243 -0.2229,0.23449 -0.4178,0.43227 -0.629,0.67735 -0.0228,0.02646 -0.0279,0.05925 -0.0352,0.09339 -0.0015,0.0067 0.0015,0.01615 0.0089,0.02821 l -0.5,-0.86602 c 0.0068,0.01123 0.013,0.0188 0.0186,0.02272 0.0198,0.01377 0.0382,0.02412 0.0608,0.03249 0.0444,0.01645 0.1088,0.03698 0.1933,0.06161 l 0.5,0.86603 c 0.0197,0.01724 0.033,0.03185 0.0399,0.04383 0.0053,0.0093 0.0052,0.02005 0.0029,0.03054 -0.0033,0.01484 -0.0085,0.02779 -0.0183,0.03936 -0.0531,0.06243 -0.0952,0.121 -0.1604,0.17068 -0.5008,0.38156 -0.9375,0.69913 -1.4539,1.05924 -0.5013,0.34954 -0.9472,0.62528 -1.45324,0.96788 -0.0047,0.0032 -0.008,0.01071 -0.0097,0.02253 l -0.5,-0.86603 c 0.0027,0.0076 0.0058,0.0121 0.0094,0.01357 0.01,0.0041 0.02005,0.0049 0.03067,0.003 0.04643,-0.0082 0.08508,-0.02075 0.13094,-0.03172 0.42608,-0.10195 0.78614,-0.21408 1.21744,-0.29091 0.1639,-0.02919 0.3103,-0.03127 0.4755,-0.01065 0.0542,0.0068 0.1252,0.03897 0.213,0.09661 l 0.5,0.86603 c 0.0307,0.03341 0.0512,0.06101 0.0614,0.08278 0.0157,0.03356 0.025,0.0657 0.0256,0.10277 0.0012,0.08545 0.0028,0.16108 -0.0206,0.2433 -0.0406,0.14328 -0.084,0.26623 -0.1603,0.39419 -0.1187,0.19938 -0.233,0.36587 -0.3927,0.53424 -0.3182,0.33542 -0.6014,0.61693 -0.9673,0.89953 -0.4472,0.34538 -0.85508,0.61216 -1.3479,0.88857 -0.22285,0.125 -0.4396,0.1814 -0.68524,0.2518 -0.075,0.0215 -0.14578,0.021 -0.22274,0.0083 -0.06103,-0.0101 -0.10625,-0.044 -0.16148,-0.0719 -0.01954,-0.0099 -0.03205,-0.0254 -0.05144,-0.0356 -0.0049,-0.0025 -0.01141,-0.0029 -0.01583,4e-4 -0.01412,0.0107 -0.02529,0.022 -0.03405,0.0374 -0.1531,0.2691 -0.25713,0.5159 -0.42775,0.7741 -0.16074,0.2434 -0.33105,0.4288 -0.51585,0.6544 -0.04435,0.0541 -0.09996,0.0858 -0.13838,0.1443 -0.01147,0.0175 0.0032,0.0387 0.0045,0.0595 0.0041,0.0644 0.01843,0.1199 0.01119,0.184 -0.0143,0.1267 -0.02637,0.2381 -0.07226,0.3571 -0.08676,0.2249 -0.17496,0.4145 -0.30391,0.6182 -0.12611,0.1992 -0.25603,0.3574 -0.42053,0.5263 -0.12118,0.1245 -0.23799,0.2231 -0.3904,0.3065 -0.11817,0.0646 -0.23456,0.1024 -0.36909,0.1089 -0.15433,0.0075 -0.28509,-0.0362 -0.4359,-0.0698 -0.18523,-0.0413 -0.33649,-0.1077 -0.52279,-0.1439 -0.0599,-0.0116 -0.11486,-0.0059 -0.17411,0.0087 -0.05512,0.0135 -0.10028,0.0368 -0.14625,0.0701 -0.05192,0.0376 -0.09627,0.0747 -0.12941,0.1296 -0.15229,0.2522 -0.26803,0.4773 -0.39705,0.7422 -0.37316,0.7659 -0.6262,1.4559 -1.0374,2.2021 -0.27821,0.5049 -0.57276,0.9066 -0.9265,1.3617 -0.24408,0.3141 -0.49249,0.5514 -0.776601,0.8298 -0.07712,0.0755 -0.163509,0.116 -0.251901,0.178 -0.0025,0.0017 -0.0062,0.0039 -0.01113,0.0064 v 0 c 0,0 -0.08333,-0.1443 -0.25,-0.433 z"
         sodipodi:nodetypes="ccccccccccccccccccccccccccccccccccccccccccccccccccccccccccccccccccccccccccccccccccccccccccccccccccccccccccccccccccccccccccccccccccccccccccccccccccccccccccccccccc"
         style="stroke:#ffffff;stroke-opacity:1;fill:#fefefe;fill-opacity:1" />
      <path
         id="shape8"
         fill="#000000"
         stroke-opacity="0"
         stroke="#000000"
         stroke-width="0"
         stroke-linecap="square"
         stroke-linejoin="bevel"
         d="m 25.771349,95.903537 c 0.0031,0.0053 0.0058,0.0092 0.008,0.0116 0.03665,0.0415 0.06042,0.086 0.10596,0.1175 0.109812,0.0759 0.20871,0.1373 0.332999,0.1861 0.120953,0.0475 0.231426,0.0777 0.361078,0.0863 0.156307,0.0104 0.293643,0.0021 0.446373,-0.0328 0.16046,-0.0366 0.29591,-0.0874 0.43874,-0.1692 0.14937,-0.0855 0.26911,-0.178 0.38693,-0.3035 0.15775,-0.168 0.27514,-0.3302 0.39367,-0.5278 0.11434,-0.1907 0.19444,-0.3661 0.26819,-0.5758 0.04593,-0.1306 0.06184,-0.251 0.07113,-0.3891 0.0077,-0.1139 -0.0061,-0.2125 -0.02308,-0.3254 -0.01185,-0.0786 -0.04093,-0.142 -0.05897,-0.2195 -0.0023,-0.0099 -0.0068,-0.0227 0.0011,-0.029 0.01221,-0.0098 0.02849,-0.0067 0.04414,-0.0075 0.26202,-0.0133 0.4918,0.0194 0.74888,-0.033 0.32755,-0.0667 0.60774,-0.1519 0.90543,-0.304 0.36536,-0.1866 0.65963,-0.3892 0.97203,-0.6551 0.36021,-0.3067 0.63276,-0.6116 0.93922,-0.972 0.1523,-0.1791 0.25155,-0.3579 0.3662,-0.5631 0.04232,-0.0758 0.06161,-0.15 0.07954,-0.2349 0.0054,-0.0255 -0.0026,-0.0499 -0.01452,-0.0731 -0.0071,-0.0139 -0.02296,-0.0297 -0.04742,-0.0474 0.21669,0.3752 0.38336,0.6639 0.5,0.866 0.002,0.0035 -9e-4,-0.0015 -0.0088,-0.0151 l -0.5,-0.866 c -0.0029,-0.01 -0.0032,-0.0173 -9.5e-4,-0.0219 0.05394,-0.1087 0.09598,-0.2049 0.16351,-0.3058 0.58951,-0.88019 1.10887,-1.62519 1.71271,-2.49565 0.01029,-0.01483 0.02416,-0.02436 0.04062,-0.03179 0.0085,-0.0038 0.01814,-0.0025 0.02658,0.0015 0.0086,0.004 0.01538,0.01082 0.01867,0.01975 0.01257,0.03418 0.02716,0.08412 0.04374,0.14983 0.22015,0.37331 0.38681,0.66199 0.5,0.86603 0.02779,0.0501 0.06241,0.12426 0.10384,0.2225 l -0.5,-0.86603 c 0.05177,0.06346 0.09632,0.10595 0.13366,0.12748 0.06589,0.03799 0.13072,0.0594 0.20623,0.06853 0.08604,0.0104 0.16361,0.0091 0.24723,-0.01372 0.11371,-0.03098 0.21451,-0.06489 0.30743,-0.13739 0.31176,-0.24328 0.57736,-0.46032 0.83886,-0.757 0.3915,-0.44422 0.7054,-0.84827 1.0189,-1.35064 0.2684,-0.43025 0.4291,-0.83886 0.6362,-1.30181 0.1029,-0.23028 0.1531,-0.44301 0.2485,-0.67655 0.1148,-0.28119 0.2033,-0.5283 0.3516,-0.79335 0.0734,-0.13115 0.1633,-0.22961 0.2762,-0.32873 0.2373,-0.20822 0.4738,-0.34586 0.719,-0.54462 0.2046,-0.16579 0.3845,-0.30492 0.5654,-0.49629 0.1351,-0.14294 0.2316,-0.28422 0.3321,-0.45333 0.067,-0.11293 0.0964,-0.22412 0.1431,-0.34689 0.0168,-0.04417 0.0226,-0.08487 0.038,-0.12957 0.0129,-0.03773 0.0174,-0.07483 0.0428,-0.10565 0.0825,-0.10038 0.1673,-0.17389 0.2609,-0.26397 0.1944,-0.187071 0.3613,-0.347267 0.5618,-0.527774 0.091,-0.08194 0.1646,-0.160502 0.2707,-0.221702 0.1266,-0.07307 0.3163,-0.160642 0.5689,-0.262714 l 0.5,0.866025 c -0.2526,0.102072 -0.4423,0.189645 -0.5689,0.262715 -0.1061,0.0612 -0.1797,0.13976 -0.2707,0.2217 -0.2005,0.18051 -0.3674,0.3407 -0.5618,0.52777 -0.0936,0.09008 -0.1784,0.1636 -0.2609,0.26397 -0.0254,0.03083 -0.0299,0.06792 -0.0428,0.10566 -0.0154,0.04469 -0.0212,0.08539 -0.038,0.12956 -0.0467,0.12278 -0.0761,0.23397 -0.1431,0.3469 -0.1005,0.16911 -0.197,0.31039 -0.3321,0.45333 -0.1809,0.19137 -0.3608,0.3305 -0.5654,0.49628 -0.2452,0.19877 -0.4817,0.3364 -0.719,0.54462 -0.1129,0.09913 -0.2028,0.19758 -0.2762,0.32873 -0.1483,0.26505 -0.2368,0.51216 -0.3516,0.79335 -0.0954,0.23355 -0.1456,0.44627 -0.2485,0.67656 -0.2071,0.46295 -0.3678,0.87156 -0.6362,1.3018 -0.3135,0.50237 -0.6274,0.90643 -1.0189,1.35065 -0.2615,0.29667 -0.5271,0.51372 -0.8389,0.75699 -0.0929,0.07251 -0.1937,0.10642 -0.30739,0.1374 -0.08362,0.02278 -0.16119,0.02411 -0.24723,0.01371 -0.07551,-0.0091 -0.14034,-0.03053 -0.20623,-0.06853 -0.03734,-0.02153 -0.08189,-0.06402 -0.13366,-0.12747 l -0.5,-0.86603 c -0.09926,-0.19712 -0.13387,-0.27128 -0.10384,-0.2225 0.12232,0.1987 0.28899,0.48738 0.5,0.86603 -0.01658,-0.06571 -0.03117,-0.11566 -0.04374,-0.14984 -0.0033,-0.0089 -0.01006,-0.01571 -0.01867,-0.01975 -0.0084,-0.004 -0.01809,-0.0053 -0.02658,-0.0015 -0.01646,0.0074 -0.03033,0.01696 -0.04062,0.0318 -0.60385,0.87046 -1.1232,1.61542 -1.71271,2.49572 -0.06753,0.1008 -0.10957,0.197 -0.16351,0.3057 -0.0023,0.0046 -0.002,0.0119 9.5e-4,0.0219 l -0.5,-0.866 c 0.0038,0.0065 0.0068,0.0115 0.0088,0.0151 0.11669,0.202 0.28336,0.4907 0.5,0.866 0.02446,0.0177 0.04027,0.0335 0.04742,0.0475 0.01192,0.0232 0.01991,0.0475 0.01452,0.0731 -0.01793,0.0849 -0.03722,0.159 -0.07954,0.2348 -0.11465,0.2052 -0.2139,0.384 -0.3662,0.5631 -0.30646,0.3604 -0.57901,0.6653 -0.93922,0.972 -0.3124,0.266 -0.60667,0.4685 -0.97203,0.6552 -0.29769,0.152 -0.57788,0.2372 -0.90543,0.3039 -0.25708,0.0524 -0.48686,0.0197 -0.74888,0.0331 -0.01565,8e-4 -0.03193,-0.0024 -0.04414,0.0074 -0.0079,0.0064 -0.0034,0.0191 -0.0011,0.029 0.01804,0.0775 0.04712,0.1409 0.05897,0.2196 0.017,0.1128 0.03074,0.2114 0.02308,0.3253 -0.0093,0.1381 -0.0252,0.2585 -0.07113,0.3891 -0.07375,0.2098 -0.15385,0.3852 -0.26819,0.5758 -0.11853,0.1976 -0.23592,0.3598 -0.39367,0.5278 -0.11782,0.1255 -0.23756,0.218 -0.38693,0.3035 -0.14283,0.0818 -0.27828,0.1326 -0.43874,0.1693 -0.15273,0.0348 -0.29007,0.0431 -0.44637,0.0327 -0.12966,-0.0085 -0.24013,-0.0388 -0.361081,-0.0863 -0.124289,-0.0487 -0.223187,-0.1101 -0.332999,-0.1861 -0.04554,-0.0315 -0.06931,-0.076 -0.10596,-0.1175 -0.0022,-0.0024 -0.0048,-0.0063 -0.008,-0.0115 v 0 z"
         sodipodi:nodetypes="cccccccccccccccccccccccccccccccccccccccccccccccccccccccccccccccccccccccccccccccccccccccccccccccccccccccccccccccccc"
         style="stroke:#ffffff;stroke-opacity:1;fill:#fefefe;fill-opacity:1" />
      <path
         id="shape12"
         fill="#000000"
         stroke-opacity="0"
         stroke="#000000"
         stroke-width="0"
         stroke-linecap="square"
         stroke-linejoin="bevel"
         d="m 38.634909,97.118646 c 0.0028,0.003 0.0049,0.0052 0.0064,0.0069 0.0253,0.02839 0.04681,0.05288 0.07215,0.08123 0.03858,0.04317 0.07562,0.0769 0.110478,0.123122 0.698881,0.926737 1.36215,1.677157 1.98555,2.656267 0.77828,1.222345 1.38813,2.310715 2.01026,3.619455 0.49171,1.0344 0.7828,1.97831 1.16408,3.05832 0.08241,0.23343 0.17479,0.57483 0.27715,1.02413 v 1 c -0.10236,-0.4493 -0.19474,-0.7907 -0.27715,-1.0241 -0.38128,-1.08004 -0.67237,-2.02395 -1.16408,-3.05835 -0.62213,-1.30874 -1.23198,-2.39711 -2.01026,-3.61945 -0.6234,-0.97911 -1.286669,-1.729535 -1.98555,-2.656275 -0.03486,-0.04622 -0.0719,-0.07995 -0.110478,-0.12312 -0.02534,-0.02835 -0.04685,-0.05284 -0.07215,-0.08123 -0.0015,-0.0016 -0.0036,-0.0039 -0.0064,-0.0069 v 0 z"
         sodipodi:nodetypes="cccccccccccccccccc"
         style="stroke:#ffffff;stroke-opacity:1;fill:#fefefe;fill-opacity:1" />
      <path
         id="shape14"
         fill="#000000"
         stroke-opacity="0"
         stroke="#000000"
         stroke-width="0"
         stroke-linecap="square"
         stroke-linejoin="bevel"
         d="m 44.009209,102.36204 c 0,0.33334 0,0.5 0,0.5 -0.0066,0.005 -0.0116,0.008 -0.0148,0.0111 -0.87033,0.776 -1.59309,1.46797 -2.48569,2.21827 -2.49119,2.09403 -4.6517,3.85895 -7.18073,5.90712 -0.267346,0.21651 -0.663773,0.507 -1.18928,0.87141 v -0.99995 c 0.525507,-0.36446 0.921934,-0.65495 1.18928,-0.87146 2.52903,-2.04817 4.68954,-3.81309 7.18073,-5.90712 0.8926,-0.7503 1.61536,-1.44227 2.48569,-2.21826 0.0032,-0.003 0.0082,-0.007 0.0148,-0.0111 v 0 c 0,0 0,0.16667 0,0.5 z"
         sodipodi:nodetypes="ccccccccccccc"
         style="stroke:#ffffff;stroke-opacity:1;fill:#fefefe;fill-opacity:1" />
      <path
         id="shape16"
         fill="#000000"
         stroke-opacity="0"
         stroke="#000000"
         stroke-width="0"
         stroke-linecap="square"
         stroke-linejoin="bevel"
         d="m 45.040689,105.80651 c 0,0.33334 0,0.5 0,0.5 -0.01177,0.0119 -0.02083,0.0211 -0.02717,0.0276 -0.03779,0.0383 -0.06757,0.074 -0.10799,0.10957 -1.54702,1.36169 -2.84472,2.56209 -4.42724,3.88234 -1.2203,1.01807 -2.32564,1.81718 -3.57767,2.79594 -0.38938,0.3044 -0.722835,0.5657 -1.112093,0.87025 -0.120535,0.0943 -0.292754,0.22899 -0.516657,0.40406 v -1 c 0.223903,-0.17507 0.396122,-0.30976 0.516657,-0.40406 0.389258,-0.30455 0.722713,-0.56585 1.112093,-0.87025 1.25203,-0.97876 2.35737,-1.77787 3.57767,-2.79594 1.58252,-1.32025 2.88022,-2.52065 4.42724,-3.88233 0.04042,-0.0356 0.0702,-0.0712 0.10799,-0.10958 0.0063,-0.006 0.0154,-0.0156 0.02717,-0.0276 v 0 c 0,0 0,0.16667 0,0.5 z"
         sodipodi:nodetypes="ccccccccccccccccc"
         style="stroke:#ffffff;stroke-opacity:1;fill:#fefefe;fill-opacity:1" />
      <path
         id="shape17"
         fill="#000000"
         stroke-opacity="0"
         stroke="#000000"
         stroke-width="0"
         stroke-linecap="square"
         stroke-linejoin="bevel"
         d="m 47.114679,88.89718 c 0,0.333334 0,0.500003 0,0.500003 -0.01595,-0.0044 -0.02832,-0.0067 -0.03713,-0.0069 -0.1275,-0.0021 -0.23964,-0.02662 -0.36432,1.2e-4 -0.20917,0.04488 -0.39676,0.08651 -0.57694,0.20183 -0.42336,0.27096 -0.79906,0.50891 -1.12774,0.8892 -0.47347,0.54782 -0.837715,1.0693 -1.135418,1.72933 -0.329439,0.7304 -0.561621,1.4013 -0.636452,2.19905 -0.06032,0.64309 -0.0033,1.56405 0.171016,2.7629 v -1 c 0.264229,1.08353 0.513332,1.90033 0.747309,2.45038 0.246365,0.5792 0.555125,1.036 0.945635,1.529597 0.34132,0.4315 0.69392,0.757 1.12935,1.0932 0.26055,0.2012 0.52111,0.3385 0.83841,0.4262 0.43209,0.1193 0.82294,0.1516 1.27118,0.1564 0.27064,0.003 0.5161,-0.0207 0.76142,-0.135 0.44199,-0.206 0.80357,-0.4365 1.16569,-0.7631 0.38935,-0.3511 0.67996,-0.7072 0.95768,-1.151897 0.28785,-0.4609 0.51194,-0.8856 0.64399,-1.41267 0.13294,-0.53067 0.23049,-1.3061 0.29266,-2.32627 v 1 c -0.04821,-0.81299 -0.12679,-1.4304 -0.23574,-1.85223 -0.16744,-0.64835 -0.36889,-1.19891 -0.70225,-1.77966 -0.3389,-0.59041 -0.70786,-1.06002 -1.1986,-1.53183 -0.57695,-0.55471 -1.13617,-0.97078 -1.82618,-1.37632 -0.27705,-0.16284 -0.70978,-0.31616 -1.29818,-0.45998 v -0.999998 c 0.5884,0.143818 1.02113,0.297143 1.29818,0.459978 0.69001,0.40554 1.24923,0.82161 1.82618,1.37632 0.49074,0.47181 0.8597,0.94142 1.1986,1.53183 0.33336,0.58075 0.53481,1.13131 0.70225,1.77966 0.10895,0.42183 0.18753,1.03924 0.23574,1.85223 v 1 c -0.06217,1.02017 -0.15972,1.79564 -0.29266,2.32624 -0.13205,0.5271 -0.35614,0.951797 -0.64399,1.412697 -0.27772,0.4447 -0.56833,0.8008 -0.95768,1.1519 -0.36212,0.3266 -0.7237,0.5571 -1.16569,0.7631 -0.24532,0.1143 -0.49078,0.1378 -0.76142,0.135 -0.44824,-0.005 -0.83909,-0.0371 -1.27118,-0.1564 -0.3173,-0.0877 -0.57786,-0.225 -0.83841,-0.4262 -0.43543,-0.3362 -0.78803,-0.6617 -1.12935,-1.0932 -0.39051,-0.4936 -0.69927,-0.9504 -0.945635,-1.529597 -0.233977,-0.55 -0.48308,-1.36685 -0.747309,-2.45038 v -1 c -0.174333,-1.19885 -0.231338,-2.11981 -0.171015,-2.7629 0.07483,-0.79775 0.307012,-1.46865 0.636451,-2.19905 0.297703,-0.66003 0.661948,-1.18151 1.135418,-1.72933 0.32868,-0.380291 0.70438,-0.618243 1.12774,-0.889202 0.18018,-0.115321 0.36777,-0.156946 0.57694,-0.201824 0.12468,-0.02675 0.23682,-0.0023 0.36432,-1.25e-4 0.0088,1.48e-4 0.02118,0.0024 0.03713,0.0069 v 0 c 0,0 0,0.166666 0,0.499999 z"
         sodipodi:nodetypes="ccccccccccccccccccccccccccccccccccccccccccccccccccccc"
         style="stroke:#ffffff;stroke-opacity:1;fill:#fefefe;fill-opacity:1" />
      <path
         id="shape18"
         fill="#000000"
         stroke-opacity="0"
         stroke="#000000"
         stroke-width="0"
         stroke-linecap="square"
         stroke-linejoin="bevel"
         d="m 45.892229,101.08992 c 3.19e-4,-6e-4 5.99e-4,-0.001 8.41e-4,-0.001 0.01061,-0.0124 0.02323,-0.0206 0.0305,-0.0353 0.05971,-0.12009 0.121221,-0.2198 0.160136,-0.34818 0.38665,-1.275503 0.705949,-2.372703 1.054624,-3.659103 0.47184,-1.74081 0.87817,-3.23316 1.28949,-4.98926 0.06023,-0.257128 0.1076,-0.631416 0.14211,-1.12286 v 1 c -0.03451,0.49144 -0.08188,0.86573 -0.14211,1.12286 -0.41132,1.7561 -0.81765,3.24845 -1.28949,4.98926 -0.348675,1.2864 -0.667974,2.383603 -1.054624,3.659083 -0.03892,0.1284 -0.100424,0.2281 -0.160136,0.3482 -0.0073,0.0147 -0.01989,0.0229 -0.0305,0.0353 -2.42e-4,3e-4 -5.22e-4,8e-4 -8.41e-4,0.001 v 0 z"
         sodipodi:nodetypes="cccccccccccccccc"
         style="stroke:#ffffff;stroke-opacity:1;fill:#fefefe;fill-opacity:1" />
      <path
         id="shape19"
         fill="#000000"
         stroke-opacity="0"
         stroke="#000000"
         stroke-width="0"
         stroke-linecap="square"
         stroke-linejoin="bevel"
         d="m 46.430631,95.097667 -0.0096,0.0016 c -0.02892,0.0081 -0.04962,0.01702 -0.06211,0.02665 -0.02589,0.01995 -0.04815,0.04003 -0.06251,0.0694 -0.04308,0.08811 -0.08527,0.16492 -0.09951,0.26196 -0.01667,0.1136 -0.02038,0.27759 -0.01112,0.49195 V 94.94923 c 0.05188,0.270747 0.109258,0.472447 0.17214,0.605087 0.0926,0.19533 0.20701,0.34772 0.354501,0.50576 0.09435,0.1011 0.199517,0.16728 0.325935,0.22334 0.165967,0.07359 0.318447,0.12157 0.498817,0.14237 0.10591,0.01221 0.20217,-0.0089 0.30045,-0.0502 0.09624,-0.04047 0.17041,-0.09929 0.24005,-0.17707 0.07203,-0.08046 0.11774,-0.16511 0.1565,-0.2659 0.03982,-0.10351 0.06154,-0.19928 0.06505,-0.31013 0.0025,-0.07849 -0.01241,-0.18969 -0.04467,-0.33359 v 1 c -0.04567,-0.13942 -0.08954,-0.24205 -0.13159,-0.3079 -0.06408,-0.10036 -0.13424,-0.17871 -0.22691,-0.25348 -0.09199,-0.07422 -0.1818,-0.12867 -0.29374,-0.1666 -0.15213,-0.05155 -0.29042,-0.0779 -0.450856,-0.0857 -0.129391,-0.0063 -0.240931,0.01727 -0.367262,0.04594 -0.07684,0.01744 -0.137625,0.05047 -0.208584,0.08474 -0.0078,0.0037 -0.01588,0.01299 -0.02436,0.02775 v -1.000003 1.000003 -1.000003 c 0.0085,-0.01475 0.0166,-0.024 0.02436,-0.02775 0.07096,-0.03427 0.131739,-0.0673 0.208584,-0.08474 0.126331,-0.02867 0.237871,-0.05223 0.367262,-0.04594 0.160436,0.0078 0.298726,0.03415 0.450856,0.0857 0.11194,0.03793 0.20175,0.09238 0.29374,0.166601 0.09267,0.07477 0.16283,0.153125 0.22691,0.25348 0.04205,0.06585 0.08592,0.168483 0.13159,0.307903 v 1 c 0.03226,0.1439 0.04715,0.2551 0.04467,0.33359 -0.0035,0.11085 -0.02523,0.20662 -0.06505,0.31013 -0.03876,0.10079 -0.08447,0.18544 -0.1565,0.2659 -0.06964,0.07778 -0.14381,0.1366 -0.24005,0.17707 -0.09828,0.04132 -0.19454,0.06241 -0.30045,0.0502 -0.18037,-0.0208 -0.33285,-0.06878 -0.498817,-0.14237 -0.126418,-0.05606 -0.231582,-0.12224 -0.325935,-0.22334 -0.147491,-0.15804 -0.261896,-0.31043 -0.354501,-0.50576 -0.06288,-0.13264 -0.120262,-0.33434 -0.17214,-0.60509 v -0.999997 c -0.0093,-0.214367 -0.0055,-0.378352 0.01112,-0.491954 0.01424,-0.09704 0.05643,-0.173853 0.09951,-0.261962 0.01436,-0.02937 0.03662,-0.04944 0.06251,-0.0694 0.01249,-0.0096 0.0332,-0.01851 0.06211,-0.02665 l 0.0096,-0.0016 v 0 z"
         sodipodi:nodetypes="cccccccccccccccccccccccccccccccccccccccccccccccccccc"
         style="stroke:#ffffff;stroke-opacity:1;fill:#fefefe;fill-opacity:1" />
    </g>
    <path
       id="shape20"
       fill="#000000"
       stroke-opacity="0"
       stroke="#000000"
       stroke-width="0"
       stroke-linecap="square"
       stroke-linejoin="bevel"
       d="m 53.001163,110.36363 c -0.0011,0.001 -0.002,0.002 -0.0026,0.002 -0.0043,0.003 -0.01514,0.0132 -0.01265,0.008 0.0059,-0.0112 0.01649,-0.026 0.03162,-0.0444 v -1 c 0.535425,-0.47549 0.939895,-0.84896 1.213435,-1.12042 0.88176,-0.87508 1.65363,-1.61193 2.47707,-2.54209 0.45665,-0.51583 0.77779,-1.01636 1.17278,-1.58079 0.14173,-0.20252 0.23825,-0.39251 0.35907,-0.60816 0.01628,-0.0291 0.02453,-0.0572 0.0319,-0.0897 0.0035,-0.0153 0.0047,-0.0376 0.0036,-0.0671 v 1 c -0.0091,-0.0393 -0.01853,-0.0686 -0.02818,-0.0878 -0.03211,-0.0641 -0.05822,-0.12132 -0.10421,-0.1763 -0.10582,-0.12654 -0.1978,-0.23687 -0.32705,-0.33936 -0.21581,-0.17113 -0.40756,-0.31447 -0.6536,-0.43828 -0.24756,-0.12457 -0.47496,-0.20734 -0.74583,-0.26591 -0.27351,-0.0591 -0.51753,-0.0876 -0.79664,-0.0676 -0.30202,0.0217 -0.56087,0.0808 -0.84505,0.18539 -0.3082,0.11339 -0.56333,0.24446 -0.83295,0.43196 -0.29581,0.20571 -0.53804,0.40748 -0.77027,0.68296 -0.252947,0.30006 -0.447717,0.585 -0.602613,0.94559 -0.214545,0.49945 -0.361635,0.95111 -0.443006,1.48857 -0.05179,0.34207 -0.05407,0.83631 -0.0068,1.48271 v -1 c 0.102131,0.52061 0.205811,0.91279 0.311039,1.17653 0.0947,0.23735 0.253997,0.40115 0.401654,0.60972 0.02577,0.0364 0.06895,0.0833 0.129524,0.14058 v 1 c -0.06061,-0.0573 -0.103783,-0.1042 -0.129555,-0.14061 -0.147657,-0.20857 -0.306954,-0.37237 -0.401654,-0.60972 -0.105228,-0.26374 -0.208908,-0.65592 -0.311039,-1.17653 v -1 c -0.04723,-0.6464 -0.04495,-1.14064 0.0068,-1.48271 0.08137,-0.53746 0.22846,-0.98912 0.443005,-1.48857 0.154896,-0.36059 0.349666,-0.64553 0.602613,-0.94559 0.23223,-0.27548 0.47446,-0.47725 0.77027,-0.68296 0.26962,-0.1875 0.52475,-0.31856 0.83295,-0.43195 0.28418,-0.10455 0.54303,-0.16372 0.84505,-0.18539 0.27911,-0.02 0.52313,0.008 0.79664,0.0676 0.27087,0.0586 0.49827,0.14133 0.74583,0.26591 0.24604,0.1238 0.43779,0.26714 0.6536,0.43827 0.12925,0.1025 0.22123,0.21283 0.32705,0.33936 0.04599,0.055 0.0721,0.11222 0.10421,0.1763 0.0097,0.0192 0.01904,0.0485 0.02818,0.0878 v 1 c 10e-4,0.0294 -1.8e-4,0.0518 -0.0036,0.0671 -0.0074,0.0325 -0.01562,0.0606 -0.0319,0.0897 -0.12082,0.21565 -0.21734,0.40564 -0.35907,0.60816 -0.39499,0.56443 -0.71613,1.06496 -1.17278,1.58079 -0.82344,0.93016 -1.59531,1.66701 -2.47707,2.54209 -0.27354,0.27146 -0.67801,0.64493 -1.213435,1.12042 v -1 c -0.01514,0.0184 -0.02568,0.0332 -0.03162,0.0444 -0.0025,0.005 0.0083,-0.005 0.01265,-0.008 6.82e-4,-4.9e-4 0.0016,-0.001 0.0026,-0.002 v 0 z"
       sodipodi:nodetypes="cccccccccccccccccccccccccccccccccccccccccccccccccccccccccc"
       style="stroke:#ffffff;stroke-opacity:1;fill:#fefefe;fill-opacity:1" />
    <path
       id="shape21"
       fill="#000000"
       stroke-opacity="0"
       stroke="#000000"
       stroke-width="0"
       stroke-linecap="square"
       stroke-linejoin="bevel"
       d="m 55.671849,112.03099 c 0,-0.33334 0,-0.5 0,-0.5 4.16e-4,-0.002 9.58e-4,-0.004 0.0016,-0.004 0.02848,-0.0366 0.05076,-0.0698 0.08246,-0.10364 0.320812,-0.34229 0.600262,-0.63147 0.924388,-0.97062 0.62866,-0.65781 1.1822,-1.20783 1.79786,-1.87782 0.89718,-0.97637 1.63745,-1.83926 2.5239,-2.82538 0.08124,-0.0904 0.15192,-0.16723 0.24076,-0.25013 0.02617,-0.0244 0.05254,-0.0429 0.08621,-0.055 0.02789,-0.01 0.05539,-0.0123 0.08442,-0.006 0.04314,0.009 0.07926,0.024 0.11651,0.0474 0.08701,0.0548 0.16356,0.10196 0.23619,0.17476 0.16911,0.16953 0.31972,0.31416 0.45119,0.5143 0.27119,0.41279 0.49939,0.77478 0.6939,1.22877 0.25271,0.58982 0.42227,1.11737 0.57804,1.73986 0.05141,0.20545 0.07924,0.50672 0.08349,0.9038 v 1 c -0.05312,0.48496 -0.12392,0.84975 -0.21239,1.09436 -0.09868,0.27283 -0.24027,0.49144 -0.43798,0.70377 -0.31389,0.33712 -0.6206,0.59649 -1.00664,0.84777 -0.37811,0.24613 -0.73499,0.41066 -1.15984,0.56245 -0.30045,0.10735 -0.57643,0.15918 -0.89523,0.17178 -0.32395,0.0128 -0.60829,-0.014 -0.92088,-0.1 -0.33789,-0.0929 -0.61505,-0.22498 -0.91561,-0.40519 -0.35087,-0.21038 -0.62016,-0.44043 -0.93347,-0.7035 -0.08508,-0.0714 -0.19242,-0.18831 -0.32203,-0.35064 v -1 c 0.12961,0.16233 0.23695,0.27921 0.32203,0.35064 0.31331,0.26307 0.5826,0.49312 0.93347,0.7035 0.30056,0.18021 0.57772,0.31225 0.91561,0.40519 0.31259,0.086 0.59693,0.11279 0.92088,0.1 0.3188,-0.0126 0.59478,-0.0644 0.89523,-0.17178 0.42485,-0.15179 0.78173,-0.31632 1.15984,-0.56245 0.38604,-0.25128 0.69275,-0.51065 1.00664,-0.84777 0.19771,-0.21233 0.3393,-0.43094 0.43798,-0.70377 0.08847,-0.24461 0.15927,-0.6094 0.21239,-1.09436 v 1 c -0.0043,-0.39708 -0.03208,-0.69835 -0.08349,-0.9038 -0.15577,-0.62249 -0.32533,-1.15004 -0.57804,-1.73986 -0.19451,-0.45399 -0.42271,-0.81598 -0.6939,-1.22878 -0.13147,-0.20013 -0.28208,-0.34476 -0.45119,-0.51429 -0.07263,-0.0728 -0.14918,-0.11995 -0.23619,-0.17477 -0.03725,-0.0235 -0.07337,-0.0386 -0.11651,-0.0474 -0.02903,-0.006 -0.05653,-0.004 -0.08442,0.006 -0.03367,0.0121 -0.06004,0.0306 -0.08621,0.055 -0.08884,0.0829 -0.15952,0.15977 -0.24076,0.25014 -0.88645,0.98612 -1.62672,1.84901 -2.5239,2.82538 -0.61566,0.66999 -1.1692,1.22001 -1.79786,1.87782 -0.324126,0.33915 -0.603576,0.62833 -0.924388,0.97062 -0.0317,0.0338 -0.05399,0.0671 -0.08246,0.10364 -6.69e-4,8.6e-4 -0.0012,0.002 -0.0016,0.004 v 0 c 0,0 0,-0.16667 0,-0.5 z"
       sodipodi:nodetypes="ccccccccccccccccccccccccccccccccccccccccccccccccccccc"
       style="stroke:#ffffff;stroke-opacity:1;fill:#fefefe;fill-opacity:1" />
    <path
       id="shape22"
       fill="#000000"
       stroke-opacity="0"
       stroke="#000000"
       stroke-width="0"
       stroke-linecap="square"
       stroke-linejoin="bevel"
       d="m 42.254139,123.06545 c 0.0047,0.003 0.0084,0.005 0.01117,0.006 0.04413,0.0147 0.0805,0.0344 0.126636,0.0402 0.07686,0.01 0.145067,0.0175 0.221299,0.004 0.12243,-0.0221 0.22698,-0.0521 0.339572,-0.1051 0.09978,-0.0469 0.182871,-0.0988 0.260567,-0.177 0.151093,-0.1521 0.286243,-0.2856 0.386963,-0.4749 0.17199,-0.32321 0.30445,-0.61572 0.38361,-0.97319 0.17941,-0.8102 0.22124,-1.5252 0.35114,-2.34479 0.021,-0.13254 0.04227,-0.24618 0.07992,-0.37498 0.01292,-0.0442 0.03377,-0.0801 0.0634,-0.11534 0.02318,-0.0276 0.04794,-0.0562 0.08379,-0.0598 0.07857,-0.008 0.15295,-0.006 0.22381,0.0287 0.2167,0.10667 0.3732,0.24964 0.58342,0.36859 0.14923,0.0844 0.27558,0.16974 0.44188,0.21154 0.09221,0.0232 0.18105,0.002 0.26969,-0.0327 0.09132,-0.0354 0.16971,-0.0829 0.22902,-0.16091 0.11985,-0.15753 0.20202,-0.31084 0.27102,-0.49636 0.11983,-0.32216 0.16074,-0.61812 0.26528,-0.94556 0.07608,-0.23828 0.15222,-0.43929 0.25034,-0.66937 0.01535,-0.036 0.04171,-0.0607 0.07173,-0.0858 0.02522,-0.0211 0.05031,-0.0418 0.08314,-0.0438 0.0706,-0.004 0.13319,0.004 0.20037,0.0264 0.11771,0.0388 0.20538,0.10582 0.32259,0.14613 0.07074,0.0243 0.13685,0.0505 0.21045,0.0372 0.0833,-0.0151 0.15806,-0.0498 0.21336,-0.11391 0.1306,-0.15133 0.21985,-0.30237 0.30281,-0.48424 0.19486,-0.42715 0.30936,-0.81532 0.48809,-1.24947 0.0595,-0.14454 0.11287,-0.26844 0.19225,-0.40309 0.03353,-0.0569 0.07692,-0.0966 0.1274,-0.13914 0.01966,-0.0166 0.04294,-0.0259 0.06866,-0.0262 0.05334,-6.6e-4 0.09987,0.007 0.1506,0.0235 0.07996,0.026 0.1405,0.069 0.2198,0.097 0.04843,0.0171 0.09204,0.0314 0.14338,0.0311 0.02909,-1.7e-4 0.05582,-0.012 0.07653,-0.0324 0.06146,-0.0607 0.12073,-0.11358 0.15267,-0.19381 0.12138,-0.30488 0.19138,-0.57881 0.28063,-0.8946 0.05377,-0.19023 0.08261,-0.35771 0.12771,-0.55018 0.02638,-0.11261 0.06445,-0.27338 0.1142,-0.48233 v 1 c -0.04975,0.20895 -0.08782,0.36972 -0.1142,0.48233 -0.0451,0.19247 -0.07394,0.35995 -0.12771,0.55018 -0.08925,0.31579 -0.15925,0.58972 -0.28063,0.8946 -0.03194,0.0802 -0.09121,0.13315 -0.15267,0.19381 -0.02071,0.0204 -0.04744,0.0322 -0.07653,0.0324 -0.05134,3.2e-4 -0.09495,-0.014 -0.14338,-0.0311 -0.0793,-0.028 -0.13984,-0.0709 -0.2198,-0.097 -0.05073,-0.0165 -0.09726,-0.0242 -0.1506,-0.0235 -0.02572,3.1e-4 -0.049,0.01 -0.06866,0.0262 -0.05048,0.0426 -0.09387,0.0823 -0.1274,0.13914 -0.07938,0.13465 -0.13275,0.25855 -0.19225,0.40309 -0.17873,0.43415 -0.29323,0.82232 -0.48809,1.24947 -0.08296,0.18187 -0.17221,0.33291 -0.30281,0.48424 -0.0553,0.0641 -0.13006,0.0988 -0.21336,0.11391 -0.0736,0.0133 -0.13971,-0.0129 -0.21045,-0.0372 -0.11721,-0.0403 -0.20488,-0.1073 -0.32259,-0.14613 -0.06718,-0.0222 -0.12977,-0.0307 -0.20037,-0.0264 -0.03283,0.002 -0.05792,0.0227 -0.08314,0.0438 -0.03002,0.0251 -0.05638,0.0498 -0.07173,0.0858 -0.09812,0.23008 -0.17426,0.43109 -0.25034,0.66937 -0.10454,0.32744 -0.14545,0.6234 -0.26528,0.94556 -0.069,0.18552 -0.15117,0.33883 -0.27102,0.49636 -0.05931,0.078 -0.1377,0.12546 -0.22902,0.16091 -0.08864,0.0344 -0.17748,0.0559 -0.26969,0.0327 -0.1663,-0.0418 -0.29265,-0.12711 -0.44188,-0.21154 -0.21022,-0.11895 -0.36672,-0.26192 -0.58342,-0.36859 -0.07086,-0.0349 -0.14524,-0.0367 -0.22381,-0.0287 -0.03585,0.004 -0.06061,0.0322 -0.08379,0.0598 -0.02963,0.0353 -0.05048,0.0711 -0.0634,0.11534 -0.03765,0.1288 -0.05892,0.24244 -0.07992,0.37498 -0.1299,0.81959 -0.17173,1.53459 -0.35114,2.34479 -0.07916,0.35749 -0.21162,0.64999 -0.38361,0.97319 -0.10072,0.1893 -0.23587,0.3228 -0.386963,0.4749 -0.0777,0.0782 -0.160788,0.1301 -0.260567,0.177 -0.112592,0.053 -0.217142,0.083 -0.339572,0.1051 -0.07623,0.0138 -0.144444,0.006 -0.221299,-0.004 -0.04613,-0.006 -0.08251,-0.0255 -0.126636,-0.0402 -0.0028,-9e-4 -0.0065,-0.003 -0.01117,-0.006 v 0 z"
       sodipodi:nodetypes="cccccccccccccccccccccccccccccccccccccccccccccccccccccccccccccccccccccccccccccccc"
       style="stroke:#ffffff;stroke-opacity:1;fill:#fefefe;fill-opacity:1" />
    <path
       id="shape23"
       fill="#000000"
       stroke-opacity="0"
       stroke="#000000"
       stroke-width="0"
       stroke-linecap="square"
       stroke-linejoin="bevel"
       d="m 45.223029,127.48432 c 0.0022,3e-4 0.0039,3e-4 0.0051,2e-4 0.03296,-0.006 0.06336,-0.004 0.09399,-0.0171 0.116373,-0.0509 0.222443,-0.0878 0.323038,-0.1653 0.227523,-0.1754 0.429275,-0.3266 0.607484,-0.5519 0.40324,-0.5098 0.72577,-0.96917 1.04396,-1.53596 0.32911,-0.58625 0.50719,-1.14115 0.79895,-1.74685 0.13715,-0.28473 0.25151,-0.53266 0.42598,-0.79617 0.04651,-0.0702 0.11861,-0.1054 0.19477,-0.14139 0.05867,-0.0277 0.11689,-0.0378 0.18177,-0.0366 0.09918,0.002 0.18109,0.0352 0.27978,0.0453 0.06379,0.007 0.1213,0.0187 0.18321,0.002 0.07067,-0.0191 0.12872,-0.052 0.18316,-0.10093 0.0704,-0.0633 0.13072,-0.12549 0.16637,-0.21315 0.18529,-0.45566 0.29028,-0.86632 0.46028,-1.3279 0.03627,-0.0985 0.07057,-0.18342 0.12857,-0.27089 0.03848,-0.058 0.07968,-0.10918 0.14285,-0.13845 0.0542,-0.0251 0.11152,-0.016 0.17052,-0.007 0.09395,0.0148 0.16822,0.055 0.26126,0.0747 0.02891,0.006 0.05577,0.006 0.08441,-0.002 0.03221,-0.008 0.06283,-0.0171 0.08538,-0.0415 0.06835,-0.074 0.12602,-0.14189 0.16854,-0.23317 0.13451,-0.2887 0.20649,-0.55463 0.33439,-0.84632 0.11381,-0.25955 0.20977,-0.48447 0.35571,-0.72742 0.05053,-0.0841 0.11552,-0.14627 0.19956,-0.19696 0.14849,-0.0896 0.29931,-0.11991 0.45439,-0.1975 0.07867,-0.0394 0.15369,-0.0695 0.21156,-0.13572 0.12599,-0.14426 0.22954,-0.27849 0.30423,-0.45486 0.14718,-0.34759 0.32546,-0.85649 0.53485,-1.52671 v 1 c -0.20939,0.67022 -0.38767,1.17912 -0.53485,1.52671 -0.07469,0.17637 -0.17824,0.3106 -0.30423,0.45486 -0.05787,0.0663 -0.13289,0.0964 -0.21156,0.13572 -0.15508,0.0776 -0.3059,0.10794 -0.45439,0.1975 -0.08404,0.0507 -0.14903,0.11284 -0.19956,0.19696 -0.14594,0.24295 -0.2419,0.46787 -0.35571,0.72742 -0.1279,0.29169 -0.19988,0.55762 -0.33439,0.84632 -0.04252,0.0913 -0.10019,0.15922 -0.16854,0.23317 -0.02255,0.0244 -0.05317,0.0334 -0.08538,0.0415 -0.02864,0.007 -0.0555,0.008 -0.08441,0.002 -0.09304,-0.0197 -0.16731,-0.0599 -0.26126,-0.0747 -0.059,-0.009 -0.11632,-0.0184 -0.17052,0.007 -0.06317,0.0293 -0.10437,0.0804 -0.14285,0.13845 -0.058,0.0875 -0.0923,0.17241 -0.12857,0.27089 -0.17,0.46158 -0.27499,0.87224 -0.46028,1.3279 -0.03565,0.0877 -0.09597,0.14989 -0.16637,0.21315 -0.05444,0.0489 -0.11249,0.0818 -0.18316,0.10093 -0.06191,0.0167 -0.11942,0.005 -0.18321,-0.002 -0.09869,-0.0101 -0.1806,-0.0434 -0.27978,-0.0453 -0.06488,-0.001 -0.1231,0.009 -0.18177,0.0366 -0.07616,0.036 -0.14826,0.0712 -0.19477,0.14139 -0.17447,0.26351 -0.28883,0.51144 -0.42598,0.79617 -0.29176,0.6057 -0.46984,1.1606 -0.79895,1.74681 -0.31819,0.5668 -0.64072,1.0262 -1.04396,1.536 -0.178209,0.2253 -0.379961,0.3765 -0.607484,0.5519 -0.100595,0.0775 -0.206665,0.1144 -0.323038,0.1653 -0.03063,0.0134 -0.06103,0.0115 -0.09399,0.0171 -0.0012,1e-4 -0.0029,1e-4 -0.0051,-2e-4 v 0 z"
       sodipodi:nodetypes="cccccccccccccccccccccccccccccccccccccccccccccccccccccccccccc"
       style="stroke:#ffffff;stroke-opacity:1;fill:#fefefe;fill-opacity:1" />
    <path
       id="shape24"
       fill="#000000"
       stroke-opacity="0"
       stroke="#000000"
       stroke-width="0"
       stroke-linecap="square"
       stroke-linejoin="bevel"
       d="m 50.894759,127.92913 c 0.0017,0.002 0.0031,0.004 0.0043,0.005 0.03164,0.0278 0.05545,0.0562 0.09115,0.0785 0.02536,0.0159 0.0508,0.0249 0.08046,0.0289 0.02114,0.003 0.04189,0.001 0.0601,-0.01 0.05593,-0.0341 0.11371,-0.0596 0.146806,-0.11607 0.101791,-0.17385 0.174279,-0.33404 0.230077,-0.52761 0.170846,-0.59271 0.244117,-1.12018 0.415683,-1.71269 0.09751,-0.33679 0.19885,-0.62248 0.35182,-0.93797 0.05357,-0.11047 0.13512,-0.18729 0.23099,-0.26398 0.08556,-0.0684 0.1722,-0.1159 0.27826,-0.14339 0.27044,-0.0701 0.51432,-0.0725 0.78712,-0.13279 0.10898,-0.0241 0.20186,-0.0548 0.30018,-0.10762 0.10536,-0.0566 0.19781,-0.11112 0.27574,-0.20184 0.14698,-0.17108 0.26029,-0.33254 0.35798,-0.53583 0.2248,-0.46785 0.34667,-0.90001 0.55943,-1.37345 0.07495,-0.16678 0.14337,-0.3126 0.26113,-0.45247 0.05935,-0.0705 0.13875,-0.11149 0.22907,-0.12975 0.16882,-0.0341 0.32049,0.001 0.49185,-0.016 0.07968,-0.008 0.15868,-0.007 0.22171,-0.0566 0.08531,-0.0669 0.14403,-0.15138 0.17578,-0.25503 0.16106,-0.5258 0.22729,-0.99592 0.37007,-1.52698 0.11633,-0.43271 0.23618,-0.79796 0.36997,-1.22561 0.01343,-0.0429 0.03667,-0.10283 0.0697,-0.17972 v 1 c -0.03303,0.0769 -0.05627,0.1368 -0.0697,0.17972 -0.13379,0.42765 -0.25364,0.7929 -0.36997,1.22561 -0.14278,0.53106 -0.20901,1.00118 -0.37007,1.52698 -0.03175,0.10365 -0.09047,0.18814 -0.17578,0.25503 -0.06303,0.0494 -0.14203,0.0485 -0.22171,0.0566 -0.17136,0.0175 -0.32303,-0.0181 -0.49185,0.016 -0.09032,0.0183 -0.16972,0.0593 -0.22907,0.12975 -0.11776,0.13987 -0.18618,0.28569 -0.26113,0.45247 -0.21276,0.47344 -0.33463,0.9056 -0.55943,1.37345 -0.09769,0.20329 -0.211,0.36475 -0.35798,0.53583 -0.07793,0.0907 -0.17038,0.14523 -0.27574,0.20184 -0.09832,0.0528 -0.1912,0.0835 -0.30018,0.10762 -0.2728,0.0603 -0.51668,0.0627 -0.78712,0.13279 -0.10606,0.0275 -0.1927,0.0749 -0.27826,0.14339 -0.09587,0.0767 -0.17742,0.15351 -0.23099,0.26398 -0.15297,0.31549 -0.25431,0.60118 -0.35182,0.93797 -0.171566,0.59251 -0.244837,1.11998 -0.415683,1.71273 -0.0558,0.1935 -0.128286,0.3537 -0.230077,0.5276 -0.0331,0.0565 -0.09087,0.0819 -0.146807,0.116 -0.01821,0.0111 -0.03896,0.0129 -0.0601,0.0101 -0.02965,-0.004 -0.05509,-0.013 -0.08046,-0.0289 -0.0357,-0.0223 -0.05951,-0.0507 -0.09115,-0.0785 -0.0012,-0.001 -0.0026,-0.003 -0.0043,-0.005 v 0 z"
       sodipodi:nodetypes="cccccccccccccccccccccccccccccccccccccccccccccccccc"
       style="stroke:#ffffff;stroke-opacity:1;fill:#fefefe;fill-opacity:1" />
  </g>
</svg>
