<?xml version="1.0" encoding="UTF-8" standalone="no"?>
<!-- Created using Krita: https://krita.org -->

<svg
   width="137.07603pt"
   height="137.07603pt"
   viewBox="0 0 137.07603 137.07603"
   version="1.1"
   id="svg5"
   sodipodi:docname="Elamentalist.svg"
   inkscape:version="1.3.2 (091e20e, 2023-11-25, custom)"
   xmlns:inkscape="http://www.inkscape.org/namespaces/inkscape"
   xmlns:sodipodi="http://sodipodi.sourceforge.net/DTD/sodipodi-0.dtd"
   xmlns="http://www.w3.org/2000/svg"
   xmlns:svg="http://www.w3.org/2000/svg"
   xmlns:krita="http://krita.org/namespaces/svg/krita">
  <sodipodi:namedview
     id="namedview5"
     pagecolor="#ffffff"
     bordercolor="#000000"
     borderopacity="0.25"
     inkscape:showpageshadow="2"
     inkscape:pageopacity="0.0"
     inkscape:pagecheckerboard="0"
     inkscape:deskcolor="#d1d1d1"
     inkscape:document-units="pt"
     inkscape:zoom="1.078125"
     inkscape:cx="-4.6376812"
     inkscape:cy="187.36232"
     inkscape:window-width="1920"
     inkscape:window-height="1017"
     inkscape:window-x="-8"
     inkscape:window-y="1072"
     inkscape:window-maximized="1"
     inkscape:current-layer="svg5" />
  <defs
     id="defs5">
    <marker
       id="marker1"
       markerUnits="strokeWidth"
       refX="0"
       refY="0"
       markerWidth="3"
       markerHeight="3"
       orient="auto">
      <defs
         id="defs1" />
      <g
         id="lineMarker0"
         fill="none">
        <g
           id="DotS"
           fill="none">
          <path
             id="path4209"
             transform="matrix(0.2,0,0,0.2,-1.02,-1)"
             fill="#ffffff"
             fill-rule="evenodd"
             stroke="#000000"
             stroke-width="2.8"
             stroke-linecap="butt"
             stroke-linejoin="miter"
             stroke-miterlimit="2"
             d="M 10,5 C 10,7.76 7.76,10 5,10 2.24,10 0,7.76 0,5 0,2.24 2.24,0 5,0 c 2.76,0 5,2.24 5,5 z"
             sodipodi:nodetypes="ccccc" />
        </g>
      </g>
    </marker>
    <marker
       id="marker2"
       markerUnits="strokeWidth"
       refX="0"
       refY="0"
       markerWidth="3"
       markerHeight="3"
       orient="auto">
      <defs
         id="defs2" />
      <g
         id="lineMarker1"
         fill="none">
        <g
           id="DotS_51343df2"
           fill="none">
          <path
             id="path4209_307aa251"
             transform="matrix(0.2,0,0,0.2,-1.02,-1)"
             fill="#ffffff"
             fill-rule="evenodd"
             stroke="#000000"
             stroke-width="2.8"
             stroke-linecap="butt"
             stroke-linejoin="miter"
             stroke-miterlimit="2"
             d="M 10,5 C 10,7.76 7.76,10 5,10 2.24,10 0,7.76 0,5 0,2.24 2.24,0 5,0 c 2.76,0 5,2.24 5,5 z"
             sodipodi:nodetypes="ccccc" />
        </g>
      </g>
    </marker>
    <marker
       id="marker3"
       markerUnits="strokeWidth"
       refX="0"
       refY="0"
       markerWidth="3"
       markerHeight="3"
       orient="auto">
      <defs
         id="defs3" />
      <g
         id="lineMarker2"
         fill="none">
        <g
           id="DotS_23aa8d6c"
           fill="none">
          <path
             id="path4209_1e3a68c3"
             transform="matrix(0.2,0,0,0.2,-1.02,-1)"
             fill="#ffffff"
             fill-rule="evenodd"
             stroke="#000000"
             stroke-width="2.8"
             stroke-linecap="butt"
             stroke-linejoin="miter"
             stroke-miterlimit="2"
             d="M 10,5 C 10,7.76 7.76,10 5,10 2.24,10 0,7.76 0,5 0,2.24 2.24,0 5,0 c 2.76,0 5,2.24 5,5 z"
             sodipodi:nodetypes="ccccc" />
        </g>
      </g>
    </marker>
    <marker
       id="marker4"
       markerUnits="strokeWidth"
       refX="0"
       refY="0"
       markerWidth="3"
       markerHeight="3"
       orient="auto">
      <defs
         id="defs4" />
      <g
         id="lineMarker3"
         fill="none">
        <g
           id="DotS_71c9071a"
           fill="none">
          <path
             id="path4209_10122c37"
             transform="matrix(0.2,0,0,0.2,-1.02,-1)"
             fill="#ffffff"
             fill-rule="evenodd"
             stroke="#000000"
             stroke-width="2.8"
             stroke-linecap="butt"
             stroke-linejoin="miter"
             stroke-miterlimit="2"
             d="M 10,5 C 10,7.76 7.76,10 5,10 2.24,10 0,7.76 0,5 0,2.24 2.24,0 5,0 c 2.76,0 5,2.24 5,5 z"
             sodipodi:nodetypes="ccccc" />
        </g>
      </g>
    </marker>
  </defs>
  <path
     id="shape0"
     fill="none"
     stroke="#000000"
     stroke-width="1.44"
     stroke-linecap="round"
     stroke-linejoin="round"
     stroke-dasharray="5.76, 2.88, 1.44, 2.88"
     marker-end="url(#lineMarker0)"
     krita:marker-fill-method="auto"
     d="m 108.78645,40.968507 c 7.0558,-10.300849 10.18192,-17.910025 7.70598,-20.385959 -2.47591,-2.475906 -10.08507,0.65022 -20.385944,7.705993 -5.150078,3.527537 -7.377796,4.442201 -13.568333,9.725321 M 28.28943,96.105597 c -7.055413,10.300513 -10.181334,17.909473 -7.705428,20.385383 2.475935,2.47593 10.084906,-0.64998 20.385394,-7.70542 5.150283,-3.52775 7.314171,-4.37854 13.505032,-9.662046"
     sodipodi:nodetypes="cccccccc" />
  <path
     id="shape01"
     fill="none"
     stroke="#000000"
     stroke-width="1.44"
     stroke-linecap="round"
     stroke-linejoin="round"
     stroke-dasharray="5.76, 2.88, 1.44, 2.88"
     marker-end="url(#lineMarker1)"
     krita:marker-fill-method="auto"
     d="m 77.503044,20.584505 c -2.2946,-12.2729996 -5.4646,-19.86399965 -8.9661,-19.86399965 -3.50146,0 -6.67145,7.59100005 -8.96608,19.86399965 -1.14731,6.136 -2.075779,8.358 -2.71742,16.4711 m 2.71742,79.436705 c 2.29463,12.27249 5.46462,19.8632 8.96608,19.8632 3.5015,0 6.6715,-7.59071 8.9661,-19.8632 1.1473,-6.1363 2.0758,-8.268 2.7174,-16.3816"
     sodipodi:nodetypes="cccccccc" />
  <path
     id="shape02"
     fill="none"
     stroke="#000000"
     stroke-width="1.44"
     stroke-linecap="round"
     stroke-linejoin="round"
     stroke-dasharray="5.76, 2.88, 1.44, 2.88"
     marker-end="url(#lineMarker2)"
     krita:marker-fill-method="auto"
     d="m 20.584514,59.571155 c -12.2729999,2.2946 -19.86399995,5.4646 -19.86399995,8.9661 0,3.50146 7.59100005,6.67145 19.86399995,8.96608 6.136,1.14731 8.358,2.075779 16.4711,2.71742 m 79.436696,-2.71742 c 12.27249,-2.29463 19.8632,-5.46462 19.8632,-8.96608 0,-3.5015 -7.59071,-6.6715 -19.8632,-8.9661 -6.1363,-1.1473 -8.268,-2.0758 -16.3816,-2.7174"
     sodipodi:nodetypes="cccccccc" />
  <ellipse
     id="shape03"
     rx="48.513168"
     ry="48.304958"
     cx="68.717834"
     cy="68.71817"
     fill="none"
     stroke="#000000"
     stroke-width="1.44"
     stroke-linecap="square"
     stroke-linejoin="bevel" />
  <ellipse
     id="shape1"
     rx="41.939999"
     ry="41.759998"
     cx="68.38681"
     cy="68.558151"
     fill="none"
     stroke="#000000"
     stroke-width="2.88"
     stroke-linecap="square"
     stroke-linejoin="bevel" />
  <path
     id="shape2"
     fill="#ffffff"
     fill-rule="evenodd"
     stroke-opacity="0"
     stroke="#000000"
     stroke-width="0"
     stroke-linecap="square"
     stroke-linejoin="bevel"
     d="M 57.655674,68.699916 68.690846,32.289386 79.466709,68.405195 68.476501,104.68071 Z"
     sodipodi:nodetypes="ccccc" />
  <path
     id="shape04"
     fill="#ffffff"
     fill-rule="evenodd"
     stroke-opacity="0"
     stroke="#000000"
     stroke-width="0"
     stroke-linecap="square"
     stroke-linejoin="bevel"
     d="M 63.077762,59.176703 100.18243,50.765657 74.118248,77.989352 37.153172,86.372724 Z"
     sodipodi:nodetypes="ccccc" />
  <path
     id="shape05"
     fill="#ffffff"
     fill-rule="evenodd"
     stroke-opacity="0"
     stroke="#000000"
     stroke-width="0"
     stroke-linecap="square"
     stroke-linejoin="bevel"
     d="m 74.421287,59.331678 -36.820286,-9.579576 25.190722,28.03388 36.681644,9.547504 z"
     sodipodi:nodetypes="ccccc" />
  <path
     id="shape011"
     fill="none"
     stroke="#000000"
     stroke-width="1.44"
     stroke-linecap="round"
     stroke-linejoin="round"
     stroke-dasharray="5.76, 2.88, 1.44, 2.88"
     marker-end="url(#lineMarker3)"
     krita:marker-fill-method="auto"
     d="M 40.970956,28.288526 C 30.670107,21.232731 23.060931,18.106612 20.584997,20.582547 c -2.475907,2.475906 0.65022,10.085075 7.705993,20.385945 3.527536,5.150078 4.442201,7.377796 9.72532,13.568332 m 58.091735,54.248726 c 10.300505,7.05541 17.909475,10.18133 20.385375,7.70542 2.47594,-2.47593 -0.64997,-10.0849 -7.70541,-20.385389 -3.52775,-5.150283 -4.37855,-7.314171 -9.662047,-13.505032"
     sodipodi:nodetypes="cccccccc" />
</svg>
