<?xml version="1.0" encoding="UTF-8" standalone="no"?>
<!-- Created using Krita: https://krita.org -->

<svg
   width="150pt"
   height="150pt"
   viewBox="0 0 150 150"
   version="1.1"
   id="svg5"
   sodipodi:docname="Elamentalist.svg"
   inkscape:version="1.3.2 (091e20e, 2023-11-25, custom)"
   xmlns:inkscape="http://www.inkscape.org/namespaces/inkscape"
   xmlns:sodipodi="http://sodipodi.sourceforge.net/DTD/sodipodi-0.dtd"
   xmlns="http://www.w3.org/2000/svg"
   xmlns:svg="http://www.w3.org/2000/svg"
   xmlns:krita="http://krita.org/namespaces/svg/krita">
  <sodipodi:namedview
     id="namedview5"
     pagecolor="#b6b6b6"
     bordercolor="#000000"
     borderopacity="0.25"
     inkscape:showpageshadow="2"
     inkscape:pageopacity="0.0"
     inkscape:pagecheckerboard="0"
     inkscape:deskcolor="#d1d1d1"
     inkscape:document-units="pt"
     inkscape:zoom="1.524699"
     inkscape:cx="26.890554"
     inkscape:cy="111.49742"
     inkscape:window-width="1920"
     inkscape:window-height="1017"
     inkscape:window-x="-8"
     inkscape:window-y="32"
     inkscape:window-maximized="1"
     inkscape:current-layer="svg5" />
  <defs
     id="defs5">
    <marker
       id="marker1"
       markerUnits="strokeWidth"
       refX="0"
       refY="0"
       markerWidth="3"
       markerHeight="3"
       orient="auto">
      <defs
         id="defs1" />
      <g
         id="lineMarker0"
         fill="none">
        <g
           id="DotS"
           fill="none">
          <path
             id="path4209"
             transform="matrix(0.2,0,0,0.2,-1.02,-1)"
             fill="#000000"
             fill-rule="evenodd"
             stroke="#000000"
             stroke-width="2.8"
             stroke-linecap="butt"
             stroke-linejoin="miter"
             stroke-miterlimit="2"
             d="M 10,5 C 10,7.76 7.76,10 5,10 2.24,10 0,7.76 0,5 0,2.24 2.24,0 5,0 c 2.76,0 5,2.24 5,5 z"
             sodipodi:nodetypes="ccccc" />
        </g>
      </g>
    </marker>
    <marker
       id="marker2"
       markerUnits="strokeWidth"
       refX="0"
       refY="0"
       markerWidth="3"
       markerHeight="3"
       orient="auto">
      <defs
         id="defs2" />
      <g
         id="lineMarker1"
         fill="none">
        <g
           id="DotS_51343df2"
           fill="none">
          <path
             id="path4209_307aa251"
             transform="matrix(0.2,0,0,0.2,-1.02,-1)"
             fill="#000000"
             fill-rule="evenodd"
             stroke="#000000"
             stroke-width="2.8"
             stroke-linecap="butt"
             stroke-linejoin="miter"
             stroke-miterlimit="2"
             d="M 10,5 C 10,7.76 7.76,10 5,10 2.24,10 0,7.76 0,5 0,2.24 2.24,0 5,0 c 2.76,0 5,2.24 5,5 z"
             sodipodi:nodetypes="ccccc" />
        </g>
      </g>
    </marker>
    <marker
       id="marker3"
       markerUnits="strokeWidth"
       refX="0"
       refY="0"
       markerWidth="3"
       markerHeight="3"
       orient="auto">
      <defs
         id="defs3" />
      <g
         id="lineMarker2"
         fill="none">
        <g
           id="DotS_23aa8d6c"
           fill="none">
          <path
             id="path4209_1e3a68c3"
             transform="matrix(0.2,0,0,0.2,-1.02,-1)"
             fill="#000000"
             fill-rule="evenodd"
             stroke="#000000"
             stroke-width="2.8"
             stroke-linecap="butt"
             stroke-linejoin="miter"
             stroke-miterlimit="2"
             d="M 10,5 C 10,7.76 7.76,10 5,10 2.24,10 0,7.76 0,5 0,2.24 2.24,0 5,0 c 2.76,0 5,2.24 5,5 z"
             sodipodi:nodetypes="ccccc" />
        </g>
      </g>
    </marker>
    <marker
       id="marker4"
       markerUnits="strokeWidth"
       refX="0"
       refY="0"
       markerWidth="3"
       markerHeight="3"
       orient="auto">
      <defs
         id="defs4" />
      <g
         id="lineMarker3"
         fill="none">
        <g
           id="DotS_71c9071a"
           fill="none">
          <path
             id="path4209_10122c37"
             transform="matrix(0.2,0,0,0.2,-1.02,-1)"
             fill="#000000"
             fill-rule="evenodd"
             stroke="#000000"
             stroke-width="2.8"
             stroke-linecap="butt"
             stroke-linejoin="miter"
             stroke-miterlimit="2"
             d="M 10,5 C 10,7.76 7.76,10 5,10 2.24,10 0,7.76 0,5 0,2.24 2.24,0 5,0 c 2.76,0 5,2.24 5,5 z"
             sodipodi:nodetypes="ccccc" />
        </g>
      </g>
    </marker>
  </defs>
  <path
     id="shape0"
     fill="none"
     stroke="#000000"
     stroke-width="1.44"
     stroke-linecap="round"
     stroke-linejoin="round"
     stroke-dasharray="5.76, 2.88, 1.44, 2.88"
     marker-end="url(#lineMarker0)"
     krita:marker-fill-method="auto"
     d="m 115.18115,46.871311 c 7.0558,-10.300849 10.18192,-17.910025 7.70598,-20.385959 -2.47591,-2.475906 -10.08507,0.65022 -20.38594,7.705993 -5.150077,3.527537 -7.377795,4.442201 -13.568332,9.725321 M 34.684135,102.0084 c -7.055413,10.30051 -10.181334,17.90947 -7.705428,20.38538 2.475935,2.47593 10.084906,-0.64998 20.385394,-7.70542 5.150283,-3.52775 7.314171,-4.37854 13.505032,-9.66204"
     sodipodi:nodetypes="cccccccc"
     style="stroke:#ffffff;stroke-opacity:1" />
  <path
     id="shape01"
     fill="none"
     stroke="#000000"
     stroke-width="1.44"
     stroke-linecap="round"
     stroke-linejoin="round"
     stroke-dasharray="5.76, 2.88, 1.44, 2.88"
     marker-end="url(#lineMarker1)"
     krita:marker-fill-method="auto"
     d="m 83.897749,26.487309 c -2.2946,-12.272999 -5.4646,-19.8639992 -8.9661,-19.8639992 -3.50146,0 -6.67145,7.5910002 -8.96608,19.8639992 -1.14731,6.136 -2.075779,8.358 -2.71742,16.4711 m 2.71742,79.436701 c 2.29463,12.27249 5.46462,19.8632 8.96608,19.8632 3.5015,0 6.6715,-7.59071 8.9661,-19.8632 1.1473,-6.1363 2.0758,-8.268 2.7174,-16.3816"
     sodipodi:nodetypes="cccccccc"
     style="stroke:#ffffff;stroke-opacity:1" />
  <path
     id="shape02"
     fill="none"
     stroke="#000000"
     stroke-width="1.44"
     stroke-linecap="round"
     stroke-linejoin="round"
     stroke-dasharray="5.76, 2.88, 1.44, 2.88"
     marker-end="url(#lineMarker2)"
     krita:marker-fill-method="auto"
     d="m 26.979219,65.473959 c -12.273,2.2946 -19.8640001,5.4646 -19.8640001,8.9661 0,3.50146 7.5910001,6.67145 19.8640001,8.96608 6.136,1.14731 8.358,2.075779 16.4711,2.71742 m 79.436691,-2.71742 c 12.27249,-2.29463 19.8632,-5.46462 19.8632,-8.96608 0,-3.5015 -7.59071,-6.6715 -19.8632,-8.9661 -6.1363,-1.1473 -8.268,-2.0758 -16.3816,-2.7174"
     sodipodi:nodetypes="cccccccc"
     style="stroke:#ffffff;stroke-opacity:1" />
  <ellipse
     id="shape03"
     rx="48.513168"
     ry="48.304958"
     cx="75.112541"
     cy="74.620972"
     fill="none"
     stroke="#000000"
     stroke-width="1.44"
     stroke-linecap="square"
     stroke-linejoin="bevel"
     style="stroke:#ffffff;stroke-opacity:1" />
  <ellipse
     id="shape1"
     rx="41.939999"
     ry="41.759998"
     cx="74.781517"
     cy="74.460953"
     fill="none"
     stroke="#000000"
     stroke-width="2.88"
     stroke-linecap="square"
     stroke-linejoin="bevel"
     style="stroke:#ffffff;stroke-opacity:1" />
  <path
     id="shape2"
     fill="#000000"
     fill-rule="evenodd"
     stroke-opacity="0"
     stroke="#000000"
     stroke-width="0"
     stroke-linecap="square"
     stroke-linejoin="bevel"
     d="M 64.050379,74.60272 75.085551,38.19219 85.861414,74.307999 74.871206,110.58351 Z"
     sodipodi:nodetypes="ccccc"
     style="stroke:#ffffff;stroke-opacity:1;fill:#ffffff;fill-opacity:1" />
  <path
     id="shape04"
     fill="#000000"
     fill-rule="evenodd"
     stroke-opacity="0"
     stroke="#000000"
     stroke-width="0"
     stroke-linecap="square"
     stroke-linejoin="bevel"
     d="M 69.472467,65.079507 106.57713,56.668461 80.512953,83.892156 43.547877,92.275528 Z"
     sodipodi:nodetypes="ccccc"
     style="stroke:#ffffff;stroke-opacity:1;fill:#ffffff;fill-opacity:1" />
  <path
     id="shape05"
     fill="#000000"
     fill-rule="evenodd"
     stroke-opacity="0"
     stroke="#000000"
     stroke-width="0"
     stroke-linecap="square"
     stroke-linejoin="bevel"
     d="M 80.815992,65.234482 43.995706,55.654906 69.186428,83.688786 105.86807,93.23629 Z"
     sodipodi:nodetypes="ccccc"
     style="stroke:#ffffff;stroke-opacity:1;fill:#ffffff;fill-opacity:1" />
  <path
     id="shape011"
     fill="none"
     stroke="#000000"
     stroke-width="1.44"
     stroke-linecap="round"
     stroke-linejoin="round"
     stroke-dasharray="5.76, 2.88, 1.44, 2.88"
     marker-end="url(#lineMarker3)"
     krita:marker-fill-method="auto"
     d="M 47.365661,34.19133 C 37.064812,27.135535 29.455636,24.009416 26.979702,26.485351 c -2.475907,2.475906 0.65022,10.085075 7.705993,20.385945 3.527536,5.150078 4.442201,7.377796 9.72532,13.568332 m 58.091735,54.248722 c 10.3005,7.05541 17.90947,10.18133 20.38537,7.70542 2.47594,-2.47593 -0.64997,-10.0849 -7.70541,-20.38538 -3.52775,-5.150288 -4.37855,-7.314176 -9.66204,-13.505037"
     sodipodi:nodetypes="cccccccc"
     style="stroke:#ffffff;stroke-opacity:1" />
</svg>
