<?xml version="1.0" encoding="UTF-8" standalone="no"?>
<!-- Created using Krita: https://krita.org -->

<svg
   width="133.25771pt"
   height="125.64416pt"
   viewBox="0 0 133.25771 125.64416"
   version="1.1"
   id="svg2"
   sodipodi:docname="Exploration.svg"
   inkscape:version="1.3.2 (091e20e, 2023-11-25, custom)"
   xmlns:inkscape="http://www.inkscape.org/namespaces/inkscape"
   xmlns:sodipodi="http://sodipodi.sourceforge.net/DTD/sodipodi-0.dtd"
   xmlns="http://www.w3.org/2000/svg"
   xmlns:svg="http://www.w3.org/2000/svg"
   xmlns:krita="http://krita.org/namespaces/svg/krita">
  <sodipodi:namedview
     id="namedview2"
     pagecolor="#ffffff"
     bordercolor="#000000"
     borderopacity="0.25"
     inkscape:showpageshadow="2"
     inkscape:pageopacity="0.0"
     inkscape:pagecheckerboard="0"
     inkscape:deskcolor="#d1d1d1"
     inkscape:document-units="pt"
     inkscape:zoom="1.078125"
     inkscape:cx="-203.13043"
     inkscape:cy="181.7971"
     inkscape:window-width="1920"
     inkscape:window-height="1017"
     inkscape:window-x="-8"
     inkscape:window-y="1072"
     inkscape:window-maximized="1"
     inkscape:current-layer="svg2" />
  <defs
     id="defs2">
    <marker
       id="marker1"
       markerUnits="strokeWidth"
       refX="0"
       refY="0"
       markerWidth="3"
       markerHeight="3"
       orient="auto">
      <defs
         id="defs1" />
      <g
         id="lineMarker0"
         fill="none">
        <g
           id="DotM"
           fill="none">
          <path
             id="path4206"
             transform="matrix(0.4,0,0,0.4,-2.04,-2)"
             fill="#ffffff"
             fill-rule="evenodd"
             stroke="#000000"
             stroke-width="2.8"
             stroke-linecap="butt"
             stroke-linejoin="miter"
             stroke-miterlimit="2"
             d="M 10,5 C 10,7.76 7.76,10 5,10 2.24,10 0,7.76 0,5 0,2.24 2.24,0 5,0 c 2.76,0 5,2.24 5,5 z"
             sodipodi:nodetypes="ccccc" />
        </g>
      </g>
    </marker>
  </defs>
  <path
     id="shape0"
     fill="none"
     stroke="#000000"
     stroke-width="1.8"
     stroke-linecap="square"
     stroke-linejoin="miter"
     stroke-miterlimit="2.16"
     d="m 53.846331,26.697933 78.480499,8.1 c -2.05,54.7975 -42.930299,52.6896 -55.800499,89.819997 l -75.59995333,-14.04 C -0.47343863,74.878233 53.953331,63.828633 53.846331,26.697933 Z"
     sodipodi:nodetypes="ccccc" />
  <path
     id="shape1"
     fill="#ffffff"
     fill-rule="evenodd"
     stroke-opacity="0"
     stroke="#000000"
     stroke-width="0"
     stroke-linecap="square"
     stroke-linejoin="bevel"
     d="m 129.98633,51.582933 c -10.11,0.03 -16.695,1.035 -19.755,3.015 -4.58997,2.97 5.715,5.22 1.395,8.46 -4.31997,3.24 -18.359969,2.43 -11.60997,6.48 6.75,4.05 3.51,3.78 1.08,4.995 -2.429999,1.215 4.32,2.97 7.42497,5.13 2.07,1.44 3.015,2.565 2.835,3.375 6.3,-6.75 10.26,-11.43 11.88,-14.04 2.43,-3.915 2.43,-3.915 6.75,-17.415 z"
     sodipodi:nodetypes="czzzzzccc" />
  <path
     id="shape2"
     fill="#ffffff"
     fill-rule="evenodd"
     stroke-opacity="0"
     stroke="#000000"
     stroke-width="0"
     stroke-linecap="square"
     stroke-linejoin="bevel"
     d="m 60.866371,50.300423 c 4.1175,-0.81 -0.3375,-2.564996 11.0025,-2.969995 11.34,-0.405001 14.04,7.019995 7.6275,7.627495 -6.4125,0.6075 -22.950001,-0.2025 -22.342501,-1.89 0.6075,-1.6875 1.822501,-2.16 3.712501,-2.7675 z"
     sodipodi:nodetypes="czzcc" />
  <path
     id="shape3"
     fill="#ffffff"
     stroke-opacity="0"
     stroke="#000000"
     stroke-width="0"
     stroke-linecap="square"
     stroke-linejoin="bevel"
     d="m 96.177551,40.050353 c 0,-0.33334 0,-0.5 0,-0.5 0.0043,5.5e-4 0.0076,6.1e-4 0.0098,1.9e-4 0.02497,-0.0046 0.04786,-0.0046 0.07095,-0.01523 0.920433,-0.42204 1.730913,-0.74143 2.623213,-1.22009 1.235709,-0.66287 2.246249,-1.31778 3.449689,-2.03759 0.20698,-0.1238 0.3769,-0.24201 0.57972,-0.37251 0.27704,-0.17825 0.51271,-0.33384 0.79132,-0.50962 0.69106,-0.435991 1.28263,-0.810999 1.97913,-1.238259 0.0248,-0.01519 0.0504,-0.02198 0.0793,-0.02449 0.0275,-0.0024 0.0535,-0.0015 0.0782,0.01082 0.0514,0.02552 0.0969,0.05075 0.13409,0.09452 0.14998,0.176636 0.25492,0.346796 0.39642,0.530265 0.2882,0.373528 0.5138,0.712098 0.8313,1.061058 0.2677,0.2943 0.5219,0.52589 0.8354,0.77093 0.2881,0.22524 0.5458,0.41312 0.8772,0.56785 0.2701,0.12612 0.5255,0.18861 0.8214,0.22525 0.3837,0.04754 0.7199,0.0505 1.1048,0.01333 0.4276,-0.04131 0.7919,-0.11652 1.2044,-0.23637 0.3647,-0.10595 0.666,-0.23747 1.0064,-0.40591 0.4963,-0.24557 0.8966,-0.50363 1.3795,-0.77461 0.0797,-0.04476 0.1488,-0.08186 0.2281,-0.12748 0.2878,-0.16564 0.5307,-0.3141 0.8205,-0.47611 0.0847,-0.04734 0.1598,-0.08372 0.249,-0.12179 0.0192,-0.0082 0.038,-0.0082 0.0588,-0.0095 0.01,-5.8e-4 0.0185,9.9e-4 0.0278,0.0044 0.009,0.0033 0.0166,0.0075 0.0234,0.01426 0.009,0.0087 0.016,0.01724 0.0202,0.02882 0.0337,0.09245 0.0506,0.17593 0.0875,0.26713 0.0855,0.21121 0.1444,0.40079 0.2618,0.59606 0.1177,0.1956 0.2329,0.36102 0.4044,0.51165 0.2994,0.26288 0.577,0.47087 0.9283,0.65873 0.7009,0.37481 1.3207,0.66665 2.0661,0.94249 0.9101,0.33676 1.7073,0.58789 2.6533,0.80392 0.5433,0.12407 1.0283,0.11945 1.5838,0.1637 0.0684,0.0055 0.1664,7.5e-4 0.294,-0.01411 v 1 c -0.1276,0.01486 -0.2256,0.01956 -0.294,0.01411 -0.5555,-0.04425 -1.0405,-0.03963 -1.5838,-0.1637 -0.946,-0.21603 -1.7432,-0.46716 -2.6533,-0.80392 -0.7454,-0.27584 -1.3652,-0.56768 -2.0661,-0.94249 -0.3513,-0.18786 -0.6289,-0.39585 -0.9283,-0.65873 -0.1715,-0.15063 -0.2867,-0.31605 -0.4044,-0.51165 -0.1174,-0.19527 -0.1763,-0.38485 -0.2618,-0.59606 -0.0369,-0.0912 -0.0538,-0.17468 -0.0875,-0.26713 -0.004,-0.01158 -0.0114,-0.02016 -0.0202,-0.02882 -0.007,-0.0067 -0.0144,-0.01099 -0.0234,-0.01426 -0.009,-0.0034 -0.018,-0.0049 -0.0278,-0.0044 -0.0208,0.0012 -0.0396,0.0013 -0.0588,0.0095 -0.0892,0.03807 -0.1643,0.07445 -0.249,0.12179 -0.2898,0.16201 -0.5327,0.31047 -0.8205,0.47611 -0.0793,0.04562 -0.1484,0.08272 -0.2281,0.12748 -0.4829,0.27098 -0.8832,0.52904 -1.3795,0.77461 -0.3404,0.16844 -0.6417,0.29996 -1.0064,0.40591 -0.4125,0.11985 -0.7768,0.19506 -1.2044,0.23637 -0.3849,0.03717 -0.7211,0.03421 -1.1048,-0.01333 -0.2959,-0.03664 -0.5513,-0.09913 -0.8214,-0.22525 -0.3314,-0.15473 -0.5891,-0.34261 -0.8772,-0.56785 -0.3135,-0.24504 -0.5677,-0.47663 -0.8354,-0.77093 -0.3175,-0.34896 -0.5431,-0.68753 -0.8313,-1.06106 -0.1415,-0.18347 -0.24644,-0.35363 -0.39642,-0.53026 -0.0372,-0.04377 -0.0827,-0.069 -0.13409,-0.09452 -0.0248,-0.01229 -0.0507,-0.01321 -0.0782,-0.01082 -0.029,0.0025 -0.0546,0.0093 -0.0793,0.02449 -0.6965,0.42726 -1.28807,0.80227 -1.97913,1.23826 -0.27861,0.17578 -0.51428,0.33137 -0.79132,0.50962 -0.20282,0.1305 -0.37274,0.24871 -0.57972,0.37251 -1.20344,0.71981 -2.21398,1.37472 -3.449689,2.03759 -0.8923,0.47866 -1.70278,0.79805 -2.623213,1.22009 -0.02309,0.01058 -0.04598,0.01058 -0.07095,0.01523 -0.0023,4.2e-4 -0.0055,3.6e-4 -0.0098,-1.9e-4 v 0 c 0,0 0,-0.16667 0,-0.5 z"
     sodipodi:nodetypes="ccccccccccccccccccccccccccccccccccccccccccccccccccccccccccccccccccccccccc" />
  <path
     id="shape4"
     fill="#ffffff"
     stroke-opacity="0"
     stroke="#000000"
     stroke-width="0"
     stroke-linecap="square"
     stroke-linejoin="bevel"
     d="m 40.604061,70.012203 c 0,-0.3334 0,-0.5 0,-0.5 7.65e-4,-0.0015 0.0014,-0.0025 0.002,-0.0032 0.0055,-0.0068 0.0095,-0.0134 0.0161,-0.0191 0.203434,-0.1763 0.390757,-0.3132 0.583796,-0.50083 1.215921,-1.18193 2.299461,-2.15675 3.440581,-3.41105 1.13423,-1.24675 1.98891,-2.41711 3.05173,-3.72527 0.67436,-0.83004 1.2315,-1.55843 1.91158,-2.383801 0.13631,-0.165434 0.27051,-0.292122 0.41993,-0.445818 0.0083,-0.0086 0.01844,-0.013 0.02979,-0.01678 0.0079,-0.0026 0.01566,-0.0029 0.02379,-0.0011 0.0073,0.0016 0.01311,0.0054 0.01844,0.01064 0.0063,0.0062 0.01277,0.01224 0.01384,0.02097 0.0048,0.03907 0.008,0.09522 0.0095,0.168451 v 1 c -0.0085,0.0897 -0.01203,0.15874 -0.01062,0.20711 0.0067,0.23054 0.02178,0.55966 0.04528,0.98739 v -1 c 0.06828,0.32515 0.1409,0.56747 0.21784,0.72695 0.12867,0.2667 0.27331,0.48253 0.47171,0.70233 0.2307,0.25549 0.4565,0.45373 0.7435,0.64373 0.7369,0.48789 1.3903,0.87586 2.1727,1.28684 0.3758,0.19736 0.7187,0.33243 1.1275,0.44653 0.3293,0.09191 0.6254,0.12168 0.9669,0.13805 0.2228,0.01068 0.4157,-0.01692 0.6342,-0.06128 0.183,-0.03714 0.338,-0.08789 0.5057,-0.17008 0.2561,-0.12556 0.4521,-0.2762 0.6983,-0.42015 0.0228,-0.01332 0.0445,-0.02084 0.0697,-0.0288 0.0083,-0.0026 0.0164,-0.003 0.0249,-0.0011 0.0072,0.0016 0.0145,0.0042 0.0181,0.01062 0.0103,0.01818 0.0183,0.03549 0.0197,0.05633 0.0081,0.11689 -0.0072,0.21843 0.0074,0.33469 0.0298,0.23673 0.0418,0.44549 0.119,0.67123 0.09,0.263 0.1939,0.48366 0.3539,0.71097 0.2258,0.32078 0.4504,0.57705 0.7394,0.84231 0.2185,0.20053 0.4401,0.33439 0.6994,0.47829 0.2304,0.12787 0.4393,0.22297 0.6929,0.29441 0.2948,0.08306 0.5578,0.12071 0.8632,0.14396 0.3907,0.02974 0.7285,0.03197 1.1196,0.0069 0.371,-0.02373 0.6872,-0.07545 1.0523,-0.14589 0.631,-0.12175 1.1627,-0.26973 1.7914,-0.40278 0.1987,-0.04205 0.3692,-0.08727 0.572,-0.09738 0.116,-0.0058 0.2146,0.02569 0.3276,0.05256 0.1013,0.02411 0.1819,0.06665 0.2828,0.09266 0.298,0.07684 0.5515,0.1562 0.8559,0.20099 0.2765,0.04068 0.5191,0.06815 0.7974,0.04225 0.3763,-0.03502 0.6894,-0.13203 1.0581,-0.21493 0.0619,-0.01393 0.1485,-0.04105 0.2596,-0.08135 v 1 c -0.1111,0.0403 -0.1977,0.06742 -0.2596,0.08135 -0.3687,0.0829 -0.6818,0.17991 -1.0581,0.21493 -0.2783,0.0259 -0.5209,-0.0016 -0.7974,-0.04225 -0.3044,-0.04479 -0.5579,-0.12415 -0.8559,-0.20099 -0.1009,-0.02601 -0.1815,-0.06855 -0.2828,-0.09266 -0.113,-0.02687 -0.2116,-0.05834 -0.3276,-0.05256 -0.2028,0.01011 -0.3733,0.05533 -0.572,0.09738 -0.6287,0.13305 -1.1604,0.28103 -1.7914,0.40278 -0.3651,0.07044 -0.6813,0.12216 -1.0523,0.14589 -0.3911,0.02502 -0.7289,0.02279 -1.1196,-0.0069 -0.3054,-0.02325 -0.5684,-0.0609 -0.8632,-0.14396 -0.2536,-0.07144 -0.4625,-0.16654 -0.6929,-0.29441 -0.2593,-0.1439 -0.4809,-0.27776 -0.6994,-0.47829 -0.289,-0.26526 -0.5136,-0.52153 -0.7394,-0.84231 -0.16,-0.22731 -0.2639,-0.44797 -0.3539,-0.71097 -0.0772,-0.22574 -0.0892,-0.4345 -0.119,-0.67123 -0.0146,-0.11626 7e-4,-0.2178 -0.0074,-0.33469 -0.0014,-0.02084 -0.0094,-0.03815 -0.0197,-0.05633 -0.0036,-0.0064 -0.0109,-0.0091 -0.0181,-0.01062 -0.0085,-0.0019 -0.0166,-0.0015 -0.0249,0.0011 -0.0252,0.008 -0.0469,0.01548 -0.0697,0.0288 -0.2462,0.14395 -0.4422,0.29459 -0.6983,0.42015 -0.1677,0.08219 -0.3227,0.13294 -0.5057,0.17008 -0.2185,0.04436 -0.4114,0.07196 -0.6342,0.06128 -0.3415,-0.01637 -0.6376,-0.04614 -0.9669,-0.13805 -0.4088,-0.1141 -0.7517,-0.24917 -1.1275,-0.44653 -0.7824,-0.41098 -1.4358,-0.79895 -2.1727,-1.28684 -0.287,-0.19 -0.5128,-0.38824 -0.7435,-0.64373 -0.1984,-0.2198 -0.34304,-0.43563 -0.47171,-0.70233 -0.07694,-0.15948 -0.14956,-0.4018 -0.21784,-0.72695 v -1 c -0.0235,-0.427725 -0.03859,-0.756854 -0.04528,-0.98739 -0.0014,-0.04837 0.0021,-0.117405 0.01062,-0.20711 v 1 c -0.0015,-0.07323 -0.0046,-0.12938 -0.0095,-0.16845 -0.0011,-0.0087 -0.0076,-0.01482 -0.01384,-0.02097 -0.0053,-0.0052 -0.01118,-0.009 -0.01844,-0.01065 -0.0081,-0.0018 -0.01588,-0.0016 -0.02379,0.0011 -0.01135,0.0038 -0.02145,0.0082 -0.02979,0.01678 -0.14942,0.1537 -0.28362,0.28039 -0.41993,0.44582 -0.68008,0.82537 -1.23722,1.55376 -1.91158,2.3838 -1.06282,1.30816 -1.9175,2.47852 -3.05173,3.72527 -1.14112,1.2543 -2.22466,2.22912 -3.440581,3.41108 -0.193039,0.1876 -0.380362,0.3245 -0.583796,0.5008 -0.0066,0.0057 -0.01059,0.0123 -0.0161,0.0191 -5.46e-4,7e-4 -0.0012,0.0017 -0.002,0.0032 v 0 c 0,0 0,-0.1667 0,-0.5 z"
     sodipodi:nodetypes="ccccccccccccccccccccccccccccccccccccccccccccccccccccccccccccccccccccccccccccccccccccccccccccccccc" />
  <path
     id="shape5"
     fill="#ffffff"
     stroke-opacity="0"
     stroke="#000000"
     stroke-width="0"
     stroke-linecap="square"
     stroke-linejoin="bevel"
     d="m 7.3060014,98.816433 0,1 0,-1 c 0.014749,0.0097 0.026654,0.01485 0.035714,0.01546 0.023089,0.0016 0.045291,0.0025 0.065552,-0.0086 0.158058,-0.08723 0.300772,-0.15448 0.439445,-0.27007 0.537049,-0.44764 0.980069,-0.85239 1.486039,-1.33489 0.47489,-0.45287 0.8486796,-0.87472 1.3150796,-1.336331 0.19753,-0.195499 0.37024,-0.360127 0.58146,-0.540741 0.01786,-0.01527 0.04366,-0.02038 0.06589,-0.0128 0.02324,0.0079 0.04128,0.0278 0.04761,0.05153 0.04042,0.151414 0.06249,0.284601 0.08358,0.439893 0.11007,0.810802 0.12844,1.517722 0.29106,2.319642 0.10031,0.49461 0.25998,0.90294 0.45669,1.36771 0.12011,0.28377 0.25786,0.514677 0.44398,0.760267 0.15817,0.20872 0.32707,0.36293 0.53137,0.52677 0.12622,0.10123 0.24919,0.17843 0.40449,0.2238 0.26135,0.0763 0.4966,0.1262 0.76877,0.11894 0.38764,-0.0103 0.71533,-0.0899 1.09502,-0.16867 0.25587,-0.0531 0.46408,-0.14266 0.71725,-0.20742 0.21008,-0.0537 0.38909,-0.11837 0.60557,-0.13094 0.14605,-0.008 0.27965,0.009 0.41176,0.0719 0.31077,0.14785 0.55137,0.32452 0.83407,0.52077 0.1644,0.11411 0.2772,0.24892 0.4408,0.36418 0.4089,0.28812 0.7434,0.5677 1.193,0.78696 0.3365,0.1641 0.6651,0.20387 1.0279,0.29611 0.1711,0.0435 0.3255,0.046 0.4961,0.0913 0.4809,0.12755 0.8948,0.23492 1.3635,0.40194 0.3232,0.11521 0.5744,0.27744 0.894,0.40261 0.9653,0.37815 1.7916,0.70804 2.7755,1.03484 0.3838,0.12747 0.9423,0.27531 1.6754,0.44352 v 0.99998 c -0.7331,-0.1682 -1.2916,-0.316 -1.6754,-0.4435 -0.9839,-0.3268 -1.8102,-0.65669 -2.7755,-1.03484 -0.3196,-0.12517 -0.5708,-0.2874 -0.894,-0.40261 -0.4687,-0.16702 -0.8826,-0.27439 -1.3635,-0.40194 -0.1706,-0.0453 -0.325,-0.0478 -0.4961,-0.0913 -0.3628,-0.0922 -0.6914,-0.13201 -1.0279,-0.29611 -0.4496,-0.21926 -0.7841,-0.49884 -1.193,-0.78696 -0.1636,-0.11526 -0.2764,-0.25007 -0.4408,-0.36418 -0.2827,-0.19625 -0.5233,-0.37292 -0.83407,-0.52077 -0.13211,-0.0628 -0.26571,-0.0804 -0.41176,-0.0719 -0.21648,0.0126 -0.39549,0.0772 -0.60557,0.13094 -0.25317,0.0648 -0.46138,0.15432 -0.71725,0.20742 -0.37969,0.0788 -0.70738,0.15833 -1.09502,0.16867 -0.27217,0.007 -0.50742,-0.0426 -0.76877,-0.11894 -0.1553,-0.0454 -0.27827,-0.12257 -0.40449,-0.2238 -0.2043,-0.16384 -0.3732,-0.31805 -0.53137,-0.52677 -0.18612,-0.24559 -0.32387,-0.4765 -0.44398,-0.76027 -0.19671,-0.46477 -0.35638,-0.873097 -0.45669,-1.367707 -0.16262,-0.80192 -0.18099,-1.50884 -0.29106,-2.31964 -0.02109,-0.15529 -0.04316,-0.28848 -0.08358,-0.4399 -0.0063,-0.02372 -0.02437,-0.04359 -0.04761,-0.05152 -0.02223,-0.0076 -0.04803,-0.0025 -0.06589,0.0128 -0.21122,0.18061 -0.38393,0.34524 -0.58146,0.54074 -0.4664,0.46161 -0.8401896,0.88346 -1.3150796,1.33633 -0.50597,0.4825 -0.94899,0.88725 -1.486039,1.33489 -0.138673,0.11559 -0.281388,0.18284 -0.439445,0.27007 -0.020261,0.01118 -0.042464,0.01019 -0.065552,0.0086 -0.00906,-6.1e-4 -0.020965,-0.0058 -0.035714,-0.01546 l 0,-1 0,1 v 0 z"
     sodipodi:nodetypes="cccccccccccccccccccccccccccccccccccccccccccccccccccccccccccccccc" />
  <path
     id="shape6"
     fill="#ffffff"
     stroke-opacity="0"
     stroke="#000000"
     stroke-width="0"
     stroke-linecap="square"
     stroke-linejoin="bevel"
     d="m 79.814671,88.407673 c 0,-0.33333 0,-0.5 0,-0.5 0.01262,-0.0072 0.02229,-0.01277 0.02903,-0.01674 0.0654,-0.03857 0.124659,-0.0667 0.186698,-0.11047 0.492331,-0.34735 0.955582,-0.596 1.396572,-1.00658 1.20714,-1.12389 2.12947,-2.20203 3.29892,-3.36509 0.4294,-0.427048 0.80726,-0.784313 1.26823,-1.177086 0.05762,-0.0491 0.12823,-0.06129 0.20248,-0.07606 0.02814,-0.0056 0.05967,-7.69e-4 0.0795,0.01996 0.05607,0.05861 0.10101,0.117409 0.1258,0.194643 0.10978,0.34193 0.14245,0.652889 0.2557,0.993687 0.13085,0.39377 0.24002,0.73735 0.44031,1.10075 0.19241,0.34913 0.40559,0.62319 0.67284,0.91897 0.17602,0.1948 0.35913,0.33506 0.58348,0.47143 0.20758,0.12618 0.4036,0.21056 0.63876,0.27149 0.23658,0.0613 0.45036,0.088 0.69435,0.07394 0.39543,-0.0228 0.72593,-0.11858 1.11743,-0.17839 0.2342,-0.03577 0.4333,-0.09524 0.6702,-0.09469 0.1779,4.2e-4 0.3377,0.02204 0.4987,0.09742 0.5626,0.26327 0.9882,0.59983 1.5514,0.86192 0.3874,0.18032 0.7343,0.31967 1.1545,0.39741 0.6049,0.1119 1.138,0.10184 1.752,0.14029 0.1827,0.01144 0.4442,0.01763 0.7845,0.01856 v 1 c -0.3403,-9.3e-4 -0.6018,-0.0071 -0.7845,-0.01856 -0.614,-0.03845 -1.1471,-0.02839 -1.752,-0.14029 -0.4202,-0.07774 -0.7671,-0.21709 -1.1545,-0.39741 -0.5632,-0.26209 -0.9888,-0.59865 -1.5514,-0.86192 -0.161,-0.07538 -0.3208,-0.097 -0.4987,-0.09742 -0.2369,-5.5e-4 -0.436,0.05892 -0.6702,0.09469 -0.3915,0.05981 -0.722,0.15559 -1.11743,0.17839 -0.24399,0.01406 -0.45777,-0.01264 -0.69435,-0.07394 -0.23516,-0.06093 -0.43118,-0.14531 -0.63876,-0.27149 -0.22435,-0.13637 -0.40746,-0.27663 -0.58348,-0.47143 -0.26725,-0.29578 -0.48043,-0.56984 -0.67284,-0.91897 -0.20029,-0.3634 -0.30946,-0.70698 -0.44031,-1.10075 -0.11325,-0.3408 -0.14592,-0.65176 -0.2557,-0.99369 -0.02479,-0.07723 -0.06973,-0.13603 -0.1258,-0.19464 -0.01983,-0.02073 -0.05136,-0.02556 -0.0795,-0.01996 -0.07425,0.01477 -0.14486,0.02696 -0.20248,0.07605 -0.46097,0.39278 -0.83883,0.75004 -1.26823,1.17709 -1.16945,1.16306 -2.09178,2.2412 -3.29892,3.36509 -0.44099,0.41058 -0.904241,0.65923 -1.396572,1.00658 -0.06204,0.04377 -0.121296,0.0719 -0.186698,0.11047 -0.0067,0.004 -0.01641,0.0095 -0.02903,0.01674 v 0 c 0,0 0,-0.16667 0,-0.5 z"
     sodipodi:nodetypes="ccccccccccccccccccccccccccccccccccccccccccccccc" />
  <path
     id="shape7"
     fill="none"
     stroke="#000000"
     stroke-width="1.84776"
     stroke-linecap="round"
     stroke-linejoin="miter"
     stroke-miterlimit="2.16"
     stroke-dasharray="7.39106, 3.69553"
     marker-start="url(#lineMarker0)"
     krita:marker-fill-method="auto"
     d="m 70.316371,41.592918 c 15.7776,-2.178265 31.698799,9.262365 19.196,15.031885 -12.5028,5.7696 -11.1708,9.5143 -2.4588,13.0304 17.038599,6.8766 -27.5327,12.1467 -35.3104,10.1612 -16.45598,-4.2009 -49.3475996,15.8014 13.7132,20.771497"
     sodipodi:nodetypes="czzzc" />
  <path
     id="shape8"
     fill="none"
     stroke="#000000"
     stroke-width="2.77325"
     stroke-linecap="square"
     stroke-linejoin="miter"
     stroke-miterlimit="2"
     d="m 63.026331,91.272913 9.58502,20.790007"
     sodipodi:nodetypes="cc" />
  <path
     id="shape9"
     fill="none"
     stroke="#000000"
     stroke-width="2.68136"
     stroke-linecap="square"
     stroke-linejoin="miter"
     stroke-miterlimit="2"
     d="M 57.221351,107.87792 77.471332,93.702913"
     sodipodi:nodetypes="cc" />
  <path
     id="shape10"
     fill="#ffffff"
     fill-rule="evenodd"
     stroke-opacity="0"
     stroke="#000000"
     stroke-width="0"
     stroke-linecap="square"
     stroke-linejoin="bevel"
     d="M 18.514839,47.840653 29.275741,38.230094 23.71652,51.405495 12.996481,60.981064 18.514839,47.840653 m 0.735548,0.299113 8.524653,-7.899477 -4.47947,10.627537 1.013727,-5.600585 -5.05891,2.872525 m -4.916175,-2.551692 -0.841199,-0.538485 -0.97561,0.214094 -0.538499,0.841231 0.214094,0.975575 0.841198,0.538485 0.975616,-0.214085 0.538493,-0.841241 -0.214093,-0.975574 m -2.504851,14.07394 -0.790456,-0.505995 -0.916735,0.201119 -0.5059414,0.79048 0.2011626,0.916729 0.7904068,0.505906 0.916727,-0.201112 0.50595,-0.790486 -0.201114,-0.916641 m 17.983633,-8.077827 -0.870228,-0.55705 -1.009235,0.221464 -0.557051,0.870228 0.221465,1.009236 0.870228,0.55705 1.009235,-0.221464 0.557051,-0.870229 -0.221465,-1.009235 m 3.16071,-14.35274 -0.826692,-0.529216 -0.958798,0.210409 -0.529141,0.826677 0.210335,0.958813 0.826774,0.529158 0.958721,-0.210343 0.529217,-0.826742 -0.210416,-0.958756 M 3.3209692,60.872725 3.4261619,60.799406 3.3517054,60.683625 3.1727788,60.353991 3.0182589,60.011781 2.8878881,59.65747 2.7813995,59.29151 l -0.082863,-0.377136 -0.0595,-0.38785 -0.036399,-0.3981 -0.013551,-0.407882 0.00902,-0.417202 0.031338,-0.426054 0.053396,-0.434455 0.075203,-0.442378 0.096734,-0.449839 0.1180076,-0.456829 0.1390219,-0.463371 0.1597713,-0.469434 0.1802669,-0.47504 0.2004917,-0.480178 0.2204684,-0.48485 0.2401689,-0.489061 0.2596209,-0.492806 0.2788025,-0.496084 0.2977382,-0.498908 0.3163871,-0.501253 0.334804,-0.503143 0.3529365,-0.504568 0.3708125,-0.50552 0.3884672,-0.506038 0.4057423,-0.506 0.4229381,-0.505636 0.4396911,-0.504686 0.4563359,-0.503365 0.4726187,-0.501514 0.4887067,-0.499243 0.5044339,-0.496441 0.5199661,-0.493219 0.535303,-0.489578 0.55028,-0.485403 0.564979,-0.480753 0.579565,-0.475741 0.593708,-0.470138 0.607658,-0.464117 0.62141,-0.457677 0.634885,-0.45076 0.642542,-0.439599 0.644449,-0.424621 0.645815,-0.409546 0.646554,-0.394319 0.646834,-0.379053 0.646653,-0.363748 0.645847,-0.34829 0.644498,-0.332737 0.64277,-0.317203 0.640337,-0.301457 0.637522,-0.285733 0.634086,-0.269853 0.630105,-0.253878 0.625747,-0.237919 0.620678,-0.221759 0.615232,-0.205613 0.609166,-0.189307 0.602636,-0.172968 0.595482,-0.156476 0.587944,-0.140007 0.579789,-0.123377 0.571086,-0.106657 0.561924,-0.0899 0.552219,-0.07304 0.541973,-0.05609 0.53118,-0.03905 0.519851,-0.0219 0.508137,-0.0048 0.495719,0.01256 0.482841,0.02994 0.469415,0.0474 0.455536,0.06491 0.441027,0.08257 0.426145,0.100217 0.410547,0.118062 0.394578,0.135897 0.377977,0.153878 0.360842,0.171965 0.343324,0.190027 0.32518,0.208242 0.306496,0.226555 0.287265,0.244958 0.267578,0.263408 0.247345,0.281947 0.08284,0.109937 0.0073,-0.0051 9.00515,12.919971 -0.236818,0.646053 -0.25335,0.642095 -0.269466,0.638212 -0.285423,0.633854 -0.300857,0.629375 -0.316126,0.624781 -0.3311,0.619737 -0.34577,0.614603 -0.359973,0.609266 -0.374044,0.603593 -0.387812,0.597831 -0.40117,0.591782 -0.414199,0.585505 -0.427097,0.578893 -0.439577,0.572354 -0.451737,0.565227 -0.4637,0.558207 -0.475145,0.550704 -0.486509,0.543144 -0.497463,0.535298 -0.508089,0.527224 -0.518386,0.518921 -0.528494,0.510363 -0.5383,0.501718 -0.54767,0.492646 -0.556818,0.483542 -0.565614,0.47407 -0.574164,0.464427 -0.582329,0.454637 -0.590279,0.444455 -0.597869,0.434264 -0.605163,0.423624 -0.612155,0.412894 -0.618817,0.401936 -0.625291,0.390724 -0.631215,0.379251 -0.637115,0.367638 -0.642522,0.355683 -0.647709,0.343696 -0.652599,0.331258 -0.657046,0.318756 -0.661306,0.305999 -0.665293,0.292933 -0.668896,0.27972 -0.672252,0.266335 -0.675198,0.252664 -0.677931,0.238723 -0.680377,0.224581 -0.682494,0.21021 -0.684242,0.195705 -0.685736,0.180901 -0.686927,0.165883 -0.687854,0.150562 -0.688364,0.135193 -0.688676,0.119443 -0.688619,0.103557 -0.688243,0.08745 -0.687685,0.07097 -0.686636,0.05451 -0.685447,0.0376 -0.683831,0.02062 -0.681973,0.0034 -0.67985,-0.01421 L 3.3209692,60.872725 M 37.331714,37.896463 37.167086,37.674782 36.989901,37.464291 36.800562,37.264867 36.599255,37.07643 36.386226,36.89898 36.161782,36.732435 35.926068,36.576829 35.6794,36.432088 35.422075,36.298116 35.154249,36.17496 l -0.277947,-0.112493 -0.287993,-0.101725 -0.297661,-0.09111 -0.307089,-0.0805 -0.316303,-0.06994 -0.325282,-0.05939 -0.333955,-0.04892 -0.342317,-0.03853 -0.350622,-0.02806 -0.35853,-0.01772 -0.366206,-0.0074 -0.37359,0.0028 -0.380812,0.01309 -0.387819,0.02333 -0.394433,0.03342 -0.400892,0.04357 -0.407054,0.05362 -0.412906,0.06358 -0.418689,0.07365 -0.424088,0.08357 -0.429253,0.09347 -0.434192,0.103346 -0.438833,0.113127 -0.44323,0.122907 -0.447417,0.132639 -0.451366,0.142364 -0.455011,0.152 -0.458424,0.161618 -0.461621,0.171196 -0.464498,0.180711 -0.467153,0.190192 -0.469576,0.199657 -0.471701,0.209025 -0.47367,0.218442 -0.475259,0.227705 -0.476692,0.237016 -0.477821,0.246239 -0.47873,0.255428 -0.479399,0.264611 -0.479766,0.273704 -0.479906,0.282772 -0.479824,0.291808 -0.479421,0.30078 -0.478886,0.309768 -0.477954,0.318626 -0.476876,0.327517 -0.472314,0.334063 -0.464344,0.338151 -0.456357,0.342091 -0.44811,0.345705 -0.439832,0.349186 -0.431382,0.352391 -0.422825,0.355398 -0.414168,0.3582 -0.405321,0.36075 -0.396385,0.363079 -0.387341,0.36521 -0.378109,0.367088 -0.368787,0.368746 -0.359435,0.370272 -0.3497462,0.371406 -0.3401912,0.372523 -0.3302947,0.373256 -0.3202914,0.373792 -0.3102802,0.374164 -0.3000745,0.374292 -0.2897733,0.374206 -0.2792831,0.373866 -0.2687606,0.373347 -0.2580214,0.372577 -0.2471982,0.371579 -0.2362458,0.370382 -0.2251595,0.368957 -0.2139614,0.367307 -0.2026235,0.365438 -0.1911738,0.363345 -0.17959,0.361025 -0.1678691,0.358499 -0.156042,0.355741 -0.1440808,0.352756 -0.1319908,0.349569 -0.1197837,0.346133 -0.1074339,0.342498 -0.094972,0.338639 -0.082382,0.334545 -0.069669,0.330242 -0.056821,0.325712 -0.043848,0.320961 -0.030763,0.315985 -0.017533,0.310798 -0.00419,0.305374 0.00929,0.299748 0.022882,0.29388 0.036608,0.287812 0.050456,0.281499 0.064441,0.274982 0.078538,0.268241 0.092769,0.261271 0.1071259,0.254081 0.1215831,0.246649 0.1362145,0.239047 0.1509519,0.231213 0.1646853,0.221642 0.1771354,0.210525 0.189348,0.199454 0.2013065,0.188437 0.2130273,0.177464 0.2244451,0.166459 0.2357232,0.155673 0.2466492,0.144766 0.2573293,0.133909 0.2678126,0.123189 0.278001,0.112431 0.2879354,0.101728 0.2976892,0.09115 0.3070828,0.08046 0.3163368,0.06999 0.3252386,0.05939 0.3339519,0.04893 0.3423538,0.03844 0.3505752,0.02808 0.358543,0.01778 0.366215,0.0074 0.373642,-0.0029 0.380814,-0.01311 0.38775,-0.0233 0.39443,-0.03345 0.400873,-0.04354 0.407071,-0.05359 0.412957,-0.06367 0.418662,-0.07362 0.424057,-0.08359 0.42927,-0.09344 0.434173,-0.103321 0.438838,-0.113154 0.443282,-0.122956 0.447463,-0.132573 0.451366,-0.142364 0.454965,-0.152065 0.458458,-0.161569 0.461533,-0.171148 0.46447,-0.180751 0.467241,-0.190241 0.469488,-0.199608 0.471817,-0.209033 0.473565,-0.218418 0.475288,-0.227664 0.476674,-0.237041 0.477816,-0.246246 0.478735,-0.255421 0.479377,-0.264643 0.479772,-0.273696 0.479945,-0.282715 0.479784,-0.291866 0.479433,-0.300763 0.478886,-0.309768 0.477954,-0.318626 0.476882,-0.327508 0.472308,-0.334072 0.464344,-0.338151 0.456357,-0.342091 0.448098,-0.345721 0.439872,-0.349129 0.431342,-0.352448 0.42282,-0.355406 0.41419,-0.358168 0.405316,-0.360758 0.39639,-0.36307 0.387359,-0.365186 0.37808,-0.36713 0.368892,-0.36877 0.359319,-0.370264 0.349834,-0.371455 0.340103,-0.372474 0.330323,-0.373214 0.320379,-0.373841 0.310246,-0.374214 0.300121,-0.374226 0.289773,-0.374206 0.279237,-0.373932 0.268709,-0.373298 0.258017,-0.37255 0.247217,-0.371604 0.236228,-0.370407 0.225191,-0.368929 0.213988,-0.367338 0.202573,-0.365354 0.191157,-0.36337 0.179609,-0.36105 0.167872,-0.358477 0.156111,-0.355765 0.144078,-0.352741 0.131939,-0.349522 0.119775,-0.346163 0.107422,-0.34255 0.09502,-0.33866 0.08235,-0.334457 0.06967,-0.330257 0.05687,-0.325719 0.04381,-0.32101 0.03077,-0.315941 0.0175,-0.310839 0.0042,-0.305377 -0.0093,-0.299686 -0.02287,-0.293914 -0.03661,-0.287747 -0.05044,-0.281525 -0.06445,-0.275049 -0.07854,-0.268155 -0.09277,-0.261285 -0.107126,-0.25408 -0.121592,-0.24668 -0.136165,-0.239081 -0.151009,-0.231174"
     sodipodi:nodetypes="ccccccccccccccccccccccccccccccccccccccccccccccccccccccccccccccccccccccccccccccccccccccccccccccccccccccccccccccccccccccccccccccccccccccccccccccccccccccccccccccccccccccccccccccccccccccccccccccccccccccccccccccccccccccccccccccccccccccccccccccccccccccccccccccccccccccccccccccccccccccccccccccccccccccccccccccccccccccccccccccccccccccccccccccccccccccccccccccccccccccccccccccccccccccccccccccccccccccccccccccccccccccccccccccccccccccccccccc" />
  <path
     id="shape11"
     fill="none"
     stroke="#000000"
     stroke-width="2.16"
     stroke-linecap="square"
     stroke-linejoin="round"
     d="m 39.155841,38.087903 c 0.829405,-1.94122 1.30549,-4.00196 1.73052,-6.07997 l 9.44998,2.97 c -1.0815,4.7306 -2.79035,9.1417 -5.30998,13.14"
     sodipodi:nodetypes="cccc" />
  <path
     id="shape12"
     fill="none"
     stroke="#000000"
     stroke-width="2.16"
     stroke-linecap="square"
     stroke-linejoin="bevel"
     d="m 42.641361,32.345433 c 3.14185,-10.4024 3.84095,-19.6659 21.825,-25.8074996 l 5.76,3.15 c -18.06885,5.2470496 -18.77204,13.5151996 -22.05,24.4574996"
     sodipodi:nodetypes="cccc" />
  <path
     id="shape13"
     fill="none"
     stroke="#000000"
     stroke-width="2.16"
     stroke-linecap="square"
     stroke-linejoin="round"
     d="m 70.095401,1.0799834 10.56977,6.74369 -7.57,3.1489996 -10.6538,-6.7747396 z"
     sodipodi:nodetypes="ccccc" />
</svg>
