<?xml version="1.0" encoding="UTF-8" standalone="no"?>
<!-- Created using Krita: https://krita.org -->

<svg
   width="116.292pt"
   height="79.015495pt"
   viewBox="0 0 116.292 79.015495"
   version="1.1"
   id="svg1"
   sodipodi:docname="Hunting.svg"
   inkscape:version="1.3.2 (091e20e, 2023-11-25, custom)"
   xmlns:inkscape="http://www.inkscape.org/namespaces/inkscape"
   xmlns:sodipodi="http://sodipodi.sourceforge.net/DTD/sodipodi-0.dtd"
   xmlns="http://www.w3.org/2000/svg"
   xmlns:svg="http://www.w3.org/2000/svg">
  <sodipodi:namedview
     id="namedview1"
     pagecolor="#ffffff"
     bordercolor="#000000"
     borderopacity="0.25"
     inkscape:showpageshadow="2"
     inkscape:pageopacity="0.0"
     inkscape:pagecheckerboard="0"
     inkscape:deskcolor="#d1d1d1"
     inkscape:document-units="pt"
     inkscape:zoom="1.078125"
     inkscape:cx="-403.47826"
     inkscape:cy="150.26087"
     inkscape:window-width="1920"
     inkscape:window-height="1017"
     inkscape:window-x="-8"
     inkscape:window-y="1072"
     inkscape:window-maximized="1"
     inkscape:current-layer="svg1" />
  <defs
     id="defs1" />
  <path
     id="shape0"
     fill="#ffffff"
     fill-rule="evenodd"
     stroke-opacity="0"
     stroke="#000000"
     stroke-width="0"
     stroke-linecap="square"
     stroke-linejoin="bevel"
     d="m 84.880298,28.3587 -9.8517,8.345 0.0727,-0.1332 0.208,-0.4173 0.1915,-0.4238 0.1749,-0.4302 0.1577,-0.4363 0.1404,-0.4422 0.1227,-0.4476 0.1047,-0.4531 0.0864,-0.458 0.0678,-0.4629 0.0487,-0.4674 0.0295,-0.4717 0.0099,-0.4757 -0.0099,-0.4757 -0.0295,-0.4717 -0.0487,-0.4674 -0.0678,-0.4629 -0.0864,-0.458 -0.1047,-0.453 -0.1227,-0.4477 -0.1404,-0.4421 -0.1577,-0.4363 -0.1749,-0.4302 -0.1915,-0.4239 -0.208,-0.4173 -0.2241,-0.4104 -0.2398,-0.4032 -0.2553,-0.396 -0.2705,-0.3882 -0.2853,-0.3804 -0.2998,-0.3723 -0.3139,-0.3638 -0.3279,-0.3552 -0.3414,-0.3462 -0.3547,-0.3371 -0.3675,-0.3276 -0.3802,-0.318 -0.3924,-0.308 -0.4045,-0.2978 -0.2159,-0.1491 -0.0081,-0.0362 -0.0536,-0.4112 -0.5676,-0.4387 -1.2686,-0.4748 -0.9564,-0.2354 -0.0689,-0.0316 -0.4887,-0.2068 -0.4978,-0.1943 -0.5066,-0.1816 -0.515,-0.1685 -0.5232,-0.1551 -0.531,-0.1417 -0.5386,-0.1278 -0.5457,-0.1137 -0.5526,-0.0995 -0.5591,-0.0848 -0.5654,-0.07 -0.5714,-0.0548 -0.5769,-0.0396 -0.5822,-0.0239 -0.5872,-0.008 -0.0186,3e-4 -0.9916,-0.1654 -2.489,-0.3506 -2.4625,-0.2833 -2.4336,-0.2173 -2.4025,-0.1528 -2.3693,-0.0896 -2.3337,-0.0277 -2.2959,0.0327 -2.2559,0.092 -2.2136,0.1497 -2.1691,0.2061 -2.1223,0.2612 -2.0733,0.3149 -2.0221,0.3673 -1.9686,0.4182 -1.9129,0.468 -1.8549,0.5162 -1.7947,0.5631 -1.7322,0.6087 -1.6675,0.653 -1.6006,0.6958 -1.5314,0.7373 -1.46,0.7774 -1.3863,0.8163 -1.3104,0.8537 -1.2322599,0.8898 -1.15185,0.9245 -1.06921,0.9578 -0.98432,0.9899 -0.8972,1.0206 -0.80784,1.0498 -0.71622,1.0778 -0.62237,1.1043 -0.52628,1.1296 -0.42794,1.1535 -0.32736,1.176 -0.09515,0.5073 -0.57519,1.2538 L -1.891644e-6,15.5195 4.6960781,22.5024 6.6837481,9.4616803 11.540698,17.0283 15.316898,3.9910003 21.622398,14.0416 26.859898,1.1871803 33.990698,12.377 40.257598,2.8417801e-7 47.388698,11.7652 l 7.6885,-11.27561772 6.2319,12.52781772 7.0931,-10.0368697 3.7534,12.5591697 0.1662,-0.1677 0.2824,-0.2508 0.2975,-0.2327 0.3124,-0.2146 0.3268,-0.1966 0.3407,-0.1787 0.3542,-0.1608 0.3672,-0.1429 0.3799,-0.1252 0.3922,-0.1075 0.4039,-0.0899 0.4152,-0.0723 0.4262,-0.0548 0.4367,-0.0373 0.4468,-0.02 0.4563,-0.0026 0.4656,0.0146 0.4744,0.0318 0.4827,0.049 0.4906,0.066 0.4981,0.0831 0.5052,0.1 0.5117,0.1168 0.518,0.1338 0.5908,0.171 0.581,0.1882 0.57,0.2048 0.5576,0.2211 0.5441,0.2368 0.5293,0.2523 0.5132,0.2672 0.4959,0.2818 0.4774,0.2959 0.4577,0.3096 0.4365,0.3229 0.4144,0.3357 0.3908,0.3482 0.366,0.3602 0.34,0.3718 0.3128,0.383 0.2843,0.3938 0.2545,0.404 0.2236,0.414 0.1913,0.4234 0.1578,0.4326 0.0388,0.139 3.7544,-9.4878 3.346,14.7501 4.786302,-10.0924 2.973,15.0317 4.811,-11.0878 1.997,17.1794 3.99,-8.0452 -0.751,25.9202 -0.666,-1.0801 -0.008,-0.1089 -0.245,-1.4075 -0.39,-1.4353 -0.54,-1.4622 -0.692,-1.4881 -0.85,-1.5128 -1.011,-1.5365 -1.176,-1.5593 -1.344,-1.581 -1.517,-1.6016 -1.694,-1.6212 -1.875,-1.6398 -2.059,-1.6574 -2.247002,-1.6739 -2.4397,-1.6894 -2.636,-1.7038 -2.8361,-1.7173 -2.5313,-1.4401 -0.2095,0.1677 -0.2969,0.2033 -0.3122,0.1816 -0.3272,0.1602 -0.342,0.1393 -0.3567,0.1186 -0.371,0.0984 -0.3851,0.0787 -0.3992,0.0591 -0.4129,0.0402 -0.4264,0.0214 -0.0645,5e-4 m -9.8666,8.3723 0.0157,0.0304 0.1492,0.3291 0.1304,0.3337 0.1114,0.3379 0.092,0.3421 0.0721,0.346 0.052,0.3497 0.0315,0.3531 0.0105,0.3563 -0.0105,0.3564 -0.0315,0.3531 -0.052,0.3496 -0.0721,0.346 -0.092,0.3421 -0.1114,0.338 -0.1304,0.3337 -0.1492,0.3291 -0.1676,0.3243 -0.1855,0.3194 -0.2032,0.3141 -0.2204,0.3087 -0.2374,0.3031 -0.2539,0.2972 -0.2701,0.2911 -0.2859,0.2848 -0.3013,0.2783 -0.3165,0.2715 -0.3312,0.2646 -0.3456,0.2574 -0.3596,0.25 -0.3732,0.2424 -0.3865,0.2345 -0.3995,0.2264 -0.412,0.2182 -0.4242,0.2097 -0.4361,0.2009 -0.4475,0.192 -0.4587,0.1829 -0.4694,0.1735 -0.4798,0.1638 -0.4898,0.1541 -0.4995,0.144 -0.5088,0.1337 -0.5178,0.1233 -0.5263,0.1126 -0.5346,0.1017 -0.5424,0.0905 -0.5499,0.0791 -0.557,0.0676 -0.5639,0.0558 -0.5702,0.0438 -0.5763,0.0315 -0.5786,0.019 -13.2132,11.1925 3.7683,8.6419 8.0122,-13.9488 7.2448,16.2923 8.2652,-15.7945 9.0692,15.6199 6.436,-18.0413 8.436,13.4656 4.392302,-19.1272 5.842,12.6198 2.097,-13.1566 4.276,6.9394 0.096,1.2697 -0.034,1.3487 -0.167,1.3176 -0.297,1.2857 -0.423,1.2526 -0.545,1.2186 -0.662,1.1834 -0.777,1.1473 -0.886,1.1102 -0.993,1.0719 -1.094,1.0327 -1.194,0.9925 -1.287,0.9512 -1.378,0.9088 -1.464,0.8655 -1.547,0.8211 -1.626,0.7756 -1.700702,0.7292 -1.7714,0.6818 -1.8383,0.6332 -1.9013,0.5836 -1.9605,0.5331 -2.0156,0.4814 -2.0669,0.4288 -2.1142,0.3751 -2.1577,0.3204 -2.1971,0.2647 -2.2328,0.2079 -2.2644,0.1501 -2.2922,0.0912 -2.3161,0.0314 -2.3359,-0.0296 -2.3519,-0.0915 -2.364,-0.1544 -2.3722,-0.2185 -2.3764,-0.2834 -2.3768,-0.3496 -2.3731,-0.4166 -2.3656,-0.4848 -2.3542,-0.5539 -2.3389,-0.6242 -2.3196,-0.6953 -2.2963,-0.7677 -2.2693,-0.8409 -2.2383,-0.9152 -1.7599,-0.7912 -0.1845,0.2362 -0.259,0.2945 -0.2711,0.2727 -0.283,0.251 -0.2951,0.2292 -0.3069,0.2074 -0.3188,0.1856 -0.3306,0.1638 -0.3425,0.1419 -0.3543,0.1202 -0.366,0.0982 -0.3776,0.0765 -0.3894,0.0545 -0.401,0.0326 -0.4126,0.0108 -0.4242,-0.0112 -0.4357,-0.0331 -0.4472,-0.055 -0.4586,-0.077 -0.4701,-0.099 -0.4814,-0.1209 -0.4929,-0.1429 -0.5041,-0.165 -0.5154,-0.1869 -0.5267,-0.209 -0.5138,-0.2206 -0.5104,-0.2354 -0.5058,-0.2498 -0.4998,-0.2635 -0.4925,-0.2767 -0.4839,-0.2893 -0.474,-0.3014 -0.4628,-0.313 -0.4504,-0.3238 -0.4366,-0.3343 -0.4215,-0.344 -0.405,-0.3534 -0.3875,-0.362 -0.3684,-0.3701 -0.3481,-0.3777 -0.3266,-0.3848 -0.3036,-0.3911 -0.2795,-0.3971 -0.254,-0.4024 -0.2272,-0.4071 -0.1992,-0.4114 -0.1697,-0.4149 -0.1391,-0.418 -0.107,-0.4206 -0.0738,-0.4225 -0.0392,-0.4238 -0.0033,-0.4247 0.0339,-0.425 0.0723,-0.4246 0.0011,-0.0043 -1.2503,-0.7783 -2.0098,-1.3461 -1.8665,-1.3493 -1.7256,-1.3512 -1.5869,-1.3518 -1.4504299,-1.351 -1.31622,-1.3488 -1.18424,-1.3453 -1.05452,-1.3404 -0.92702,-1.3341 -0.80177,-1.3266 -0.67877,-1.3176 -0.55801,-1.3073 -0.43948,-1.2956 -0.32321,-1.2826 -0.20918,-1.2682 -0.09738,-1.2525 0.01217,-1.2354 0.11947,-1.217 0.12939,-0.6898 2.141,-4.667 2.77002,10.7612 4.2491799,-8.0978 3.6601,16.141 6.3995,-8.0381 2.2258,13.5145 0.1301,-0.0427 0.3794,-0.0887 0.3977,-0.0583 0.4168,-0.0274 0.4367,0.004 0.4576,0.0358 0.4792,0.0681 0.5019,0.1009 0.5253,0.1341 0.5496,0.1677 0.5748,0.2019 0.6008,0.2364 0.4865,0.2085 0.4905,0.2249 0.493,0.2408 0.4941,0.2559 0.4935,0.2703 0.4915,0.284 0.488,0.2972 0.4828,0.3095 0.0286,0.0193 15.2635,-13.0247 -0.3343,-0.2324 -0.3455,-0.2574 -0.3312,-0.2646 -0.3165,-0.2715 -0.3014,-0.2783 -0.2859,-0.2848 -0.27,-0.2911 -0.2539,-0.2972 -0.2374,-0.3031 -0.2204,-0.3087 -0.2032,-0.3141 -0.1856,-0.3194 -0.1675,-0.3243 -0.1492,-0.3291 -0.1305,-0.3337 -0.1114,-0.338 -0.0919,-0.3421 -0.0722,-0.346 -0.0519,-0.3496 -0.0315,-0.3531 -0.0106,-0.3564 0.0106,-0.3563 0.0315,-0.3531 0.0519,-0.3497 0.0722,-0.346 0.0919,-0.3421 0.1114,-0.3379 0.0418,-0.1069 0.0398,0.0669 0.2553,0.3959 0.2705,0.3883 0.2853,0.3804 0.2997,0.3722 0.314,0.3638 0.3279,0.3552 0.3414,0.3463 0.3546,0.337 0.3676,0.3277 0.3802,0.3179 0.3924,0.308 0.4044,0.2978 0.4161,0.2873 0.4274,0.2766 0.4384,0.2656 0.4491,0.2544 0.4594,0.2429 0.4696,0.2311 0.4792,0.2191 0.4887,0.2068 0.4978,0.1944 0.5066,0.1815 0.515,0.1685 0.5232,0.1552 0.531,0.1416 0.5385,0.1278 0.5458,0.1138 0.5526,0.0994 0.5591,0.0848 0.5654,0.07 0.5714,0.0549 0.5769,0.0395 0.5822,0.0239 0.5872,0.008 0.5872,-0.008 0.5822,-0.0239 0.5769,-0.0395 0.5714,-0.0549 0.5654,-0.07 0.5591,-0.0848 0.5526,-0.0994 0.5457,-0.1138 0.5386,-0.1278 0.531,-0.1416 0.5232,-0.1552 0.515,-0.1685 0.5066,-0.1815 0.4978,-0.1944 0.4887,-0.2068 0.4792,-0.2191 0.4695,-0.2311 0.4595,-0.2429 0.4491,-0.2544 0.4384,-0.2656 0.4274,-0.2766 0.416,-0.2873 0.4045,-0.2978 0.3924,-0.308 0.3802,-0.3179 0.3675,-0.3277 0.3547,-0.337 0.3414,-0.3463 0.3279,-0.3552 0.3139,-0.3638 0.2998,-0.3722 0.2853,-0.3804 0.2705,-0.3883 0.2553,-0.3959 0.2398,-0.4033 0.1365,-0.2499"
     sodipodi:nodetypes="ccccccccccccccccccccccccccccccccccccccccccccccccccccccccccccccccccccccccccccccccccccccccccccccccccccccccccccccccccccccccccccccccccccccccccccccccccccccccccccccccccccccccccccccccccccccccccccccccccccccccccccccccccccccccccccccccccccccccccccccccccccccccccccccccccccccccccccccccccccccccccccccccccccccccccccccccccccccccccccccccccccccccccccccccccccccccccccccccccccccccccccccccccccccccccccccccccccccccccccccccccccccccccccccccccccccccccccccccccccccccccccccccccccccccccccccccccccccccccccccccccccccccccccccccccccccccccccccccccc" />
  <path
     id="shape1"
     fill="none"
     stroke="#000000"
     stroke-width="2.9268"
     stroke-linecap="square"
     stroke-linejoin="bevel"
     d="M 21.52925,17.503248 C 10.430865,20.618618 4.0021782,28.209929 2.4437548,36.028732 0.88531193,43.847632 5.7072304,52.1685 14.763019,59.300988 c 9.055795,7.132459 22.345479,13.07644 37.722509,16.14135 15.377128,3.064929 29.93017,2.670488 41.02844,-0.444915 11.098372,-3.115413 18.741662,-8.951748 20.300102,-16.770649 1.55843,-7.818802 -2.58822,-18.164738 -11.64382,-25.297148"
     sodipodi:nodetypes="ccccccc" />
  <path
     id="shape01"
     fill="#ffffff"
     fill-rule="evenodd"
     stroke-opacity="0"
     stroke="#000000"
     stroke-width="0"
     stroke-linecap="square"
     stroke-linejoin="bevel"
     d="m 60.314708,36.847589 -0.17598,-0.405772 -0.4387,-0.173233 -0.444471,0.158116 -0.189666,0.399512 0.175883,0.40567 0.438798,0.173335 0.444373,-0.158218 0.189763,-0.39941 m 8.829376,-4.96531 -0.175881,-0.40577 -0.438799,-0.173236 -0.444371,0.158118 -0.189766,0.399511 0.175983,0.405671 0.438697,0.173334 0.444473,-0.158216 0.189664,-0.399412 m -3.649165,-5.747439 -0.175982,-0.405701 -0.438698,-0.173324 -0.444473,0.158206 -0.189664,0.399442 0.175882,0.40567 0.438798,0.173326 0.444373,-0.158208 0.189764,-0.399411 m -11.263915,1.228415 -0.264066,-0.607768 -0.657964,-0.26077 -0.666492,0.238098 -0.284723,0.598375 0.264077,0.607738 0.657953,0.26078 0.666503,-0.238108 0.284712,-0.598345 m -2.614406,6.777167 -0.172491,-0.606141 -0.437335,-0.257023 -0.445875,0.241904 -0.193146,0.599883 0.1725,0.606241 0.437336,0.256922 0.445874,-0.241804 0.193137,-0.599982 M 74.144317,31.68363 74.121764,30.851022 74.026851,30.032977 73.862052,29.231039 73.63001,28.448583 73.332927,27.685487 72.97332,26.946614 72.553617,26.230396 72.076109,25.543182 71.543822,24.883465 70.95883,24.252841 70.323223,23.657675 69.640156,23.094862 68.91142,22.570732 68.140041,22.083779 67.328038,21.638786 66.478212,21.235752 65.592706,20.877924 64.674022,20.565325 64.011038,20.383421 63.711493,19.980345 62.988064,19.450005 62.04704,19.034371 60.932809,18.757895 59.689358,18.64502 l -1.246585,0.07025 -1.122941,0.23818 -0.954798,0.383181 -0.741156,0.50527 -0.313065,0.392589 -0.668841,0.159106 -0.928875,0.280974 -0.897214,0.327312 -0.863162,0.373711 -0.826747,0.416941 -0.787583,0.460268 -0.746268,0.49888 -0.70203,0.539104 -0.655404,0.573066 -0.606233,0.610234 -0.554734,0.64111 -0.500569,0.67047 -0.44403,0.701433 -0.384587,0.726134 -0.323102,0.752481 -0.258752,0.774055 -0.192156,0.795827 -0.122897,0.814316 -0.05101,0.831349 0.02253,0.832507 0.09495,0.818045 0.164805,0.801939 0.232108,0.782487 0.297158,0.763097 0.35951,0.738862 0.419763,0.716189 0.477328,0.68727 0.532466,0.65971 0.584993,0.630605 0.635407,0.595162 0.683168,0.562775 0.728756,0.52415 0.77137,0.486873 0.811991,0.445063 0.849869,0.402905 0.885484,0.357907 0.918713,0.31267 0.949265,0.262586 0.977531,0.211061 1.003222,0.159194 1.026591,0.102785 1.047432,0.04803 1.048561,-0.01215 1.029408,-0.06759 1.008183,-0.124763 0.984182,-0.177482 0.957675,-0.229943 0.928847,-0.281043 0.897234,-0.327392 0.863121,-0.373582 0.826758,-0.417011 0.787592,-0.460188 0.746248,-0.4989 0.701929,-0.539066 0.655604,-0.573063 0.606233,-0.610213 0.554554,-0.641103 0.500749,-0.670528 0.44397,-0.701404 0.384684,-0.726122 0.323026,-0.752482 0.258687,-0.774086 0.192149,-0.795827 0.122855,-0.814317 0.05103,-0.831248 m -2.176223,-0.08156 -0.03167,-0.837465 -0.12051,-0.818482 -0.206102,-0.796244 -0.287795,-0.773989 -0.366198,-0.745297 -0.4404,-0.716572 -0.511284,-0.683071 -0.578423,-0.646275 -0.64169,-0.607912 -0.701537,-0.564709 -0.757387,-0.521449 -0.810016,-0.473413 -0.858528,-0.420536 -0.903314,-0.369175 -0.900957,-0.296523 -0.184999,0.232118 -0.741157,0.505289 -0.954698,0.383186 -1.123041,0.238174 -1.246585,0.07024 -1.24345,-0.112868 -1.114132,-0.276469 -0.941124,-0.415639 -0.723429,-0.530359 -0.156809,-0.211135 -0.824651,0.240151 -0.91561,0.338039 -0.872478,0.390904 -0.825674,0.445414 -0.77483,0.495221 -0.720434,0.540369 -0.662199,0.585592 -0.600114,0.6261 -0.534313,0.665173 -0.464847,0.701077 -0.391271,0.73233 -0.314277,0.763683 -0.233333,0.788722 -0.148392,0.81388 -0.06011,0.835893 0.0315,0.835962 0.120449,0.818481 0.206175,0.797846 0.287956,0.773942 0.365976,0.745373 0.440608,0.714945 0.511234,0.68305 0.578306,0.647893 0.641798,0.606273 0.701489,0.566389 0.757426,0.52144 0.809975,0.471732 0.85856,0.422157 0.903531,0.367618 0.944726,0.311515 0.98243,0.252051 1.016231,0.188021 1.046565,0.12203 1.07302,0.05477 1.074365,-0.01801 1.050029,-0.08614 1.02227,-0.153126 0.990281,-0.218283 0.955115,-0.278994 0.915393,-0.336482 0.872446,-0.392525 0.825716,-0.443733 0.774789,-0.495212 0.720483,-0.542048 0.662091,-0.583954 0.600232,-0.627718 0.534362,-0.665152 0.464639,-0.69945 0.391493,-0.732407 0.314116,-0.763636 0.233261,-0.790323 0.148451,-0.813879 0.06029,-0.83439 M 61.950278,21.117198 61.621334,20.404103 60.733986,19.88516 l -1.257345,-0.212601 -1.263986,0.169442 -0.904589,0.488269 -0.353157,0.701418 0.328917,0.714675 0.887348,0.518933 1.257445,0.212612 1.263886,-0.169453 0.904589,-0.488259 0.353184,-0.702998"
     sodipodi:nodetypes="cccccccccccccccccccccccccccccccccccccccccccccccccccccccccccccccccccccccccccccccccccccccccccccccccccccccccccccccccccccccccccccccccccccccccccccccccccccccccccccccccccccccccccccccccccccccccccccccccccccccccccccccccccccccccccccccccccccccc" />
</svg>
