<?xml version="1.0" encoding="UTF-8" standalone="no"?>
<!-- Created using Krita: https://krita.org -->

<svg
   width="150pt"
   height="150pt"
   viewBox="0 0 150 150"
   version="1.1"
   id="svg1"
   sodipodi:docname="Occultism.svg"
   inkscape:version="1.3.2 (091e20e, 2023-11-25, custom)"
   xmlns:inkscape="http://www.inkscape.org/namespaces/inkscape"
   xmlns:sodipodi="http://sodipodi.sourceforge.net/DTD/sodipodi-0.dtd"
   xmlns="http://www.w3.org/2000/svg"
   xmlns:svg="http://www.w3.org/2000/svg">
  <sodipodi:namedview
     id="namedview1"
     pagecolor="#acacac"
     bordercolor="#000000"
     borderopacity="0.25"
     inkscape:showpageshadow="2"
     inkscape:pageopacity="0.0"
     inkscape:pagecheckerboard="0"
     inkscape:deskcolor="#d1d1d1"
     inkscape:document-units="pt"
     inkscape:zoom="2.5279067"
     inkscape:cx="18.988042"
     inkscape:cy="102.45631"
     inkscape:window-width="1920"
     inkscape:window-height="1017"
     inkscape:window-x="-8"
     inkscape:window-y="32"
     inkscape:window-maximized="1"
     inkscape:current-layer="svg1" />
  <defs
     id="defs1" />
  <path
     id="shape0"
     fill="#000000"
     fill-rule="evenodd"
     stroke-opacity="0"
     stroke="#000000"
     stroke-width="0"
     stroke-linecap="square"
     stroke-linejoin="bevel"
     d="m 57.384898,92.823772 -9.212,13.639998 -0.054,0.369 -0.029,0.368 -0.002,0.368 0.024,0.368 0.051,0.368 0.076,0.367 0.103,0.368 0.128,0.367 0.155,0.367 0.181,0.367 0.207,0.366 0.234,0.366 0.259,0.367 0.286,0.366 0.312,0.365 0.338,0.366 0.364,0.365 0.39,0.365 0.417,0.365 0.442,0.365 0.469,0.365 0.495,0.364 0.521,0.364 0.548,0.364 0.573,0.364 0.6,0.363 0.28,0.165 0.284,0.161 0.286,0.158 0.289,0.155 0.291,0.152 0.294,0.149 0.297,0.146 0.299,0.142 0.303,0.14 0.304,0.137 0.308,0.133 0.31,0.131 0.312,0.127 0.316,0.124 0.318,0.121 0.321,0.119 0.323,0.115 0.326,0.112 0.329,0.108 0.331,0.106 0.334,0.103 0.337,0.1 0.339,0.096 0.342,0.094 0.344,0.09 0.348,0.088 0.35,0.084 0.352,0.081 0.356,0.078 0.357,0.076 0.361,0.072 0.363,0.068 0.366,0.066 0.369,0.063 0.371,0.06 0.374,0.056 0.376,0.054 0.38,0.05 0.381,0.048 0.385,0.044 0.387,0.041 0.39,0.039 0.392,0.035 0.396,0.032 0.397,0.029 0.401,0.026 0.403,0.022 0.406,0.02 0.408,0.017 0.411,0.013 0.414,0.011 0.417,0.007 0.419,0.005 0.421,0.001 0.425,-0.002 0.427,-0.005 0.25,-0.019 0.196,-0.033 0.324,-0.027 0.427,0.005 0.424,0.002 0.422,-0.002 0.419,-0.004 0.416,-0.008 0.414,-0.01 0.411,-0.014 0.409,-0.016 0.406,-0.02 0.403,-0.023 0.4,-0.026 0.398,-0.029 0.395,-0.032 0.393,-0.035 0.389,-0.038 0.388,-0.041 0.384,-0.045 0.382,-0.047 0.379,-0.051 0.377,-0.053 0.374,-0.057 0.371,-0.059 0.368,-0.063 0.366,-0.066 0.364,-0.069 0.36,-0.072 0.358,-0.075 0.355,-0.078 0.353,-0.081 0.35,-0.085 0.347,-0.087 0.345,-0.091 0.342,-0.093 0.339,-0.097 0.337,-0.099 0.334,-0.103 0.331,-0.106 0.329,-0.109 0.326,-0.112 0.323,-0.115 0.321,-0.118 0.318,-0.121 0.315,-0.125 0.313,-0.127 0.31,-0.13 0.307,-0.134 0.305,-0.136 0.302,-0.14 0.3,-0.143 0.296,-0.146 0.294,-0.149 0.292,-0.151 0.289,-0.156 0.286,-0.158 0.283,-0.161 0.281,-0.164 0.6,-0.364 0.573,-0.363 0.547,-0.364 0.521,-0.364 0.495,-0.365 0.469,-0.364 0.443,-0.365 0.416,-0.365 0.391002,-0.365 0.364,-0.366 0.338,-0.365 0.312,-0.366 0.285,-0.366 0.26,-0.366 0.233,-0.366 0.207,-0.367 0.181,-0.367 0.155,-0.367 0.129,-0.367 0.103,-0.367 0.076,-0.368 0.05,-0.368 0.024,-0.367 -0.002,-0.369 -0.028,-0.368 -0.054,-0.369 -9.366002,-13.867998 0.006,-0.006 0.426,-0.448 0.416,-0.458 0.405,-0.468 0.393,-0.478 0.382,-0.488 0.37,-0.497 0.358,-0.507 0.346,-0.515 0.334,-0.524 0.321,-0.533 0.308,-0.542 0.295,-0.549 0.282,-0.558 0.269,-0.565 0.255,-0.573 0.241,-0.58 0.227,-0.587 0.213,-0.594 0.198,-0.601 0.184,-0.608 0.169,-0.614 0.154,-0.62 0.138002,-0.625 0.123,-0.632 0.107,-0.637 0.092,-0.642 0.075,-0.647 0.059,-0.653 0.042,-0.656 0.025,-0.662 0.009,-0.665 -0.009,-0.665 -0.025,-0.662 -0.042,-0.656 -0.059,-0.653 -0.075,-0.647 -0.092,-0.642 -0.107,-0.637 -0.123,-0.632 -0.138002,-0.625 -0.154,-0.62 -0.169,-0.614 -0.184,-0.608 -0.198,-0.601 -0.213,-0.594 -0.227,-0.587 -0.241,-0.58 -0.255,-0.573 -0.269,-0.565 -0.282,-0.558 -0.295,-0.549 -0.308,-0.542 -0.321,-0.533 -0.334,-0.524 -0.346,-0.515 -0.358,-0.507 -0.37,-0.497 -0.382,-0.488 -0.393,-0.478 -0.405,-0.468 -0.416,-0.458 -0.426,-0.448 -0.438,-0.438 -0.448,-0.426 -0.458,-0.416 -0.468,-0.405 -0.478,-0.393 -0.488,-0.382 -0.497,-0.37 -0.507,-0.358 -0.515,-0.346 -0.524,-0.334 -0.533,-0.321 -0.542,-0.308 -0.549,-0.295 -0.558,-0.282 -0.565,-0.269 -0.573,-0.255 -0.58,-0.241 -0.587,-0.227 -0.594,-0.213 -0.601,-0.198 -0.608,-0.184 -0.614,-0.169 -0.62,-0.154 -0.625,-0.138 -0.632,-0.123 -0.637,-0.107 -0.642,-0.092 -0.647,-0.075 -0.653,-0.059 -0.656,-0.042 -0.662,-0.025 -0.665,-0.009 -0.665,0.009 -0.662,0.025 -0.656,0.042 -0.653,0.059 -0.647,0.075 -0.642,0.092 -0.637,0.107 -0.632,0.123 -0.625,0.138 -0.62,0.154 -0.614,0.169 -0.608,0.184 -0.601,0.198 -0.594,0.213 -0.587,0.227 -0.58,0.241 -0.573,0.255 -0.565,0.269 -0.558,0.282 -0.549,0.295 -0.542,0.308 -0.533,0.321 -0.524,0.334 -0.515,0.346 -0.507,0.358 -0.497,0.37 -0.488,0.382 -0.478,0.393 -0.468,0.405 -0.458,0.416 -0.448,0.426 -0.438,0.438 -0.426,0.448 -0.416,0.458 -0.405,0.468 -0.393,0.478 -0.382,0.488 -0.37,0.497 -0.358,0.507 -0.346,0.515 -0.334,0.524 -0.321,0.533 -0.308,0.542 -0.295,0.549 -0.282,0.558 -0.269,0.565 -0.255,0.573 -0.241,0.58 -0.227,0.587 -0.213,0.594 -0.198,0.601 -0.184,0.608 -0.169,0.614 -0.154,0.62 -0.138,0.625 -0.123,0.632 -0.107,0.637 -0.092,0.642 -0.075,0.647 -0.059,0.653 -0.042,0.656 -0.025,0.662 -0.009,0.665 0.009,0.665 0.025,0.662 0.042,0.656 0.059,0.653 0.075,0.647 0.092,0.642 0.107,0.637 0.123,0.632 0.138,0.625 0.154,0.62 0.169,0.614 0.184,0.608 0.198,0.601 0.213,0.594 0.227,0.587 0.241,0.58 0.255,0.573 0.269,0.565 0.282,0.558 0.295,0.549 0.308,0.542 0.321,0.533 0.334,0.524 0.346,0.515 0.358,0.507 0.37,0.497 0.382,0.488 0.393,0.478 0.405,0.468 0.416,0.458 0.426,0.448 0.314,0.314 m 40.35,-18.22 -0.008,-0.585 -0.022,-0.582 -0.038,-0.577 -0.052,-0.574 -0.066,-0.569 -0.081,-0.565 -0.096,-0.56 -0.108,-0.555 -0.123,-0.551 -0.137,-0.545 -0.149,-0.54 -0.163,-0.534 -0.176,-0.529 -0.189,-0.522 -0.201,-0.517 -0.214,-0.51 -0.226,-0.504 -0.238,-0.497 -0.25,-0.49 -0.262,-0.483 -0.273,-0.476 -0.284,-0.469 -0.296,-0.461 -0.307,-0.453 -0.317,-0.446 -0.329,-0.437 -0.338,-0.429 -0.349,-0.42 -0.358,-0.412 -0.369,-0.403 -0.378,-0.394 -0.388,-0.385 -0.397,-0.375 -0.406,-0.366 -0.416,-0.356 -0.423,-0.346 -0.433,-0.335 -0.441,-0.326 -0.449,-0.315 -0.457,-0.304 -0.464,-0.293 -0.473,-0.283 -0.48,-0.271 -0.487,-0.259 -0.494,-0.248 -0.501,-0.237 -0.508,-0.224 -0.514,-0.212 -0.521,-0.2 -0.527,-0.187 -0.533,-0.174 -0.538,-0.162 -0.544,-0.148 -0.55,-0.136 -0.555,-0.121 -0.56,-0.108 -0.564,-0.095 -0.57,-0.08 -0.573,-0.066 -0.579,-0.052 -0.582,-0.037 -0.586,-0.022 -0.59,-0.008 -0.59,0.008 -0.586,0.022 -0.582,0.037 -0.579,0.052 -0.573,0.066 -0.57,0.08 -0.564,0.095 -0.56,0.108 -0.555,0.121 -0.55,0.136 -0.544,0.148 -0.538,0.162 -0.533,0.174 -0.527,0.187 -0.521,0.2 -0.514,0.212 -0.508,0.224 -0.501,0.237 -0.494,0.248 -0.487,0.259 -0.48,0.271 -0.473,0.283 -0.464,0.293 -0.457,0.304 -0.449,0.315 -0.441,0.326 -0.433,0.335 -0.423,0.346 -0.416,0.356 -0.406,0.366 -0.397,0.375 -0.388,0.385 -0.378,0.394 -0.369,0.403 -0.358,0.412 -0.349,0.42 -0.338,0.429 -0.329,0.437 -0.317,0.446 -0.307,0.453 -0.296,0.461 -0.284,0.469 -0.273,0.476 -0.262,0.483 -0.25,0.49 -0.238,0.497 -0.226,0.504 -0.214,0.51 -0.201,0.517 -0.189,0.522 -0.176,0.529 -0.163,0.534 -0.149,0.54 -0.137,0.545 -0.123,0.551 -0.108,0.555 -0.096,0.56 -0.081,0.565 -0.066,0.569 -0.052,0.574 -0.038,0.577 -0.022,0.582 -0.008,0.585 0.008,0.585 0.022,0.582 0.038,0.577 0.052,0.574 0.066,0.569 0.081,0.565 0.096,0.56 0.108,0.555 0.123,0.551 0.137,0.545 0.149,0.54 0.163,0.534 0.176,0.529 0.189,0.522 0.201,0.517 0.214,0.51 0.226,0.504 0.238,0.497 0.25,0.49 0.262,0.483 0.273,0.476 0.284,0.469 0.296,0.461 0.307,0.453 0.317,0.446 0.329,0.437 0.338,0.429 0.349,0.42 0.358,0.412 0.369,0.403 0.378,0.394 0.388,0.385 0.397,0.375 0.406,0.366 0.416,0.356 0.423,0.346 0.433,0.335 0.441,0.326 0.449,0.315 0.457,0.304 0.464,0.293 0.473,0.283 0.48,0.271 0.487,0.259 0.494,0.248 0.501,0.237 0.508,0.224 0.514,0.212 0.521,0.2 0.527,0.187 0.533,0.174 0.538,0.162 0.544,0.148 0.55,0.136 0.555,0.121 0.56,0.108 0.564,0.095 0.57,0.08 0.573,0.066 0.579,0.052 0.582,0.037 0.586,0.022 0.59,0.008 0.59,-0.008 0.586,-0.022 0.582,-0.037 0.579,-0.052 0.573,-0.066 0.57,-0.08 0.564,-0.095 0.56,-0.108 0.555,-0.121 0.55,-0.136 0.544,-0.148 0.538,-0.162 0.533,-0.174 0.527,-0.187 0.521,-0.2 0.514,-0.212 0.508,-0.224 0.501,-0.237 0.494,-0.248 0.487,-0.259 0.48,-0.271 0.473,-0.283 0.464,-0.293 0.457,-0.304 0.449,-0.315 0.441,-0.326 0.433,-0.335 0.423,-0.346 0.416,-0.356 0.406,-0.366 0.397,-0.375 0.388,-0.385 0.378,-0.394 0.369,-0.403 0.358,-0.412 0.349,-0.42 0.338,-0.429 0.329,-0.437 0.317,-0.446 0.307,-0.453 0.296,-0.461 0.284,-0.469 0.273,-0.476 0.262,-0.483 0.25,-0.49 0.238,-0.497 0.226,-0.504 0.214,-0.51 0.201,-0.517 0.189,-0.522 0.176,-0.529 0.163,-0.534 0.149,-0.54 0.137,-0.545 0.123,-0.551 0.108,-0.555 0.096,-0.56 0.081,-0.565 0.066,-0.569 0.052,-0.574 0.038,-0.577 0.022,-0.582 0.008,-0.585"
     sodipodi:nodetypes="ccccccccccccccccccccccccccccccccccccccccccccccccccccccccccccccccccccccccccccccccccccccccccccccccccccccccccccccccccccccccccccccccccccccccccccccccccccccccccccccccccccccccccccccccccccccccccccccccccccccccccccccccccccccccccccccccccccccccccccccccccccccccccccccccccccccccccccccccccccccccccccccccccccccccccccccccccccccccccccccccccccccccccccccccccccccccccccccccccccccccccccccccccccccccccccccccccccccccccccccccccccccccccccccccccccccccccccccccccccccccccccccccccccccccccccccccccccccccccccccccccccccccccccccccccccccccccccccccccccccccccccccccccccccccccccccccccccccccccccccccccccccccccccccccccccccccccccccccccccccccccccccccccccc"
     style="fill:#ffffff;fill-opacity:1" />
  <path
     id="shape1"
     fill="#000000"
     fill-rule="evenodd"
     d="m 70.532348,77.798752 c -2.70578,-4.22285 -6.11535,-7.36292 -9.99,-9.7875 2.51162,4.15511 1.24391,5.8717 3.375,9.1125 2.71622,1.0873 4.163,1.173 6.615,0.675"
     sodipodi:nodetypes="cccc"
     style="fill:#ffffff;fill-opacity:1" />
  <path
     id="shape2"
     fill="#000000"
     fill-rule="evenodd"
     d="m 75.402848,86.997872 c -1.8688,-0.96613 -3.3416,-2.22932 -4.7355,-3.55162 -0.4425,0.97251 -1.0205,1.92241 -1.8225,2.835 -1.7412,-1.20005 -2.65678,-2.8504 -3.78,-4.3875 -0.04131,1.09746 -0.59261,1.85493 -1.0125,2.7 -2.03173,-1.9117 -3.20636,-4.44674 -4.7925,-6.6825 -0.90965,0.363144 -1.884878,0.136098 -2.835,0.135 0.769348,0.383071 1.43206,1.16604 2.3625,0.945 0.91641,4.05794 1.72783,8.13569 5.7375,11.61 0.34193,-0.9527 0.6306,-1.9213 1.5525,-2.7 0.7928,1.6189 2.6814,3.0029 4.2525,4.455 0.4174,-1.2885 0.9457,-2.5106 1.9575,-3.4425 1.4383,1.0117 2.3188,2.4291 3.105,3.915 l 0.009,-0.3814 0.009,0.3837 c 0.9257,-1.3179 1.2643,-2.7048 3.105,-3.915 1.0042,1.0771 1.5491,2.2461 1.9575,3.4425 2.1965,-1.5592 3.2986,-3.0142 4.2525,-4.45505 0.7543,0.60395 1.2782,1.49605 1.5525,2.70005 2.2443,-2.5015 4.4352,-5.22317 5.7375,-11.61005 0.9907,0.05081 1.6613,-0.474679 2.3625,-0.945 -0.945,0.124342 -1.89,0.239338 -2.835,-0.135 -1.5652,2.23905 -2.6688,4.64292 -4.7925,6.6825 -0.4507,-0.80298 -0.8719,-1.63126 -1.0125,-2.7 -1.1418,1.50978 -2.0789,3.10145 -3.78,4.3875 -1.2569,-0.86382 -1.4925,-1.85532 -1.8225,-2.835 -1.7191,1.60791 -3.2516,2.65597 -4.7325,3.54937"
     sodipodi:nodetypes="ccccccccccccccccccccccccccc"
     style="fill:#ffffff;fill-opacity:1" />
  <path
     id="shape01"
     fill="#000000"
     fill-rule="evenodd"
     stroke-opacity="0"
     stroke="#000000"
     stroke-width="0"
     stroke-linecap="square"
     stroke-linejoin="bevel"
     d="m 80.180348,77.834642 c 2.70578,-4.22285 6.11535,-7.36292 9.99,-9.7875 -2.51162,4.15511 -1.24391,5.8717 -3.375,9.1125 -2.71622,1.0873 -4.163,1.173 -6.615,0.675"
     sodipodi:nodetypes="cccc"
     style="fill:#ffffff;fill-opacity:1" />
  <path
     id="shape3"
     fill="#000000"
     fill-rule="evenodd"
     d="m 75.088898,126.64577 -0.179,0.301 -0.159,0.334 -0.141,0.368 -0.12,0.401 -0.102,0.434 -0.082,0.468 -0.063,0.501 -0.043,0.535 -0.016,0.4 0.001,0.399 0.018,0.397 0.036,0.395 0.052,0.395 0.07,0.392 0.086,0.392 0.104,0.389 0.121,0.389 0.138,0.386 0.155,0.386 0.139,-0.4 0.138,-0.4 0.133,-0.4 0.124,-0.4 0.109,-0.4 0.091,-0.4 0.069,-0.4 0.041,-0.4 0.011,-0.4 0.385,0.336 0.335,0.35 0.285,0.364 0.235,0.376 0.185,0.39 0.135,0.404 0.085,0.416 0.035,0.43 -0.015,0.444 -0.156,0.694 -0.307,0.568 -0.421,0.444 -0.494,0.324 -0.531,0.209 -0.527,0.096 -0.487,-0.013 -0.407,-0.117 -0.265,-0.168 -0.253,-0.247 -0.242,-0.326 -0.232,-0.405 -0.22,-0.484 -0.21,-0.563 -0.198,-0.642 -0.084,0.659 -0.022,0.604 0.04,0.548 0.102,0.492 0.163,0.436 0.225,0.38 0.287,0.325 0.348,0.269 0.41,0.213 0.472,0.157 0.534,0.102 0.632,0.024 0.566,-0.09 0.503,-0.191 0.441,-0.277 0.382,-0.348 0.324,-0.404 0.268,-0.447 0.215,-0.474 0.163,-0.487 0.113,-0.486 0.065,-0.469 0.019,-0.439 -0.025,-0.394 -0.066,-0.333 -0.264,-0.816 -0.228,-0.481 -0.258,-0.333 -0.353,-0.373 -0.437,-0.382 -0.563,-0.338 -0.687,-0.292 0.084,-0.11 0.034,-0.197 -0.017,-0.282 -0.066,-0.369 -0.117,-0.456 -0.166,-0.541 -0.217,-0.628 -0.266,-0.714 m -5.277,-3.082 11.149,-0.135 1.654,18.495 h -14.76 l 1.957,-18.36 m 1.484,1.45 8.387,-0.113 1.244,15.557 h -11.103 l 1.472,-15.444"
     sodipodi:nodetypes="ccccccccccccccccccccccccccccccccccccccccccccccccccccccccccccccccccccccccccccccccccccccccccccccccccccccc"
     style="fill:#ffffff;fill-opacity:1" />
  <path
     id="shape02"
     fill="#000000"
     fill-rule="evenodd"
     stroke-opacity="0"
     stroke="#000000"
     stroke-width="0"
     stroke-linecap="square"
     stroke-linejoin="bevel"
     d="m 41.031968,106.63052 -0.37585,-0.179 -0.41706,-0.159 -0.4595,-0.141 -0.50072,-0.12 -0.54192,-0.102 -0.58437,-0.082 -0.62558,-0.063 -0.66804,-0.043 -0.49947,-0.016 -0.49821,10e-4 -0.49572,0.018 -0.49321,0.036 -0.4932,0.052 -0.4895,0.07 -0.4895,0.086 -0.4857,0.104 -0.4858,0.121 -0.4819,0.138 -0.482,0.155 0.4994,0.139 0.4995,0.138 0.4995,0.133 0.4994,0.124 0.4995,0.109 0.4995,0.091 0.4994,0.069 0.49951,0.041 0.49946,0.011 -0.41955,0.385 -0.43703,0.335 -0.45449,0.285 -0.4695,0.235 -0.487,0.185 -0.5045,0.135 -0.5194,0.085 -0.5369,0.035 -0.5544,-0.015 -0.8666,-0.156 -0.7093,-0.307 -0.5544,-0.421 -0.4045,-0.494 -0.261,-0.531 -0.1199,-0.527 0.0163,-0.487 0.1461,-0.407 0.2097,-0.265 0.3084,-0.253 0.4071,-0.242 0.5057,-0.232 0.6044,-0.22 0.703,-0.21 0.8016,-0.198 -0.8229,-0.084 -0.7541,-0.022 -0.6843,0.04 -0.6144,0.102 -0.5444,0.163 -0.4745,0.225 -0.4058,0.287 -0.3359,0.348 -0.2659,0.41 -0.1961,0.472 -0.1273,0.534 -0.03,0.632 0.1124,0.566 0.2385,0.503 0.3458,0.441 0.4346,0.382 0.5044,0.324 0.5582,0.268 0.5919,0.215 0.6081,0.163 0.6068,0.113 0.5856,0.065 0.5482,0.019 0.492,-0.025 0.4158,-0.066 1.0189,-0.264 0.6006,-0.228 0.4158,-0.258 0.46575,-0.353 0.47699,-0.437 0.42205,-0.563 0.36461,-0.687 0.13735,0.084 0.24599,0.034 0.35212,-0.017 0.46076,-0.066 0.56939,-0.117 0.67553,-0.166 0.78416,-0.217 0.89155,-0.266 m 3.84838,-5.51325 0.16857,11.3177 -23.094,0.2366 v -11.5538 z m -1.81056,1.78775 0.1411,8.0495 -19.42547,0.029 v -7.89675 z"
     sodipodi:nodetypes="ccccccccccccccccccccccccccccccccccccccccccccccccccccccccccccccccccccccccccccccccccccccccccccccccccccccc"
     style="fill:#ffffff;fill-opacity:1" />
  <path
     id="shape03"
     fill="#000000"
     fill-rule="evenodd"
     stroke-opacity="0"
     stroke="#000000"
     stroke-width="0"
     stroke-linecap="square"
     stroke-linejoin="bevel"
     d="m 109.28127,107.38095 0.37585,-0.179 0.41706,-0.159 0.4595,-0.141 0.50072,-0.12 0.54192,-0.102 0.58437,-0.082 0.62558,-0.063 0.66804,-0.043 0.49947,-0.016 0.49821,0.001 0.49572,0.018 0.49321,0.036 0.4932,0.052 0.4895,0.07 0.4895,0.086 0.4857,0.104 0.4858,0.121 0.4819,0.138 0.482,0.155 -0.4994,0.139 -0.4995,0.138 -0.4995,0.133 -0.4994,0.124 -0.4995,0.109 -0.4995,0.091 -0.4994,0.069 -0.49951,0.041 -0.49946,0.011 0.41955,0.385 0.43703,0.335 0.45449,0.285 0.4695,0.235 0.487,0.185 0.5045,0.135 0.5194,0.085 0.5369,0.035 0.5544,-0.015 0.8666,-0.156 0.7093,-0.307 0.5544,-0.421 0.4045,-0.494 0.261,-0.531 0.1199,-0.527 -0.0163,-0.487 -0.1461,-0.407 -0.2097,-0.265 -0.3084,-0.253 -0.4071,-0.242 -0.5057,-0.232 -0.6044,-0.22 -0.703,-0.21 -0.8016,-0.198 0.8229,-0.084 0.7541,-0.022 0.6843,0.04 0.6144,0.102 0.5444,0.163 0.4745,0.225 0.40579,0.287 0.3359,0.348 0.2659,0.41 0.1961,0.472 0.1273,0.534 0.03,0.632 -0.1124,0.566 -0.2385,0.503 -0.3458,0.441 -0.4346,0.382 -0.50439,0.324 -0.5582,0.268 -0.5919,0.215 -0.6081,0.163 -0.6068,0.113 -0.5856,0.065 -0.5482,0.019 -0.492,-0.025 -0.4158,-0.066 -1.0189,-0.264 -0.6006,-0.228 -0.4158,-0.258 -0.46575,-0.353 -0.47699,-0.437 -0.42205,-0.563 -0.36461,-0.687 -0.13735,0.084 -0.24599,0.034 -0.35212,-0.017 -0.46076,-0.066 -0.56939,-0.117 -0.67553,-0.166 -0.78416,-0.217 -0.89155,-0.266 m -3.84838,-5.51325 -0.16857,11.3177 23.09399,0.2366 v -11.5538 z m 1.81056,1.78775 -0.1411,8.0495 19.42546,0.029 v -7.89675 z"
     sodipodi:nodetypes="ccccccccccccccccccccccccccccccccccccccccccccccccccccccccccccccccccccccccccccccccccccccccccccccccccccccc"
     style="fill:#ffffff;fill-opacity:1" />
  <path
     id="shape04"
     fill="#000000"
     fill-rule="evenodd"
     stroke-opacity="0"
     stroke="#000000"
     stroke-width="0"
     stroke-linecap="square"
     stroke-linejoin="bevel"
     d="m 51.7027,120.86517 -0.305971,0.12184 -0.312386,0.15753 -0.320761,0.19285 -0.326488,0.2291 -0.334261,0.26367 -0.341276,0.30012 -0.348363,0.33524 -0.355386,0.37169 -0.254646,0.28701 -0.242388,0.29584 -0.229531,0.30396 -0.215989,0.31262 -0.205026,0.32164 -0.190897,0.3296 -0.17987,0.33856 -0.165769,0.34653 -0.154127,0.35612 -0.140641,0.36347 -0.12899,0.37305 0.338938,-0.21771 0.338187,-0.2182 0.334767,-0.22102 0.328598,-0.22609 0.31833,-0.23455 0.306044,-0.24475 0.290943,-0.25712 0.271764,-0.2729 0.251227,-0.28983 0.05899,0.46573 0.01622,0.4479 -0.02656,0.43007 -0.06811,0.41077 -0.11088,0.39292 -0.153674,0.37514 -0.195183,0.35574 -0.238043,0.33795 -0.280761,0.32013 -0.529593,0.42564 -0.556329,0.24729 -0.55884,0.0912 -0.535749,-0.0387 -0.490994,-0.14475 -0.419414,-0.2261 -0.325678,-0.28416 -0.207449,-0.3161 -0.07917,-0.2737 -0.02279,-0.32548 0.03287,-0.37771 0.08782,-0.43052 0.14416,-0.48219 0.199176,-0.53508 0.25551,-0.58676 -0.459015,0.44035 -0.383057,0.43461 -0.306457,0.42812 -0.229873,0.4216 -0.153952,0.41455 -0.07743,0.40812 -0.0014,0.40231 0.0745,0.39525 0.151031,0.38882 0.227624,0.38231 0.303588,0.37659 0.418243,0.37409 0.442512,0.25249 0.460877,0.14224 0.470783,0.0437 0.473663,-0.0422 0.467976,-0.11629 0.45593,-0.17969 0.436028,-0.22962 0.408317,-0.26849 0.373479,-0.29588 0.330216,-0.31051 0.28049,-0.31413 0.222909,-0.30572 0.157627,-0.28368 0.316292,-0.75272 0.136926,-0.48448 0.02615,-0.39192 -0.01457,-0.4751 -0.06655,-0.52906 -0.179689,-0.56757 -0.292645,-0.60344 0.124547,-0.034 0.143303,-0.12663 0.160155,-0.21828 0.179599,-0.31029 0.19767,-0.40343 0.215886,-0.49397 0.233971,-0.58711 0.252791,-0.67838 m -1.73667,-5.25613 9.794172,5.8268 -12.210443,14.97923 -12.38481,-8.04249 14.801081,-12.76354 m 0.133044,1.90979 7.889042,4.20597 -10.701426,12.65363 -9.760265,-6.22015 12.572649,-10.63945"
     sodipodi:nodetypes="ccccccccccccccccccccccccccccccccccccccccccccccccccccccccccccccccccccccccccccccccccccccccccccccccccccccc"
     style="fill:#ffffff;fill-opacity:1" />
  <path
     id="shape05"
     fill="#000000"
     fill-rule="evenodd"
     stroke-opacity="0"
     stroke="#000000"
     stroke-width="0"
     stroke-linecap="square"
     stroke-linejoin="bevel"
     d="m 98.114176,120.53807 0.305971,0.12184 0.312386,0.15753 0.320761,0.19284 0.326488,0.2291 0.334261,0.26368 0.341277,0.30012 0.34836,0.33524 0.35539,0.37169 0.25464,0.28701 0.24239,0.29584 0.22953,0.30396 0.21599,0.31261 0.20503,0.32165 0.19089,0.3296 0.17988,0.33856 0.16576,0.34653 0.15413,0.35612 0.14064,0.36347 0.12899,0.37305 -0.33894,-0.21771 -0.33818,-0.2182 -0.33477,-0.22102 -0.3286,-0.22609 -0.31833,-0.23455 -0.30604,-0.24475 -0.29095,-0.25712 -0.27176,-0.27291 -0.25123,-0.28982 -0.059,0.46573 -0.0162,0.4479 0.0266,0.43007 0.0681,0.41076 0.11088,0.39293 0.15368,0.37514 0.19518,0.35574 0.23804,0.33794 0.28076,0.32014 0.5296,0.42563 0.55633,0.24729 0.55884,0.0912 0.53575,-0.0387 0.49099,-0.14475 0.41941,-0.2261 0.32568,-0.28416 0.20745,-0.3161 0.0792,-0.27371 0.0228,-0.32547 -0.0329,-0.37771 -0.0878,-0.43052 -0.14416,-0.48219 -0.19918,-0.53508 -0.2555,-0.58676 0.45901,0.44034 0.38306,0.43462 0.30645,0.42811 0.22988,0.42161 0.15395,0.41455 0.0774,0.40812 0.001,0.40231 -0.0745,0.39524 -0.15103,0.38882 -0.22763,0.38232 -0.30358,0.37659 -0.41825,0.37408 -0.44251,0.2525 -0.46088,0.14224 -0.47078,0.0437 -0.47366,-0.0422 -0.46798,-0.11628 -0.45593,-0.17969 -0.43603,-0.22962 -0.40831,-0.26849 -0.37348,-0.29588 -0.33022,-0.31051 -0.280487,-0.31414 -0.22291,-0.30571 -0.157627,-0.28369 -0.316292,-0.75271 -0.136926,-0.48448 -0.02615,-0.39192 0.01457,-0.4751 0.06655,-0.52906 0.179689,-0.56757 0.292645,-0.60344 -0.124547,-0.0341 -0.143303,-0.12662 -0.160155,-0.21828 -0.179599,-0.3103 -0.197669,-0.40343 -0.215887,-0.49397 -0.233971,-0.5871 -0.252791,-0.67838 m 1.73667,-5.25614 -9.794172,5.82681 12.210442,14.97922 12.38481,-8.04248 -14.80108,-12.76355 m -0.133044,1.9098 -7.889042,4.20597 10.701426,12.65363 9.76026,-6.22015 -12.572644,-10.63945"
     sodipodi:nodetypes="ccccccccccccccccccccccccccccccccccccccccccccccccccccccccccccccccccccccccccccccccccccccccccccccccccccccc"
     style="fill:#ffffff;fill-opacity:1" />
  <path
     id="shape06"
     fill="#000000"
     fill-rule="evenodd"
     stroke-opacity="0"
     stroke="#000000"
     stroke-width="0"
     stroke-linecap="square"
     stroke-linejoin="bevel"
     d="m 52.746963,95.273809 -0.326864,-0.0403 -0.342115,-0.0732 -0.359169,-0.105238 -0.373899,-0.138856 -0.390182,-0.170326 -0.406207,-0.203808 -0.421967,-0.235985 -0.437997,-0.269459 -0.319085,-0.213085 -0.309465,-0.224739 -0.299084,-0.235843 -0.28818,-0.247654 -0.279863,-0.259163 -0.268214,-0.27045 -0.259817,-0.2819 -0.248198,-0.293196 -0.239366,-0.305418 -0.228183,-0.315942 -0.219344,-0.328172 0.383056,0.124683 0.382453,0.125346 0.379859,0.128937 0.375178,0.135413 0.367388,0.146192 0.358091,0.159178 0.346618,0.174969 0.332067,0.195102 0.316489,0.216675 -0.061,-0.465472 -0.09784,-0.437381 -0.134712,-0.409293 -0.17001,-0.380083 -0.206862,-0.351983 -0.243751,-0.323935 -0.278985,-0.294643 -0.315933,-0.266563 -0.352742,-0.238507 -0.620191,-0.277485 -0.600844,-0.09819 -0.56371,0.05342 -0.508434,0.173269 -0.438264,0.264484 -0.3484,0.325033 -0.243008,0.357435 -0.120545,0.35836 -0.0072,0.284837 0.06046,0.320619 0.127539,0.35704 0.194084,0.394198 0.261683,0.429898 0.32831,0.467116 0.395902,0.502823 -0.555646,-0.309606 -0.480717,-0.323316 -0.404971,-0.336449 -0.329239,-0.349564 -0.254008,-0.361984 -0.178356,-0.375158 -0.103341,-0.388818 -0.02812,-0.40122 0.04754,-0.414404 0.123275,-0.427527 0.19821,-0.441246 0.309753,-0.467891 0.364053,-0.356423 0.409768,-0.254418 0.444338,-0.161575 0.468883,-0.07927 0.482167,-0.0061 0.486588,0.05825 0.479993,0.111592 0.463041,0.156219 0.436283,0.191539 0.398142,0.216658 0.35096,0.232777 0.293125,0.239224 0.22439,0.23446 0.496769,0.647954 0.255266,0.433947 0.12464,0.37249 0.106339,0.463272 0.06974,0.528653 -0.02995,0.594578 -0.130118,0.657917 0.129108,0.0014 0.170722,0.08616 0.210256,0.170551 0.25239,0.254633 0.293479,0.340145 0.334053,0.423111 0.375156,0.508619 0.416499,0.592142 m -0.347558,5.524681 7.997219,-8.119231 -15.608736,-11.394708 -9.941582,10.91925 17.553099,8.594689 m -0.35542,-1.881139 6.565185,-6.0684 -13.559487,-9.527599 -7.86471,8.491132 14.859012,7.104867"
     sodipodi:nodetypes="ccccccccccccccccccccccccccccccccccccccccccccccccccccccccccccccccccccccccccccccccccccccccccccccccccccccc"
     style="fill:#ffffff;fill-opacity:1" />
  <path
     id="shape011"
     fill="#000000"
     fill-rule="evenodd"
     stroke-opacity="0"
     stroke="#000000"
     stroke-width="0"
     stroke-linecap="square"
     stroke-linejoin="bevel"
     d="m 97.905897,95.821429 0.324786,-0.05457 0.338581,-0.08811 0.354216,-0.120865 0.36746,-0.155096 0.382348,-0.18725 0.396892,-0.221401 0.41123,-0.254238 0.42578,-0.28838 0.30944,-0.226854 0.29933,-0.238076 0.28847,-0.248714 0.27706,-0.260037 0.26824,-0.27117 0.25611,-0.281936 0.24723,-0.293007 0.23512,-0.303784 0.22576,-0.315607 0.21413,-0.325631 0.20476,-0.337464 -0.37723,0.141339 -0.3766,0.141974 -0.37384,0.145448 -0.36889,0.151713 -0.36064,0.162141 -0.35077,0.174706 -0.33863,0.18998 -0.3232,0.209457 -0.3067,0.230327 0.0406,-0.467697 0.0786,-0.441246 0.11666,-0.4148 0.1532,-0.387163 0.19125,-0.360705 0.22933,-0.334299 0.26582,-0.306577 0.30396,-0.280142 0.34195,-0.253725 0.60745,-0.304379 0.59597,-0.124405 0.56551,0.02868 0.51553,0.150838 0.44942,0.245038 0.36231,0.309464 0.25842,0.34645 0.13612,0.352738 0.0197,0.284247 -0.0464,0.322959 -0.11178,0.362283 -0.17663,0.40232 -0.24261,0.440945 -0.30754,0.481045 -0.3735,0.519678 0.54155,-0.333642 0.4661,-0.344057 0.38985,-0.35386 0.31362,-0.363648 0.23791,-0.372759 0.16175,-0.382609 0.0862,-0.392971 0.0105,-0.402067 -0.0656,-0.411924 -0.14187,-0.421719 -0.21735,-0.432143 -0.32994,-0.453877 -0.37932,-0.340139 -0.42051,-0.236228 -0.45099,-0.141962 -0.4719,-0.05867 -0.48198,0.01498 -0.48357,0.0795 -0.47464,0.132504 -0.45576,0.176347 -0.42748,0.21046 -0.38827,0.233886 -0.34043,0.247924 -0.28237,0.25183 -0.2139,0.244062 -0.46792,0.669087 -0.23602,0.444709 -0.108206,0.37759 -0.08595,0.467485 -0.04652,0.5312 0.05596,0.592696 0.158804,0.651588 -0.128925,0.007 -0.166785,0.09356 -0.202585,0.179595 -0.240997,0.265441 -0.278302,0.352671 -0.315204,0.437333 -0.352522,0.524561 -0.390169,0.609813 m 0.589161,5.504162 -8.345104,-7.761231 15.094764,-12.067311 10.41022,10.473413 -17.15988,9.355129 m 0.2727,-1.8949 -6.824634,-5.775077 13.129244,-10.112254 8.22901,8.138575 -14.53362,7.748756"
     sodipodi:nodetypes="ccccccccccccccccccccccccccccccccccccccccccccccccccccccccccccccccccccccccccccccccccccccccccccccccccccccc"
     style="fill:#ffffff;fill-opacity:1" />
  <path
     id="shape4"
     fill="#000000"
     fill-rule="evenodd"
     d="m 70.824878,33.923762 5.76,-6.84 6.12,6.93 -9.36,12.06 -12.6,-10.89 9,-13.14 1.44,-16.1099996 2.25,18.4499996 -7.92,9.99 7.74,6.93 6.3,-6.93 -3.24,-4.32 -5.49,3.87"
     sodipodi:nodetypes="ccccccccccccc"
     style="fill:#ffffff;fill-opacity:1" />
  <path
     id="shape5"
     fill="#000000"
     fill-rule="evenodd"
     d="m 42.024898,56.783772 -3.51,5.04 6.39,2.25 3.6,-9.72 -9.72,-6.66 4.68,-8.28 -1.8,-6.57 4.23,7.02 -3.69,7.29 9.63,5.49 -4.95,15.39 -11.34,-5.4 6.48,-5.85"
     sodipodi:nodetypes="ccccccccccccc"
     style="fill:#ffffff;fill-opacity:1" />
  <path
     id="shape6"
     fill="#000000"
     fill-rule="evenodd"
     d="m 107.54485,56.603752 5.49,6.84 -7.11,7.2 -5.22,-3.33 -3.420002,-10.98 8.730002,-6.57 -4.77,-7.2 4.23,-7.29 -2.25,7.38 6.48,7.56 -8.37,7.83 2.16,6.39 2.16,1.44 3.51,-2.79 -1.62,-6.48"
     sodipodi:nodetypes="ccccccccccccccc"
     style="fill:#ffffff;fill-opacity:1" />
  <path
     id="shape7"
     fill="#000000"
     fill-rule="evenodd"
     d="m 91.929898,28.366272 -2.9025,7.6275 3.0375,5.4675 -3.0375,7.0875 5.94,-7.425 -2.9025,-5.94 -0.135,-6.8175"
     sodipodi:nodetypes="ccccccc"
     style="fill:#ffffff;fill-opacity:1" />
  <path
     id="shape8"
     fill="#000000"
     fill-rule="evenodd"
     d="m 55.344848,26.723752 2.07,6.75 -4.14,4.14 5.67,5.31 -4.59,8.1 1.89,-8.1 -7.02,-5.4 6.93,-5.22 -0.81,-5.58"
     sodipodi:nodetypes="ccccccccc"
     style="fill:#ffffff;fill-opacity:1" />
  <path
     id="shape9"
     fill="#000000"
     fill-rule="evenodd"
     d="m 42.114848,71.453752 -1.26,6.57 6.84,3.6 -4.14,-4.86 -1.44,-5.31"
     sodipodi:nodetypes="ccccc"
     style="fill:#ffffff;fill-opacity:1" />
  <path
     id="shape10"
     fill="#000000"
     fill-rule="evenodd"
     d="m 111.05487,69.923762 -5.76,6.48 -1.62,-4.41 0.54,6.75 -2.88,3.24 6.84,-2.79 2.88,-9.27"
     sodipodi:nodetypes="ccccccc"
     style="fill:#ffffff;fill-opacity:1" />
</svg>
