<?xml version="1.0" encoding="UTF-8" standalone="no"?>
<!-- Created using Krita: https://krita.org -->

<svg
   width="150pt"
   height="150pt"
   viewBox="0 0 150 150"
   version="1.1"
   id="svg1"
   sodipodi:docname="Touched.svg"
   inkscape:version="1.3.2 (091e20e, 2023-11-25, custom)"
   xmlns:inkscape="http://www.inkscape.org/namespaces/inkscape"
   xmlns:sodipodi="http://sodipodi.sourceforge.net/DTD/sodipodi-0.dtd"
   xmlns="http://www.w3.org/2000/svg"
   xmlns:svg="http://www.w3.org/2000/svg">
  <sodipodi:namedview
     id="namedview1"
     pagecolor="#a4a4a4"
     bordercolor="#000000"
     borderopacity="0.25"
     inkscape:showpageshadow="2"
     inkscape:pageopacity="0.0"
     inkscape:pagecheckerboard="0"
     inkscape:deskcolor="#d1d1d1"
     inkscape:document-units="pt"
     showgrid="true"
     inkscape:zoom="2.5279067"
     inkscape:cx="77.138922"
     inkscape:cy="55.777374"
     inkscape:window-width="1920"
     inkscape:window-height="1017"
     inkscape:window-x="-8"
     inkscape:window-y="32"
     inkscape:window-maximized="1"
     inkscape:current-layer="svg1">
    <inkscape:grid
       id="grid1"
       units="pt"
       originx="0"
       originy="0"
       spacingx="1"
       spacingy="1"
       empcolor="#0099e5"
       empopacity="0.30196078"
       color="#0099e5"
       opacity="0.14901961"
       empspacing="5"
       dotted="false"
       gridanglex="30"
       gridanglez="30"
       visible="true" />
  </sodipodi:namedview>
  <defs
     id="defs1" />
  <path
     id="shape0"
     fill="#000000"
     fill-rule="evenodd"
     stroke-opacity="0"
     stroke="#000000"
     stroke-width="0"
     stroke-linecap="square"
     stroke-linejoin="bevel"
     d="m 55.714269,70.69473 h 1.98 c 4.2415,0 8.0815,1.41 11.52,4.23 -3.4385,2.82 -7.2785,4.23 -11.52,4.23 h -1.98 c -4.24155,0 -8.08155,-1.41 -11.52,-4.23 3.43845,-2.82 7.27845,-4.23 11.52,-4.23 z"
     sodipodi:nodetypes="ccccccc"
     style="fill:#ffffff;fill-opacity:1" />
  <path
     id="shape01"
     fill="#000000"
     fill-rule="evenodd"
     stroke-opacity="0"
     stroke="#000000"
     stroke-width="0"
     stroke-linecap="square"
     stroke-linejoin="bevel"
     d="m 92.883139,70.66323 h 1.98 c 4.2415,0 8.081501,1.41 11.520001,4.23 -3.4385,2.82 -7.278501,4.23 -11.520001,4.23 h -1.98 c -4.24155,0 -8.08155,-1.41 -11.52,-4.23 3.43845,-2.82 7.27845,-4.23 11.52,-4.23 z"
     sodipodi:nodetypes="ccccccc"
     style="fill:#ffffff;fill-opacity:1" />
  <path
     id="shape02"
     fill="#000000"
     fill-rule="evenodd"
     stroke-opacity="0"
     stroke="#000000"
     stroke-width="0"
     stroke-linecap="square"
     stroke-linejoin="bevel"
     d="m 79.526002,55.327767 v 1.98 c 0,4.2415 -1.41,8.0815 -4.23,11.52 -2.82,-3.4385 -4.23,-7.2785 -4.23,-11.52 v -1.98 c 0,-4.24155 1.41,-8.08155 4.23,-11.52 2.82,3.43845 4.23,7.27845 4.23,11.52 z"
     sodipodi:nodetypes="ccccccc"
     style="fill:#ffffff;fill-opacity:1" />
  <path
     id="shape011"
     fill="#000000"
     fill-rule="evenodd"
     stroke-opacity="0"
     stroke="#000000"
     stroke-width="0"
     stroke-linecap="square"
     stroke-linejoin="bevel"
     d="m 79.557496,92.496633 v 1.98 c 0,4.2415 -1.41,8.081497 -4.23,11.519997 -2.82,-3.4385 -4.23,-7.278497 -4.23,-11.519997 v -1.98 c 0,-4.24155 1.41,-8.08155 4.23,-11.52 2.82,3.43845 4.23,7.27845 4.23,11.52 z"
     sodipodi:nodetypes="ccccccc"
     style="fill:#ffffff;fill-opacity:1" />
  <path
     id="shape1"
     fill="#000000"
     fill-rule="evenodd"
     stroke-opacity="0"
     stroke="#000000"
     stroke-width="0"
     stroke-linecap="square"
     stroke-linejoin="bevel"
     d="m 97.654279,74.92473 -0.008,-0.595 -0.022,-0.591 -0.038,-0.586 -0.052,-0.583 -0.066,-0.579 -0.081,-0.574 -0.096,-0.569 -0.108,-0.564 -0.123,-0.559 -0.137,-0.554 -0.149,-0.549 -0.163,-0.543 -0.176,-0.537 -0.189,-0.531 -0.201,-0.525 -0.214,-0.518 -0.226,-0.512 -0.238,-0.505 -0.25,-0.498 -0.262,-0.491 -0.273,-0.484 -0.284,-0.476 -0.175,-0.276 1.154,-1.2 1.288,-1.342 1.27,-1.33 1.254,-1.317 1.236001,-1.303 1.218,-1.288 1.199,-1.274 1.181,-1.259 1.161,-1.244 1.141,-1.227 1.122,-1.21 1.101,-1.194 1.079,-1.176 1.059,-1.157 1.036,-1.14 1.014,-1.12 0.992,-1.101 0.968,-1.08 0.945,-1.061 0.92,-1.039 0.897,-1.018 0.871,-0.996 0.846,-0.973 0.821,-0.95 0.794,-0.928 0.767,-0.903 0.741,-0.878 0.713,-0.854 0.686,-0.829 0.657,-0.803 0.628,-0.776 0.599,-0.75 0.57,-0.722 0.539,-0.694 0.51,-0.667 0.478,-0.637 0.447,-0.608 0.415,-0.579 0.383,-0.548 0.351,-0.517 0.317,-0.487 0.285,-0.454 0.25,-0.423 0.216,-0.39 0.181,-0.357 0.146,-0.323 0.111,-0.289 0.074,-0.254 0.038,-0.219 0.002,-0.184 -0.036,-0.148 -0.074,-0.111 -0.111,-0.074 -0.148,-0.036 -0.184,0.002 -0.219,0.038 -0.254,0.074 -0.289,0.111 -0.323,0.146 -0.357,0.181 -0.39,0.216 -0.423,0.25 -0.454,0.285 -0.487,0.317 -0.517,0.351 -0.548,0.383 -0.579,0.415 -0.608,0.447 -0.637,0.478 -0.667,0.51 -0.694,0.539 -0.722,0.57 -0.75,0.599 -0.776,0.628 -0.803,0.657 -0.829,0.686 -0.854,0.713 -0.878,0.741 -0.903,0.767 -0.928,0.794 -0.95,0.821 -0.973,0.846 -0.996,0.871 -1.018,0.897 -1.039,0.92 -1.061,0.945 -1.08,0.968 -1.101,0.992 -1.12,1.014 -1.14,1.036 -1.157,1.059 -1.176,1.079 -1.194,1.101 -1.21,1.122 -1.227001,1.141 -1.244,1.161 -1.259,1.181 -1.274,1.199 -1.288,1.218 -1.303,1.236 -1.317,1.254 -1.33,1.27 -1.342,1.288 -1.144,1.1 -0.426,-0.274 -0.473,-0.287 -0.48,-0.275 -0.487,-0.264 -0.494,-0.252 -0.501,-0.24 -0.508,-0.228 -0.514,-0.215 -0.521,-0.203 -0.527,-0.19 -0.533,-0.178 -0.538,-0.164 -0.544,-0.151 -0.55,-0.137 -0.555,-0.124 -0.56,-0.11 -0.564,-0.095 -0.57,-0.082 -0.573,-0.067 -0.579,-0.053 -0.582,-0.038 -0.586,-0.022 -0.59,-0.008 -0.59,0.008 -0.586,0.022 -0.582,0.038 -0.579,0.053 -0.573,0.067 -0.57,0.082 -0.564,0.095 -0.56,0.11 -0.555,0.124 -0.55,0.137 -0.544,0.151 -0.538,0.164 -0.533,0.178 -0.527,0.19 -0.521,0.203 -0.514,0.215 -0.508,0.228 -0.501,0.24 -0.494,0.252 -0.487,0.264 -0.48,0.275 -0.473,0.287 -0.426,0.274 -1.144,-1.1 -1.342,-1.288 -1.33,-1.27 -1.317,-1.254 -1.303,-1.236 -1.288,-1.218 -1.274,-1.199 -1.259,-1.181 -1.244,-1.161 -1.227,-1.141 -1.21,-1.122 -1.194,-1.101 -1.176,-1.079 -1.157,-1.059 -1.14,-1.036 -1.12,-1.014 -1.101,-0.992 -1.08,-0.968 -1.061,-0.945 -1.039,-0.92 -1.018,-0.897 -0.996,-0.871 -0.973,-0.846 -0.95,-0.821 -0.928,-0.794 -0.903,-0.767 -0.878,-0.741 -0.854,-0.713 -0.829,-0.686 -0.803,-0.657 -0.776,-0.628 -0.75,-0.599 -0.722,-0.57 -0.694,-0.539 -0.667,-0.51 -0.637,-0.478 -0.608,-0.447 -0.579,-0.415 -0.548,-0.383 -0.517,-0.351 -0.487,-0.317 -0.454,-0.285 -0.423,-0.25 -0.39,-0.216 -0.357,-0.181 -0.323,-0.146 -0.289,-0.111 -0.254,-0.074 -0.219,-0.038 -0.184,-0.002 -0.148,0.036 -0.111,0.074 -0.074,0.111 -0.036,0.148 0.002,0.184 0.038,0.219 0.074,0.254 0.111,0.289 0.146,0.323 0.181,0.357 0.216,0.39 0.25,0.423 0.285,0.454 0.317,0.487 0.351,0.517 0.383,0.548 0.415,0.579 0.447,0.608 0.478,0.637 0.51,0.667 0.539,0.694 0.57,0.722 0.599,0.75 0.628,0.776 0.657,0.803 0.686,0.829 0.713,0.854 0.741,0.878 0.767,0.903 0.794,0.928 0.821,0.95 0.846,0.973 0.871,0.996 0.897,1.018 0.92,1.039 0.945,1.061 0.968,1.08 0.992,1.101 1.014,1.12 1.036,1.14 1.059,1.157 1.079,1.176 1.101,1.194 1.122,1.21 1.141,1.227 1.161,1.244 1.181,1.259 1.199,1.274 1.218,1.288 1.236,1.303 1.254,1.317 1.27,1.33 1.288,1.342 1.154,1.2 -0.175,0.276 -0.284,0.476 -0.273,0.484 -0.262,0.491 -0.25,0.498 -0.238,0.505 -0.226,0.512 -0.214,0.518 -0.201,0.525 -0.189,0.531 -0.176,0.537 -0.163,0.543 -0.149,0.549 -0.137,0.554 -0.123,0.559 -0.108,0.564 -0.096,0.569 -0.081,0.574 -0.066,0.579 -0.052,0.583 -0.038,0.586 -0.022,0.591 -0.008,0.595 0.008,0.595 0.022,0.591 0.038,0.586 0.052,0.583 0.066,0.579 0.081,0.574 0.096,0.569 0.108,0.564 0.123,0.559 0.137,0.554 0.149,0.549 0.163,0.543 0.176,0.537 0.189,0.531 0.201,0.525 0.214,0.518 0.226,0.512 0.238,0.505 0.25,0.498 0.262,0.491 0.273,0.484 0.284,0.476 0.175,0.276 -1.154,1.2 -1.288,1.342 -1.27,1.33 -1.254,1.317 -1.236,1.303 -1.218,1.288 -1.199,1.274 -1.181,1.259 -1.161,1.244 -1.141,1.227 -1.122,1.21 -1.101,1.194 -1.079,1.176 -1.059,1.157 -1.036,1.14 -1.014,1.12 -0.992,1.101 -0.968,1.08 -0.945,1.061 -0.92,1.039 -0.897,1.018 -0.871,0.996 -0.846,0.973 -0.821,0.95 -0.794,0.928 -0.767,0.903 -0.741,0.878 -0.713,0.854 -0.686,0.829 -0.657,0.803 -0.628,0.776 -0.599,0.75 -0.57,0.722 -0.539,0.694 -0.51,0.667 -0.478,0.637 -0.447,0.608 -0.415,0.579 -0.383,0.548 -0.351,0.517 -0.317,0.487 -0.285,0.454 -0.25,0.423 -0.216,0.39 -0.181,0.357 -0.146,0.323 -0.111,0.289 -0.074,0.254 -0.038,0.219 -0.002,0.184 0.036,0.148 0.074,0.111 0.111,0.074 0.148,0.036 0.184,-0.002 0.219,-0.038 0.254,-0.074 0.289,-0.111 0.323,-0.146 0.357,-0.181 0.39,-0.216 0.423,-0.25 0.454,-0.285 0.487,-0.317 0.517,-0.351 0.548,-0.383 0.579,-0.415 0.608,-0.447 0.637,-0.478 0.667,-0.51 0.694,-0.539 0.722,-0.57 0.75,-0.599 0.776,-0.628 0.803,-0.657 0.829,-0.686 0.854,-0.713 0.878,-0.741 0.903,-0.767 0.928,-0.794 0.95,-0.821 0.973,-0.846 0.996,-0.871 1.018,-0.897 1.039,-0.92 1.061,-0.945 1.08,-0.968 1.101,-0.992 1.12,-1.014 1.14,-1.036 1.157,-1.059 1.176,-1.079 1.194,-1.101 1.21,-1.122 1.227,-1.141 1.244,-1.161 1.259,-1.181 1.274,-1.199 1.288,-1.218 1.303,-1.236 1.317,-1.254 1.33,-1.27 1.342,-1.288 1.144,-1.1 0.426,0.274 0.473,0.287 0.48,0.275 0.487,0.264 0.494,0.252 0.501,0.24 0.508,0.228 0.514,0.215 0.521,0.203 0.527,0.19 0.533,0.178 0.538,0.164 0.544,0.151 0.55,0.137 0.555,0.124 0.56,0.11 0.564,0.095 0.57,0.082 0.573,0.067 0.579,0.053 0.582,0.038 0.586,0.022 0.59,0.008 0.59,-0.008 0.586,-0.022 0.582,-0.038 0.579,-0.053 0.573,-0.067 0.57,-0.082 0.564,-0.095 0.56,-0.11 0.555,-0.124 0.55,-0.137 0.544,-0.151 0.538,-0.164 0.533,-0.178 0.527,-0.19 0.521,-0.203 0.514,-0.215 0.508,-0.228 0.501,-0.24 0.494,-0.252 0.487,-0.264 0.48,-0.275 0.473,-0.287 0.426,-0.274 1.144,1.1 1.342,1.288 1.33,1.27 1.317,1.254 1.303,1.236 1.288,1.218 1.274,1.199 1.259,1.181 1.244,1.161 1.227001,1.141 1.21,1.122 1.194,1.101 1.176,1.079 1.157,1.059 1.14,1.036 1.12,1.014 1.101,0.992 1.08,0.968 1.061,0.945 1.039,0.92 1.018,0.897 0.996,0.871 0.973,0.846 0.95,0.821 0.928,0.794 0.903,0.767 0.878,0.741 0.854,0.713 0.829,0.686 0.803,0.657 0.776,0.628 0.75,0.599 0.722,0.57 0.694,0.539 0.667,0.51 0.637,0.478 0.608,0.447 0.579,0.415 0.548,0.383 0.517,0.351 0.487,0.317 0.454,0.285 0.423,0.25 0.39,0.216 0.357,0.181 0.323,0.146 0.289,0.111 0.254,0.074 0.219,0.038 0.184,0.002 0.148,-0.036 0.111,-0.074 0.074,-0.111 0.036,-0.148 -0.002,-0.184 -0.038,-0.219 -0.074,-0.254 -0.111,-0.289 -0.146,-0.323 -0.181,-0.357 -0.216,-0.39 -0.25,-0.423 -0.285,-0.454 -0.317,-0.487 -0.351,-0.517 -0.383,-0.548 -0.415,-0.579 -0.447,-0.608 -0.478,-0.637 -0.51,-0.667 -0.539,-0.694 -0.57,-0.722 -0.599,-0.75 -0.628,-0.776 -0.657,-0.803 -0.686,-0.829 -0.713,-0.854 -0.741,-0.878 -0.767,-0.903 -0.794,-0.928 -0.821,-0.95 -0.846,-0.973 -0.871,-0.996 -0.897,-1.018 -0.92,-1.039 -0.945,-1.061 -0.968,-1.08 -0.992,-1.101 -1.014,-1.12 -1.036,-1.14 -1.059,-1.157 -1.079,-1.176 -1.101,-1.194 -1.122,-1.21 -1.141,-1.227 -1.161,-1.244 -1.181,-1.259 -1.199,-1.274 -1.218,-1.288 -1.236001,-1.303 -1.254,-1.317 -1.27,-1.33 -1.288,-1.342 -1.154,-1.2 0.175,-0.276 0.284,-0.476 0.273,-0.484 0.262,-0.491 0.25,-0.498 0.238,-0.505 0.226,-0.512 0.214,-0.518 0.201,-0.525 0.189,-0.531 0.176,-0.537 0.163,-0.543 0.149,-0.549 0.137,-0.554 0.123,-0.559 0.108,-0.564 0.096,-0.569 0.081,-0.574 0.066,-0.579 0.052,-0.583 0.038,-0.586 0.022,-0.591 0.008,-0.595 m -3.96,-0.18 -0.009,-0.577 -0.027,-0.573 -0.045,-0.568 -0.062,-0.562 -0.079,-0.558 -0.097,-0.552 -0.113,-0.546 -0.129,-0.54 -0.145,-0.534 -0.161,-0.527 -0.177,-0.521 -0.192,-0.513 -0.207,-0.505 -0.222,-0.499 -0.236,-0.49 -0.25,-0.482 -0.265,-0.473 -0.278,-0.465 -0.291,-0.455 -0.304,-0.447 -0.318,-0.436 -0.33,-0.427 -0.342,-0.417 -0.355,-0.407 -0.366,-0.396 -0.378,-0.385 -0.388,-0.374 -0.4,-0.363 -0.411,-0.351 -0.421,-0.339 -0.431,-0.326 -0.442,-0.315 -0.45,-0.301 -0.461,-0.289 -0.469,-0.275 -0.478,-0.262 -0.487,-0.248 -0.494,-0.234 -0.503,-0.219 -0.511,-0.205 -0.518,-0.19 -0.526,-0.175 -0.532,-0.16 -0.539,-0.144 -0.546,-0.128 -0.551,-0.111 -0.558,-0.096 -0.563,-0.078 -0.568,-0.062 -0.574,-0.044 -0.578,-0.027 -0.583,-0.009 -0.583,0.009 -0.578,0.027 -0.574,0.044 -0.568,0.062 -0.563,0.078 -0.558,0.096 -0.551,0.111 -0.546,0.128 -0.539,0.144 -0.532,0.16 -0.526,0.175 -0.518,0.19 -0.511,0.205 -0.503,0.219 -0.494,0.234 -0.487,0.248 -0.478,0.262 -0.469,0.275 -0.461,0.289 -0.45,0.301 -0.442,0.315 -0.431,0.326 -0.421,0.339 -0.411,0.351 -0.4,0.363 -0.388,0.374 -0.378,0.385 -0.366,0.396 -0.355,0.407 -0.342,0.417 -0.33,0.427 -0.318,0.436 -0.304,0.447 -0.291,0.455 -0.278,0.465 -0.265,0.473 -0.25,0.482 -0.236,0.49 -0.222,0.499 -0.207,0.505 -0.192,0.513 -0.177,0.521 -0.161,0.527 -0.145,0.534 -0.129,0.54 -0.113,0.546 -0.097,0.552 -0.079,0.558 -0.062,0.562 -0.045,0.568 -0.027,0.573 -0.009,0.577 0.009,0.577 0.027,0.573 0.045,0.568 0.062,0.562 0.079,0.558 0.097,0.552 0.113,0.546 0.129,0.54 0.145,0.534 0.161,0.527 0.177,0.521 0.192,0.513 0.207,0.505 0.222,0.499 0.236,0.49 0.25,0.482 0.265,0.473 0.278,0.465 0.291,0.455 0.304,0.447 0.318,0.436 0.33,0.427 0.342,0.417 0.355,0.407 0.366,0.396 0.378,0.385 0.388,0.374 0.4,0.363 0.411,0.351 0.421,0.339 0.431,0.326 0.442,0.315 0.45,0.301 0.461,0.289 0.469,0.275 0.478,0.262 0.487,0.248 0.494,0.234 0.503,0.219 0.511,0.205 0.518,0.19 0.526,0.175 0.532,0.16 0.539,0.144 0.546,0.128 0.551,0.111 0.558,0.096 0.563,0.078 0.568,0.062 0.574,0.044 0.578,0.027 0.583,0.009 0.583,-0.009 0.578,-0.027 0.574,-0.044 0.568,-0.062 0.563,-0.078 0.558,-0.096 0.551,-0.111 0.546,-0.128 0.539,-0.144 0.532,-0.16 0.526,-0.175 0.518,-0.19 0.511,-0.205 0.503,-0.219 0.494,-0.234 0.487,-0.248 0.478,-0.262 0.469,-0.275 0.461,-0.289 0.45,-0.301 0.442,-0.315 0.431,-0.326 0.421,-0.339 0.411,-0.351 0.4,-0.363 0.388,-0.374 0.378,-0.385 0.366,-0.396 0.355,-0.407 0.342,-0.417 0.33,-0.427 0.318,-0.436 0.304,-0.447 0.291,-0.455 0.278,-0.465 0.265,-0.473 0.25,-0.482 0.236,-0.49 0.222,-0.499 0.207,-0.505 0.192,-0.513 0.177,-0.521 0.161,-0.527 0.145,-0.534 0.129,-0.54 0.113,-0.546 0.097,-0.552 0.079,-0.558 0.062,-0.562 0.045,-0.568 0.027,-0.573 0.009,-0.577"
     sodipodi:nodetypes="cccccccccccccccccccccccccccccccccccccccccccccccccccccccccccccccccccccccccccccccccccccccccccccccccccccccccccccccccccccccccccccccccccccccccccccccccccccccccccccccccccccccccccccccccccccccccccccccccccccccccccccccccccccccccccccccccccccccccccccccccccccccccccccccccccccccccccccccccccccccccccccccccccccccccccccccccccccccccccccccccccccccccccccccccccccccccccccccccccccccccccccccccccccccccccccccccccccccccccccccccccccccccccccccccccccccccccccccccccccccccccccccccccccccccccccccccccccccccccccccccccccccccccccccccccccccccccccccccccccccccccccccccccccccccccccccccccccccccccccccccccccccccccccccccccccccccccccccccccccccccccccccccccccccccccccccccccccccccccccccccccccccccccccccccccccccccccccccccccccccccccccccccccccccccccccccccccccccccccccccccccccccccccccccccccccccccccccccccccccccccccccccccccccccccccccccccccccccccccccccccccccccccc"
     style="fill:#ffffff;fill-opacity:1" />
  <path
     id="shape2"
     fill="#000000"
     fill-rule="evenodd"
     stroke-opacity="0"
     stroke="#000000"
     stroke-width="0"
     stroke-linecap="square"
     stroke-linejoin="bevel"
     d="m 137.25428,74.7447 -0.021,-1.628 -0.062,-1.618 -0.104,-1.607 -0.144,-1.596 -0.184,-1.584 -0.223,-1.571 -0.263,-1.559 -0.3,-1.545 -0.339,-1.531 -0.376,-1.517 -0.413,-1.502 -0.45,-1.486 -0.485,-1.471 -0.521,-1.454 -0.556,-1.437 -0.59,-1.419 -0.624,-1.402 -0.657,-1.383 -0.69,-1.364 -0.722,-1.345 -0.754,-1.324 -0.786,-1.304 -0.816,-1.283 -0.847,-1.261 -0.876,-1.239 -0.905,-1.217 -0.935,-1.193 -0.962,-1.17 -0.99,-1.146 -1.018,-1.121 -1.044,-1.096 -1.07,-1.06997 -1.096,-1.044 -1.121,-1.018 -1.146,-0.99 -1.17,-0.962 -1.193,-0.935 -1.217,-0.905 c -13.644801,-6.85242 -14.447901,-4.029224 -3.7712,3.70893 l 0.9182,0.64907 1.115,0.83 1.094,0.857 1.072,0.88197 1.051,0.908 1.027,0.932 1.005,0.957 0.981,0.981 0.957,1.005 0.933,1.028 0.907,1.05 0.883,1.072 0.856,1.094 0.83,1.116 0.803,1.136 0.776,1.156 0.749,1.176 0.72,1.195 0.691,1.214 0.662,1.233 0.633,1.25 0.602,1.268 0.572,1.285 0.541,1.301 0.509,1.317 0.478,1.333 0.444,1.348 0.413,1.363 0.378,1.376 0.345,1.391 0.311,1.404 0.275,1.416 0.241,1.429 0.205,1.44 0.168,1.452 0.132,1.463 0.095,1.473 0.057,1.483 0.02,1.492 -0.02,1.493 -0.057,1.483 -0.095,1.473 -0.132,1.463 -0.168,1.452 -0.205,1.44 -0.241,1.429 -0.275,1.416 -0.311,1.404 -0.345,1.39 -0.378,1.377 -0.413,1.363 -0.444,1.348 -0.478,1.332 -0.509,1.318 -0.541,1.301 -0.572,1.285 -0.602,1.268 -0.633,1.25 -0.662,1.233 -0.691,1.214 -0.72,1.195 -0.749,1.176 -0.776,1.156 -0.803,1.136 -0.83,1.115 -0.856,1.094 -0.883,1.073 -0.907,1.05 -0.933,1.028 -0.957,1.004 -0.981,0.981 -1.005,0.957 -1.027,0.933 -1.051,0.908 -1.072,0.882 -1.094,0.856 -1.115,0.8302 -0.997,0.705 c -12.639401,9.683 -10.168601,10.1 2.611,4.195 l 1.239,-0.876 1.217,-0.905 1.193,-0.935 1.17,-0.962 1.146,-0.99 1.121,-1.0182 1.096,-1.044 1.07,-1.07 1.044,-1.096 1.018,-1.121 0.99,-1.146 0.962,-1.17 0.935,-1.193 0.905,-1.217 0.876,-1.239 0.847,-1.261 0.816,-1.283 0.786,-1.304 0.754,-1.324 0.722,-1.345 0.69,-1.364 0.657,-1.383 0.624,-1.402 0.59,-1.419 0.556,-1.437 0.521,-1.454 0.485,-1.471 0.45,-1.486 0.413,-1.502 0.376,-1.517 0.339,-1.531 0.3,-1.545 0.263,-1.559 0.223,-1.571 0.184,-1.584 0.144,-1.596 0.104,-1.607 0.062,-1.618 0.021,-1.628 m -97.291001,-51.17297 -1.239,0.876 -1.217,0.905 -1.193,0.935 -1.17,0.962 -1.146,0.99 -1.121,1.018 -1.096,1.044 -1.07,1.06997 -1.044,1.096 -1.018,1.121 -0.99,1.146 -0.962,1.17 -0.935,1.193 -0.905,1.217 -0.876,1.239 -0.847,1.261 -0.816,1.283 -0.786,1.304 -0.754,1.324 -0.722,1.345 -0.69,1.364 -0.657,1.383 -0.624,1.402 -0.59,1.419 -0.556,1.437 -0.521,1.454 -0.485,1.471 -0.45,1.486 -0.413,1.502 -0.376,1.517 -0.339,1.531 -0.3,1.545 -0.263,1.559 -0.223,1.571 -0.184,1.584 -0.144,1.596 -0.104,1.607 -0.062,1.618 -0.021,1.628 0.021,1.628 0.062,1.618 0.104,1.607 0.144,1.596 0.184,1.584 0.223,1.571 0.263,1.559 0.3,1.545 0.339,1.531 0.376,1.517 0.413,1.502 0.45,1.486 0.485,1.471 0.521,1.454 0.556,1.437 0.59,1.419 0.624,1.402 0.657,1.383 0.69,1.364 0.722,1.345 0.754,1.324 0.786,1.304 0.816,1.283 0.847,1.261 0.876,1.239 0.905,1.217 0.935,1.193 0.962,1.17 0.99,1.146 1.018,1.121 1.044,1.096 1.07,1.07 1.096,1.044 1.121,1.0182 1.146,0.99 1.17,0.962 1.193,0.935 1.217,0.905 1.239,0.876 c 12.9307,5.713 13.6874,4.17 2.8585,-4.277 l -0.8805,-0.623 -1.115,-0.8302 -1.094,-0.856 -1.072,-0.882 -1.05,-0.908 -1.028,-0.933 -1.005,-0.957 -0.981,-0.981 -0.957,-1.004 -0.932,-1.028 -0.908,-1.05 -0.882,-1.073 -0.857,-1.094 -0.83,-1.115 -0.803,-1.136 -0.776,-1.156 -0.748,-1.176 -0.72,-1.195 -0.692,-1.214 -0.662,-1.233 -0.632,-1.25 -0.603,-1.268 -0.572,-1.285 -0.541,-1.301 -0.509,-1.318 -0.477,-1.332 -0.445,-1.348 -0.412,-1.363 -0.379,-1.377 -0.345,-1.39 -0.31,-1.404 -0.276,-1.416 -0.241,-1.429 -0.204,-1.44 -0.169,-1.452 -0.132,-1.463 -0.095,-1.473 -0.057,-1.483 -0.019,-1.493 0.019,-1.492 0.057,-1.483 0.095,-1.473 0.132,-1.463 0.169,-1.452 0.204,-1.44 0.241,-1.429 0.276,-1.416 0.31,-1.404 0.345,-1.391 0.379,-1.376 0.412,-1.363 0.445,-1.348 0.477,-1.333 0.509,-1.317 0.541,-1.301 0.572,-1.285 0.603,-1.268 0.632,-1.25 0.662,-1.233 0.692,-1.214 0.72,-1.195 0.748,-1.176 0.776,-1.156 0.803,-1.136 0.83,-1.116 0.857,-1.094 0.882,-1.072 0.908,-1.05 0.932,-1.028 0.957,-1.005 0.981,-0.981 1.005,-0.957 1.028,-0.932 1.05,-0.908 1.072,-0.88197 1.094,-0.857 1.115,-0.83 0.9592,-0.67805 c 4.4228,-4.62093 14.8626,-11.24565 -2.9372,-4.55595 z"
     sodipodi:nodetypes="ccccccccccccccccccccccccccccccccccccccccccccccccccccccccccccccccccccccccccccccccccccccccccccccccccccccccccccccccccccccccccccccccccccccccccccccccccccccccccccccccccccccccccccccccccccccccccccccccccccccccccccccccccccccccccccccccccccccccccccccccccccccccccccccccccccccccccccccccccccccccccccccccccccccccccccccccccccccccccccc"
     style="fill:#ffffff;fill-opacity:1" />
  <path
     id="shape03"
     fill="#000000"
     fill-rule="evenodd"
     stroke-opacity="0"
     stroke="#000000"
     stroke-width="0"
     stroke-linecap="square"
     stroke-linejoin="bevel"
     d="m 81.148587,36.303799 3.025839,-1.509359 -0.03765,-0.135828 -0.04784,-0.200307 -0.04083,-0.200945 -0.03368,-0.201269 -0.02651,-0.201593 -0.01967,-0.201743 -0.01267,-0.201571 -0.0058,-0.201735 0.0012,-0.20074 0.0082,-0.20059 0.01419,-0.199913 0.02135,-0.198615 0.02787,-0.19779 0.03421,-0.196491 0.04105,-0.195009 0.04707,-0.193541 0.05375,-0.191576 0.06026,-0.189951 0.06612,-0.187982 0.0723,-0.185374 0.07881,-0.182935 0.08451,-0.180478 0.09085,-0.177543 0.09672,-0.17477 0.102404,-0.171504 0.108921,-0.168251 0.114123,-0.165147 0.119822,-0.161072 0.125999,-0.157649 0.131375,-0.153413 0.137064,-0.149335 0.142435,-0.145085 0.147968,-0.140536 0.1535,-0.135965 0.158706,-0.131242 0.164072,-0.126197 0.108509,-0.07772 -1.582001,-3.171466 -0.0882,-0.221671 -0.04766,-0.223589 -0.0084,-0.219968 0.02967,-0.209676 0.06563,-0.193848 0.101066,-0.171653 0.134475,-0.143973 0.166544,-0.109927 0.187906,-0.06688 0.195902,-0.02083 0.197956,0.02249 0.194374,0.06415 0.185312,0.10244 0.170704,0.139018 0.1499,0.172586 0.124014,0.203808 1.591263,3.190035 8.77e-4,-3.5e-5 0.19946,-0.05514 0.200307,-0.04784 0.200994,-0.04087 0.201238,-0.03366 0.201562,-0.02651 0.201734,-0.01967 0.201634,-0.0127 0.201712,-0.0058 0.200731,0.0012 0.20063,0.0081 0.199865,0.01422 0.198614,0.02135 0.19783,0.02784 0.196438,0.03424 0.195027,0.04104 0.193563,0.04707 0.19154,0.05377 0.189965,0.06024 0.187982,0.06612 0.185365,0.0723 0.182916,0.07882 0.180497,0.0845 0.17753,0.09087 0.174836,0.09667 0.171455,0.102439 0.1683,0.108885 0.165116,0.11415 0.161023,0.119835 0.157716,0.125977 0.153373,0.131384 0.149379,0.137042 0.145045,0.142467 0.140528,0.147972 0.136005,0.153468 0.131242,0.158705 0.08583,0.111795 3.143153,-1.567877 0.221642,-0.08819 0.223634,-0.04768 0.21997,-0.0084 0.209599,0.0297 0.193877,0.06562 0.171662,0.101062 0.143965,0.134479 0.109903,0.166556 0.0669,0.187893 0.02083,0.195899 -0.0225,0.197961 -0.06418,0.194388 -0.102362,0.185273 -0.139021,0.170704 -0.172632,0.149923 -0.203778,0.123999 -3.103422,1.548059 0.05984,0.190749 0.05513,0.199464 0.04784,0.200307 0.04082,0.201017 0.03366,0.201233 0.02655,0.20154 0.01962,0.201756 0.01273,0.201616 0.0058,0.201744 -0.0011,0.200708 -0.0081,0.200523 -0.01423,0.199981 -0.0213,0.198587 -0.02791,0.197866 -0.03422,0.196429 -0.04106,0.195036 -0.04705,0.193554 -0.05376,0.191536 -0.06024,0.189965 -0.06614,0.187991 -0.07227,0.185347 -0.07884,0.182925 -0.08451,0.180505 -0.09082,0.177504 -0.09672,0.174858 -0.102439,0.171455 -0.108832,0.168274 -0.114195,0.165138 -0.119826,0.161018 -0.125949,0.157703 -0.131447,0.153405 -0.137033,0.149374 -0.14244,0.145032 -0.147936,0.140509 -0.153523,0.136032 -0.158705,0.131242 -0.164023,0.126183 -5.82e-4,6.26e-4 1.474274,2.955504 0.08821,0.221633 0.04773,0.223607 0.0084,0.219992 -0.02967,0.209581 -0.06565,0.193895 -0.101098,0.17168 -0.134479,0.143965 -0.166467,0.109858 -0.187982,0.06695 -0.195899,0.02083 -0.197925,-0.02252 -0.194352,-0.0642 -0.18531,-0.102345 -0.17066,-0.139043 -0.149976,-0.172605 -0.124017,-0.203769 -1.464989,-2.936891 -0.127351,0.03995 -0.199509,0.05515 -0.200307,0.04784 -0.200972,0.0408 -0.201269,0.03368 -0.201557,0.02656 -0.201766,0.01963 -0.201562,0.01271 -0.201762,0.0058 -0.200726,-0.0011 -0.200559,-0.0081 -0.199954,-0.01424 -0.198578,-0.0213 -0.19783,-0.02793 -0.196474,-0.0342 -0.195018,-0.04107 -0.193537,-0.04706 -0.191571,-0.05374 -0.189947,-0.06025 -0.188,-0.06614 -0.185355,-0.07226 -0.182935,-0.07883 -0.180487,-0.08452 -0.177521,-0.09081 -0.174797,-0.09675 -0.171508,-0.102413 -0.168256,-0.108952 -0.165138,-0.114083 -0.161063,-0.119804 -0.157631,-0.125985 -0.153441,-0.131429 -0.149329,-0.137055 -0.145086,-0.142413 -0.140509,-0.147937 -0.135996,-0.15354 -0.131242,-0.158706 -0.126166,-0.164032 -0.116453,-0.162506 -2.986099,1.489535 -0.221662,0.08822 -0.223562,0.04771 -0.21999,0.0084 -0.209658,-0.02963 -0.193867,-0.06567 -0.171671,-0.101102 -0.143972,-0.134475 -0.109883,-0.166454 -0.06692,-0.187995 -0.02083,-0.195903 0.02251,-0.19792 0.06417,-0.194338 0.102422,-0.185348 0.139041,-0.170659 0.172559,-0.149953 0.203799,-0.124032 M 93.637847,31.245562 93.535349,31.05218 93.42466,30.866124 93.305601,30.687931 93.179232,30.517039 93.045445,30.353904 92.904697,30.19832 92.757738,30.051119 92.604332,29.911605 92.445059,29.780717 92.280546,29.658141 92.11052,29.544004 l -0.174475,-0.105805 -0.179304,-0.09689 -0.183078,-0.0881 -0.186842,-0.0793 -0.189929,-0.07003 -0.193179,-0.06108 -0.19584,-0.05163 -0.198129,-0.04233 -0.200017,-0.03245 -0.201618,-0.02311 -0.202978,-0.01307 -0.203806,-0.0033 -0.2042,0.0067 -0.204343,0.0169 -0.204219,0.02701 -0.203674,0.03773 -0.202763,0.04785 -0.201633,0.05907 -0.199835,0.06917 -0.197919,0.08041 -0.195635,0.09148 -0.190671,0.101213 -0.183304,0.109753 -0.175464,0.118033 -0.168467,0.12554 -0.16017,0.13319 -0.15269,0.140031 -0.144396,0.14689 -0.136415,0.153078 -0.12812,0.15911 -0.119986,0.164819 -0.111686,0.170033 -0.102738,0.174934 -0.09444,0.179333 -0.08532,0.183724 -0.07653,0.187499 -0.06742,0.191075 -0.05831,0.193853 -0.04903,0.196956 -0.03975,0.199254 -0.03047,0.201535 -0.02038,0.203003 -0.0111,0.204487 -10e-4,0.20514 0.0088,0.205968 0.01918,0.20647 0.02912,0.205983 0.03969,0.205993 0.04979,0.205036 0.06054,0.203732 0.07079,0.20227 0.08204,0.200348 0.09278,0.19823 0.102552,0.193356 0.110707,0.186047 0.119005,0.178219 0.126329,0.170879 0.13385,0.163104 0.140708,0.15566 0.14703,0.147142 0.153397,0.139496 0.159264,0.130871 0.164522,0.12266 0.170022,0.114106 0.174447,0.105863 0.179313,0.09684 0.183105,0.08814 0.186807,0.07925 0.189964,0.07007 0.193202,0.06108 0.195813,0.05162 0.198085,0.04233 0.200062,0.03241 0.201555,0.02317 0.203014,0.01305 0.203828,0.0033 0.204177,-0.0066 0.204348,-0.01689 0.204205,-0.02699 0.203688,-0.03779 0.202749,-0.04783 0.201651,-0.05902 0.199835,-0.06917 0.197941,-0.08041 0.195519,-0.0915 0.190787,-0.101204 0.183282,-0.109752 0.175464,-0.118033 0.16845,-0.125598 0.160183,-0.133209 0.152676,-0.139968 0.14441,-0.146908 0.13641,-0.153087 0.128143,-0.159132 0.119963,-0.164775 0.111651,-0.170015 0.1028,-0.174987 0.0944,-0.179288 0.08537,-0.183725 0.07656,-0.187489 0.0674,-0.191076 0.05828,-0.193902 0.04907,-0.196906 0.03972,-0.199286 0.03047,-0.201486 0.0204,-0.203061 0.0111,-0.204455 9.99e-4,-0.205226 -0.0088,-0.20595 -0.01917,-0.206452 -0.02919,-0.205925 -0.03965,-0.206068 -0.04985,-0.205005 -0.0605,-0.203719 -0.07074,-0.202296 -0.08205,-0.20034 -0.09283,-0.198203 m -2.404188,1.199265 -0.121319,-0.200645 -0.147997,-0.174374 -0.170515,-0.146033 -0.189218,-0.116767 -0.203952,-0.08582 -0.214508,-0.05411 -0.221365,-0.02058 -0.224054,0.01413 -0.223122,0.05027 -0.217576,0.08738 -0.200766,0.121301 -0.17428,0.147962 -0.146073,0.170502 -0.116753,0.189244 -0.08583,0.203925 -0.0541,0.214536 -0.02056,0.221409 0.01412,0.224045 0.05027,0.223122 0.08738,0.217576 0.121256,0.200676 0.148007,0.17437 0.170492,0.146055 0.189222,0.116709 0.203956,0.08589 0.214505,0.05403 0.221441,0.02062 0.22404,-0.0142 0.223073,-0.05015 0.217652,-0.08745 0.200689,-0.121229 0.17433,-0.148088 0.146086,-0.170429 0.116678,-0.189285 0.08583,-0.203849 0.05409,-0.214612 0.02056,-0.221351 -0.0141,-0.224068 -0.05028,-0.223117 -0.08732,-0.217607"
     sodipodi:nodetypes="ccccccccccccccccccccccccccccccccccccccccccccccccccccccccccccccccccccccccccccccccccccccccccccccccccccccccccccccccccccccccccccccccccccccccccccccccccccccccccccccccccccccccccccccccccccccccccccccccccccccccccccccccccccccccccccccccccccccccccccccccccccccccccccccccccccccccccccccccccccccccccccccccccccccccccccccccccccccccccccccccccccccccccccccccccccccccccccccccccccccccccccccccccccccccccccccccccccccccc"
     style="fill:#ffffff;fill-opacity:1" />
  <path
     id="shape04"
     fill="#000000"
     fill-rule="evenodd"
     stroke-opacity="0"
     stroke="#000000"
     stroke-width="0"
     stroke-linecap="square"
     stroke-linejoin="bevel"
     d="m 69.564981,36.281324 -3.025839,-1.509359 0.03765,-0.135828 0.04784,-0.200307 0.04083,-0.200945 0.03368,-0.201269 0.02651,-0.201593 0.01967,-0.201743 0.01267,-0.201571 0.0058,-0.201735 -0.0012,-0.20074 -0.0082,-0.20059 -0.01419,-0.199914 -0.02135,-0.198614 -0.02787,-0.19779 -0.03421,-0.196491 -0.04105,-0.195009 -0.04707,-0.193541 -0.05375,-0.191576 -0.06026,-0.189951 -0.06612,-0.187983 -0.0723,-0.185373 -0.07881,-0.182935 -0.08451,-0.180478 -0.09085,-0.177544 -0.09672,-0.174769 -0.102403,-0.171504 -0.108921,-0.168251 -0.114124,-0.165147 -0.119821,-0.161072 -0.125999,-0.157649 -0.131375,-0.153414 -0.137064,-0.149334 -0.142436,-0.145085 -0.147968,-0.140536 -0.1535,-0.135965 -0.158705,-0.131242 -0.164072,-0.126197 -0.108509,-0.07772 1.582001,-3.171466 0.0882,-0.221672 0.04765,-0.223588 0.0084,-0.219968 -0.02967,-0.209676 -0.06563,-0.193848 -0.101066,-0.171654 -0.134476,-0.143972 -0.166543,-0.109928 -0.187906,-0.06688 -0.195903,-0.02083 -0.197956,0.02249 -0.194373,0.06415 -0.185312,0.10244 -0.170704,0.139019 -0.1499,0.172586 -0.124014,0.203808 -1.591263,3.190034 -8.77e-4,-3.5e-5 -0.19946,-0.05514 -0.200307,-0.04784 -0.200994,-0.04087 -0.201238,-0.03366 -0.201562,-0.02651 -0.201734,-0.01967 -0.201634,-0.0127 -0.201712,-0.0058 -0.200731,0.0012 -0.20063,0.0081 -0.199865,0.01422 -0.198614,0.02135 -0.19783,0.02784 -0.196438,0.03424 -0.195027,0.04104 -0.193564,0.04707 -0.19154,0.05377 -0.189964,0.06024 -0.187982,0.06612 -0.185365,0.0723 -0.182917,0.07882 -0.180496,0.0845 -0.17753,0.09087 -0.174836,0.09667 -0.171455,0.10244 -0.1683,0.108885 -0.165116,0.11415 -0.161023,0.119835 -0.157716,0.125977 -0.153374,0.131384 -0.149379,0.137041 -0.145045,0.142467 -0.140527,0.147973 -0.136005,0.153468 -0.131242,0.158705 -0.08583,0.111795 -3.143153,-1.567877 -0.221642,-0.08819 -0.223634,-0.04768 -0.21997,-0.0084 -0.209599,0.0297 -0.193877,0.06562 -0.171662,0.101062 -0.143965,0.134479 -0.109903,0.166556 -0.0669,0.187893 -0.02084,0.195899 0.0225,0.19796 0.06418,0.194389 0.102363,0.185273 0.139021,0.170704 0.172631,0.149923 0.203778,0.123999 3.103423,1.548059 -0.05984,0.190748 -0.05513,0.199465 -0.04784,0.200307 -0.04082,0.201017 -0.03366,0.201233 -0.02655,0.201539 -0.01962,0.201757 -0.01273,0.201616 -0.0058,0.201744 0.0011,0.200708 0.0081,0.200523 0.01423,0.199981 0.0213,0.198587 0.02791,0.197866 0.03422,0.196429 0.04106,0.195036 0.04705,0.193554 0.05376,0.191536 0.06024,0.189965 0.06614,0.187991 0.07227,0.185346 0.07884,0.182926 0.08451,0.180505 0.09082,0.177503 0.09672,0.174859 0.10244,0.171455 0.108831,0.168274 0.114195,0.165137 0.119826,0.161019 0.12595,0.157703 0.131447,0.153405 0.137032,0.149374 0.14244,0.145032 0.147937,0.140509 0.153522,0.136032 0.158706,0.131242 0.164023,0.126183 5.82e-4,6.26e-4 -1.474274,2.955504 -0.08821,0.221633 -0.04773,0.223607 -0.0084,0.219992 0.02967,0.209581 0.06565,0.193895 0.101098,0.17168 0.134478,0.143965 0.166467,0.109858 0.187983,0.06695 0.195899,0.02083 0.197924,-0.02252 0.194353,-0.0642 0.185309,-0.102345 0.17066,-0.139043 0.149976,-0.172605 0.124018,-0.203769 1.464989,-2.936891 0.12735,0.03995 0.19951,0.05515 0.200307,0.04784 0.200972,0.0408 0.201269,0.03368 0.201557,0.02656 0.201766,0.01963 0.201562,0.01271 0.201761,0.0058 0.200727,-0.0011 0.200559,-0.0081 0.199953,-0.01424 0.198579,-0.0213 0.19783,-0.02793 0.196474,-0.0342 0.195018,-0.04107 0.193536,-0.04706 0.191572,-0.05374 0.189946,-0.06025 0.188,-0.06614 0.185356,-0.07226 0.182935,-0.07883 0.180487,-0.08452 0.177521,-0.09081 0.174796,-0.09675 0.171509,-0.102413 0.168255,-0.108952 0.165138,-0.114083 0.161063,-0.119804 0.157632,-0.125986 0.15344,-0.131428 0.14933,-0.137055 0.145085,-0.142414 0.14051,-0.147936 0.135996,-0.15354 0.131242,-0.158706 0.126165,-0.164032 0.116454,-0.162506 2.986099,1.489535 0.221662,0.08822 0.223561,0.04771 0.219991,0.0084 0.209658,-0.02963 0.193866,-0.06567 0.171671,-0.101102 0.143973,-0.134475 0.109883,-0.166455 0.06692,-0.187994 0.02083,-0.195903 -0.02251,-0.19792 -0.06417,-0.194338 -0.102422,-0.185348 -0.139041,-0.170659 -0.17256,-0.149954 -0.203798,-0.124031 m -12.489261,-5.058237 0.102498,-0.193383 0.110689,-0.186055 0.11906,-0.178193 0.126369,-0.170892 0.133787,-0.163136 0.140748,-0.155584 0.146959,-0.1472 0.153406,-0.139514 0.159273,-0.130888 0.164513,-0.122576 0.170026,-0.114137 0.174474,-0.105805 0.179304,-0.09689 0.183078,-0.0881 0.186843,-0.0793 0.189928,-0.07003 0.19318,-0.06108 0.195839,-0.05163 0.19813,-0.04233 0.200017,-0.03245 0.201618,-0.02311 0.202978,-0.01307 0.203806,-0.0033 0.204199,0.0067 0.204344,0.0169 0.204219,0.02701 0.203674,0.03773 0.202763,0.04785 0.201632,0.05907 0.199836,0.06918 0.197919,0.08041 0.195634,0.09149 0.190671,0.101213 0.183305,0.109752 0.175464,0.118034 0.168467,0.12554 0.16017,0.13319 0.15269,0.140031 0.144396,0.14689 0.136415,0.153078 0.12812,0.15911 0.119986,0.164819 0.111686,0.170033 0.102738,0.174934 0.09444,0.179333 0.08532,0.183724 0.07653,0.187499 0.06742,0.191075 0.05831,0.193853 0.04903,0.196956 0.03975,0.199254 0.03047,0.201535 0.02038,0.203003 0.0111,0.204487 0.001,0.20514 -0.0088,0.205968 -0.01918,0.20647 -0.02912,0.205983 -0.03969,0.205993 -0.04979,0.205036 -0.06053,0.203732 -0.07079,0.20227 -0.08204,0.200348 -0.09278,0.19823 -0.102552,0.193356 -0.110707,0.186046 -0.119006,0.17822 -0.126329,0.170878 -0.133849,0.163105 -0.140708,0.15566 -0.147031,0.147142 -0.153397,0.139496 -0.159263,0.130871 -0.164522,0.12266 -0.170022,0.114106 -0.174448,0.105863 -0.179313,0.09684 -0.183104,0.08814 -0.186808,0.07925 -0.189964,0.07007 -0.193201,0.06108 -0.195813,0.05162 -0.198085,0.04233 -0.200062,0.03241 -0.201555,0.02317 -0.203014,0.01305 -0.203828,0.0033 -0.204177,-0.0066 -0.204348,-0.01689 -0.204205,-0.02699 -0.203688,-0.03779 -0.202749,-0.04783 -0.201651,-0.05902 -0.199836,-0.06917 -0.197941,-0.08041 -0.195518,-0.0915 -0.190788,-0.101204 -0.183282,-0.109752 -0.175463,-0.118034 -0.16845,-0.125597 -0.160183,-0.133209 -0.152677,-0.139968 -0.144409,-0.146908 -0.13641,-0.153087 -0.128143,-0.159132 -0.119964,-0.164775 -0.11165,-0.170015 -0.102801,-0.174987 -0.0944,-0.179289 -0.08537,-0.183724 -0.07656,-0.187489 -0.0674,-0.191076 -0.05828,-0.193902 -0.04907,-0.196907 -0.03972,-0.199285 -0.03047,-0.201486 -0.02041,-0.203061 -0.01111,-0.204455 -9.98e-4,-0.205226 0.0087,-0.20595 0.01917,-0.206452 0.02919,-0.205925 0.03965,-0.206069 0.04985,-0.205005 0.06049,-0.203718 0.07074,-0.202296 0.08205,-0.20034 0.09283,-0.198203 m 2.404188,1.199265 0.121319,-0.200645 0.147998,-0.174374 0.170515,-0.146033 0.189218,-0.116767 0.203951,-0.08582 0.214509,-0.05411 0.221365,-0.02058 0.224054,0.01413 0.223122,0.05027 0.217576,0.08738 0.200766,0.121301 0.174279,0.147962 0.146074,0.170501 0.116753,0.189245 0.08583,0.203925 0.0541,0.214536 0.02056,0.221409 -0.01412,0.224045 -0.05027,0.223122 -0.08738,0.217576 -0.121256,0.200676 -0.148007,0.17437 -0.170492,0.146055 -0.189223,0.116709 -0.203956,0.08589 -0.214504,0.05403 -0.221441,0.02062 -0.224041,-0.0142 -0.223072,-0.05015 -0.217652,-0.08745 -0.20069,-0.12123 -0.174329,-0.148087 -0.146086,-0.170429 -0.116678,-0.189286 -0.08583,-0.203848 -0.05409,-0.214612 -0.02056,-0.221351 0.0141,-0.224068 0.05028,-0.223117 0.08731,-0.217607"
     sodipodi:nodetypes="ccccccccccccccccccccccccccccccccccccccccccccccccccccccccccccccccccccccccccccccccccccccccccccccccccccccccccccccccccccccccccccccccccccccccccccccccccccccccccccccccccccccccccccccccccccccccccccccccccccccccccccccccccccccccccccccccccccccccccccccccccccccccccccccccccccccccccccccccccccccccccccccccccccccccccccccccccccccccccccccccccccccccccccccccccccccccccccccccccccccccccccccccccccccccccccccccccccccccc"
     style="fill:#ffffff;fill-opacity:1" />
  <path
     id="shape05"
     fill="#000000"
     fill-rule="evenodd"
     stroke-opacity="0"
     stroke="#000000"
     stroke-width="0"
     stroke-linecap="square"
     stroke-linejoin="bevel"
     d="m 81.011357,114.38047 3.025839,1.50936 -0.03765,0.13582 -0.04784,0.20031 -0.04083,0.20095 -0.03368,0.20126 -0.02651,0.2016 -0.01967,0.20174 -0.01267,0.20157 -0.0058,0.20174 0.0012,0.20074 0.0082,0.20059 0.01419,0.19991 0.02135,0.19861 0.02787,0.19779 0.03421,0.1965 0.04105,0.195 0.04707,0.19355 0.05375,0.19157 0.06026,0.18995 0.06612,0.18798 0.0723,0.18538 0.07881,0.18293 0.08451,0.18048 0.09085,0.17754 0.09672,0.17477 0.102403,0.17151 0.108921,0.16825 0.114124,0.16515 0.119821,0.16107 0.125999,0.15765 0.131375,0.15341 0.137064,0.14934 0.142436,0.14508 0.147968,0.14054 0.1535,0.13596 0.158705,0.13124 0.164072,0.1262 0.108509,0.0777 -1.582001,3.17146 -0.0882,0.22168 -0.04765,0.22358 -0.0084,0.21997 0.02967,0.20968 0.06563,0.19385 0.101066,0.17165 0.134476,0.14397 0.166543,0.10993 0.187906,0.0669 0.195903,0.0208 0.197956,-0.0225 0.194373,-0.0641 0.185312,-0.10244 0.170704,-0.13902 0.1499,-0.17258 0.124014,-0.20381 1.591263,-3.19003 8.77e-4,3e-5 0.19946,0.0551 0.200307,0.0478 0.200994,0.0409 0.201238,0.0336 0.201562,0.0265 0.201734,0.0197 0.201634,0.0127 0.201712,0.006 0.200731,-0.001 0.20063,-0.008 0.199865,-0.0142 0.198614,-0.0213 0.19783,-0.0278 0.196438,-0.0342 0.195027,-0.041 0.193564,-0.0471 0.19154,-0.0538 0.189964,-0.0602 0.187982,-0.0661 0.185365,-0.0723 0.182917,-0.0788 0.180496,-0.0845 0.17753,-0.0909 0.174836,-0.0967 0.171455,-0.10244 0.1683,-0.10889 0.165116,-0.11415 0.161023,-0.11983 0.157716,-0.12598 0.153374,-0.13138 0.149379,-0.13704 0.145045,-0.14247 0.140527,-0.14797 0.136005,-0.15347 0.131242,-0.15871 0.08583,-0.11179 3.143153,1.56787 0.221642,0.0882 0.223634,0.0477 0.21997,0.008 0.209599,-0.0297 0.193877,-0.0656 0.171662,-0.10106 0.143965,-0.13448 0.109903,-0.16656 0.0669,-0.18789 0.02084,-0.1959 -0.0225,-0.19796 -0.06418,-0.19439 -0.102363,-0.18527 -0.139021,-0.17071 -0.172631,-0.14992 -0.203778,-0.124 -3.103423,-1.54806 0.05984,-0.19074 0.05513,-0.19947 0.04784,-0.20031 0.04082,-0.20101 0.03366,-0.20124 0.02655,-0.20154 0.01962,-0.20175 0.01274,-0.20162 0.0058,-0.20174 -0.0011,-0.20071 -0.0081,-0.20052 -0.01423,-0.19998 -0.02129,-0.19859 -0.02791,-0.19787 -0.03422,-0.19643 -0.04106,-0.19503 -0.04705,-0.19356 -0.05376,-0.19153 -0.06024,-0.18997 -0.06614,-0.18799 -0.07227,-0.18534 -0.07884,-0.18293 -0.08451,-0.18051 -0.09082,-0.1775 -0.09672,-0.17486 -0.10244,-0.17145 -0.108831,-0.16828 -0.114195,-0.16513 -0.119826,-0.16102 -0.12595,-0.15771 -0.131447,-0.1534 -0.137032,-0.14937 -0.14244,-0.14504 -0.147937,-0.14051 -0.153522,-0.13603 -0.158706,-0.13124 -0.164023,-0.12618 -5.82e-4,-6.3e-4 1.474274,-2.9555 0.08821,-0.22164 0.04773,-0.2236 0.0084,-0.21999 -0.02967,-0.20959 -0.06566,-0.19389 -0.101098,-0.17168 -0.134478,-0.14397 -0.166467,-0.10985 -0.187983,-0.067 -0.195899,-0.0208 -0.197924,0.0225 -0.194353,0.0642 -0.185309,0.10234 -0.17066,0.13904 -0.149976,0.17261 -0.124018,0.20377 -1.464989,2.93689 -0.12735,-0.04 -0.19951,-0.0551 -0.200307,-0.0478 -0.200972,-0.0408 -0.201269,-0.0337 -0.201557,-0.0266 -0.201766,-0.0196 -0.201562,-0.0127 -0.201761,-0.006 -0.200727,0.001 -0.200559,0.008 -0.199953,0.0142 -0.198579,0.0213 -0.19783,0.0279 -0.196474,0.0342 -0.195018,0.0411 -0.193536,0.0471 -0.191572,0.0537 -0.189946,0.0602 -0.188,0.0661 -0.185356,0.0723 -0.182935,0.0788 -0.180487,0.0845 -0.177521,0.0908 -0.174796,0.0968 -0.171509,0.10241 -0.168255,0.10895 -0.165138,0.11409 -0.161063,0.1198 -0.157632,0.12599 -0.15344,0.13143 -0.14933,0.13705 -0.145085,0.14241 -0.14051,0.14794 -0.135996,0.15354 -0.131242,0.15871 -0.126165,0.16403 -0.116454,0.1625 -2.986099,-1.48953 -0.221662,-0.0882 -0.223561,-0.0477 -0.219991,-0.008 -0.209658,0.0296 -0.193866,0.0657 -0.171671,0.1011 -0.143973,0.13448 -0.109883,0.16645 -0.06692,0.188 -0.02083,0.1959 0.02251,0.19792 0.06417,0.19434 0.102422,0.18534 0.139041,0.17066 0.17256,0.14996 0.203798,0.12403 m 12.489261,5.05823 -0.102498,0.19339 -0.110689,0.18605 -0.11906,0.17819 -0.126369,0.1709 -0.133787,0.16313 -0.140748,0.15559 -0.146959,0.1472 -0.153406,0.13951 -0.159273,0.13089 -0.164513,0.12257 -0.170026,0.11414 -0.174474,0.10581 -0.179304,0.0969 -0.183078,0.0881 -0.186843,0.0793 -0.189928,0.07 -0.19318,0.0611 -0.195839,0.0516 -0.19813,0.0423 -0.200017,0.0324 -0.201618,0.0231 -0.202978,0.0131 -0.203806,0.003 -0.204199,-0.007 -0.204344,-0.0169 -0.204219,-0.027 -0.203674,-0.0377 -0.202763,-0.0479 -0.201632,-0.0591 -0.199836,-0.0692 -0.197919,-0.0804 -0.195634,-0.0915 -0.190671,-0.10121 -0.183305,-0.10976 -0.175464,-0.11803 -0.168467,-0.12554 -0.16017,-0.13319 -0.15269,-0.14003 -0.144396,-0.14689 -0.136415,-0.15308 -0.12812,-0.15911 -0.119986,-0.16482 -0.111686,-0.17003 -0.102738,-0.17493 -0.09444,-0.17934 -0.08532,-0.18372 -0.07653,-0.1875 -0.06742,-0.19107 -0.05831,-0.19386 -0.04903,-0.19695 -0.03975,-0.19926 -0.03047,-0.20153 -0.02038,-0.203 -0.0111,-0.20449 -0.001,-0.20514 0.0088,-0.20597 0.01918,-0.20647 0.02912,-0.20598 0.03969,-0.206 0.04979,-0.20503 0.06054,-0.20373 0.07079,-0.20227 0.08204,-0.20035 0.09278,-0.19823 0.102552,-0.19336 0.110707,-0.18604 0.119006,-0.17822 0.126329,-0.17088 0.133849,-0.16311 0.140708,-0.15566 0.147031,-0.14714 0.153397,-0.13949 0.159263,-0.13088 0.164522,-0.12266 0.170022,-0.1141 0.174448,-0.10586 0.179313,-0.0968 0.183104,-0.0881 0.186808,-0.0793 0.189964,-0.0701 0.193201,-0.0611 0.195813,-0.0516 0.198085,-0.0423 0.200062,-0.0324 0.201555,-0.0232 0.203014,-0.0131 0.203828,-0.003 0.204177,0.007 0.204348,0.0169 0.204205,0.027 0.203688,0.0378 0.202749,0.0478 0.201651,0.059 0.199836,0.0692 0.197941,0.0804 0.195518,0.0915 0.190788,0.1012 0.183282,0.10975 0.175463,0.11804 0.16845,0.12559 0.160183,0.13321 0.152677,0.13997 0.144409,0.14691 0.13641,0.15308 0.128143,0.15914 0.119964,0.16477 0.11165,0.17002 0.102801,0.17498 0.0944,0.17929 0.08537,0.18373 0.07656,0.18749 0.0674,0.19107 0.05828,0.1939 0.04907,0.19691 0.03972,0.19929 0.03047,0.20148 0.0204,0.20306 0.01111,0.20446 9.98e-4,0.20522 -0.0087,0.20595 -0.01917,0.20646 -0.02919,0.20592 -0.03965,0.20607 -0.04985,0.205 -0.0605,0.20372 -0.07074,0.2023 -0.08205,0.20034 -0.09283,0.1982 m -2.404188,-1.19926 -0.121319,0.20064 -0.147998,0.17438 -0.170515,0.14603 -0.189218,0.11677 -0.203951,0.0858 -0.214509,0.0541 -0.221365,0.0206 -0.224054,-0.0141 -0.223122,-0.0503 -0.217576,-0.0874 -0.200766,-0.12131 -0.174279,-0.14796 -0.146074,-0.1705 -0.116753,-0.18924 -0.08583,-0.20393 -0.0541,-0.21453 -0.02056,-0.22141 0.01412,-0.22405 0.05027,-0.22312 0.08738,-0.21758 0.121256,-0.20067 0.148007,-0.17437 0.170492,-0.14606 0.189223,-0.11671 0.203956,-0.0859 0.214504,-0.054 0.221441,-0.0206 0.224041,0.0142 0.223072,0.0501 0.217652,0.0875 0.20069,0.12123 0.174329,0.14809 0.146086,0.17043 0.116678,0.18929 0.08583,0.20384 0.05409,0.21462 0.02056,0.22135 -0.0141,0.22406 -0.05028,0.22312 -0.08731,0.21761"
     sodipodi:nodetypes="ccccccccccccccccccccccccccccccccccccccccccccccccccccccccccccccccccccccccccccccccccccccccccccccccccccccccccccccccccccccccccccccccccccccccccccccccccccccccccccccccccccccccccccccccccccccccccccccccccccccccccccccccccccccccccccccccccccccccccccccccccccccccccccccccccccccccccccccccccccccccccccccccccccccccccccccccccccccccccccccccccccccccccccccccccccccccccccccccccccccccccccccccccccccccccccccccccccccccc"
     style="fill:#ffffff;fill-opacity:1" />
  <path
     id="shape012"
     fill="#000000"
     fill-rule="evenodd"
     stroke-opacity="0"
     stroke="#000000"
     stroke-width="0"
     stroke-linecap="square"
     stroke-linejoin="bevel"
     d="m 69.427764,114.40292 -3.025839,1.50936 0.03765,0.13583 0.04784,0.20031 0.04083,0.20094 0.03368,0.20127 0.02651,0.2016 0.01967,0.20174 0.01267,0.20157 0.0058,0.20173 -0.0012,0.20074 -0.0082,0.20059 -0.01419,0.19992 -0.02135,0.19861 -0.02787,0.19779 -0.03421,0.19649 -0.04105,0.19501 -0.04707,0.19354 -0.05375,0.19158 -0.06026,0.18995 -0.06612,0.18798 -0.0723,0.18538 -0.07881,0.18293 -0.08451,0.18048 -0.09085,0.17754 -0.09672,0.17477 -0.102403,0.17151 -0.108921,0.16825 -0.114124,0.16514 -0.119821,0.16108 -0.125999,0.15765 -0.131375,0.15341 -0.137064,0.14933 -0.142436,0.14509 -0.147968,0.14053 -0.1535,0.13597 -0.158705,0.13124 -0.164072,0.1262 -0.108509,0.0777 1.582001,3.17146 0.0882,0.22167 0.04766,0.22359 0.0084,0.21997 -0.02967,0.20968 -0.06563,0.19384 -0.101066,0.17166 -0.134475,0.14397 -0.166544,0.10993 -0.187905,0.0669 -0.195903,0.0208 -0.197956,-0.0225 -0.194374,-0.0641 -0.185312,-0.10244 -0.170704,-0.13902 -0.1499,-0.17258 -0.124014,-0.20381 -1.591263,-3.19004 -8.77e-4,4e-5 -0.19946,0.0551 -0.200307,0.0478 -0.200994,0.0409 -0.201238,0.0336 -0.201562,0.0265 -0.201734,0.0197 -0.201634,0.0127 -0.201712,0.006 -0.200731,-0.001 -0.20063,-0.008 -0.199865,-0.0142 -0.198614,-0.0213 -0.19783,-0.0278 -0.196438,-0.0342 -0.195027,-0.041 -0.193563,-0.0471 -0.191541,-0.0538 -0.189964,-0.0602 -0.187982,-0.0661 -0.185365,-0.0723 -0.182917,-0.0788 -0.180496,-0.0845 -0.17753,-0.0909 -0.174836,-0.0967 -0.171455,-0.10244 -0.168301,-0.10889 -0.165115,-0.11415 -0.161023,-0.11983 -0.157716,-0.12598 -0.153374,-0.13138 -0.149379,-0.13705 -0.145045,-0.14246 -0.140527,-0.14797 -0.136005,-0.15347 -0.131242,-0.15871 -0.08583,-0.11179 -3.143153,1.56787 -0.221642,0.0882 -0.223634,0.0477 -0.21997,0.008 -0.209599,-0.0297 -0.193877,-0.0656 -0.171662,-0.10106 -0.143965,-0.13448 -0.109903,-0.16656 -0.0669,-0.18789 -0.02083,-0.1959 0.0225,-0.19796 0.06418,-0.19439 0.102363,-0.18527 0.139021,-0.17071 0.172631,-0.14992 0.203778,-0.124 3.103422,-1.54806 -0.05984,-0.19075 -0.05513,-0.19946 -0.04784,-0.20031 -0.04082,-0.20101 -0.03366,-0.20124 -0.02655,-0.20154 -0.01962,-0.20175 -0.01273,-0.20162 -0.0058,-0.20174 0.0011,-0.20071 0.0081,-0.20052 0.01423,-0.19999 0.0213,-0.19858 0.02791,-0.19787 0.03422,-0.19643 0.04106,-0.19503 0.04705,-0.19356 0.05376,-0.19153 0.06024,-0.18997 0.06614,-0.18799 0.07227,-0.18535 0.07884,-0.18292 0.08451,-0.18051 0.09082,-0.1775 0.09672,-0.17486 0.102439,-0.17145 0.108831,-0.16828 0.114196,-0.16514 0.119826,-0.16101 0.125949,-0.15771 0.131447,-0.1534 0.137033,-0.14938 0.14244,-0.14503 0.147936,-0.14051 0.153523,-0.13603 0.158705,-0.13124 0.164023,-0.12618 5.82e-4,-6.3e-4 -1.474274,-2.9555 -0.08821,-0.22164 -0.04773,-0.2236 -0.0084,-0.22 0.02967,-0.20958 0.06565,-0.19389 0.101097,-0.17168 0.134479,-0.14397 0.166467,-0.10985 0.187982,-0.0669 0.1959,-0.0208 0.197924,0.0225 0.194353,0.0642 0.185309,0.10234 0.17066,0.13904 0.149976,0.17261 0.124017,0.20377 1.46499,2.93689 0.12735,-0.0399 0.19951,-0.0551 0.200307,-0.0478 0.200972,-0.0408 0.201269,-0.0337 0.201557,-0.0266 0.201766,-0.0196 0.201562,-0.0127 0.201761,-0.006 0.200727,0.001 0.200559,0.008 0.199953,0.0142 0.198579,0.0213 0.19783,0.0279 0.196474,0.0342 0.195018,0.0411 0.193536,0.0471 0.191572,0.0537 0.189946,0.0602 0.188,0.0661 0.185356,0.0723 0.182935,0.0788 0.180487,0.0845 0.177521,0.0908 0.174797,0.0968 0.171508,0.10241 0.168255,0.10895 0.165138,0.11409 0.161063,0.1198 0.157632,0.12599 0.153441,0.13142 0.149329,0.13706 0.145085,0.14241 0.14051,0.14794 0.135996,0.15354 0.131242,0.1587 0.126166,0.16404 0.116453,0.1625 2.986099,-1.48953 0.221662,-0.0882 0.223562,-0.0477 0.21999,-0.008 0.209658,0.0296 0.193866,0.0657 0.171671,0.1011 0.143973,0.13448 0.109883,0.16645 0.06692,0.18799 0.02083,0.19591 -0.02251,0.19792 -0.06417,0.19434 -0.102422,0.18534 -0.139041,0.17066 -0.172559,0.14996 -0.203799,0.12403 m -12.48926,5.05823 0.102498,0.19338 0.110689,0.18606 0.11906,0.17819 0.126369,0.17089 0.133787,0.16314 0.140748,0.15558 0.146959,0.1472 0.153406,0.13952 0.159273,0.13089 0.164512,0.12257 0.170026,0.11414 0.174475,0.1058 0.179304,0.0969 0.183078,0.0881 0.186843,0.0793 0.189928,0.07 0.193179,0.0611 0.19584,0.0516 0.19813,0.0423 0.200017,0.0325 0.201618,0.0231 0.202978,0.0131 0.203806,0.003 0.204199,-0.007 0.204344,-0.0169 0.204218,-0.027 0.203675,-0.0377 0.202762,-0.0478 0.201633,-0.0591 0.199836,-0.0692 0.197918,-0.0804 0.195635,-0.0915 0.190671,-0.10122 0.183305,-0.10975 0.175463,-0.11803 0.168468,-0.12554 0.16017,-0.13319 0.15269,-0.14003 0.144396,-0.14689 0.136414,-0.15308 0.12812,-0.15911 0.119987,-0.16482 0.111686,-0.17003 0.102738,-0.17494 0.09444,-0.17933 0.08532,-0.18372 0.07653,-0.1875 0.06742,-0.19107 0.05831,-0.19386 0.04903,-0.19695 0.03975,-0.19926 0.03048,-0.20153 0.02038,-0.20301 0.0111,-0.20448 0.001,-0.20514 -0.0088,-0.20597 -0.01918,-0.20647 -0.02912,-0.20598 -0.03969,-0.206 -0.04979,-0.20503 -0.06054,-0.20373 -0.07079,-0.20227 -0.08204,-0.20035 -0.09278,-0.19823 -0.102552,-0.19336 -0.110707,-0.18604 -0.119005,-0.17822 -0.126329,-0.17088 -0.13385,-0.16311 -0.140708,-0.15566 -0.14703,-0.14714 -0.153397,-0.1395 -0.159264,-0.13087 -0.164522,-0.12266 -0.170022,-0.1141 -0.174447,-0.10587 -0.179314,-0.0968 -0.183104,-0.0881 -0.186807,-0.0793 -0.189964,-0.0701 -0.193202,-0.0611 -0.195813,-0.0516 -0.198085,-0.0423 -0.200062,-0.0324 -0.201555,-0.0232 -0.203014,-0.0131 -0.203828,-0.003 -0.204177,0.007 -0.204348,0.0169 -0.204205,0.027 -0.203688,0.0378 -0.202749,0.0478 -0.201651,0.059 -0.199835,0.0692 -0.197941,0.0804 -0.195519,0.0915 -0.190787,0.10121 -0.183282,0.10975 -0.175464,0.11803 -0.16845,0.1256 -0.160183,0.13321 -0.152676,0.13997 -0.14441,0.14691 -0.13641,0.15308 -0.128143,0.15914 -0.119963,0.16477 -0.111651,0.17002 -0.1028,0.17498 -0.0944,0.17929 -0.08537,0.18373 -0.07656,0.18748 -0.0674,0.19108 -0.05828,0.1939 -0.04907,0.19691 -0.03972,0.19928 -0.03047,0.20149 -0.02041,0.20306 -0.0111,0.20446 -9.98e-4,0.20522 0.0087,0.20595 0.01917,0.20645 0.02919,0.20593 0.03965,0.20607 0.04985,0.205 0.06049,0.20372 0.07074,0.2023 0.08205,0.20034 0.09283,0.1982 m 2.404188,-1.19926 0.121319,0.20064 0.147998,0.17437 0.170515,0.14604 0.189218,0.11676 0.203951,0.0858 0.214509,0.0541 0.221365,0.0206 0.224054,-0.0141 0.223122,-0.0503 0.217576,-0.0874 0.200765,-0.1213 0.17428,-0.14796 0.146073,-0.1705 0.116754,-0.18925 0.08583,-0.20392 0.0541,-0.21454 0.02056,-0.22141 -0.01412,-0.22404 -0.05027,-0.22312 -0.08738,-0.21758 -0.121257,-0.20067 -0.148006,-0.17437 -0.170493,-0.14606 -0.189222,-0.11671 -0.203956,-0.0859 -0.214505,-0.054 -0.22144,-0.0206 -0.224041,0.0142 -0.223073,0.0502 -0.217652,0.0874 -0.200689,0.12123 -0.17433,0.14809 -0.146086,0.17043 -0.116677,0.18928 -0.08583,0.20385 -0.05409,0.21461 -0.02056,0.22136 0.0141,0.22406 0.05028,0.22312 0.08731,0.21761"
     sodipodi:nodetypes="ccccccccccccccccccccccccccccccccccccccccccccccccccccccccccccccccccccccccccccccccccccccccccccccccccccccccccccccccccccccccccccccccccccccccccccccccccccccccccccccccccccccccccccccccccccccccccccccccccccccccccccccccccccccccccccccccccccccccccccccccccccccccccccccccccccccccccccccccccccccccccccccccccccccccccccccccccccccccccccccccccccccccccccccccccccccccccccccccccccccccccccccccccccccccccccccccccccccccc"
     style="fill:#ffffff;fill-opacity:1" />
  <path
     id="shape06"
     fill="#000000"
     fill-rule="evenodd"
     stroke-opacity="0"
     stroke="#000000"
     stroke-width="0"
     stroke-linecap="square"
     stroke-linejoin="bevel"
     d="m 36.272602,69.556205 -1.509359,-3.025839 -0.135827,0.03765 -0.200308,0.04784 -0.200945,0.04083 -0.201269,0.03368 -0.201593,0.02651 -0.201743,0.01967 -0.201571,0.01267 -0.201735,0.0058 -0.20074,-0.0012 -0.20059,-0.0082 -0.199913,-0.01419 -0.198615,-0.02135 -0.197789,-0.02787 -0.196492,-0.03421 -0.195009,-0.04105 -0.193541,-0.04707 -0.191576,-0.05375 -0.189951,-0.06026 -0.187982,-0.06612 -0.185374,-0.0723 -0.182934,-0.07881 -0.180479,-0.08451 -0.177543,-0.09085 -0.17477,-0.09672 -0.171504,-0.102403 -0.168251,-0.108921 -0.165147,-0.114123 -0.161072,-0.119822 -0.157649,-0.125999 -0.153414,-0.131375 -0.149334,-0.137064 -0.145085,-0.142436 -0.140536,-0.147967 -0.135965,-0.1535 -0.131242,-0.158706 -0.126197,-0.164072 -0.07772,-0.108509 -3.171466,1.582001 -0.221671,0.0882 -0.223589,0.04765 -0.219968,0.0084 -0.209676,-0.02967 -0.193848,-0.06563 -0.171653,-0.101067 -0.143973,-0.134475 -0.109927,-0.166544 -0.06688,-0.187905 -0.02083,-0.195903 0.02249,-0.197956 0.06415,-0.194374 0.102439,-0.185312 0.139019,-0.170704 0.172586,-0.149899 0.203808,-0.124014 3.190034,-1.591264 -3.5e-5,-8.77e-4 -0.05514,-0.19946 -0.04784,-0.200307 -0.04087,-0.200994 -0.03366,-0.201238 -0.02651,-0.201562 -0.01967,-0.201734 -0.0127,-0.201634 -0.0058,-0.201712 0.0012,-0.200731 0.0081,-0.20063 0.01422,-0.199864 0.02135,-0.198615 0.02784,-0.19783 0.03424,-0.196438 0.04104,-0.195027 0.04707,-0.193563 0.05377,-0.19154 0.06024,-0.189965 0.06612,-0.187982 0.0723,-0.185365 0.07882,-0.182916 0.0845,-0.180497 0.09087,-0.17753 0.09667,-0.174836 0.10244,-0.171455 0.108885,-0.1683 0.11415,-0.165116 0.119835,-0.161023 0.125977,-0.157716 0.131383,-0.153374 0.137042,-0.149379 0.142467,-0.145044 0.147972,-0.140528 0.153469,-0.136005 0.158706,-0.131242 0.111795,-0.08583 -1.567879,-3.143153 -0.08819,-0.221642 -0.04768,-0.223634 -0.0084,-0.21997 0.0297,-0.209599 0.06562,-0.193877 0.101062,-0.171662 0.134479,-0.143965 0.166556,-0.109903 0.187893,-0.0669 0.195899,-0.02083 0.197961,0.0225 0.194388,0.06418 0.185274,0.102363 0.170704,0.139021 0.149923,0.172631 0.123999,0.203778 1.548059,3.103423 0.190749,-0.05984 0.199464,-0.05513 0.200308,-0.04784 0.201016,-0.04082 0.201233,-0.03366 0.20154,-0.02655 0.201756,-0.01962 0.201616,-0.01273 0.201744,-0.0058 0.200708,0.0011 0.200523,0.0082 0.199981,0.01423 0.198588,0.02129 0.197865,0.02791 0.196429,0.03422 0.195036,0.04106 0.193555,0.04705 0.191535,0.05376 0.189965,0.06024 0.187991,0.06614 0.185347,0.07227 0.182925,0.07884 0.180506,0.08451 0.177503,0.09082 0.174859,0.09672 0.171454,0.102439 0.168274,0.108832 0.165138,0.114195 0.161018,0.119826 0.157703,0.12595 0.153405,0.131446 0.149374,0.137033 0.145032,0.14244 0.140509,0.147936 0.136032,0.153523 0.131242,0.158705 0.126184,0.164023 6.25e-4,5.82e-4 2.955504,-1.474274 0.221633,-0.08821 0.223607,-0.04773 0.219992,-0.0084 0.209582,0.02967 0.193894,0.06565 0.17168,0.101098 0.143966,0.134478 0.109857,0.166467 0.06695,0.187983 0.02083,0.195899 -0.02252,0.197924 -0.0642,0.194353 -0.102345,0.185309 -0.139043,0.17066 -0.172604,0.149976 -0.203769,0.124018 -2.936892,1.464989 0.03995,0.127351 0.05515,0.199509 0.04784,0.200307 0.0408,0.200972 0.03368,0.201269 0.02656,0.201557 0.01963,0.201766 0.01271,0.201562 0.0058,0.201762 -0.0011,0.200726 -0.0081,0.200559 -0.01424,0.199954 -0.0213,0.198578 -0.02793,0.19783 -0.0342,0.196474 -0.04107,0.195018 -0.04706,0.193537 -0.05374,0.191571 -0.06025,0.189947 -0.06614,0.188 -0.07226,0.185355 -0.07883,0.182935 -0.08452,0.180487 -0.09081,0.177521 -0.09675,0.174797 -0.102413,0.171508 -0.108952,0.168256 -0.114083,0.165138 -0.119804,0.161063 -0.125985,0.157631 -0.131429,0.153441 -0.137055,0.14933 -0.142413,0.145085 -0.147937,0.140509 -0.15354,0.135996 -0.158706,0.131242 -0.164031,0.126166 -0.162507,0.116453 1.489536,2.986099 0.08822,0.221662 0.04771,0.223562 0.0084,0.21999 -0.02963,0.209659 -0.06567,0.193866 -0.101102,0.171671 -0.134475,0.143972 -0.166455,0.109883 -0.187995,0.06692 -0.195902,0.02083 -0.197921,-0.02251 -0.194338,-0.06417 -0.185348,-0.102422 -0.170659,-0.139041 -0.149953,-0.172559 -0.124032,-0.203799 m -5.058238,-12.48926 -0.193382,0.102498 -0.186056,0.110689 -0.178192,0.11906 -0.170893,0.126369 -0.163135,0.133787 -0.155584,0.140748 -0.1472,0.146959 -0.139514,0.153406 -0.130889,0.159273 -0.122575,0.164513 -0.114137,0.170026 -0.105805,0.174474 -0.09689,0.179305 -0.0881,0.183077 -0.0793,0.186843 -0.07002,0.189929 -0.06108,0.193179 -0.05163,0.19584 -0.04233,0.198129 -0.03245,0.200017 -0.02311,0.201618 -0.01307,0.202978 -0.0033,0.203806 0.0067,0.2042 0.0169,0.204343 0.02701,0.204219 0.03773,0.203674 0.04785,0.202763 0.05907,0.201632 0.06918,0.199836 0.08041,0.197919 0.09148,0.195635 0.101213,0.190671 0.109752,0.183304 0.118034,0.175464 0.12554,0.168467 0.13319,0.16017 0.140031,0.15269 0.14689,0.144396 0.153078,0.136415 0.15911,0.12812 0.164819,0.119986 0.170033,0.111686 0.174934,0.102738 0.179333,0.09444 0.183724,0.08532 0.187499,0.07653 0.191075,0.06742 0.193853,0.05831 0.196956,0.04903 0.199254,0.03975 0.201535,0.03048 0.203003,0.02038 0.204487,0.0111 0.20514,10e-4 0.205968,-0.0088 0.20647,-0.01918 0.205983,-0.02912 0.205993,-0.03969 0.205036,-0.04979 0.203732,-0.06054 0.20227,-0.07079 0.200348,-0.08204 0.19823,-0.09278 0.193356,-0.102552 0.186046,-0.110706 0.17822,-0.119006 0.170879,-0.126329 0.163104,-0.13385 0.15566,-0.140708 0.147142,-0.14703 0.139496,-0.153397 0.130871,-0.159264 0.12266,-0.164522 0.114106,-0.170021 0.105863,-0.174448 0.09684,-0.179313 0.08814,-0.183105 0.07925,-0.186807 0.07007,-0.189964 0.06108,-0.193202 0.05162,-0.195813 0.04233,-0.198084 0.03241,-0.200062 0.02317,-0.201556 0.01305,-0.203014 0.0033,-0.203828 -0.0066,-0.204177 -0.01689,-0.204348 -0.02699,-0.204205 -0.03779,-0.203688 -0.04783,-0.202749 -0.05902,-0.201651 -0.06917,-0.199835 -0.08041,-0.197941 -0.09149,-0.195519 -0.101204,-0.190787 -0.109753,-0.183282 -0.118033,-0.175464 -0.125598,-0.168449 -0.133208,-0.160184 -0.139968,-0.152676 -0.146908,-0.14441 -0.153087,-0.13641 -0.159133,-0.128142 -0.164774,-0.119964 -0.170015,-0.111651 -0.174988,-0.1028 -0.179288,-0.0944 -0.183725,-0.08537 -0.187489,-0.07656 -0.191076,-0.0674 -0.193901,-0.05828 -0.196907,-0.04907 -0.199286,-0.03972 -0.201486,-0.03047 -0.20306,-0.02041 -0.204456,-0.0111 -0.205226,-9.98e-4 -0.20595,0.0087 -0.206452,0.01917 -0.205924,0.02919 -0.206069,0.03965 -0.205005,0.04985 -0.203718,0.06049 -0.202297,0.07074 -0.20034,0.08205 -0.198203,0.09283 m 1.199265,2.404188 -0.200645,0.121319 -0.174374,0.147998 -0.146032,0.170515 -0.116767,0.189218 -0.08582,0.203951 -0.05411,0.214509 -0.02058,0.221365 0.01413,0.224054 0.05027,0.223122 0.08738,0.217576 0.121301,0.200765 0.147962,0.17428 0.170501,0.146073 0.189245,0.116754 0.203925,0.08583 0.214535,0.0541 0.22141,0.02056 0.224045,-0.01412 0.223122,-0.05027 0.217576,-0.08738 0.200676,-0.121256 0.17437,-0.148007 0.146055,-0.170493 0.116708,-0.189222 0.08589,-0.203956 0.05403,-0.214504 0.02062,-0.221441 -0.0142,-0.224041 -0.05015,-0.223073 -0.08745,-0.217651 -0.12123,-0.20069 -0.148087,-0.174329 -0.17043,-0.146087 -0.189285,-0.116677 -0.203849,-0.08583 -0.214611,-0.05409 -0.221352,-0.02056 -0.224067,0.0141 -0.223118,0.05028 -0.217607,0.08731"
     sodipodi:nodetypes="ccccccccccccccccccccccccccccccccccccccccccccccccccccccccccccccccccccccccccccccccccccccccccccccccccccccccccccccccccccccccccccccccccccccccccccccccccccccccccccccccccccccccccccccccccccccccccccccccccccccccccccccccccccccccccccccccccccccccccccccccccccccccccccccccccccccccccccccccccccccccccccccccccccccccccccccccccccccccccccccccccccccccccccccccccccccccccccccccccccccccccccccccccccccccccccccccccccccccc"
     style="fill:#ffffff;fill-opacity:1" />
  <path
     id="shape013"
     fill="#000000"
     fill-rule="evenodd"
     stroke-opacity="0"
     stroke="#000000"
     stroke-width="0"
     stroke-linecap="square"
     stroke-linejoin="bevel"
     d="m 36.250093,81.139828 -1.509359,3.025839 -0.135828,-0.03765 -0.200307,-0.04784 -0.200945,-0.04083 -0.201269,-0.03368 -0.201593,-0.02651 -0.201743,-0.01967 -0.201571,-0.01267 -0.201735,-0.0058 -0.20074,0.0012 -0.20059,0.0082 -0.199914,0.01419 -0.198614,0.02135 -0.19779,0.02787 -0.196491,0.03421 -0.195009,0.04105 -0.193541,0.04707 -0.191576,0.05375 -0.189951,0.06026 -0.187983,0.06612 -0.185373,0.0723 -0.182935,0.07881 -0.180478,0.08451 -0.177544,0.09085 -0.174769,0.09672 -0.171504,0.102403 -0.168251,0.108921 -0.165147,0.114124 -0.161072,0.119821 -0.157649,0.125999 -0.153414,0.131375 -0.149334,0.137064 -0.145085,0.142436 -0.140537,0.147968 -0.135964,0.1535 -0.131242,0.158705 -0.126197,0.164072 -0.07772,0.108509 -3.171466,-1.582001 -0.221672,-0.0882 -0.223588,-0.04765 -0.219968,-0.0084 -0.209676,0.02967 -0.193848,0.06563 -0.171653,0.101066 -0.143973,0.134476 -0.109927,0.166543 -0.06688,0.187906 -0.02083,0.195903 0.02249,0.197956 0.06415,0.194373 0.10244,0.185312 0.139019,0.170704 0.172586,0.1499 0.203808,0.124014 3.190034,1.591263 -3.5e-5,8.77e-4 -0.05514,0.19946 -0.04784,0.200307 -0.04087,0.200994 -0.03366,0.201238 -0.02651,0.201562 -0.01967,0.201734 -0.0127,0.201634 -0.0058,0.201712 0.0012,0.200731 0.0081,0.20063 0.01422,0.199865 0.02135,0.198614 0.02784,0.19783 0.03424,0.196438 0.04104,0.195027 0.04707,0.193564 0.05377,0.19154 0.06024,0.189964 0.06612,0.187982 0.0723,0.185365 0.07882,0.182917 0.0845,0.180496 0.09087,0.17753 0.09667,0.174836 0.102439,0.171455 0.108885,0.1683 0.11415,0.165116 0.119836,0.161023 0.125976,0.157716 0.131384,0.153374 0.137042,0.149379 0.142467,0.145045 0.147972,0.140527 0.153469,0.136005 0.158705,0.131242 0.111795,0.08583 -1.567878,3.143153 -0.08819,0.221642 -0.04768,0.223634 -0.0084,0.21997 0.0297,0.209599 0.06562,0.193877 0.101062,0.171662 0.134479,0.143965 0.166556,0.109903 0.187893,0.0669 0.195899,0.02084 0.197961,-0.0225 0.194388,-0.06418 0.185274,-0.102363 0.170704,-0.139021 0.149923,-0.172631 0.123999,-0.203778 1.548059,-3.103423 0.190748,0.05984 0.199465,0.05513 0.200307,0.04784 0.201017,0.04082 0.201233,0.03366 0.201539,0.02655 0.201757,0.01962 0.201616,0.01274 0.201744,0.0058 0.200708,-0.0011 0.200523,-0.0081 0.199981,-0.01423 0.198587,-0.02129 0.197866,-0.02791 0.196429,-0.03422 0.195036,-0.04106 0.193554,-0.04705 0.191536,-0.05376 0.189965,-0.06024 0.187991,-0.06614 0.185346,-0.07227 0.182926,-0.07884 0.180505,-0.08452 0.177503,-0.09082 0.174859,-0.09672 0.171455,-0.10244 0.168274,-0.108831 0.165137,-0.114195 0.161019,-0.119826 0.157703,-0.12595 0.153405,-0.131447 0.149374,-0.137032 0.145032,-0.14244 0.140509,-0.147937 0.136032,-0.153522 0.131242,-0.158706 0.126183,-0.164023 6.26e-4,-5.82e-4 2.955504,1.474274 0.221633,0.08821 0.223607,0.04773 0.219992,0.0084 0.209581,-0.02967 0.193895,-0.06565 0.17168,-0.101098 0.143965,-0.134478 0.109858,-0.166467 0.06695,-0.187983 0.02083,-0.195899 -0.02252,-0.197924 -0.0642,-0.194353 -0.102345,-0.185309 -0.139043,-0.17066 -0.172605,-0.149976 -0.203769,-0.124018 -2.936891,-1.464989 0.03995,-0.12735 0.05515,-0.19951 0.04784,-0.200307 0.0408,-0.200972 0.03368,-0.201269 0.02656,-0.201557 0.01963,-0.201766 0.01271,-0.201562 0.0058,-0.201761 -0.0011,-0.200727 -0.0081,-0.200559 -0.01424,-0.199953 -0.0213,-0.198579 -0.02793,-0.19783 -0.0342,-0.196474 -0.04107,-0.195018 -0.04706,-0.193536 -0.05374,-0.191572 -0.06025,-0.189946 -0.06614,-0.188 -0.07226,-0.185356 -0.07883,-0.182935 -0.08452,-0.180487 -0.09081,-0.177521 -0.09675,-0.174796 -0.102413,-0.171509 -0.108952,-0.168255 -0.114083,-0.165138 -0.119804,-0.161063 -0.125986,-0.157632 -0.131428,-0.15344 -0.137055,-0.14933 -0.142414,-0.145085 -0.147936,-0.14051 -0.15354,-0.135996 -0.158706,-0.131242 -0.164032,-0.126165 -0.162506,-0.116454 1.489535,-2.986099 0.08822,-0.221662 0.04771,-0.223561 0.0084,-0.219991 -0.02963,-0.209658 -0.06567,-0.193866 -0.101102,-0.171671 -0.134475,-0.143973 -0.166455,-0.109883 -0.187994,-0.06692 -0.195903,-0.02083 -0.19792,0.02251 -0.194338,0.06417 -0.185348,0.102422 -0.170659,0.139041 -0.149954,0.17256 -0.124031,0.203798 m -5.058237,12.489261 -0.193383,-0.102498 -0.186055,-0.110689 -0.178193,-0.11906 -0.170892,-0.126369 -0.163136,-0.133787 -0.155584,-0.140748 -0.1472,-0.146959 L 29.858,92.595856 29.727112,92.436583 29.604536,92.27207 29.490399,92.102044 29.384594,91.92757 l -0.09689,-0.179304 -0.0881,-0.183078 -0.0793,-0.186843 -0.07002,-0.189928 -0.06108,-0.19318 -0.05163,-0.195839 -0.04233,-0.19813 -0.03245,-0.200017 -0.02311,-0.201618 -0.01307,-0.202978 -0.0033,-0.203806 0.0067,-0.204199 0.0169,-0.204344 0.02701,-0.204219 0.03773,-0.203674 0.04785,-0.202763 0.05907,-0.201632 0.06917,-0.199836 0.08041,-0.197919 0.09148,-0.195634 0.101213,-0.190671 0.109752,-0.183305 0.118034,-0.175464 0.12554,-0.168467 0.13319,-0.16017 0.140031,-0.15269 0.14689,-0.144396 0.153078,-0.136415 0.15911,-0.12812 0.164819,-0.119986 0.170033,-0.111686 0.174934,-0.102738 0.179333,-0.09444 0.183724,-0.08532 0.187499,-0.07653 0.191075,-0.06742 0.193853,-0.05831 0.196956,-0.04903 0.199254,-0.03975 0.201535,-0.03047 0.203003,-0.02038 0.204487,-0.0111 0.20514,-0.001 0.205968,0.0088 0.20647,0.01918 0.205983,0.02912 0.205993,0.03969 0.205036,0.04979 0.203732,0.06054 0.20227,0.07079 0.200348,0.08204 0.19823,0.09278 0.193356,0.102552 0.186046,0.110707 0.17822,0.119006 0.170878,0.126329 0.163105,0.133849 0.15566,0.140708 0.147142,0.147031 0.139496,0.153397 0.130871,0.159263 0.12266,0.164522 0.114106,0.170022 0.105863,0.174448 0.09684,0.179313 0.08814,0.183104 0.07925,0.186808 0.07007,0.189964 0.06108,0.193201 0.05162,0.195813 0.04233,0.198085 0.03241,0.200062 0.02317,0.201555 0.01305,0.203014 0.0033,0.203828 -0.0066,0.204177 -0.01689,0.204348 -0.02699,0.204205 -0.03779,0.203688 -0.04783,0.202749 -0.05902,0.201651 -0.06917,0.199836 -0.08041,0.197941 -0.0915,0.195518 -0.101204,0.190788 -0.109752,0.183282 -0.118034,0.175463 -0.125597,0.16845 -0.133209,0.160183 -0.139968,0.152677 -0.146908,0.144409 -0.153087,0.13641 -0.159132,0.128143 -0.164775,0.119964 -0.170015,0.11165 -0.174987,0.102801 -0.179289,0.0944 -0.183724,0.08537 -0.187489,0.07656 -0.191076,0.0674 -0.193902,0.05828 -0.196907,0.04907 -0.199285,0.03972 -0.201486,0.03047 -0.203061,0.0204 -0.204455,0.01111 -0.205226,9.98e-4 -0.20595,-0.0087 -0.206452,-0.01917 -0.205925,-0.02919 -0.206069,-0.03965 -0.205005,-0.04985 -0.203718,-0.0605 -0.202296,-0.07074 -0.20034,-0.08205 -0.198203,-0.09283 M 32.391349,91.225325 32.190704,91.104006 32.01633,90.956008 31.870297,90.785493 31.75353,90.596275 31.66771,90.392324 31.6136,90.177815 31.59302,89.95645 l 0.01413,-0.224054 0.05027,-0.223122 0.08738,-0.217576 0.121301,-0.200766 0.147962,-0.174279 0.170501,-0.146074 0.189245,-0.116753 0.203925,-0.08583 0.214536,-0.0541 0.221409,-0.02056 0.224045,0.01412 0.223122,0.05027 0.217576,0.08738 0.200676,0.121256 0.17437,0.148007 0.146055,0.170492 0.116709,0.189223 0.08589,0.203956 0.05403,0.214504 0.02062,0.221441 -0.0142,0.224041 -0.05015,0.223072 -0.08745,0.217652 -0.12123,0.20069 -0.148087,0.174329 -0.170429,0.146086 -0.189286,0.116678 -0.203848,0.08583 -0.214612,0.05409 -0.221351,0.02056 -0.224068,-0.0141 -0.223117,-0.05028 -0.217607,-0.08731"
     sodipodi:nodetypes="ccccccccccccccccccccccccccccccccccccccccccccccccccccccccccccccccccccccccccccccccccccccccccccccccccccccccccccccccccccccccccccccccccccccccccccccccccccccccccccccccccccccccccccccccccccccccccccccccccccccccccccccccccccccccccccccccccccccccccccccccccccccccccccccccccccccccccccccccccccccccccccccccccccccccccccccccccccccccccccccccccccccccccccccccccccccccccccccccccccccccccccccccccccccccccccccccccccccccc"
     style="fill:#ffffff;fill-opacity:1" />
  <path
     id="shape021"
     fill="#000000"
     fill-rule="evenodd"
     stroke-opacity="0"
     stroke="#000000"
     stroke-width="0"
     stroke-linecap="square"
     stroke-linejoin="bevel"
     d="m 114.34925,69.693442 1.50936,-3.025839 0.13582,0.03765 0.20031,0.04784 0.20094,0.04083 0.20127,0.03368 0.2016,0.02651 0.20174,0.01967 0.20157,0.01267 0.20174,0.0058 0.20074,-0.0012 0.20059,-0.0082 0.19991,-0.01419 0.19861,-0.02135 0.19779,-0.02787 0.1965,-0.03421 0.195,-0.04105 0.19355,-0.04707 0.19157,-0.05375 0.18995,-0.06026 0.18798,-0.06612 0.18538,-0.0723 0.18293,-0.07881 0.18048,-0.08451 0.17754,-0.09085 0.17477,-0.09672 0.17151,-0.102403 0.16825,-0.108921 0.16515,-0.114124 0.16107,-0.119821 0.15765,-0.125999 0.15341,-0.131375 0.14934,-0.137064 0.14508,-0.142436 0.14054,-0.147968 0.13596,-0.1535 0.13124,-0.158705 0.1262,-0.164072 0.0777,-0.108509 3.17146,1.582001 0.22168,0.0882 0.22358,0.04765 0.21997,0.0084 0.20968,-0.02967 0.19385,-0.06563 0.17165,-0.101066 0.14397,-0.134476 0.10993,-0.166543 0.0669,-0.187906 0.0208,-0.195903 -0.0225,-0.197956 -0.0641,-0.194373 -0.10244,-0.185312 -0.13902,-0.170704 -0.17258,-0.1499 -0.20381,-0.124014 -3.19003,-1.591263 3e-5,-8.77e-4 0.0551,-0.19946 0.0478,-0.200307 0.0409,-0.200994 0.0336,-0.201238 0.0265,-0.201562 0.0197,-0.201734 0.0127,-0.201634 0.006,-0.201712 -0.001,-0.200731 -0.008,-0.20063 -0.0142,-0.199865 -0.0213,-0.198614 -0.0278,-0.19783 -0.0342,-0.196438 -0.041,-0.195027 -0.0471,-0.193564 -0.0538,-0.19154 -0.0602,-0.189964 -0.0661,-0.187982 -0.0723,-0.185365 -0.0788,-0.182917 -0.0845,-0.180496 -0.0909,-0.17753 -0.0967,-0.174836 -0.10244,-0.171455 -0.10889,-0.1683 -0.11415,-0.165116 -0.11983,-0.161023 -0.12598,-0.157716 -0.13138,-0.153374 -0.13704,-0.149379 -0.14247,-0.145045 -0.14797,-0.140527 -0.15347,-0.136005 -0.15871,-0.131242 -0.11179,-0.08583 1.56787,-3.143153 0.0882,-0.221642 0.0477,-0.223634 0.008,-0.21997 -0.0297,-0.209599 -0.0656,-0.193877 -0.10106,-0.171662 -0.13448,-0.143965 -0.16656,-0.109903 -0.18789,-0.0669 -0.1959,-0.02084 -0.19796,0.0225 -0.19439,0.06418 -0.18527,0.102363 -0.17071,0.139021 -0.14992,0.172631 -0.124,0.203778 -1.54806,3.103423 -0.19075,-0.05984 -0.19946,-0.05513 -0.20031,-0.04784 -0.20101,-0.04082 -0.20124,-0.03366 -0.20154,-0.02655 -0.20175,-0.01962 -0.20162,-0.01273 -0.20174,-0.0058 -0.20071,0.0011 -0.20052,0.0081 -0.19998,0.01423 -0.19859,0.0213 -0.19787,0.02791 -0.19643,0.03422 -0.19503,0.04106 -0.19356,0.04705 -0.19153,0.05376 -0.18997,0.06024 -0.18799,0.06614 -0.18535,0.07227 -0.18292,0.07884 -0.18051,0.08451 -0.1775,0.09082 -0.17486,0.09672 -0.17145,0.10244 -0.16828,0.108831 -0.16513,0.114195 -0.16102,0.119826 -0.15771,0.12595 -0.1534,0.131447 -0.14938,0.137032 -0.14503,0.14244 -0.14051,0.147937 -0.13603,0.153522 -0.13124,0.158706 -0.12618,0.164023 -6.3e-4,5.82e-4 -2.9555,-1.474274 -0.22164,-0.08821 -0.2236,-0.04773 -0.22,-0.0084 -0.20958,0.02967 -0.19389,0.06565 -0.17168,0.101098 -0.14397,0.134478 -0.10985,0.166467 -0.0669,0.187983 -0.0208,0.195899 0.0225,0.197924 0.0642,0.194353 0.10234,0.185309 0.13904,0.17066 0.17261,0.149976 0.20377,0.124018 2.93689,1.464989 -0.0399,0.12735 -0.0551,0.19951 -0.0478,0.200307 -0.0408,0.200972 -0.0337,0.201269 -0.0266,0.201557 -0.0196,0.201766 -0.0127,0.201562 -0.006,0.201761 0.001,0.200727 0.008,0.200559 0.0142,0.199953 0.0213,0.198579 0.0279,0.19783 0.0342,0.196474 0.0411,0.195018 0.0471,0.193536 0.0537,0.191572 0.0602,0.189946 0.0661,0.188 0.0723,0.185356 0.0788,0.182935 0.0845,0.180487 0.0908,0.177521 0.0968,0.174796 0.10241,0.171509 0.10895,0.168255 0.11409,0.165138 0.1198,0.161063 0.12599,0.157632 0.13142,0.15344 0.13706,0.14933 0.14241,0.145085 0.14795,0.14051 0.15354,0.135996 0.1587,0.131242 0.16403,0.126165 0.1625,0.116454 -1.48953,2.986099 -0.0882,0.221662 -0.0477,0.223561 -0.008,0.219991 0.0296,0.209658 0.0657,0.193866 0.1011,0.171671 0.13448,0.143973 0.16645,0.109883 0.18799,0.06692 0.19591,0.02083 0.19792,-0.02251 0.19433,-0.06417 0.18535,-0.102422 0.17066,-0.139041 0.14995,-0.17256 0.12404,-0.203798 m 5.05823,-12.489261 0.19339,0.102498 0.18605,0.110689 0.17819,0.11906 0.1709,0.126369 0.16313,0.133787 0.15559,0.140748 0.1472,0.146959 0.13951,0.153406 0.13089,0.159273 0.12257,0.164513 0.11414,0.170026 0.10581,0.174474 0.0969,0.179304 0.0881,0.183078 0.0793,0.186843 0.07,0.189928 0.0611,0.19318 0.0516,0.195839 0.0423,0.19813 0.0324,0.200017 0.0231,0.201618 0.0131,0.202978 0.003,0.203806 -0.007,0.204199 -0.0169,0.204344 -0.027,0.204219 -0.0377,0.203674 -0.0479,0.202763 -0.0591,0.201632 -0.0692,0.199836 -0.0804,0.197919 -0.0915,0.195634 -0.10121,0.190671 -0.10976,0.183305 -0.11803,0.175464 -0.12554,0.168467 -0.13319,0.16017 -0.14003,0.15269 -0.14689,0.144396 -0.15308,0.136415 -0.15911,0.12812 -0.16482,0.119986 -0.17003,0.111686 -0.17493,0.102738 -0.17934,0.09444 -0.18372,0.08532 -0.1875,0.07653 -0.19108,0.06742 -0.19385,0.05831 -0.19695,0.04903 -0.19926,0.03975 -0.20153,0.03047 -0.20301,0.02038 -0.20448,0.0111 -0.20514,0.001 -0.20597,-0.0088 -0.20647,-0.01918 -0.20598,-0.02912 -0.206,-0.03969 -0.20503,-0.04979 -0.20374,-0.06054 -0.20227,-0.07079 -0.20034,-0.08204 -0.19823,-0.09278 -0.19336,-0.102552 -0.18605,-0.110707 -0.17822,-0.119006 -0.17087,-0.126329 -0.16311,-0.133849 -0.15566,-0.140708 -0.14714,-0.147031 -0.1395,-0.153397 -0.13087,-0.159263 -0.12266,-0.164522 -0.1141,-0.170022 -0.10587,-0.174448 -0.0968,-0.179313 -0.0881,-0.183104 -0.0792,-0.186808 -0.0701,-0.189964 -0.0611,-0.193201 -0.0516,-0.195813 -0.0423,-0.198085 -0.0324,-0.200062 -0.0232,-0.201555 -0.013,-0.203014 -0.003,-0.203828 0.007,-0.204177 0.0169,-0.204348 0.027,-0.204205 0.0378,-0.203688 0.0478,-0.202749 0.059,-0.201651 0.0692,-0.199836 0.0804,-0.197941 0.0915,-0.195518 0.1012,-0.190788 0.10975,-0.183282 0.11804,-0.175463 0.12559,-0.16845 0.13321,-0.160183 0.13997,-0.152677 0.14691,-0.144409 0.15309,-0.13641 0.15913,-0.128143 0.16477,-0.119964 0.17002,-0.11165 0.17499,-0.102801 0.17928,-0.0944 0.18373,-0.08537 0.18749,-0.07656 0.19107,-0.0674 0.1939,-0.05828 0.19691,-0.04907 0.19929,-0.03972 0.20148,-0.03047 0.20306,-0.02041 0.20446,-0.01111 0.20522,-9.98e-4 0.20596,0.0087 0.20645,0.01917 0.20592,0.02919 0.20607,0.03965 0.20501,0.04985 0.20371,0.06049 0.2023,0.07074 0.20034,0.08205 0.1982,0.09283 m -1.19926,2.404188 0.20064,0.121319 0.17438,0.147998 0.14603,0.170515 0.11677,0.189218 0.0858,0.203951 0.0541,0.214509 0.0206,0.221365 -0.0141,0.224054 -0.0503,0.223122 -0.0874,0.217576 -0.1213,0.200766 -0.14796,0.174279 -0.1705,0.146074 -0.18925,0.116753 -0.20392,0.08583 -0.21454,0.0541 -0.22141,0.02056 -0.22404,-0.01412 -0.22313,-0.05027 -0.21757,-0.08738 -0.20068,-0.121256 -0.17437,-0.148007 -0.14605,-0.170492 -0.11671,-0.189223 -0.0859,-0.203956 -0.054,-0.214504 -0.0206,-0.221441 0.0142,-0.224041 0.0501,-0.223072 0.0874,-0.217652 0.12123,-0.20069 0.14809,-0.174329 0.17043,-0.146086 0.18928,-0.116678 0.20385,-0.08583 0.21461,-0.05409 0.22136,-0.02056 0.22406,0.0141 0.22312,0.05028 0.21761,0.08731"
     sodipodi:nodetypes="ccccccccccccccccccccccccccccccccccccccccccccccccccccccccccccccccccccccccccccccccccccccccccccccccccccccccccccccccccccccccccccccccccccccccccccccccccccccccccccccccccccccccccccccccccccccccccccccccccccccccccccccccccccccccccccccccccccccccccccccccccccccccccccccccccccccccccccccccccccccccccccccccccccccccccccccccccccccccccccccccccccccccccccccccccccccccccccccccccccccccccccccccccccccccccccccccccccccccc"
     style="fill:#ffffff;fill-opacity:1" />
  <path
     id="shape0111"
     fill="#000000"
     fill-rule="evenodd"
     stroke-opacity="0"
     stroke="#000000"
     stroke-width="0"
     stroke-linecap="square"
     stroke-linejoin="bevel"
     d="m 114.37173,81.277066 1.50936,3.025839 0.13582,-0.03765 0.20031,-0.04784 0.20094,-0.04083 0.20127,-0.03368 0.2016,-0.02651 0.20174,-0.01967 0.20157,-0.01267 0.20174,-0.0058 0.20074,0.0012 0.20059,0.0082 0.19991,0.01419 0.19861,0.02135 0.19779,0.02787 0.1965,0.03421 0.195,0.04105 0.19355,0.04707 0.19157,0.05375 0.18995,0.06026 0.18798,0.06612 0.18538,0.0723 0.18293,0.07881 0.18048,0.08451 0.17754,0.09085 0.17477,0.09672 0.17151,0.102403 0.16825,0.108921 0.16515,0.114123 0.16107,0.119822 0.15765,0.125999 0.15341,0.131375 0.14934,0.137064 0.14508,0.142436 0.14054,0.147968 0.13596,0.1535 0.13124,0.158705 0.1262,0.164072 0.0777,0.108509 3.17146,-1.582001 0.22168,-0.0882 0.22358,-0.04765 0.21997,-0.0084 0.20968,0.02967 0.19385,0.06563 0.17165,0.101066 0.14397,0.134475 0.10993,0.166544 0.0669,0.187906 0.0208,0.195902 -0.0225,0.197956 -0.0641,0.194374 -0.10244,0.185312 -0.13902,0.170704 -0.17258,0.1499 -0.20381,0.124014 -3.19003,1.591263 3e-5,8.77e-4 0.0551,0.19946 0.0478,0.200307 0.0409,0.200994 0.0336,0.201238 0.0265,0.201562 0.0197,0.201734 0.0127,0.201634 0.006,0.201712 -0.001,0.200731 -0.008,0.20063 -0.0142,0.199865 -0.0213,0.198614 -0.0278,0.19783 -0.0342,0.196438 -0.041,0.195027 -0.0471,0.193563 -0.0538,0.191541 -0.0602,0.189964 -0.0661,0.187982 -0.0723,0.185365 -0.0788,0.182917 -0.0845,0.180496 -0.0909,0.17753 -0.0967,0.174836 -0.10244,0.171455 -0.10889,0.1683 -0.11415,0.165116 -0.11983,0.161023 -0.12598,0.157716 -0.13138,0.153374 -0.13704,0.149379 -0.14247,0.145044 -0.14797,0.140528 -0.15347,0.136005 -0.15871,0.131242 -0.11179,0.08583 1.56787,3.143153 0.0882,0.221642 0.0477,0.223634 0.008,0.21997 -0.0297,0.209599 -0.0656,0.193877 -0.10106,0.171662 -0.13448,0.143965 -0.16656,0.109903 -0.18789,0.0669 -0.1959,0.02083 -0.19796,-0.0225 -0.19439,-0.06418 -0.18527,-0.102363 -0.17071,-0.139021 -0.14992,-0.172631 -0.124,-0.203778 -1.54806,-3.103423 -0.19075,0.05984 -0.19946,0.05513 -0.20031,0.04784 -0.20101,0.04082 -0.20124,0.03366 -0.20154,0.02655 -0.20175,0.01962 -0.20162,0.01274 -0.20174,0.0058 -0.20071,-0.0011 -0.20052,-0.0081 -0.19998,-0.01423 -0.19859,-0.02129 -0.19787,-0.02791 -0.19643,-0.03422 -0.19503,-0.04106 -0.19356,-0.04705 -0.19153,-0.05376 -0.18997,-0.06024 -0.18799,-0.06614 -0.18535,-0.07227 -0.18292,-0.07884 -0.18051,-0.08451 -0.1775,-0.09082 -0.17486,-0.09672 -0.17145,-0.102439 -0.16828,-0.108831 -0.16513,-0.114195 -0.16102,-0.119826 -0.15771,-0.12595 -0.1534,-0.131447 -0.14938,-0.137033 -0.14503,-0.14244 -0.14051,-0.147936 -0.13603,-0.153523 -0.13124,-0.158705 -0.12618,-0.164023 -6.3e-4,-5.82e-4 -2.9555,1.474274 -0.22164,0.08821 -0.2236,0.04773 -0.22,0.0084 -0.20958,-0.02967 -0.19389,-0.06566 -0.17168,-0.101098 -0.14397,-0.134478 -0.10985,-0.166467 -0.0669,-0.187983 -0.0208,-0.195899 0.0225,-0.197925 0.0642,-0.194352 0.10234,-0.185309 0.13904,-0.17066 0.17261,-0.149976 0.20377,-0.124018 2.93689,-1.464989 -0.0399,-0.127351 -0.0552,-0.199509 -0.0478,-0.200307 -0.0408,-0.200972 -0.0337,-0.201269 -0.0266,-0.201557 -0.0196,-0.201766 -0.0127,-0.201562 -0.006,-0.201762 0.001,-0.200726 0.008,-0.200559 0.0142,-0.199953 0.0213,-0.198579 0.0279,-0.19783 0.0342,-0.196474 0.0411,-0.195018 0.0471,-0.193536 0.0537,-0.191572 0.0602,-0.189946 0.0661,-0.188001 0.0723,-0.185355 0.0788,-0.182935 0.0845,-0.180487 0.0908,-0.177521 0.0968,-0.174796 0.10241,-0.171509 0.10895,-0.168255 0.11409,-0.165138 0.1198,-0.161063 0.12599,-0.157632 0.13142,-0.15344 0.13706,-0.14933 0.14241,-0.145085 0.14794,-0.14051 0.15354,-0.135996 0.1587,-0.131242 0.16403,-0.126165 0.16251,-0.116454 -1.48953,-2.986099 -0.0882,-0.221662 -0.0477,-0.223562 -0.008,-0.21999 0.0296,-0.209658 0.0657,-0.193866 0.1011,-0.171671 0.13448,-0.143973 0.16645,-0.109883 0.18799,-0.06692 0.19591,-0.02083 0.19792,0.02251 0.19433,0.06417 0.18535,0.102422 0.17066,0.139041 0.14995,0.17256 0.12404,0.203798 m 5.05823,12.489261 0.19339,-0.102498 0.18605,-0.11069 0.17819,-0.119059 0.1709,-0.126369 0.16313,-0.133787 0.15559,-0.140748 0.1472,-0.146959 0.13951,-0.153406 0.13089,-0.159273 0.12257,-0.164513 0.11414,-0.170026 0.10581,-0.174474 0.0969,-0.179304 0.0881,-0.183078 0.0793,-0.186843 0.07,-0.189929 0.0611,-0.193179 0.0516,-0.19584 0.0423,-0.198129 0.0324,-0.200017 0.0231,-0.201618 0.0131,-0.202978 0.003,-0.203806 -0.007,-0.204199 -0.0169,-0.204344 -0.027,-0.204219 -0.0377,-0.203674 -0.0478,-0.202763 -0.0591,-0.201632 -0.0692,-0.199836 -0.0804,-0.197919 -0.0915,-0.195634 -0.10121,-0.190671 -0.10976,-0.183305 -0.11803,-0.175464 -0.12554,-0.168467 -0.13319,-0.16017 -0.14003,-0.15269 -0.14689,-0.144396 -0.15308,-0.136415 -0.15911,-0.12812 -0.16482,-0.119986 -0.17003,-0.111686 -0.17493,-0.102738 -0.17934,-0.09444 -0.18372,-0.08532 -0.1875,-0.07653 -0.19108,-0.06742 -0.19385,-0.05831 -0.19695,-0.04903 -0.19926,-0.03975 -0.20153,-0.03048 -0.20301,-0.02038 -0.20448,-0.0111 -0.20514,-10e-4 -0.20597,0.0088 -0.20647,0.01918 -0.20598,0.02912 -0.206,0.03969 -0.20503,0.04979 -0.20374,0.06053 -0.20227,0.07079 -0.20034,0.08204 -0.19823,0.09278 -0.19336,0.102552 -0.18605,0.110707 -0.17822,0.119006 -0.17087,0.126329 -0.16311,0.133849 -0.15566,0.140708 -0.14714,0.147031 -0.1395,0.153397 -0.13087,0.159263 -0.12266,0.164522 -0.1141,0.170022 -0.10587,0.174448 -0.0968,0.179313 -0.0881,0.183104 -0.0792,0.186807 -0.0701,0.189964 -0.0611,0.193202 -0.0516,0.195813 -0.0423,0.198085 -0.0324,0.200062 -0.0232,0.201555 -0.013,0.203014 -0.003,0.203828 0.007,0.204177 0.0169,0.204348 0.027,0.204205 0.0378,0.203688 0.0478,0.202749 0.059,0.201651 0.0692,0.199836 0.0804,0.197941 0.0915,0.195518 0.1012,0.190787 0.10975,0.183283 0.11804,0.175463 0.12559,0.16845 0.13321,0.160183 0.13997,0.152677 0.14691,0.144409 0.15309,0.13641 0.15913,0.128143 0.16477,0.119964 0.17002,0.11165 0.17499,0.102801 0.17928,0.0944 0.18373,0.08537 0.18749,0.07656 0.19107,0.0674 0.1939,0.05828 0.19691,0.04907 0.19929,0.03972 0.20148,0.03047 0.20306,0.0204 0.20446,0.01111 0.20522,9.98e-4 0.20596,-0.0087 0.20645,-0.01917 0.20592,-0.02919 0.20607,-0.03965 0.20501,-0.04985 0.20371,-0.0605 0.2023,-0.07074 0.20034,-0.08205 0.1982,-0.09283 m -1.19926,-2.404189 0.20064,-0.121319 0.17438,-0.147997 0.14603,-0.170515 0.11677,-0.189218 0.0858,-0.203951 0.0541,-0.214509 0.0206,-0.221365 -0.0141,-0.224054 -0.0503,-0.223122 -0.0874,-0.217576 -0.1213,-0.200766 -0.14796,-0.17428 -0.1705,-0.146073 -0.18925,-0.116753 -0.20392,-0.08583 -0.21454,-0.0541 -0.22141,-0.02056 -0.22404,0.01412 -0.22313,0.05027 -0.21757,0.08738 -0.20068,0.121256 -0.17437,0.148007 -0.14605,0.170492 -0.11671,0.189223 -0.0859,0.203956 -0.054,0.214504 -0.0206,0.221441 0.0142,0.22404 0.0501,0.223073 0.0874,0.217652 0.12123,0.20069 0.14809,0.174329 0.17043,0.146086 0.18928,0.116678 0.20385,0.08583 0.21461,0.05409 0.22136,0.02056 0.22406,-0.0141 0.22312,-0.05028 0.21761,-0.08731"
     sodipodi:nodetypes="ccccccccccccccccccccccccccccccccccccccccccccccccccccccccccccccccccccccccccccccccccccccccccccccccccccccccccccccccccccccccccccccccccccccccccccccccccccccccccccccccccccccccccccccccccccccccccccccccccccccccccccccccccccccccccccccccccccccccccccccccccccccccccccccccccccccccccccccccccccccccccccccccccccccccccccccccccccccccccccccccccccccccccccccccccccccccccccccccccccccccccccccccccccccccccccccccccccccccc"
     style="fill:#ffffff;fill-opacity:1" />
</svg>
